<svg width="36" height="22" viewBox="0 0 36 22" fill="none" xmlns="http://www.w3.org/2000/svg">
<path fill="#11E5B3" fill-rule="evenodd" clip-rule="evenodd" d="M14 1.00019C13.2499 1.07945 12.3001 0.847291 12 1.00019C11.662 1.17236 12.1251 1.75754 12 2.00019C11.8293 1.93505 11.9027 2.18895 12 2.00019C11.9333 2.00019 12.0976 2.03742 12 2.00019C12.1801 2.00019 12.8265 2.81493 13 3.00019C13.4129 3.44106 13.9992 5.14421 14 7.00019C14.0009 8.95943 13.3919 9.33402 13 10.0002C12.8164 10.3124 12.4342 11.1929 12 11.0002C11.5609 10.8053 11.5444 9.83058 11 9.00019C10.4403 8.14649 8.6421 5.45801 8 4.00019C7.5078 2.88272 7.46814 2.21473 7 2.00019C6.70383 1.86443 6.63258 1.98401 4 2.00019C2.43754 2.00979 1.15099 1.96063 1 2.00019C0.609094 2.10276 0 2.64845 0 3.00019C0 3.67528 2.33009 8.28852 4 11.0002C5.21612 12.975 6.82653 15.6823 8 17.0002C9.09117 18.2256 11.4181 19.3653 13 20.0002C14.4947 20.6001 15.7481 21.0319 18 21.0002C19.5652 20.9781 19.7003 21.1672 20 21.0002C20.4541 20.7471 20.9334 20.0895 21 19.0002C21.0613 17.9989 20.6833 17.5009 21 17.0002C21.4159 16.3428 22.4193 15.7037 23 16.0002C23.3211 16.1642 23.8409 17.7097 25 19.0002C25.9215 20.0262 26.3156 20.6816 27 21.0002C27.7941 21.3698 27.8381 21.0741 31 21.0002C34.0854 20.928 34.5513 20.4212 35 20.0002C35.5472 19.4866 35.2428 18.5243 34 17.0002C33.4273 16.298 32.6459 15.6224 31 14.0002C29.6671 12.6864 29.0012 12.5449 29 12.0002C28.9989 11.5199 29.3647 11.1786 31 9.00019C32.7345 6.68949 33.5584 4.8833 34 4.00019C34.7375 2.52536 34.7409 2.29762 34 2.00019C33.7516 1.9005 33.7164 1.99601 31 2.00019C29.303 2.0028 28.2165 1.97002 28 2.00019C27.4049 2.08315 26.4488 1.85866 26 3.00019C25.4096 4.50169 24.0696 7.45035 23 9.00019C22.5172 9.69976 22.3671 10.7726 22 11.0002C21.5997 11.2483 21.2761 10.5482 21 10.0002C20.7654 9.53457 19.917 9.02218 20 6.00019C20.0832 2.97388 20.2686 2.62632 20 2.00019C19.6712 1.2335 18.861 0.987986 16 1.00019C15.0978 1.00403 14.2988 0.968651 14 1.00019Z" />
</svg>
