<svg width="100" height="90" viewBox="0 0 100 90" fill="none" xmlns="http://www.w3.org/2000/svg">
<path d="M77.4382 43.8256C77.4358 43.8286 77.4332 43.8319 77.4308 43.8349C74.671 47.3453 72.5215 52.271 72.5215 56.8015C72.5215 62.6387 76.1758 64.6301 80.8265 61.8011C84.6903 59.4224 88.1836 54.2849 89.5147 49.0184C92.5611 37.6525 84.2669 34.9956 77.4382 43.8256ZM85.2603 40.3797C88.3875 40.3797 88.9987 44.2891 88.4617 47.5583C88.4617 47.5605 88.4606 47.5616 88.4606 47.5639C88.2239 48.9612 87.811 50.3642 87.2314 51.7347C85.8562 55.0114 83.4663 58.347 80.5898 60.1144C76.7674 62.443 74.0213 60.9328 74.0213 56.1589C73.999 52.938 75.3376 49.0734 77.6028 45.8301C77.605 45.827 77.6071 45.8247 77.6094 45.8217C77.609 45.8222 77.6098 45.8211 77.6094 45.8217C79.378 43.3498 82.3609 40.3797 85.2603 40.3797Z" fill="black"/>
<path d="M72.5358 63.8397C72.611 63.8074 72.6885 63.7546 72.7635 63.7245C72.2961 63.274 71.7011 62.4092 71.4547 61.9166L15.2355 27.4075C13.4268 26.3112 11.1038 27.0262 9.30289 28.123C4.15365 31.2856 -0.0211496 38.9274 8.06144e-05 45.1527C0.0181258 47.9317 0.850327 49.9627 2.34383 50.8678L60.9142 86.8348C60.6762 85.9168 60.5427 84.5288 60.5427 83.6745C60.5427 75.4635 66.5302 66.3326 72.5358 63.8397Z" fill="black"/>
<path d="M13.0786 24.5668C14.06 24.5363 15.3748 24.8421 16.3235 25.4191L70.4643 58.6531C69.9852 52.5782 72.275 46.8006 75.7494 42.3793C77.0756 40.6536 78.818 38.9856 80.6972 37.8282C80.7028 37.8245 80.7084 37.8196 80.714 37.816L80.7214 37.812C80.727 37.8087 80.7317 37.8048 80.7373 37.8014C81.3456 37.404 82.7148 36.7637 83.6543 36.5195L25.0404 0.53566C23.514 -0.377226 21.4006 -0.118164 19.1067 1.27359C13.9596 4.43617 9.78374 12.0667 9.80391 18.2809C9.83839 23.5918 12.7123 24.1724 13.0786 24.5668Z" fill="black"/>
<path d="M80.139 46.2019L85.677 49.5939C85.7033 49.5158 85.735 49.4394 85.7602 49.3611C85.9952 48.6292 86.1952 47.8905 86.3174 47.1732L86.3196 47.1635C86.5551 45.7321 86.6474 42.6765 85.2603 42.6765C83.5016 42.6765 81.3109 44.7713 80.139 46.2019Z" fill="black"/>
<path d="M90.027 62.1339L95.5481 65.524C96.0303 64.0865 96.329 62.6451 96.3241 61.3245V61.32C96.3241 56.4451 92.4246 59.199 90.027 62.1339Z" fill="black"/>
<path d="M70.3644 72.9882C70.3498 73.0057 70.3364 73.0256 70.3218 73.0433L75.8404 76.4247C76.0448 75.8141 76.6517 74.4639 76.6517 72.2365C76.6517 67.3409 72.6392 70.2588 70.3644 72.9882Z" fill="black"/>
<path d="M92.5527 55.2786C90.1798 56.4442 88.0283 58.6273 86.5319 60.8075C79.9727 70.0091 81.422 83.4189 90.6919 77.7205C95.8263 74.5961 100 66.9554 100 60.6841C99.9604 55.0181 96.531 53.1769 92.5527 55.2786ZM90.4637 76.0562C87.3493 77.9646 84.6152 77.3432 84.0375 73.811C83.06 68.4566 86.8568 60.5002 91.9381 57.3925C95.5232 55.111 98.4964 56.4621 98.498 61.3155C98.518 66.6466 94.8048 73.409 90.4637 76.0562Z" fill="black"/>
<path d="M77.6803 65.7711C75.9933 64.9357 73.8088 65.5509 72.0205 66.6403C67.1812 69.5264 62.7166 77.1865 62.7166 83.6745C62.7166 89.962 66.412 91.4407 71.0248 88.6505C74.6423 86.4232 77.9573 81.7803 79.4646 76.8233C80.6449 73.2136 80.9576 67.3461 77.6803 65.7711ZM78.1449 76.5383C76.9611 80.628 74.1363 84.9299 70.7838 86.9862C67.1112 89.2338 64.1952 87.8789 64.1952 83.0307C64.1952 79.8042 65.5412 75.9362 67.7968 72.6828L67.8027 72.6752L67.8043 72.6716C69.0022 70.9861 70.5225 69.3717 72.2657 68.3225C77.6253 64.7376 80.0957 69.8022 78.1449 76.5383Z" fill="black"/>
</svg>
