<svg width="100" height="90" viewBox="0 0 100 90" fill="none" xmlns="http://www.w3.org/2000/svg">
<path d="M96.4761 52.5657C96.217 52.3463 93.4545 50.6932 90.0485 48.5931C90.3351 47.3038 90.5202 46.0042 90.5202 44.7871C90.5202 41.4812 89.3937 38.9318 87.4191 37.6327C87.0905 37.3165 90.6065 39.5591 27.117 0.801799C24.9756 -0.470941 22.2199 -0.223227 19.3513 1.50757C13.8398 4.87201 9.37406 12.9879 9.39542 19.6035C9.41411 22.5002 10.2463 24.7827 11.7436 26.1928C11.155 26.4245 10.5597 26.7049 9.95491 27.0702C4.44344 30.4346 -0.0222958 38.5612 8.37486e-05 45.1886C0.0224633 48.6481 1.1923 51.2501 3.28784 52.5111C3.59233 52.6969 63.1661 89.0452 63.382 89.1761C65.8172 90.6585 68.7285 89.9651 71.1904 88.4831C75.0509 86.1226 77.9387 82.164 79.6089 77.1609C79.8174 77.2872 82.4101 78.857 82.2017 78.7307C84.6246 80.2605 87.5752 79.5798 90.0401 78.0759C95.5322 74.7563 100 66.6309 100 59.9629C100 59.9607 100 59.9575 100 59.9554C99.9777 56.501 98.7363 53.862 96.4761 52.5657ZM88.2996 53.7625C88.757 52.7978 89.358 51.1832 89.4877 50.7814L91.7063 52.1396C90.6183 52.4447 89.459 52.9768 88.2996 53.7625ZM80.0079 65.403C79.6613 64.7585 79.0249 64.0101 78.8147 63.8078C79.3104 63.6111 80.3234 63.1189 81.1401 62.5617C80.7274 63.4488 80.1955 64.8438 80.0079 65.403ZM88.4369 44.7871C88.4369 50.5738 84.5205 57.9825 79.542 61.0274C75.5962 63.412 72.7716 62.5859 71.6614 57.5818C70.3912 51.4155 76.7071 40.4849 82.9854 39.0259C86.687 38.1141 88.4369 41.2882 88.4369 44.7871ZM20.3939 3.40067C22.5922 2.07561 24.6176 1.82896 26.0804 2.6981L82.252 36.9574C80.5619 37.3939 78.7663 38.4874 77.4312 39.6481C75.1606 41.5564 72.801 44.6719 71.1894 48.4634C69.5902 52.3449 69.2439 55.9898 69.6076 57.9502C69.6086 57.9769 69.6096 58.0046 69.6116 58.0303L17.7267 26.389C16.8265 25.845 15.5642 25.5483 14.617 25.5775L13.7259 25.0319C12.2936 24.1713 11.496 22.2387 11.4788 19.5929C11.4594 13.6766 15.4613 6.41168 20.3939 3.40067ZM4.32951 50.618C2.89823 49.7564 2.10071 47.8227 2.08342 45.1769C2.06307 39.2499 6.06392 31.9743 10.9986 28.9633C12.7243 27.9191 14.9506 27.2383 16.684 28.2821L70.5607 61.1374C70.7866 61.5859 71.3491 62.4125 71.815 62.8586C69.7556 63.6825 68.0345 65.0733 66.5342 66.6689C61.2125 72.3218 59.2534 80.2442 60.4594 84.8614L4.32951 50.618ZM70.1487 86.59C66.1016 89.025 63.1167 87.6953 62.3757 83.835C61.5734 79.8651 63.4557 73.0867 67.9624 68.2609C72.9569 62.8992 78.7522 63.0373 79.0197 69.8641C79.0202 69.8776 79.0238 69.8887 79.0243 69.9022C79.0243 69.9019 79.0243 69.9024 79.0243 69.9022C78.372 77.4573 75.1342 83.5407 70.1487 86.59ZM88.9964 76.1839C86.1636 77.9139 83.0142 78.0414 81.7027 74.9368C80.8478 73.1421 81.0981 71.3725 81.1249 70.1615C81.5338 65.6748 83.8644 60.4496 88.1907 56.5312C89.7691 55.2087 92.213 53.7966 94.1409 54.0508L94.1497 54.052C96.933 54.4212 97.8967 57.1255 97.9167 59.9639C97.9167 65.9347 93.9168 73.2092 88.9964 76.1839Z" fill="black"/>
<path d="M93.2607 55.8169C88.8614 55.8169 82.4438 63.5401 82.4728 70.8388C82.4728 75.438 85.2121 76.77 88.7777 74.5994C92.9205 72.0896 96.4966 65.6665 96.4773 60.5651C96.4763 57.5914 95.2739 55.8169 93.2607 55.8169ZM91.2496 58.7136C94.9549 56.3692 94.9345 60.7687 93.6503 64.5719L88.3592 61.3443C89.2468 60.2649 90.2228 59.3373 91.2496 58.7136ZM87.734 72.7063C85.2926 74.1931 84.5561 73.3263 84.5561 70.8346C84.5468 68.4008 85.5704 65.537 87.0987 63.1044L92.8187 66.5936C91.5765 69.1601 89.7386 71.4924 87.734 72.7063Z" fill="black"/>
<path d="M69.0165 69.0707C65.038 72.9782 63.0317 79.1691 63.7645 82.8701C64.3329 86.308 67.0437 86.753 69.9178 85.0055C73.5293 82.8049 76.3522 77.9968 77.241 74.0869C79.0994 66.0816 74.2377 63.7723 69.0165 69.0707ZM75.2157 73.5744C75.1058 74.0568 74.9737 74.5287 74.8201 74.9844L69.4705 71.728C69.7908 71.3427 70.1214 70.9807 70.4529 70.6552C74.5483 66.4988 76.415 68.4148 75.2157 73.5744ZM68.8731 83.1146C67.3363 84.047 66.1135 84.2893 65.8112 82.4611C65.2527 79.6563 66.6958 75.9176 68.2046 73.486C68.4156 73.6145 74.3592 77.2327 73.9817 77.0029C72.6919 79.6786 70.8252 81.9241 68.8731 83.1146Z" fill="black"/>
<path d="M82.6325 40.8323C81.4105 41.1103 80.1196 41.9707 79.1738 42.782C75.0316 46.3366 72.2689 53.0606 73.1608 57.2839C73.6545 60.2831 75.9334 61.4683 79.3152 59.4215C82.0749 57.737 84.3619 54.564 85.6802 51.4434C86.664 49.1323 87.0199 47.1903 87.0199 45.4C87.0199 41.2542 84.6471 40.0294 82.6325 40.8323ZM84.9366 45.4C84.9366 46.5456 84.805 47.5288 84.2703 49.1836C84.2461 49.2582 84.2157 49.3309 84.1905 49.4052L78.8833 46.1757C79.1851 45.8097 79.7032 45.1525 80.4922 44.4754C83.0485 42.2789 84.9366 41.9047 84.9366 45.4ZM75.2045 56.8643C74.6481 54.1568 76.1534 50.3083 77.631 47.9422C77.9362 48.1279 83.6824 51.6245 83.343 51.4179C81.8318 54.5324 79.9306 56.5166 78.2705 57.5295C76.6397 58.5179 75.5091 58.7025 75.2045 56.8643Z" fill="black"/>
</svg>
