<svg width="100" height="89" viewBox="0 0 100 89" fill="none" xmlns="http://www.w3.org/2000/svg">
<g filter="url(#filter0_d_1_18)">
<path d="M75.2432 39.443C75.241 39.4458 75.2385 39.4487 75.2363 39.4515C72.6973 42.6108 70.7197 47.0439 70.7197 51.1214C70.7197 56.3749 74.0817 58.1671 78.3604 55.621C81.915 53.4802 85.1289 48.8564 86.3535 44.1166C89.1562 33.8872 81.5256 31.4961 75.2432 39.443ZM82.4395 36.3417C85.3165 36.3417 85.8788 39.8602 85.3848 42.8024C85.3848 42.8045 85.3838 42.8055 85.3838 42.8075C85.166 44.0651 84.7861 45.3278 84.2529 46.5612C82.9877 49.5103 80.789 52.5123 78.1426 54.103C74.6261 56.1987 72.0996 54.8395 72.0996 50.543C72.0791 47.6442 73.3106 44.1661 75.3945 41.2471C75.3966 41.2443 75.3986 41.2423 75.4007 41.2395C75.4003 41.24 75.401 41.239 75.4007 41.2395C77.0277 39.0148 79.772 36.3417 82.4395 36.3417Z" fill="black"/>
<path d="M70.7329 57.4557C70.8022 57.4267 70.8734 57.3791 70.9424 57.352C70.5124 56.9466 69.965 56.1682 69.7383 55.725L18.0167 24.6667C16.3527 23.6801 14.2155 24.3235 12.5587 25.3107C7.82136 28.157 3.98054 35.0346 4.00007 40.6374C4.01668 43.1386 4.7823 44.9665 6.15632 45.781L60.041 78.1513C59.8221 77.3251 59.6992 76.0759 59.6992 75.307C59.6992 67.9172 65.2078 59.6993 70.7329 57.4557Z" fill="black"/>
<path d="M16.0323 22.1101C16.9352 22.0827 18.1448 22.3578 19.0176 22.8772L68.8272 52.7878C68.3863 47.3204 70.4931 42.1205 73.6895 38.1414C74.9095 36.5882 76.5126 35.087 78.2415 34.0454C78.2466 34.0421 78.2517 34.0377 78.2569 34.0344L78.2637 34.0308C78.2688 34.0278 78.2732 34.0243 78.2783 34.0213C78.838 33.6636 80.0977 33.0873 80.9619 32.8676L27.0372 0.482094C25.6329 -0.339504 23.6885 -0.106348 21.5782 1.14623C16.8428 3.99256 13.001 10.8601 13.0196 16.4528C13.0513 21.2326 15.6953 21.7551 16.0323 22.1101Z" fill="black"/>
<path d="M77.7279 41.5817L82.8229 44.6345C82.8471 44.5643 82.8762 44.4955 82.8994 44.425C83.1156 43.7663 83.2996 43.1015 83.412 42.4559L83.4141 42.4472C83.6307 41.1589 83.7156 38.4088 82.4395 38.4088C80.8214 38.4088 78.806 40.2942 77.7279 41.5817Z" fill="black"/>
<path d="M86.8248 55.9205L91.9043 58.9716C92.3479 57.6779 92.6227 56.3806 92.6182 55.192V55.188C92.6182 50.8006 89.0306 53.2791 86.8248 55.9205Z" fill="black"/>
<path d="M68.7352 65.6894C68.7218 65.7051 68.7095 65.723 68.6961 65.7389L73.7732 68.7822C73.9612 68.2327 74.5195 67.0175 74.5195 65.0129C74.5195 60.6068 70.8281 63.2329 68.7352 65.6894Z" fill="black"/>
<path d="M89.1485 49.7507C86.9654 50.7998 84.9861 52.7646 83.6094 54.7267C77.5749 63.0083 78.9083 75.077 87.4365 69.9485C92.1602 67.1365 96 60.2599 96 54.6157C95.9636 49.5163 92.8085 47.8593 89.1485 49.7507ZM87.2266 68.4506C84.3614 70.1682 81.846 69.6089 81.3145 66.43C80.4152 61.611 83.9082 54.4502 88.583 51.6533C91.8813 49.6 94.6167 50.8159 94.6182 55.184C94.6366 59.982 91.2204 66.0682 87.2266 68.4506Z" fill="black"/>
<path d="M75.4658 59.194C73.9138 58.4421 71.9041 58.9958 70.2588 59.9763C65.8067 62.5738 61.6992 69.4679 61.6992 75.307C61.6992 80.9658 65.099 82.2966 69.3428 79.7855C72.6709 77.7809 75.7207 73.6023 77.1074 69.141C78.1933 65.8923 78.481 60.6115 75.4658 59.194ZM75.8933 68.8845C74.8042 72.5652 72.2054 76.4369 69.1211 78.2876C65.7423 80.3104 63.0596 79.0911 63.0596 74.7277C63.0596 71.8238 64.2979 68.3426 66.3731 65.4146L66.3784 65.4078L66.3799 65.4045C67.482 63.8876 68.8807 62.4346 70.4844 61.4903C75.4152 58.2639 77.6881 62.822 75.8933 68.8845Z" fill="black"/>
<rect x="15.8195" y="7.24338" width="0.732357" height="65.542" transform="rotate(-59 15.8195 7.24338)" fill="white"/>
<rect x="5.94561" y="30.7183" width="0.837959" height="66.5616" transform="rotate(-59 5.94561 30.7183)" fill="white"/>
</g>
<defs>
<filter id="filter0_d_1_18" x="0" y="0" width="100" height="89" filterUnits="userSpaceOnUse" color-interpolation-filters="sRGB">
<feFlood flood-opacity="0" result="BackgroundImageFix"/>
<feColorMatrix in="SourceAlpha" type="matrix" values="0 0 0 0 0 0 0 0 0 0 0 0 0 0 0 0 0 0 127 0" result="hardAlpha"/>
<feOffset dy="4"/>
<feGaussianBlur stdDeviation="2"/>
<feComposite in2="hardAlpha" operator="out"/>
<feColorMatrix type="matrix" values="0 0 0 0 0 0 0 0 0 0 0 0 0 0 0 0 0 0 0.25 0"/>
<feBlend mode="normal" in2="BackgroundImageFix" result="effect1_dropShadow_1_18"/>
<feBlend mode="normal" in="SourceGraphic" in2="effect1_dropShadow_1_18" result="shape"/>
</filter>
</defs>
</svg>
