<svg width="227" height="36" viewBox="0 0 227 36" fill="none" xmlns="http://www.w3.org/2000/svg">
<path fill-rule="evenodd" clip-rule="evenodd" d="M87 1C86.4278 1.32429 86.6492 3.77268 87 5C87.2139 5.74876 87.6447 6 89 6H90V27C90.349 27.3188 90.6049 28 92 28C92.874 28 93.8272 28.0898 94 28C94.5753 27.7008 95 26.6129 95 23V19H97C99.4455 19.0504 100.567 19.6903 101 20C101.267 20.1905 101.655 22.0782 103 24C104.345 25.9218 105.799 26.8392 106 27C106.302 27.2415 107.334 28 109 28C111.2 28 111 27.8643 111 27C111 26.5059 106.113 19.1029 105 18L104 17H105C105.466 16.5941 109.679 9.73807 110 9C110.266 8.38784 110.564 7.29323 110 7C109.535 6.75788 105.524 6.74819 105 7C104.742 7.12391 104.349 9.01491 103 11C101.765 12.8164 100.23 13.8427 100 14C99.6633 14.2306 99.0432 14.9506 97 15H95V9C95 2.72661 94.6263 1.32579 94 1C93.5865 0.78493 87.3824 0.783427 87 1ZM68 7C63.3474 7.53502 61.2683 9.75034 61 13C60.8179 15.2054 61.8262 16.8972 64 18C65.6495 18.8368 66.9685 19.4962 71 20C76.0559 20.6317 77 20.8563 77 22C77 23.2537 74.4572 23.1556 71 23C67.7315 22.8527 64.9742 22.2277 63 21C61.9919 20.373 61.4717 20.655 61 21C60.6333 21.2683 60 23.4792 60 24C60 25.2462 62.2418 27.0981 66 28C67.4394 28.3455 68.0454 28.0079 71 28C73.8524 27.9925 74.8818 28.2987 76 28C79.8137 26.9814 81.9768 24.7484 82 22C82.0139 20.3445 81.9234 18.9984 81 18C79.529 16.4093 77.3225 15.6783 72 15C66.8541 14.3443 65.8863 14.1049 66 13C66.0687 12.3334 66.6016 12.3438 68 12C69.8431 11.5468 74.0976 11.4553 76 12C76.2278 12.0653 77 12.4393 77 13C77 14.1782 77.1691 14.003 79 14C79.8267 13.9985 79.8961 14.0675 80 14C80.4363 13.7168 81.0007 12.6394 81 11C80.9995 9.59801 81.2674 9.42648 81 9C79.9903 7.39045 72.7947 6.44863 68 7ZM152 7C149.33 7.37755 146.799 8.25269 145 10C142.943 11.9983 143 13.8919 143 17C143 20.685 144.058 24.0523 147 26C149.338 27.5479 152.376 28.1641 156 28C159.388 27.8464 162.319 26.4347 164 25C164.793 24.3227 164.805 24.4893 164 23C163.228 21.5718 163.14 21.3416 162 22C159.696 23.3305 157.685 23.8701 155 24C151.98 24.1463 150.517 23.4165 149 22C148.38 21.4212 147 20.3732 147 20C147 19.8901 150.09 19.0311 156 19H165H166C166.318 18.6201 166.08 18.6713 166 17C165.902 14.9548 166.01 13.6197 165 12C162.782 8.44259 157.188 6.26645 152 7ZM185 7C183.202 7.33113 181.367 8.10898 180 9L178 10V9C177.884 7.44055 178.527 7 175 7C171.317 7 171.085 6.88717 171 9C170.92 10.9916 171.239 11.8835 173 12H174V19C174.082 26.4141 174.681 26.7731 175 27C175.234 27.1665 175.816 28 177 28C179.573 28 179 28.3217 179 21V15L180 14C181.332 12.957 183.434 12.2366 185 12C187.471 11.6266 189.974 12.4931 191 14C191.82 15.2046 191.997 16.126 192 22C192.003 28.528 191.407 28 194 28C196.613 28 197 28.4112 197 21C197 15.4204 196.308 14.1699 196 13C195.146 9.75318 193.263 7.84811 190 7C188.615 6.64016 186.532 6.7178 185 7ZM213 7C208.238 7.67445 204.881 10.957 204 15C203.497 17.3059 204.032 20.132 205 22C206.368 24.6415 208.591 26.3162 212 27C214.911 27.5839 217.776 27.0116 220 26H221V27C221 28.1756 221.404 28.5331 221 29C220.446 29.6404 219.212 29.75 218 30C216.694 30.2693 213.532 30.3078 212 30C210.533 29.7054 209.369 29.9498 208 29C207.028 28.3257 206.479 27.6498 206 28C205.653 28.2543 205 30.5201 205 31C205 32.6308 208.878 34.5341 213 35C217.761 35.538 221.688 34.2613 224 32C224.545 31.4672 225.768 30.4592 226 30V29V19C226.057 6.50031 226.027 7.11138 224 7C222.621 6.92436 222.459 7.24424 222 8L221 9L220 8C217.991 7.00579 215.656 6.62396 213 7ZM115 7C114.635 7.19237 113.999 7.58522 114 8C114.001 8.38156 115.525 11.6179 119 18C121.692 22.944 124 26.9113 124 27C124 27.0888 124.143 27.7305 124 28C123.58 28.789 122.96 29 121 29C119.357 29 118.276 28.5877 118 29C117.781 29.3276 117.877 31.2035 118 32C118.204 33.3252 118.349 33 121 33C124.559 33 125.62 32.0544 127 30C127.411 29.3872 130.9 24.7285 134 19C138.963 9.82979 139.138 8.3829 139 8C138.762 7.34326 138.743 7.00268 137 7C134.306 6.99566 134.387 6.27325 131 13C129.377 16.2238 128.317 19.3112 128 20C127.683 20.6888 127.054 21.936 127 22C126.946 22.064 126.374 21.7987 126 21C125.626 20.2013 124.582 16.1486 123 13C120.287 7.5991 119.569 7.23094 119 7C118.179 6.66671 115.644 6.66053 115 7ZM157 12C159.046 12.4215 160.224 13.5115 161 15C161 14.9509 161.229 15.439 161 15C161 15.0489 157.873 15 154 15C146.163 15 147.356 15.2273 148 14C148.4 13.2379 149.022 12.4849 150 12C151.571 11.2209 154.841 11.5552 157 12ZM218 12C218.76 12.2303 219.463 12.5406 220 13L221 14V21H220C218.651 22.0002 217.416 21.9881 215 22C213.285 22.0084 212.686 22.254 212 22C209.517 21.0804 208.988 19.5046 209 17C209.009 15.0819 209.313 12.9608 211 12C212.647 11.0616 215.688 11.2993 218 12Z" fill="white"/>
<path d="M47 15C48.7526 16.042 48.7526 18.9581 47 20L24 33C21.4819 34.4971 19 32.8694 19 30V5C19 2.13059 21.4819 0.502914 24 2L47 15Z" fill="#6FE4FF"/>
<path d="M29 15C30.7526 16.042 30.7526 18.9581 29 20L6 33C3.4819 34.4971 -1.29022e-07 32.8694 0 30V5C1.29022e-07 2.13059 3.48191 0.502914 6 2L29 15Z" fill="#00C1FF"/>
<path d="M29 20C30.7526 18.9581 30.7526 16.042 29 15L19 9V26L29 20Z" fill="#009EE4"/>
</svg>
