<svg width="152" height="52" viewBox="0 0 152 52" fill="none" xmlns="http://www.w3.org/2000/svg">
<path fill-rule="evenodd" clip-rule="evenodd" d="M120 1.0001C118.819 1.31618 117.971 2.03689 117 3.0001C116.285 3.70937 115.306 4.36299 115 5.0001C114.261 6.5399 115.002 5.36711 115 27.0001C114.998 46.1177 114.796 46.2037 115 47.0001C115.434 48.6927 116.537 50.1394 118 51.0001C119.939 52.1408 122.027 51.9312 124 51.0001C124.594 50.7197 128.185 49.5167 146 39.0001C148.97 37.2471 150.953 36.0469 151 36.0001C151.075 35.9266 147.189 33.0001 147 33.0001C146.962 33.0001 141.703 36.0131 135 40.0001C128.297 43.987 122.192 47.9199 122 48.0001C121.45 48.2292 120.614 48.2865 120 48.0001C119.349 47.6963 119.152 46.5454 119 46.0001C118.921 45.7176 119 39.3928 119 26.0001C118.999 8.90125 118.856 7.3428 119 7.0001C119.553 5.67887 120.714 4.60586 122 5.0001C122.595 5.18275 145.425 19.4624 146 20.0001C147.134 21.06 147.055 21.9064 146 23.0001C145.678 23.3345 143.12 25.3853 137 29.0001C132.376 31.7314 128.188 33.9649 128 34.0001C127.552 34.0841 127.185 33.4427 127 33.0001C126.775 32.4626 126.775 20.5382 127 20.0001C127.203 19.5147 127.476 18.8433 128 19.0001C128.219 19.0655 130.166 20.7996 132 22.0001C133.834 23.2005 135.942 23.9784 136 24.0001C136.097 24.0361 138.786 22.2137 139 22.0001C139.1 21.9003 129.801 15.3597 129 15.0001C128.261 14.6683 126.872 14.7061 126 15.0001C124.886 15.3757 124.612 15.9585 124 17.0001C123.437 17.9593 123.001 17.7971 123 26.0001C122.999 30.295 122.943 34.6504 123 35.0001C123.392 37.387 125.667 38.4057 128 38.0001C128.387 37.9328 129.706 38.1488 130 38.0001C130.907 37.5416 147.301 27.4932 148 27.0001C149.909 25.653 151.326 23.3774 151 21.0001C150.783 19.4186 150.096 17.9836 149 17.0001C148.505 16.5561 125.135 2.56675 124 2.0001C123.705 1.85274 123.354 1.09148 123 1.0001C122.188 0.790093 120.791 0.788614 120 1.0001ZM5 8.0001C4.7112 11.828 4.40642 15.0934 4 17.0001C3.75037 18.1708 2.67066 19.76 2 21.0001V22.0001H1H0V25.0001V28.0001H2H3V26.0001V24.0001H9H15V26.0001V28.0001H16H18V25.0001V22.0001H16H15V14.0001V7.0001H10H5V8.0001ZM12 16.0001V22.0001H9C5.86307 22.0265 4.92738 22.1762 5 22.0001C5.4637 20.875 6.80044 18.7848 7 18.0001C7.32035 16.7408 7.74687 14.4674 8 12.0001C8.11116 10.9164 7.95977 10.0652 8 10.0001C8.05103 9.91781 8.58742 9.98014 10 10.0001H12V16.0001ZM24 11.0001C22.6166 11.2728 21.7998 11.2453 21 12.0001C19.9784 12.9643 19.2533 14.2711 19 16.0001C18.8402 17.0904 18.7702 19.1531 19 20.0001C19.5422 21.9988 21.0589 23.4251 23 24.0001C24.4766 24.4376 27.7447 24.4701 30 24.0001C31.007 23.7903 31.0488 24.205 31 24.0001C30.971 23.8779 30.0997 23.523 30 23.0001C29.9003 22.4772 30.0454 22.0506 30 22.0001C29.9538 21.9488 29.5372 21.9016 29 22.0001C26.7114 22.4198 25.0659 22.4576 24 22.0001C23.0468 21.591 22 20.1539 22 19.0001H27H31V17.0001C30.9604 16.2883 31.0588 15.3487 31 15.0001C30.618 12.732 29.7695 11.5577 28 11.0001C27.1036 10.7176 25.0229 10.7985 24 11.0001ZM52 11.0001C50.8651 11.2442 49.8439 12.1468 49 13.0001C48.1587 13.8509 48.3431 14.7127 48 16.0001C47.6871 17.1744 47.686 18.8091 48 20.0001C48.619 22.3476 49.7657 23.4709 52 24.0001C52.9781 24.2319 55.0926 24.2298 56 24.0001C58.4355 23.3838 59.4748 22.476 60 20.0001C60.2469 18.8363 60.3233 16.013 60 15.0001C59.4521 13.2839 58.3513 11.6636 57 11.0001C55.6642 10.3441 53.6147 10.6528 52 11.0001ZM80 11.0001C78.3826 11.2673 77 11.752 77 12.0001C77 12.1273 76.9441 13.9101 77 14.0001C77.0072 14.0117 78.3033 14.1442 79 14.0001C80.4255 13.7054 82.2676 13.7812 83 14.0001C83.8522 14.2549 84 14.7873 84 16.0001L83 17.0001C82.3796 17.038 81.4598 17.0001 81 17.0001C78.8347 17.0001 76.6932 17.6442 76 19.0001C75.3416 20.2878 76.1149 21.9292 77 23.0001C78.1886 24.4381 80.8669 25.0467 83 24.0001C83.4522 23.7783 83.799 23.142 84 23.0001C84.4851 23.7183 85.4834 23.9139 87 24.0001H88C88.0354 23.7458 87.9888 23.435 88 23.0001V22.0001C87.7624 21.9532 87.0779 22.0937 87 22.0001C86.8897 21.8676 87.0458 20.0934 87 17.0001C86.9597 14.2795 87.0895 13.2697 87 13.0001C86.6627 11.9843 85.3283 11.3079 84 11.0001C82.9964 10.7674 81.083 10.8212 80 11.0001ZM36 12.0001C35.8352 15.1111 35.4219 18.6464 35 20.0001C34.7077 20.9381 34.0805 21.4798 33 22.0001C32.5924 22.1964 32.0258 21.9807 32 22.0001C31.9741 22.0196 31.773 22.3045 32 23.0001C32.3049 23.9345 32.8717 25.0001 33 25.0001C33.2602 25.0001 34.3504 24.3285 35 24.0001C35.7678 23.6119 36.6027 22.744 37 22.0001C37.6323 20.8164 37.6157 18.4773 38 15.0001V14.0001H40H42V19.0001V24.0001H43H45V18.0001V11.0001H40H36V12.0001ZM63 18.0001V24.0001H67C70.5402 23.9617 70.2969 24.2291 71 24.0001C72.8666 23.3923 73.9627 22.6373 74 21.0001C74.0319 19.5988 74.0752 18.5366 73 18.0001C72.2355 17.6186 71.8144 17.0657 72 17.0001C72.083 16.9707 72.7504 17.2298 73 17.0001C74.2651 15.8366 73.3721 13.1721 72 12.0001C71.0252 11.1676 70.1721 11.0011 66 11.0001H63V18.0001ZM95 11.0001C92.9257 11.4439 91.27 13.0975 91 15.0001C90.762 16.6764 91.7171 18.1706 93 19.0001C93 18.9777 93.2878 19.1862 93 19.0001C93 19.1137 92.3116 20.6897 92 21.0001C91.6019 21.3965 90.6041 21.8909 90 22.0001C89.6656 22.0606 89.9588 21.8091 90 22.0001C90.0268 22.1244 89.9364 22.5353 90 23.0001C90.1674 24.223 90.5507 25.0022 91 25.0001C91.6378 24.997 92.4016 24.3028 93 24.0001C93.8104 23.5904 94.9951 22.4323 96 21.0001L97 20.0001H98H99V22.0001V24.0001H100H102V18.0001V11.0001H99C96.7411 11.0064 95.542 10.8841 95 11.0001ZM26 13.0001C26.9232 13.256 27.8424 14.6098 28 16.0001H25H22C22.2578 14.4678 22.9492 13.3281 24 13.0001C24.5468 12.8294 25.4815 12.8564 26 13.0001ZM55 13.0001C55.4905 13.1239 56.7095 14.432 57 15.0001C57.6742 16.3188 57.6734 18.683 57 20.0001C56.4713 21.0343 55.3946 22.0076 54 22.0001C52.9176 21.9943 52.6388 21.576 52 21.0001C50.5318 19.6766 50.5705 15.5342 52 14.0001C52.7721 13.1716 53.555 12.6353 55 13.0001ZM69 13.0001C69.3561 13.0764 69.7557 13.7702 70 14.0001C70.3283 14.3091 70 14.5119 70 15.0001C70 15.7414 69.6083 15.7019 69 16.0001C68.5673 16.2122 69.1547 16.968 68 17.0001H66V15.0001V13.0001H67C67.6085 13.0001 68.7047 12.9369 69 13.0001ZM99 16.0001V18.0001H98C96.3877 17.9993 95.4477 17.8669 95 17.0001C94.5531 16.1351 94.2242 14.5123 95 14.0001C95.4655 13.6927 96.7956 13.0172 98 13.0001H99V16.0001ZM70 19.0001C71.046 19.3101 71.4595 19.9905 71 21.0001C70.8484 21.3334 70.3947 21.8095 70 22.0001C69.5501 22.2175 69.3692 21.9613 68 22.0001H66V20.0001C66 19.073 65.9563 19.0457 66 19.0001C66.1223 18.8723 69.4184 18.8277 70 19.0001ZM84 20.0001V21.0001H83C81.3676 21.6039 80.6814 22.4456 80 22.0001C79.0033 21.3484 78.8714 19.5721 80 19.0001C80.4967 18.7485 80.9413 19.0601 83 19.0001H84V20.0001ZM39 29.0001C37.0003 29.4009 35.8519 30.3121 35 32.0001C34.4005 33.188 34.0036 34.2107 34 36.0001C33.9923 39.8344 34.9698 42.1815 38 43.0001C39.1569 43.3127 42.7167 43.2852 44 43.0001C44.4619 42.8975 44.983 42.0172 45 42.0001C45.0306 41.9697 44.0461 40.0568 44 40.0001C43.9871 39.9841 43.5469 39.9053 43 40.0001C41.7483 40.217 39.8444 40.2844 39 40.0001C38.1251 39.7056 37.2814 38.9167 37 38.0001C36.7303 37.1218 36.764 34.8847 37 34.0001C37.2823 32.9418 38.163 32.349 39 32.0001C39.9877 31.5883 41.694 31.5518 43 32.0001H44V31.0001C44.2392 30.3595 45.0292 30.0473 45 30.0001C44.9036 29.8444 43.8083 29.1464 43 29.0001C42.0124 28.8213 39.9096 28.8179 39 29.0001ZM53 29.0001C52.3916 29.1483 51.4412 29.6866 51 30.0001C50.8339 30.1181 50.0346 30.0001 50 30.0001C49.9653 30.0001 50 30.2616 50 30.0001V29.0001H48H47V39.0001V48.0001H48H50V45.0001V43.0001H52C53.4449 42.9998 53.455 43.1531 54 43.0001C56.3024 42.354 58.2648 40.3497 59 38.0001C59.2241 37.284 59.003 36.8144 59 35.0001C58.9969 33.1204 59.2589 33.7663 59 33.0001C58.3395 31.0452 56.9783 29.3778 55 29.0001C54.0564 28.82 53.725 28.8235 53 29.0001ZM66 29.0001C63.5741 29.347 61.6818 31.5055 61 34.0001C60.6973 35.1076 60.7187 37.8913 61 39.0001C61.5591 41.2044 62.766 42.5224 65 43.0001C65.9761 43.2088 68.7851 43.1876 70 43.0001C70.7604 42.8827 71.9169 42.0652 72 42.0001C72.0178 41.9861 72.1317 41.6746 72 41.0001C71.7283 39.6092 72.1809 39.7522 71 40.0001C69.1841 40.3812 67.2021 40.3478 66 40.0001C65.0025 39.7117 64.1239 39.1828 64 38.0001V37.0001H69H73V36.0001C72.9718 33.592 72.0761 31.0739 71 30.0001C69.8847 28.8872 68.2707 28.6754 66 29.0001ZM95 29.0001C94.2712 29.1001 92.571 29.7813 92 30.0001C91.8398 30.0614 92 29.9339 92 30.0001C92 30.1968 91.925 31.9278 92 32.0001C92.0379 32.0367 93.3304 32.1398 94 32.0001C95.6029 31.666 97.3414 31.6554 98 32.0001C98.6048 32.3168 99 32.9622 99 34.0001V35.0001H98C97.6069 35.0372 96.7039 34.9997 96 35.0001C93.9566 35.0013 92.9337 35.0694 92 36.0001C91.3366 36.6614 91.0042 37.8802 91 39.0001C90.9909 41.436 92.4467 42.8346 95 43.0001C96.4098 43.0915 97.6264 42.9403 99 42.0001C99.2475 41.8308 99 40.9413 99 41.0001C99 41.0589 98.8218 41.7976 99 42.0001C99.458 42.5205 100.743 42.9292 102 43.0001H103C103.033 42.8322 102.983 41.5211 103 41.0001V40.0001C102.758 39.9521 102.078 40.0937 102 40.0001C101.889 39.8672 102.041 39.1446 102 36.0001C101.948 32.0798 102.237 31.5146 102 31.0001C101.542 30.0082 100.326 29.3222 99 29.0001C98.177 28.8002 95.9924 28.864 95 29.0001ZM78 30.0001C77.9784 30.0728 78.0668 30.9543 78 32.0001C77.7538 35.8604 76.8752 37.2023 76 39.0001V40.0001H75H74V43.0001V46.0001H76H77V45.0001V43.0001H82H86V44.0001V46.0001H88H89V43.0001V40.0001H88H87V35.0001V29.0001H82C78.4047 29.0001 78.0307 29.8971 78 30.0001ZM68 32.0001C68.8522 32.3938 69.874 32.7736 70 34.0001V35.0001H67H64V34.0001C64.2069 32 66.4358 31.2774 68 32.0001ZM54 32.0001C54.5848 32.1856 55.7703 33.3492 56 34.0001C56.2371 34.6722 56.157 36.1651 56 37.0001C55.8545 37.7735 55.4357 38.5049 55 39.0001C54.8208 39.2038 54.3097 39.8289 54 40.0001C53.4544 40.3017 53.3848 40.0008 52 40.0001C51.2139 39.9998 50.1018 40.0415 50 40.0001C49.8284 39.9304 50 39.5313 50 36.0001V33.0001V32.0001C51.2952 31.4436 52.9284 31.6602 54 32.0001ZM84 36.0001V40.0001H81C79.3705 40.0001 79 40.0744 79 40.0001C78.9062 40.181 79 39.9391 79 40.0001C79.6275 38.7892 80.6152 36.9622 81 33.0001V32.0001H82H84V36.0001ZM99 38.0001V40.0001H98C95.6263 40.8573 94.2223 40.4286 94 39.0001C93.9005 38.3608 94.323 37.3372 95 37.0001C95.5112 36.7456 95.8157 37.0717 98 37.0001H99V38.0001Z" fill="white"/>
</svg>
