<svg width="159" height="49" viewBox="0 0 159 49" fill="none" xmlns="http://www.w3.org/2000/svg">
<path fill-rule="evenodd" clip-rule="evenodd" d="M75 1C74.9985 2.80241 74.7029 3.30784 74 4C73.2773 4.71171 71.6784 5.17849 70 5C69.0437 4.89837 68.2624 4.83626 65 4C63.1627 3.52901 62.6688 3.93041 61 4C59.3434 4.06908 58.294 4.37283 57 5C54.8895 6.02304 53.5828 7.39858 53 10C52.8961 10.4636 52.0356 11.9028 52 13V15H55H57V13C57.094 10.8983 57.1366 9.87618 58 9C58.5744 8.41714 59.0463 8.2402 60 8C61.5604 7.60699 63.7098 7.13313 67 8C69.7037 8.71232 70.091 9.00174 72 9C73.316 8.99867 74.3294 9.17859 75 9C77.2318 8.40558 78.3697 7.4613 79 5C79.1684 4.34243 78.9586 3.37716 79 2V0H77H75V1ZM34 14C31.1728 14.444 28.903 15.0383 27 17C25.3193 18.7325 24.5491 21.3345 24 24C23.7399 25.2626 23.738 28.7108 24 30C24.7913 33.8936 26.8012 36.3016 30 38C30.9942 38.5279 31.6831 39.6741 33 40C34.4541 40.3597 37.4196 40.2603 39 40C42.462 39.4299 45.2022 37.7282 47 35C47.6366 34.034 48.0701 33.1043 48 33C47.9731 32.9599 47.9534 32.4785 47 32C45.7539 31.3747 45.0369 30.9021 45 31C44.8393 31.4259 43.675 33.3329 43 34C41.3836 35.5976 39.5074 36.0018 37 36C34.3699 35.9982 32.6016 35.5634 31 34C30.3312 33.3471 30.4397 32.8941 30 32C29.4437 30.8687 29.1071 30.0096 29 29V28H39H49C49.1604 26.6856 49.381 24.4763 49 23C48.3848 20.6155 47.6451 18.6197 46 17C44.747 15.7663 43.5657 15.6215 42 15C39.7624 14.1115 36.3796 13.6262 34 14ZM64 14C58.6073 14.6539 54.5929 18.0864 53 23C52.4759 24.6168 51.932 24.9197 52 27C52.0627 28.917 52.479 30.5802 53 32C54.6093 36.3871 58.1924 39.2218 63 40C64.553 40.2515 67.4786 40.3525 69 40C74.1062 38.8172 76.8753 35.2164 78 30C78.265 28.7714 78.2645 25.2153 78 24C77.5929 22.1294 76.9502 20.3785 76 19C75.0051 17.5565 73.6368 15.8386 72 15C69.9502 13.9497 68.5098 14.0513 66 14C65.0283 13.9801 64.2001 13.9757 64 14ZM0 27V40H7C10.6544 39.9983 13.5701 40.0548 14 40C16.5842 39.6708 18.8097 38.5552 20 37C21.1562 35.4893 21.4325 33.01 21 31C20.6351 29.3041 19.6935 27.8153 18 27L17 26H18C19.913 24.8102 20.1649 22.2488 20 20C19.7987 17.2534 18.7454 15.923 16 15C14.3109 14.4322 14.4042 14.0439 7 14H0V27ZM82 27V40H85H87L93 31C96.0803 26.1028 98.8889 21.1407 99 21C99.2007 20.746 98.9943 20.8819 99 30V40H101H103V27V14H101H98L93 23L87 33V23V14H84H82V27ZM106 14C106.028 14.0986 108.368 20.0835 111 27L115 40L114 44C113.146 46.2263 112 47.9254 112 48C112 48.1084 112.222 48 114 48H117V47C117.147 46.62 119.574 38.922 123 30L130 14H127C125.763 13.9848 125.06 13.9772 125 14C124.94 14.0227 122.97 18.7594 121 24C119.03 29.2406 118.034 32.9991 118 33C117.966 33.001 115.875 29.0521 114 24C112.125 18.9479 111.083 15.2111 111 15V14H108C105.723 14 105.952 13.8331 106 14ZM132 14C131.961 14.0382 132 20.0294 132 27V40H134H136V30C136 24.5868 135.97 19.9707 136 20C136.03 20.0293 137.229 23.8553 139 29C140.771 34.1448 142.91 38.7608 143 39V40H145H148L151 30L154 20V30V40H157H159V27V14H156H152V16C151.743 16.774 149.565 21.2858 148 26C146.435 30.7143 145.033 34 145 34C144.967 34 143.803 29.4743 142 24L139 14H135C133.087 13.9852 132.039 13.9617 132 14ZM13 18C13.8908 18.2948 14.6338 19.3395 15 20C15.2548 20.4594 15.9643 20.2074 16 21C16.087 22.9233 14.9228 24.5068 13 25C12.495 25.1296 11.1648 25 8 25H5V21V18H9C12.7475 18.0351 12.4001 17.8015 13 18ZM39 18C39.4287 18.0952 39.4609 18.7453 40 19C40.8136 19.3846 41.2931 19.3038 42 20C42.6828 20.6724 43.6644 21.3072 44 22C44.4326 22.8934 44 23.4317 44 24V25H36H29V24C29.5241 21.1242 31.4496 18.8142 34 18C35.3499 17.569 37.4733 17.6609 39 18ZM67 18C71.3676 18.5983 73.9944 22.3017 74 27C74.0058 31.8805 71.4636 35.291 67 36C65.925 36.1708 64.0021 36.2803 63 36C60.154 35.2037 57.9305 32.9877 57 30C56.7367 29.1541 57.0014 28.875 57 27C56.9988 25.2511 56.7986 24.7126 57 24C58.2268 19.6601 62.3864 17.3681 67 18ZM14 29C15.274 29.3578 15.5197 30.0332 16 31C16.2429 31.489 15.9982 31.259 16 32C16.0011 32.4796 16.0765 32.7411 16 33C15.7057 33.9966 15.2718 35.5809 14 36C13.5554 36.1465 12.7121 35.9689 9 36H5V32C5 29.9515 4.95708 28.0427 5 28C5.04292 27.9574 6.7423 27.9754 9 28C12.4022 28.0372 13.5021 28.8602 14 29Z" fill="white"/>
</svg>
