<svg width="205" height="38" viewBox="0 0 205 38" fill="none" xmlns="http://www.w3.org/2000/svg">
<path fill-rule="evenodd" clip-rule="evenodd" d="M64 9.00001C57.5707 10.0705 53.932 15.3941 55 22C56.004 28.2108 61.2322 32.3812 68 32C72.3923 31.7524 75.2758 29.4189 77 26C78.1974 23.6253 78.3899 23.7751 75 23C71.5371 22.2082 72 22.5394 72 23C72 23.783 70.2965 24.5106 69 25C65.3623 26.3726 61 23.9725 61 20C61 18.2895 62.7008 16.9142 64 16C65.1794 15.1704 67.6594 14.4513 69 15C69.9113 15.373 71.7384 17.2243 72 18C72.1877 18.5563 78 16.5994 78 16C78 15.0746 76.4624 13.3517 75 12C73.2439 10.3771 71.5859 9.4724 69 9.00001C67.0446 8.64276 66.0934 8.65155 64 9.00001ZM91 9.00001C90.2248 9.13636 88.5231 9.73275 88 10C86.8075 10.6094 87.1932 9.72996 87 9.00001C86.8531 8.44459 86.837 9.00001 84 9.00001H81V38H87V30L88 31C89.3146 31.6497 90.5021 32.0027 93 32C96.5343 31.9964 97.5469 31.2926 100 29C102.347 26.8062 103.832 24.6061 104 21C104.197 16.7809 102.891 13.5147 100 11C97.6254 8.93469 94.2458 8.42853 91 9.00001ZM114 9.00001C109.23 10.0839 106.787 13.0019 106 18C105.38 21.9382 107.142 26.6696 110 29C112.221 30.8105 113.874 31.9949 117 32C119.417 32.0039 119.605 31.7142 121 31L123 30V31C123 31.7415 122.787 32 126 32H129V9.00001H126C122.789 9.00001 123 9.26127 123 10H121C118.967 9.0931 116.167 8.50762 114 9.00001ZM133 32L142 31C150.209 30.9079 149.496 31.7442 151 31C153.027 29.9973 154.768 28.2232 155 26C155.232 23.7789 154.526 22.362 153 21L152 20L153 19C154.047 17.9325 154 16.732 154 15C154 12.7768 153.131 10.9718 151 10C149.904 9.50004 149.468 9.00607 142 9.00001H133V32ZM158 32H165V23H172V31L179 32V9.00001H172V17H165V9.00001H158V32ZM183 25L184 27C185.454 29.9168 187.381 31.5649 191 32C193.01 32.2418 196.616 30.9739 198 30H199V32H205V9.00001H199V16C198.907 21.9372 198.553 22.0734 198 23C197.114 24.4875 195.691 25.8561 194 26C191.966 26.1733 190.891 24.746 190 23C189.349 21.7243 189 22.0869 189 16V9.00001H183V25ZM146 14C147.654 14.4688 148.115 15.8986 147 17C146.458 17.5357 146.118 18 143 18H140V14H143C144.561 14 145.423 13.8364 146 14ZM94 15C95.528 15.5385 96.3098 16.5147 97 18C98.0889 20.3429 96.9763 23.3565 95 25C91.6423 27.7916 87 24.5355 87 20C87 18.6071 87.0721 16.8151 88 16C88.7197 15.3673 91.0792 15 92 15C92.3373 15 93.3564 14.7731 94 15ZM119 15C121.635 15.723 123.735 18.2847 123 21C122.507 22.8199 121.44 24.274 120 25C117.477 26.2717 114.331 25.4574 113 23C112.404 21.9004 111.908 21.516 112 20C112.136 17.7529 113.06 15.8706 115 15C116.458 14.3455 117.406 14.5625 119 15ZM148 23C148.698 23.6245 148.67 25.2682 148 26C147.561 26.48 146.278 26 143 26H140V22H143C146.042 22 147.543 22.5912 148 23Z" fill="white"/>
<path fill-rule="evenodd" clip-rule="evenodd" d="M16 1.00001C2.54618 3.92648 -3.65561 18.7529 3.00001 31C3.51854 31.9542 3.67313 33.5834 4.00001 34H5.00001L33 6.00001L32 5.00001C31.3254 4.42156 29.3492 3.66542 28 3.00001C23.9938 1.02499 20.0624 0.116126 16 1.00001Z" fill="url(#paint0_linear_1_339)"/>
<path fill-rule="evenodd" clip-rule="evenodd" d="M24 19L10 33L11 34C12.5933 35.3529 15.6803 36.3131 18 37C19.2943 37.3836 21.6272 38.0033 24 38C26.8809 37.9961 26.9047 37.716 29 37C34.6229 35.0789 39.6193 31.2645 42 26C44.8064 19.7947 43.7309 13.0975 40 7.00001C39.3505 5.93887 39.1506 5.0497 39 5.00001C38.8495 4.95062 31.7574 11.3296 24 19Z" fill="url(#paint1_linear_1_339)"/>
<defs>
<linearGradient id="paint0_linear_1_339" x1="20.1942" y1="37.8795" x2="26.7385" y2="-15.8433" gradientUnits="userSpaceOnUse">
<stop stop-color="#19E0F0"/>
<stop offset="1" stop-color="#22AEFF"/>
</linearGradient>
<linearGradient id="paint1_linear_1_339" x1="36.5652" y1="8.61174" x2="15.7793" y2="36.158" gradientUnits="userSpaceOnUse">
<stop stop-color="#01F601"/>
<stop offset="1" stop-color="#00C400"/>
</linearGradient>
</defs>
</svg>
