<svg width="156" height="52" viewBox="0 0 156 52" fill="none" xmlns="http://www.w3.org/2000/svg">
<path d="M52 26C52 39.8071 39.9456 51 26 51C12.0543 51 0.999976 39.8071 0.999976 26C0.999976 12.1929 12.0543 1.00002 26 1.00002C39.9456 1.00002 52 12.1929 52 26Z" fill="white"/>
<path fill-rule="evenodd" clip-rule="evenodd" d="M86 9.00002C85.7301 9.0964 85.3774 9.68794 85 10C84.4057 10.4915 84.1149 10.1898 84 11C83.2756 16.1064 83.5347 25.4435 84 32C84.1526 34.1507 83.8488 34.4263 84 35C84.4543 36.7245 85.9871 37.6971 88 38C88.4207 38.0634 87.9974 38.0005 90 38C92.3853 37.9995 93.1553 38.1739 94 38C95.0335 37.7873 95.7382 37.5304 96 37C96.1015 36.7943 96.0184 36.3495 96 36C95.9584 35.2121 95.8092 35.217 95 35C94.6306 34.901 94.567 34.0001 94 34C92.6345 33.9997 90.7229 34.3541 90 34C88.4553 33.2435 88.1151 31.7515 88 29C87.9689 28.2561 87.8593 26.3677 88 24C88.1438 21.5792 87.9995 20.1213 88 19C88.0013 16.0549 87.5825 13.1692 87 11C86.8835 10.566 87.0673 10.1193 87 10C86.9587 9.92688 86.146 8.99803 86 9.00002C86.1135 8.95949 85.9406 9.00084 86 9.00002ZM105 17C104.087 17.1005 103.416 17.5984 103 18C102.88 18.1161 102.06 17.8701 102 18C101.905 18.2062 101.983 18.6635 102 19C102.025 19.4956 102.703 19.6824 103 20C103.385 20.412 102.987 20.7311 104 21C105.199 21.3183 106.001 21.4682 106 22C106 22.2551 106.209 22.7636 106 23C105.792 23.2351 105.025 23.4932 104 24C101.841 25.0678 100.857 25.1363 100 26C99.4769 26.5271 99.3271 27.347 99 28C98.3814 29.2347 97.9606 30.3025 98 32C98.0192 32.8277 97.8602 33.4737 98 34C98.58 36.1839 99.6863 37.3321 101 38C101.48 38.244 101.413 37.8841 102 38C102.742 38.1467 103.458 38.9731 105 39C107.532 39.0442 110 38.3182 111 38C111.565 37.8201 111.588 37.7626 112 37C112.118 36.7814 112.922 36.0907 113 36C112.934 36.3855 113.126 35.8543 113 36C113.274 34.4003 113.31 32.4185 113 30C112.638 27.1729 112.048 27.6683 112 26C111.946 24.107 112.3 23.1334 112 22C111.621 20.5685 110.845 19.8422 110 19C108.989 17.9923 107.692 17.1446 106 17C105.453 16.9533 105.481 16.9471 105 17ZM147 17C146.458 17.064 145.431 16.7926 145 17C144.489 17.2457 144.099 17.668 144 18C143.878 18.406 143.772 19.5842 144 20C144.226 20.412 145.298 20.794 146 21C146.192 21.0564 146.722 20.9195 147 21C147.581 21.1679 147.776 20.7993 148 21C148.429 21.3843 148.533 22.5247 148 23C147.713 23.2556 147.249 23.3771 146 24C144.485 24.7552 143.706 25.4456 143 26C141.056 27.5261 139.902 29.1543 140 32C140.027 32.7927 139.691 33.0823 140 34C140.712 36.118 142.297 37.4949 144 38C144.744 38.2208 145.203 38.9682 147 39C149.913 39.0517 152.258 38.3992 153 38C153.284 37.8472 153.742 37.4773 154 37C154.123 36.7719 154.911 36.117 155 36C154.913 36.5138 155.152 35.8015 155 36C155.178 34.9456 155.085 33.15 155 32C154.961 31.4702 155.193 30.4579 155 29C154.845 27.8331 154.039 27.3556 154 26C153.947 24.1581 154.291 23.1431 154 22C153.418 19.7141 151.777 17.7267 150 17C149.058 16.6149 148.014 16.8803 147 17ZM128 17C126.918 17.0366 126.363 17.7139 124 18C121.936 18.25 121.275 17.9552 120 18C118.569 18.0503 117.578 17.7028 117 18C116.454 18.2809 116.159 19.3278 116 20C115.93 20.2953 116 20.7349 116 25C116 29.6126 115.85 30.3471 116 32C116.321 35.5387 117.14 37.6744 118 38C118.158 38.0598 118.765 38.0386 119 38C120.026 37.8314 120.554 36.7229 121 35C121.353 33.6371 121.27 32.5337 121 30C120.815 28.2668 120.976 27.78 121 27C121.066 24.8599 121.945 23.1238 123 23C123.329 22.9614 122.755 23.757 123 24C123.367 24.3632 123.9 24.8667 124 26C124.054 26.6134 124.081 28.8523 124 31C123.872 34.4228 124.11 36.0252 125 37C125.354 37.3877 126.564 38.0721 127 38C127.808 37.8666 128.536 36.8313 129 35C129.387 33.4745 129.163 32.9341 129 31C128.758 28.1169 128.42 26.0833 129 25C129.366 24.3167 130.281 24 131 24C131.363 24 131.846 24.0877 132 25C132.109 25.6472 132.119 28.4032 132 30C131.951 30.6604 132.015 31.5859 132 32C131.929 34.0054 132.221 35.7347 133 37C133.423 37.6882 133.419 37.83 134 38C134.663 38.1941 134.711 38.0755 135 38C136.105 37.7114 136.809 35.7807 137 33C137.056 32.1795 137.069 27.12 137 26C136.776 22.3824 135.584 20.4943 134 19C132.582 17.6631 130.805 16.9051 128 17ZM69 17C65.4517 17.3604 63.1979 20.8401 62 25C61.6768 26.1224 61.0328 26.789 61 28C60.8825 32.3299 63.092 36.0983 66 38C66.9931 38.6495 67.687 38.8347 69 39C69.5747 39.0724 70.5045 39.0821 71 39C72.1225 38.814 73.9376 38.6513 75 38V36C73.5985 36.1593 70.9168 36.1391 70 36C68.617 35.7902 67.6479 35.649 67 35C66.4426 34.4418 67 33.8613 67 33C67 32.4391 66.7617 31.4431 67 31C67.5495 29.9779 68.7475 29.1646 70 29C70.5854 28.9231 71.6215 28.7689 73 29C73.766 29.1285 74.4513 29.9782 75 30C75.5399 30.0215 75.6915 30.0986 76 30C77.1973 29.6174 78.6306 28.2121 79 27C79.0834 26.7262 79.0209 26.5792 79 26C78.9104 23.5265 77.0532 20.6636 75 19C73.3558 17.6679 71.0546 16.7913 69 17ZM71 21C72.0758 21.305 72.7974 22.0372 73 23C73.0952 23.4525 73.3465 24.5111 73 25C72.5892 25.5796 71.6658 25.6757 71 26C70.3186 26.3319 69.6472 26.3174 69 26C68.1205 25.5688 67.1432 24.5272 67 24C66.95 23.8159 66.8951 23.4018 67 23C67.3986 21.4727 69.5348 20.5846 71 21ZM106 28C106.846 28.2273 107.797 29.1923 108 30C108.003 29.5713 108.037 30.1474 108 30C107.996 30.5652 108.094 30.6468 108 31C107.641 32.3478 106.249 33.6275 105 34C104.695 34.0909 104.45 33.9962 104 34C103.489 34.0044 104.236 34.1137 104 34C103.235 33.6311 102 33.0089 102 32C102 31.3237 102.438 29.8276 103 29C103.306 28.5485 103.66 28.2136 104 28C104.417 27.7384 105.507 27.9787 106 28C106.237 28.0103 105.866 27.9641 106 28ZM148 28C148.855 28.2618 149.813 29.1803 150 30C150.085 30.3721 150.082 30.5345 150 31C149.784 32.2288 149.035 33.5055 148 34C147.442 34.2668 146.606 33.9968 146 34C145.526 34.0025 146.271 34.1273 146 34C145.594 33.8093 145.242 33.4887 145 33C144.657 32.3081 143.844 31.6467 144 31C144.317 29.6902 145.982 28.3368 147 28C147.24 27.9205 147.636 27.8886 148 28Z" fill="white"/>
<path fill-rule="evenodd" clip-rule="evenodd" d="M25 1.00002C20.4336 1.29309 15.7532 2.51991 12 5.00002C7.16976 8.19171 3.68718 13.4762 1.99998 19C0.311133 24.5292 0.783641 30.6696 2.99998 36C3.36344 36.8742 4.53281 38.2298 4.99998 39C7.79329 43.6051 11.0643 46.8859 16 49C16.6218 49.2664 17.9734 50.0263 18 50C18.0079 49.9922 17.9551 49.4351 18 49C18.1322 47.7168 19.0262 46.7114 19 45C18.9777 43.5462 18.9349 42.9812 19 43C19.0383 43.0111 19.4805 42.8855 20 43C20.9502 43.2095 20.9757 43.9759 21 44C21.0072 44.0072 21.0865 43.9518 21 44C20.6371 44.2021 20.9966 44.0307 21 45C21.0042 46.2053 21.4375 47.7433 22 50V51C24.3904 51.3785 27.5739 51.3441 30 51C32.4378 50.6543 34.6852 50.0602 37 49C37.587 48.7312 38.9189 48.0746 39 48C39.0529 47.9513 38.9994 46.6415 39 46C39.0016 44.0621 38.0165 43.1609 37 43C36.5501 42.9288 36.7799 42.6667 36 43C35.834 43.071 35.007 43.0071 35 43C34.9929 42.9929 35.8419 43.1903 36 43C36.6489 42.2189 36.6964 40.8533 37 40C37.4744 38.6664 38.129 37.2715 38 36C37.8275 34.2999 36.8488 32.5742 36 31C35.512 30.095 35.4788 28.5932 35 28C34.6308 27.5426 33.9727 28.0437 34 28C33.9392 28.0002 34.0116 27.9814 34 28C34.1697 27.9994 34.7636 27.2563 35 27C35.2113 26.7709 35.8665 26.3997 36 26C36.1938 25.4196 36.0813 24.551 36 24C35.9123 23.4061 35.5319 22.6236 35 22C34.5673 21.4928 34.9749 21.8343 35 21C35.0146 20.5124 34.9343 20.3053 35 20C35.1063 19.5061 34.8212 18.3841 35 18C35.305 17.3449 35.9294 17.3824 36 17C36.0798 16.5676 36.1767 16.0341 36 15C35.6047 12.6871 34.7436 10.5039 34 9.00002C33.4994 7.98751 32.6798 7.69829 32 7.00002C31.2184 6.1974 30.8374 5.30408 30 5.00002C29.488 4.81411 29.2722 4.8929 29 5.00002C28.7778 5.08748 29.0407 4.83971 29 5.00002C28.8792 5.47514 28.4152 6.15088 29 7.00002C30.1188 8.62489 30.967 10.8112 32 13C33.0188 15.1588 33.8619 15.6342 34 17C34.152 18.5043 33.7881 19.6042 33 20C32.6405 20.1806 32.3749 20.1931 32 20C31.2705 19.6242 29.8532 19.1476 29 19C27.3046 18.7068 26.0025 18.5963 24 19C23.0068 19.2003 21.8695 20.5303 21 21C18.6847 22.2507 16.5356 23.7975 16 26C15.9317 26.2808 16.1827 26.8948 16 27C14.9121 27.6266 13.9511 27.9059 13 29C12.3685 29.7265 12.0366 30.6229 12 31C11.9674 31.3362 12.2146 31.1173 13 31C13.4821 30.928 13.3879 30.941 14 31C14.8791 31.0848 15.8525 31.5803 17 32C16.8168 31.9875 17.1863 32.0682 17 32C17.4412 32.0301 17.6549 31.9534 17 32C15.8001 32.0855 15.0124 32.246 14 33C13.6193 33.2836 13.1423 33.7687 13 34C12.9087 34.1484 12.919 34.8448 13 35C13.2212 35.4239 14.3566 35.676 16 36C17.0109 36.1993 16.6318 36.0994 17 36C17.3666 35.901 18.8179 35.9015 19 36C19.3733 36.202 19.3328 36.3216 19 37C18.8823 37.2399 19 37.9356 19 38C19 38.35 19.4713 38.4868 20 39C20.8346 39.8101 22.3074 41.2678 24 42C25.5033 42.6504 27.2499 43.505 29 44C29.0178 43.9828 29.176 44.0498 29 44C28.9287 44.0686 28.6386 43.9741 28 44C26.6217 44.0561 23.928 43.4718 22 43C20.5258 42.6393 18.798 42.3048 18 42C17.6095 41.8509 17.6887 41.8125 17 42C16.3805 42.1687 15.7265 41.999 15 42C14.3015 42.001 13.5585 42.1873 13 42C12.0606 41.6851 12.2599 41.0596 12 40C11.9617 39.8439 11.0046 40 11 40C10.9953 40 11.1766 39.9553 11 40C10.284 40.1815 10.3388 39.4946 9.99998 39C9.74387 38.6262 9.00195 38.6505 8.99998 38C8.99854 37.5278 8.92363 37.2634 8.99998 37C9.13649 36.5289 9.61191 36.4119 9.99998 36C10.1928 35.7953 9.95501 35.0874 9.99998 35C10.2002 34.6111 11.1135 34.4317 11 34C10.9144 33.6744 10.2349 33.2553 9.99998 33C9.45528 32.408 9.54937 31.8394 9.99998 31C10.2227 30.5851 10.6875 30.4097 11 30C11.2489 29.6735 13.5013 27.4867 14 27V26C14 24.5388 14.8507 23.5917 17 22C17.1751 21.8704 17 21.0101 17 21C17 20.9899 17.1892 21.239 17 21C15.8407 19.5358 14.5912 17.6907 14 16C13.4899 14.5416 14.0367 13.4407 14 12C13.9626 10.5331 13.4951 9.35216 14 8.00002C14.3511 7.05951 14.7363 7.2141 15 7.00002C15.5954 6.51664 16.4935 5.8113 17 6.00002C17.3785 6.14108 17.7535 6.49161 18 7.00002C18.1031 7.21267 17.93 7.78737 18 8.00002C18.2089 8.63509 18.8277 9.93347 19 11C19.1486 11.9201 19.6705 13.2398 20 14C20.2615 14.6035 20.6925 15.58 21 16C21.3982 16.544 21.5338 17.5983 22 18C22.519 18.4473 22.5395 18.0109 23 18C25.8042 17.9338 27.0352 18.0699 28 18C29.3134 17.905 29.2993 18.1113 30 18C30.6978 17.8892 31.8094 17.1308 32 17C31.9153 15.3374 31.6842 12.7543 31 11C30.6961 10.2209 29.4995 9.77969 29 9.00002C28.8673 8.79294 29.1385 8.21609 29 8.00002C28.5046 7.22723 27.9015 6.6884 28 6.00002C28.1234 5.13733 28.8185 4.00047 30 4.00002C30.7972 3.9997 31.19 4.54863 32 5.00002C32.648 5.36118 33.3109 5.3173 34 6.00002C35.5818 7.5673 37.1703 9.81933 38 12C38.2943 12.7738 37.8959 14.4576 38 16C38.0242 16.3582 37.9913 16.8881 38 17C38.0481 17.6226 38.0392 20.1589 38 21C37.8788 23.6037 37.7483 24.0312 37 26C36.672 26.863 37.0214 26.7704 37 27C36.9724 27.2961 37.2392 27.8609 38 29C40.3659 32.5425 41.1283 35.9718 42 40C42.2744 41.2682 42.8867 42.7498 43 44V45H42C41.1878 45.6666 41.3903 46.4771 42 46C43.1628 45.09 45.0995 43.0744 46 42C48.3388 39.2095 50.0059 36.4255 51 33C51.4315 31.5131 50.8191 29.746 51 28C51.072 27.3046 51.0557 24.8164 51 24C50.4444 15.8593 45.9896 9.25929 39 5.00002C35.71 2.99523 32.9311 1.3611 29 1.00002C28.1698 0.923752 25.7802 0.949962 25 1.00002ZM16 9.00002C15.9107 9.07446 16.1593 8.66743 16 9.00002C15.5533 9.93239 14.9606 11.1197 15 12C15.0859 13.9215 16.0206 15.5498 18 18C18.4413 18.5463 18.9453 19.9795 19 20C19.0196 20.0074 19.011 19.0634 19 19C18.9889 18.9367 19.1233 18.7499 19 18C18.2193 13.2514 17.7049 9.91355 17 9.00002C16.7437 8.66784 16.2401 8.79982 16 9.00002ZM30 25C30.1805 25.0321 30.6837 24.9396 31 25C31.7382 25.1411 32.6187 25.1156 33 25C32.9911 24.9912 33.1323 24.9599 33 25C33.0353 25.0351 33.1332 25.7817 33 26C32.8159 26.3016 32.3594 26.8294 32 27C31.2374 27.362 29.9503 27.4476 28 27C27.1495 26.8048 27.5642 26.7835 27 27C26.7886 27.0812 26.0104 27.0104 26 27C25.971 26.9713 26.802 26.2771 27 26C27.354 25.5045 27.484 25.1637 28 25C28.381 24.8791 29.4073 24.8948 30 25ZM41 46C40.9348 46.0506 40.9489 46.0646 41 46C41 46.0084 41.0395 45.9693 41 46C41.0537 45.9322 41 45.9665 41 46Z" fill="#2972FF"/>
</svg>
