<svg width="191" height="41" viewBox="0 0 191 41" fill="none" xmlns="http://www.w3.org/2000/svg">
<g clip-path="url(#clip0_1_320)">
<path d="M19 32C19.59 32.4894 20.4692 33.4492 21 34C20.882 33.8776 21.118 34.1223 21 34C20.882 34.1835 21.1179 33.8776 21 34C21.5308 33.5105 22.41 32.4284 23 32C24.4747 30.7151 26.1714 29.8566 28 29C31.2447 27.4703 33.7555 27.1835 37 27C38.5929 26.8776 40.4072 27 42 27L41 25C40.3512 24.1433 38.3569 22.652 37 21C35.6431 19.2256 35.0029 17.3461 34 16C34 15.6328 34 15.1223 34 15C34 13.5315 33.4718 12.3461 33 11C32.7639 10.2657 32.3539 9.67302 32 8.99996C32.118 8.75522 31.941 8.30589 32 7.99996C32.2361 7.02097 32.4129 6.04014 32 4.99996C31.6459 4.08215 30.7669 2.61182 30 1.99996C28.938 1.14334 28.1798 0.93877 27 0.999956C25.879 1.06114 24.9439 2.32691 24 2.99996C23.7051 2.93878 23.2949 2.06114 23 1.99996C22.2921 1.87758 21.8259 1.99996 21 1.99996C20.2331 1.99996 18.8849 1.87758 18 1.99996C17.528 2.06114 17.4129 2.87758 17 2.99996C16.1151 2.20453 14.9439 1.18352 14 0.999956C12.7022 0.755209 11.1798 1.14334 10 1.99996C9.82302 2.12233 10.118 1.87758 10 1.99996C9.29208 2.673 8.29496 4.20453 8 4.99996C7.64604 5.97894 7.88202 7.14333 8 7.99996C8.11798 8.73418 8.70504 8.44929 9 8.99996C8.76404 9.55064 8.17698 10.4493 8 11C7.52806 12.5296 7 13.9598 7 15C7 15.7342 6.941 16.694 7 17C6.41008 17.9178 5.70791 18.8374 5 20C3.58417 22.2027 2.35685 24.7972 1 27C5.54245 27 9.75251 27.0419 14 29C15.7698 29.9177 17.5253 30.7151 19 32Z" fill="#F19137"/>
<path d="M18 10C18.5383 10 19 9.53845 19 9C19 8.46155 18.5383 8 18 8C17.4615 8 17 8.46155 17 9C17 9.53845 17.4615 10 18 10Z" fill="#331F15"/>
<path d="M23 10C23.5385 10 24 9.53845 24 9C24 8.46155 23.5385 8 23 8C22.4615 8 22 8.46155 22 9C22 9.53845 22.4615 10 23 10Z" fill="#331F15"/>
<path d="M23 11.9999C22.7687 11.9385 23.1735 12.1227 23 11.9999C22.5372 11.6931 21.3471 11.4295 21 10.9999C20.8843 10.9999 21.1156 10.9999 21 10.9999C20.7106 10.9999 20.2892 10.9386 20 10.9999C19.8264 11.2454 19.1736 11.8158 19 11.9999C18.8264 12.184 19.1736 11.8772 19 11.9999C18.7687 12.1227 18.2313 11.9385 18 11.9999C17.5372 12.184 17.5785 12.9999 17 12.9999C16.8843 12.9999 16.1157 12.9999 16 12.9999C14.5537 14.2274 14 16.036 14 17.9999C14 21.7436 17.124 27.9999 21 27.9999C24.8761 27.9999 28 21.7436 28 17.9999C28 15.9747 27.5041 14.2274 26 12.9999C25.7685 13.0613 25.2892 12.9999 25 12.9999C24.4214 12.8772 23.4628 12.1227 23 11.9999ZM17 14.9999C17 12.8519 18.9174 11.9999 21 11.9999C23.0826 11.9999 24 12.8519 24 14.9999C24 17.1479 22.909 19.9385 21 19.9999C19.1487 20.0614 17 17.1479 17 14.9999Z" fill="white"/>
<path d="M22 21C21.2125 21.536 20.0689 21.2381 19 21C18.6625 20.9404 18.3375 21.1787 18 21L17 22H18C18.5063 22.2381 18.55 22.8809 19 23C20.5187 23.2977 21.875 22.7741 23 22C24.0689 21.2853 24.55 20.072 25 19C25.1688 18.6427 25.9437 18.3573 26 18V17H24V18C23.9437 18.2382 24.1125 18.7619 24 19C23.6625 19.7743 22.8438 20.4642 22 21Z" fill="#331F15"/>
<path d="M21 20C22.9538 19.9366 25 17.1587 25 15C25 12.7778 23.1983 12 21 12C18.8019 12 17 12.7778 17 15C16.9389 17.1587 18.985 20 21 20Z" fill="#331F15"/>
<path d="M22 13.0001C21.7376 12.9323 21.3278 13.0001 21 13.0001C19.3606 13.0001 18 13.373 18 15.0001C18 15.5425 17.7378 16.4577 18 17.0001C18.2624 14.5594 20.164 13.0679 22 13.0001Z" fill="white"/>
<path d="M13 7.99993C12.9404 8.4332 12.9404 8.38097 13 8.99993C13.0596 9.68078 12.8808 10.6285 13 10.9999C13.1788 11.4951 13.6424 11.6904 14 11.9999C14.3576 12.3094 14.5232 12.8761 15 12.9999C15.3576 13.1237 15.5232 12.9999 16 12.9999C16.1192 12.9999 16.8808 12.9999 17 12.9999C17.596 12.9999 17.5828 13.1856 18 12.9999C18.2383 12.938 18.7615 12.1237 19 11.9999C19.2383 11.8761 19.8213 12.1856 20 11.9999C20.1789 11.8142 19.8211 11.3094 20 10.9999C20.1789 10.7523 20.8211 10.3713 21 9.99993C20.9405 10.0618 21.0596 9.93802 21 9.99993C21.0596 10.1856 20.8807 10.8142 21 10.9999C20.8211 10.8142 21.1191 11.1856 21 10.9999C21.3576 11.4332 22.5232 11.7523 23 11.9999C23.2383 12.1237 22.7617 12.938 23 12.9999C23.4768 13.1856 24.4039 12.9999 25 12.9999C25.298 12.9999 25.7019 13.0618 26 12.9999C26.298 12.938 26.7615 13.0618 27 12.9999C27.9537 12.6905 28.5828 11.9903 29 10.9999C29.1193 10.7524 28.8809 10.3713 29 9.99993C29.1193 9.44287 29.0596 8.61887 29 7.99993C29 7.81422 29 8.18561 29 7.99993C28.9404 7.93802 29.0596 8.06182 29 7.99993L30 5.99993C29.106 5.56665 27.49 5.12372 26 4.99993C24.5695 4.87615 22.894 4.69045 22 4.99993C21.8213 5.06182 22.2383 5.87613 22 5.99993C21.9404 6.06183 22.0596 5.93802 22 5.99993C21.8809 6.06182 21.1193 5.99993 21 5.99993C20.8213 6.06182 20.298 6.1237 20 5.99993C18.5099 5.50476 17.7285 4.99993 16 4.99993C14.5099 4.99993 13.2517 5.62856 12 5.99993V6.99993C12 7.12372 12.9404 7.99993 13 7.99993ZM22 6.99993C23.1324 6.50474 24.808 6.87613 26 6.99993C26.1789 6.99993 26.5828 6.81424 27 6.99993C27.1789 7.06183 27.9405 7.87613 28 7.99993C27.9404 7.93804 28 8.06183 28 7.99993C27.9404 7.93804 28 8.06182 28 7.99993C27.9404 7.87613 28 8.12372 28 7.99993C28.0596 8.4332 28.1193 9.50476 28 9.99993C27.9404 10.2475 27.0596 9.87613 27 9.99993C26.8807 10.3094 27.1787 10.8142 27 10.9999C26.8211 11.1856 26.298 11.8761 26 11.9999C25.6422 12.1237 25.4767 11.9999 25 11.9999C24.5826 11.9999 24.2981 12.1237 24 11.9999C23.8213 11.938 23.1193 11.0618 23 10.9999C22.5232 10.6904 22.2383 10.4951 22 9.99993C21.7615 9.56665 22.0596 8.68078 22 7.99993C21.8211 7.50476 21.5232 7.2475 22 6.99993ZM14 7.99993C14 7.25717 14.3444 7.12372 15 6.99993C15.5364 6.93804 15.6424 6.99993 16 6.99993C17.192 6.99993 18.0463 7.69045 19 7.99993C19.1193 8.06182 19.8809 7.93804 20 7.99993C20 7.81424 20 8.12372 20 7.99993C19.9404 8.61889 19.2385 9.50476 19 9.99993C18.7617 10.4951 19.2981 10.7524 19 10.9999C18.7617 11.2475 18.298 11.8761 18 11.9999C17.702 12.1237 17.4172 11.9999 17 11.9999C16.5232 11.9999 15.298 12.1237 15 11.9999C14.702 11.8761 15.2384 11.1856 15 10.9999C14.8212 10.8142 14.1192 10.3094 14 9.99993C13.9404 9.87613 14 10.2475 14 9.99993C13.9404 9.56665 13.9404 8.61889 14 7.99993Z" fill="#331F15"/>
<path d="M3 30.0001C6.37459 30.0582 8.27633 30.1967 12 32.0001C15.491 33.687 18.4291 36.1386 20 38.0001L21 39.0001L22 38.0001C23.5709 36.1386 26.4508 33.7452 30 32.0001C34.0727 30.0222 36.2182 29.8256 40 30.0001C41.8617 30.0583 43.0582 29.6289 43 28.0001C37.3563 28.0001 34.4109 27.3824 29 30.0001C25.8581 31.5126 22.8037 34.1967 21 36.0001C19.1963 34.1967 16.1419 31.5126 13 30.0001C8.0545 27.615 5.23643 27.8838 0 28.0001C0 29.9198 1.60362 29.9419 3 30.0001Z" fill="#331F15"/>
<path d="M19 31.9999C19.5932 32.4853 20.4662 33.4537 21 33.9999C20.8815 33.8784 21.1187 34.1212 21 33.9999C20.8815 34.1214 21.1187 33.8784 21 33.9999C21.5338 33.4537 22.4068 32.4853 23 31.9999C24.542 30.6649 26.0428 29.9101 28 28.9999C31.44 27.4223 34.6193 27.2425 38 26.9999C39.72 26.8784 41.3393 25.9999 43 25.9999L42 24.9999C41.3477 24.1504 39.4235 21.7597 38 19.9999C36.5767 18.1795 35.0083 16.3348 34 14.9999C34 14.6358 34 15.1819 34 14.9999C34 13.4829 34.5338 11.3955 34 9.99988C33.7035 9.21105 33.4152 8.66737 33 7.99988C33.1185 7.69648 32.8813 7.36397 33 6.99988C33.2372 5.96835 33.4152 5.03142 33 3.99988C32.6442 3.029 31.8303 1.66735 31 0.999881C29.873 0.150373 28.2455 -0.060798 27 -0.000118569C25.8732 0.0605609 25.0082 0.33241 24 0.999881C23.7033 0.939202 23.3558 1.06056 23 0.999881C22.2288 0.878523 20.8897 0.999881 20 0.999881C19.1697 0.999881 18.9488 0.878523 18 0.999881C17.5255 1.06056 16.4745 0.878523 16 0.999881C15.1697 0.27173 14.949 0.181919 14 -0.000118569C12.6359 -0.242836 11.2455 0.0896925 10 0.999881C9.82207 1.12124 9.11862 0.878523 9 0.999881C8.22895 1.72804 8.35585 3.15036 8 3.99988C7.64413 5.03142 6.94068 6.15038 7 6.99988C7.11862 7.72804 7.70345 8.45376 8 8.99988C7.76277 9.54599 7.17793 9.39311 7 9.99988C6.52552 11.5776 7 14.029 7 14.9999C7 15.7887 6.94068 15.6965 7 15.9999C6.34758 16.9101 5.77103 17.7864 5 18.9999C3.51723 21.2451 1.42345 24.6939 0 26.9999C4.74483 26.9999 9.61104 26.9975 14 28.9999C16.0759 29.9101 17.458 30.7257 19 31.9999ZM9 16.9999C8.94068 16.5145 9.05932 16.546 9 15.9999C9 15.8785 9 15.1819 9 14.9999C9 14.8785 9 15.1819 9 14.9999C9 14.6965 8.94068 14.4246 9 13.9999C9.23723 12.3009 9.99172 9.45619 11 7.99988C10.4662 7.87852 10.1779 7.36395 10 6.99988C9.88137 6.81783 10 7.30328 10 6.99988C9.94068 6.51445 9.88138 5.54599 10 4.99988C10.1779 4.39309 10.4662 3.546 11 2.99988C11.8303 2.21105 13.051 2.63581 14 2.99988C13.8221 2.87852 14.1779 3.06057 14 2.99988C14.4745 3.30328 15.5848 3.45376 16 3.99988C16.4152 3.81783 16.5848 4.12124 17 3.99988C18.1863 3.75716 19.8732 2.99988 21 2.99988C22.3642 2.99988 22.9325 3.63581 24 3.99988C24.178 4.06057 24.822 3.93919 25 3.99988C24.7627 4.18192 25.178 3.81783 25 3.99988C25.6523 3.51445 26.2882 3.06057 27 2.99988C27.771 2.93921 28.2882 2.45376 29 2.99988C29.4745 3.36395 30.7628 4.51445 31 4.99988C31.2373 5.546 31.1185 5.51445 31 5.99988C31 6.06055 31.0593 6.93921 31 6.99988C30.8813 7.48531 30.4152 7.75716 30 7.99988C29.8813 8.06055 30.1187 7.93919 30 7.99988C30.8303 9.03142 31.5848 9.72562 32 10.9999C32.3558 12.0314 32 13.847 32 14.9999C32 15.546 32.0593 15.5145 32 15.9999C33.4233 17.9416 36.8648 21.2693 39 23.9999C39 23.9999 27.109 24.8714 21 30.9999C14.5945 24.8714 4 24.9999 4 24.9999C4.5338 24.1504 4.4069 22.8494 5 21.9999C6.30483 20.058 7.81378 18.6988 9 16.9999Z" fill="#331F15"/>
<path d="M66 5.0001C64.8027 9.79067 63.796 14.3748 62 19.0001C60.3539 14.3748 59.0477 9.4603 58 5.0001C55.9048 4.50452 53.0953 4.50452 51 5.0001C52.6463 11.2774 55.3061 18.8879 58 25.0001C58.5987 25.1652 59.4013 24.835 60 25.0001C58.9524 27.478 57.4966 30.5222 56 33.0001C58.2448 33.4956 60.755 33.4956 63 33.0001C66.7414 24.9058 70.4558 13.5901 73 5.0001C70.7552 4.50452 68.0953 4.50452 66 5.0001Z" fill="white"/>
<path d="M102 32.0001C101.847 23.3288 101.071 13.5078 100 5.00011C98.011 4.34567 95.9891 4.34567 94 5.00011C91.858 9.5812 89.377 15.7647 88 21.0001C86.4699 15.7647 85.295 9.41759 83 5.00011C80.8578 4.34567 78.1422 4.34567 76 5.00011C74.929 13.5078 74.306 23.3288 74 32.0001C75.989 32.4909 77.858 32.4909 80 32.0001C80.153 26.7645 80.5409 21.7449 81 17.0001C82.5301 20.4358 83.929 25.0736 85 29.0001C86.6831 29.6546 89.4699 29.6546 91 29.0001C92.071 25.0736 93.4699 20.436 95 17.0001C95.4591 22.0721 95 28.0918 95 33.0001C97.295 33.4909 100.011 32.6546 102 32.0001Z" fill="white"/>
<path d="M116 11C117.359 11 118.396 11.7052 119 13C120.812 12.1907 122.547 10.9422 123 9C121.641 6.57226 119.172 5 116 5C109.506 5 105 10.26 105 19C105 27.9016 108.751 33 116 33C118.567 33 121.188 31.9712 123 31C123.151 28.7342 122.208 26.4566 121 25C119.943 25.6473 118.812 26 117 26C113.224 26 111 24.0175 111 19C111.151 13.9827 113.131 11 116 11Z" fill="white"/>
<path d="M133 27C134.385 25.6901 134.923 23.4738 136 22C137.692 25.2749 139.923 29.5615 141 33C143.308 33.6551 145.692 33.6551 148 33C146.154 27.924 143.923 22.5847 141 18C143.615 14.2339 145.615 9.09359 147 5.00002C145 4.34505 142 4.34505 140 5.00002C138.308 9.74856 135.923 14.3977 133 18V5.00002C130.846 4.34505 128.154 4.34505 126 5.00002V33C128.154 33.6551 130.846 33.6551 133 33V27Z" fill="white"/>
<path d="M153 33.0001C155.26 33.4956 157.74 33.4956 160 33.0001C163.767 24.9058 167.438 13.5901 170 5.0001C167.89 4.50452 165.109 4.50452 163 5.0001C161.794 9.79067 160.808 14.3748 159 19.0001C157.342 14.3748 156.055 9.4603 155 5.0001C152.89 4.50452 150.11 4.50452 148 5.0001C149.658 11.2774 152.288 18.8879 155 25.0001C155.603 25.1652 156.397 24.835 157 25.0001C155.795 27.478 154.507 30.3571 153 33.0001Z" fill="white"/>
<path d="M184 11V32C186.113 32.4941 187.886 32.4941 190 32V5H173L172 23C171.698 25.4706 170.66 27 169 27C168.396 27 167.453 26.1646 167 26C166.094 27.3176 166 29.8589 166 32C167.208 32.6589 168.642 33 170 33C174.679 33 177.244 30.4236 178 24L179 11H184Z" fill="white"/>
</g>
<defs>
<clipPath id="clip0_1_320">
<rect width="191" height="41" fill="white"/>
</clipPath>
</defs>
</svg>
