<svg width="159" height="38" viewBox="0 0 159 38" fill="none" xmlns="http://www.w3.org/2000/svg">
<path fill-rule="evenodd" clip-rule="evenodd" d="M9 1.00003C4.19787 1.92842 0.713084 5.40165 1 10C1.07911 11.2683 1.52015 13.0316 2 14C2.86751 15.7509 4.59048 16.8065 7 18C8.05249 18.5214 8.95742 18.3096 11 19C11.9734 19.3291 12.6954 19.8739 13 20C15.6707 21.1057 17.1335 22.4851 18 24C18.72 25.259 19.5099 27.6197 19 29C18.1559 31.2852 15.226 32.4987 12 33C11.4217 33.0899 9.53462 33.0814 9 33C6.66987 32.6457 5.44384 31.327 3 29H2C1.89556 29.1172 1.53871 29.3894 1 30L0 31V32C0.107305 32.1537 1.52834 32.6168 2 33C4.63276 35.1392 7.71001 36.0071 11 36C15.3037 35.9908 19.1212 34.9354 21 32C22.082 30.3096 22.1768 28.1387 22 26C21.7168 22.5751 19.5855 19.8459 16 18C14.7288 17.3456 14.0507 16.664 12 16C8.77655 14.9564 7.1211 14.1924 6 13C5.33286 12.2905 5.16541 11.972 5 11C4.92065 10.5339 4.92125 9.4233 5 9.00004C5.41622 6.76346 7.12388 4.5232 10 4.00003C10.1971 3.9642 10.3561 3.99918 11 4.00003C11.9092 4.00117 12.5236 3.89629 13 4.00003C14.7652 4.3845 16.0185 5.26416 18 7.00003C18.1957 7.17149 18.9851 8.00003 19 8.00003C19.0371 8.00003 21 5.04224 21 5.00003C21 4.90849 19.7399 3.52007 19 3.00003C17.4181 1.88815 14.7549 1.30196 13 1.00003C12.5498 0.922558 12.6052 0.996994 11 1.00003C9.32683 1.00316 9.47448 0.908327 9 1.00003ZM53 1.00003C52.0428 1.22042 51.2689 2.00504 51 3.00003C50.8892 3.41024 50.8782 4.60227 51 5.00003C51.2921 5.95404 52.1005 6.74547 53 7.00003C54.0283 7.29109 55.2671 6.75109 56 6.00003C56.4946 5.49321 55.9663 4.72769 56 4.00003C56.0244 3.4727 56.2306 3.47637 56 3.00003C55.6845 2.34847 55.6621 2.2366 55 2.00003C54.7345 1.90517 54.4396 1.01204 54 1.00003C53.6496 0.990467 53.1701 0.960871 53 1.00003ZM27 19V36H29H31V19V2.00003H29H27V19ZM63 19V36H65H66V19V2.00003H65H63V19ZM74 19V36H76H77V19V2.00003H76H74V19ZM85 18V35C85.6811 35.4396 87.5595 35.7316 89 36C91.0546 36.3828 94.2962 36.2029 96 36C96.9952 35.8815 98.0569 36.3582 99 36C99.5533 35.7899 100.521 34.311 101 34C103.445 32.4121 105.246 30.7146 106 28C106.318 26.854 106 26.2799 106 25C106 23.9966 106.181 22.8804 106 22C105.093 17.5849 101.474 14.1526 97 13C95.8128 12.6941 95.5993 12.998 94 13C92.5785 13.0018 92.0793 12.7555 91 13C90.4632 13.1217 89.4795 13.7854 89 14V8.00003V2.00003H87H85V18ZM122 12C118.175 12.2846 114.127 14.7426 112 18C111.613 18.5932 111.222 19.3785 111 20C110.463 21.5007 110.002 23.4058 110 25C109.999 25.966 109.853 26.1555 110 27C110.836 31.8034 114.321 35.8319 119 37C120.554 37.3881 122.428 37.273 124 37C126.52 36.5623 129.213 34.8471 131 33C131.543 32.4384 131.644 32.5047 132 32C133.244 30.2366 133.76 28.1891 134 26C134.087 25.2047 134.116 23.7697 134 23C133.668 20.8063 133.341 18.7233 132 17C131.594 16.4789 130.511 15.4145 130 15C128.103 13.4599 125.386 12.2327 123 12C122.435 11.9449 122.494 11.9633 122 12ZM36 19L31 24L37 30L42 36H45H47L41 30L36 24L40 19C42.6628 16.2797 45.7714 14.2398 46 14V13H44H41L36 19ZM52 25V36H54H55V25V13H54H52V25ZM136 13C136.385 13.4355 144.996 23.962 145 24C145.003 24.0275 142.581 26.8493 140 30C137.419 33.1507 136.029 35.959 136 36C135.95 36.0723 135.909 36.0024 138 36H140L144 31C146.032 28.5247 146.984 26.9817 147 27C147.016 27.0183 148.983 28.5416 151 31L155 36H157C158.847 36 159.011 36.0501 159 36C158.993 35.968 156.603 33.1593 154 30C151.397 26.8408 150.006 24.0253 150 24C149.992 23.9652 153.554 18.4121 158 13H156H154L151 17C149.141 19.2733 147.015 21.9989 147 22C146.985 22.0012 145.867 19.274 144 17L140 13H138H136ZM124 16C124.865 16.123 125.253 15.6183 126 16C128.318 17.1852 130.375 19.4652 131 22C131.163 22.6627 130.976 23.2465 131 24C131.05 25.5582 130.672 27.6189 130 29C129.111 30.8255 127.8 32.1063 126 33C123.447 34.2673 120.472 34.2615 118 33C117.116 32.549 116.714 31.731 116 31C114.632 29.6001 114.338 27.9754 114 26C113.901 25.4199 113.902 23.595 114 23C114.72 18.6486 117.704 15.3459 122 15C122.364 14.9708 123.542 15.935 124 16ZM95 16C96.7168 16.1922 98.7083 17.0113 100 18C100.427 18.3268 100.638 18.5408 101 19C103.176 21.7575 103.951 26.0366 102 29C101.016 30.4941 98.7788 31.3815 97 32C96.2254 32.2694 95.8546 32.9214 95 33C94.3842 33.0567 92.503 33.0562 92 33C90.8213 32.8684 90.0598 32.4703 89 32V25V18C90.1893 17.1438 91.3871 16.1686 93 16C93.3261 15.9659 94.6443 15.9602 95 16Z" fill="white"/>
</svg>
