<svg width="166" height="48" viewBox="0 0 166 48" fill="none" xmlns="http://www.w3.org/2000/svg">
<path fill-rule="evenodd" clip-rule="evenodd" d="M71 21.0001C69.4859 24.8192 67.7321 29.15 67 31.0001L66 34.0001H69L72 27.0001C73.6334 22.826 74.9331 18.9237 75 19.0001C75.067 19.0764 76.4181 22.9141 78 27.0001C79.5818 31.0861 80.9589 33.9589 81 34.0001C81.0412 34.0411 82.1385 34.0295 83 34.0001H84L76 14.0001H74L71 21.0001ZM86 34.0001H89L98 20.0001V34.0001H101V14.0001H99L89 28.0001V14.0001H86V34.0001ZM103 17.0001H109V34.0001H112V17.0001H118V14.0001H103V17.0001ZM120 34.0001H123V25.0001H132V34.0001H135V14.0001H132V23.0001H123V14.0001H120V34.0001ZM137 34.0001H150V31.0001H140V26.0001H150V23.0001H140V17.0001H150V14.0001H137V34.0001ZM151 17.0001H157V34.0001H160V17.0001H166V14.0001H151V17.0001Z" fill="white"/>
<path fill-rule="evenodd" clip-rule="evenodd" d="M19 1.00009C18.9681 1.08072 14.957 11.5364 9.99996 24.0001C5.04278 36.4638 1.0324 46.8852 0.999963 47.0001C0.94605 47.1906 1.12067 47.0311 1.99996 47.0001H2.99996L8.99996 32.0001C19.843 4.72276 19.9151 3.90304 20 4.00009C20.0468 4.05357 24.3207 13.0981 29 25.0001L37 47.0001H44C50.151 47.0018 50.0619 47.1927 50 47.0001C49.9639 46.888 45.9331 36.5279 41 24.0001L32 1.00009H26C20.832 0.976326 19.0458 0.884166 19 1.00009Z" fill="white"/>
</svg>
