<svg width="200" height="40" viewBox="0 0 200 40" fill="none" xmlns="http://www.w3.org/2000/svg">
<path d="M53 27V15C53 14.5527 53.5643 14 54 14H57C57.4357 14 57 14.5527 57 15V26C57 28.5559 58.3817 30 60 30C61.6183 30 64 28.5559 64 26V15C64 14.5527 63.5643 14 64 14H67C67.4357 14 68 14.5527 68 15V27C68 30.8978 64.917 34 60 34C55.083 34 53 30.8978 53 27Z" fill="white"/>
<path d="M71 31.9999V14.9999C71 14.5695 71.5608 13.9999 72 13.9999H75C75.3765 13.9999 75.8118 13.631 76 13.9999L83 24.9999V14.9999C83 14.5695 82.5608 13.9999 83 13.9999H86C86.4392 13.9999 87 14.5695 87 14.9999V31.9999C87 32.4303 86.4392 32.9999 86 32.9999H83C82.6235 32.9999 82.1882 33.3688 82 32.9999L75 21.9999V31.9999C75 32.4303 75.4392 32.9999 75 32.9999H72C71.6235 33.1229 71 32.4303 71 31.9999Z" fill="white"/>
<path d="M89 32V15C89 14.5698 89.5942 14 90 14H92C92.4058 14 93 14.5698 93 15V32C93 32.4302 92.4058 33 92 33H90C89.6522 33.0615 89 32.4302 89 32Z" fill="white"/>
<path d="M96 30C95.8149 29.6262 95.6916 29.2492 96 29L99 27C99.37 26.7508 99.6916 26.6885 100 27C100.863 27.9969 102.841 30 105 30C106.974 30 107 28.8723 107 28C107 26.6916 104.357 26.4984 103 26C101.581 25.5639 97 24.2991 97 20C97 15.7009 100.176 14 104 14C107.331 14 110.951 16.1308 112 18C112.247 18.3738 111.308 18.7508 111 19L109 20C108.63 20.2492 108.308 20.3115 108 20C107.198 19.2523 105.85 18 104 18C102.643 18 102 19.19 102 20C102 21.3084 104.581 21.5016 106 22C107.357 22.4984 112 23.8878 112 28C112 32.0498 108.626 34 104 34C99.8058 34 97.1719 32.1807 96 30Z" fill="white"/>
<path d="M115 32V15C115 14.568 115.571 14 116 14H127C127.429 14 128 14.568 128 15V17C128 17.432 127.429 18 127 18H119V22H127C127 21.568 127.429 22 127 22V25C127 25.432 127.429 25 127 25H119V29H127C127.429 29 128 29.568 128 30V32C128 32.432 127.429 33 127 33H116C115.571 33.1851 115 32.432 115 32Z" fill="white"/>
<path d="M130 32.0001V15.0001C130 14.5698 130.561 14.0001 131 14.0001H134C134.376 14.0001 134.812 13.6313 135 14.0001L142 25.0001V15.0001C142 14.5698 141.561 14.0001 142 14.0001H145C145.439 14.0001 146 14.5698 146 15.0001V32.0001C146 32.4303 145.439 33.0001 145 33.0001H142C141.624 33.0001 141.188 33.3689 141 33.0001L134 22.0001V32.0001C134 32.4303 134.439 33.0001 134 33.0001H131C130.498 33.0615 130 32.4303 130 32.0001Z" fill="white"/>
<path d="M149 32V15C149 14.571 149.584 14 150 14H156C161.413 14 165 18.3613 165 24C165 29.6387 161.353 33 156 33H150C149.584 33 149 32.429 149 32ZM156 29C157.249 29 161.059 27.6581 161 23C161 18.4032 157.249 18 156 18H153V29H156Z" fill="white"/>
<path d="M168 32V15C168 14.568 168.571 14 169 14H180C180.429 14 181 14.568 181 15V17C181 17.432 180.429 18 180 18H172V22H180C180 21.568 180.429 22 180 22V25C180 25.432 180.429 25 180 25H172V29H180C180.429 29 181 29.568 181 30V32C181 32.432 180.429 33 180 33H169C168.632 33.1851 168 32.432 168 32Z" fill="white"/>
<path d="M184 32V15C184 14.5723 184.573 14 185 14H193C195.803 14 199 15.6624 199 20C199 23.1158 197.011 25.2058 195 26L199 32C199.305 32.4887 198.548 33 198 33H195C194.634 33 194.183 33.3666 194 33L191 27H188V32C188 32.4277 187.427 33 187 33H185C184.695 33 184 32.4277 184 32ZM192 23C193.219 23 195 21.4662 195 20C195 18.5338 193.219 18 192 18H188V23H192Z" fill="white"/>
<g opacity="0.2">
<path d="M29 7.99998C38.1425 20.8727 20.0686 23.626 19 16C17.9907 8.92302 26.744 4.76654 29 7.99998Z" fill="white"/>
</g>
<path d="M30 11.0001C29.2771 9.51358 26.9879 7.68156 25 8.00009C24.5181 8.05318 24.5181 9.05318 25 9.00009C26.6265 8.73465 28.3976 9.72594 29 11.0001C29.1807 11.3717 30.1807 11.4248 30 11.0001Z" fill="white"/>
<path d="M21 29.0001C20.7566 29.0654 20.1218 29.0001 20 29.0001C19.4523 29.0654 19.0609 28.5878 19 28.0001C18.9392 27.4776 19.4523 27.0654 20 27.0001C20.4869 26.9348 24.6002 26.8083 26 24.0001C26.2435 23.4776 26.5131 22.7388 27 23.0001C27.4869 23.2613 28.2435 23.4776 28 24.0001C26.4176 27.2002 22.7042 28.7388 21 29.0001Z" fill="white"/>
<path d="M11.0001 21.9999C11.5068 21.7922 12.1901 21.4846 12.0001 20.9999C11.8734 20.446 11.5068 19.7922 11.0001 19.9999C10.4933 20.2076 9.81001 20.5152 10.0001 20.9999C10.1267 21.4846 10.4299 22.2076 11.0001 21.9999Z" fill="white"/>
<path d="M11.0001 23.0001C11.2807 22.9013 11.0468 22.2964 11.0001 22.0001C10.9065 21.7532 10.2807 21.9013 10.0001 22.0001C9.7194 22.0988 9.95328 22.7038 10.0001 23.0001C10.0468 23.247 10.7194 23.0988 11.0001 23.0001Z" fill="white"/>
<path d="M14.0001 22.0001C14.2807 21.8992 14.0468 21.3028 14.0001 21.0001C13.9065 20.7478 13.2807 20.8992 13.0001 21.0001C12.7194 21.101 12.9533 21.6974 13.0001 22.0001C13.0468 22.2019 13.7194 22.0506 14.0001 22.0001Z" fill="white"/>
<path d="M27.9999 15.0001C28.2549 13.3514 27.0835 12.1903 25.9999 12.0001C24.9164 11.8099 24.2549 13.3514 23.9999 15.0001C23.745 16.6487 24.9164 17.8099 25.9999 18.0001C27.0835 18.1903 27.745 16.6487 27.9999 15.0001Z" fill="white"/>
<path d="M18 14.0001C18.309 12.8855 17.7417 12.2347 17 12.0001C16.2583 11.8241 15.309 12.9441 15 14.0001C14.691 15.1147 15.2583 15.7654 16 16.0001C16.8035 16.2347 17.691 15.056 18 14.0001Z" fill="white"/>
<path d="M26 14.9999C26 15.5454 26.3271 15.9999 27 15.9999C27.1495 15.9999 27.8505 16.0605 28 15.9999C28.0748 15.8181 27.9252 15.2423 28 14.9999C28.0748 14.5757 28.0748 14.3636 28 13.9999C27.7757 13.8787 27.2243 13.9999 27 13.9999C26.3271 13.9999 26 14.4545 26 14.9999Z" fill="black"/>
<path d="M18 14C17.36 14 17 14.4286 17 15C17 15.5715 17.36 16 18 16C18.16 16 18.84 16.0715 19 16C19.08 15.7857 18.92 15.2143 19 15C19.08 14.7143 19 14.2857 19 14C18.84 13.7143 18.4 14 18 14Z" fill="black"/>
<path d="M43 5C40.2502 0.904388 34.294 2.26176 28 0C27.5723 1.22257 27.6945 2.02194 28 3C27.2667 2.87774 26.8555 3 26 3C25.2667 3 23.7333 2.93887 23 3C23 2.93887 23.0611 3.06113 23 3C22.2056 -0.239812 11.8109 2.7116 9 1C9.24443 4.4232 12.0446 6.55486 14 9C13.45 10.5282 13.1833 12.7994 13 15C12.9389 15.489 12.4889 16.0611 12 16C11.0223 16 10.0999 15.0611 9 15C8.02229 12.7994 0.144504 11.9875 1 17C1.42775 19.384 1.90008 21.0219 3 22C3.67218 26.3401 5.76133 29.105 9 31C10.4666 31.8558 12.739 32 15 32C16.161 32 16.6556 32.3056 18 32C17.9389 31.8777 18.0611 32.1223 18 32C20.0165 36.7069 18.8447 39 23 39C23.7333 39 25.2056 39.1223 26 39C26.9777 38.8777 27.0834 38.3668 28 38C32.5219 36.1661 38.9389 31.8903 39 27C39.0611 21.5596 40.4889 18.9122 40 15C42.7498 13.0439 43.5111 8.95611 44 7C44.1222 6.1442 43.4889 5.73354 43 5ZM37 27C36.9389 31.279 31.7886 34.4107 28 36C27.2056 36.3056 25.7944 36.8777 25 37C24.2667 37.1223 23.6111 37 23 37C20.1891 37 21.9554 36.6458 20 32C19.9389 31.8777 20.0611 31.1223 20 31C20 30.9389 19 31.0611 19 31V30H17C15.839 30.2445 16.0999 30 15 30C13.2279 30 11.2832 29.7335 10 29C7.92236 27.7774 6.73329 26.384 6 24C5.81668 23.3887 5.51115 22.3668 6 22C6.79439 21.3887 7.45004 20.9561 8 19C8.18332 18.2665 9.26672 16.9389 10 17C10.6111 17.0611 11.3889 18 12 18C13.4666 18 14.8167 16.4671 15 15C15.0611 14.511 14.9389 14.4279 15 14C15.1222 12.7774 14.8167 10.9169 15 10C15.7333 9.02194 16.839 9 18 9C18.4889 9 18.4889 7.93887 18 8C17.2056 8 16.7333 8.5721 16 9C16.9166 7.83856 17.3336 6.8558 21 6C22.4055 5.69436 24.6556 5 26 5C27.2832 5 27.839 5.69436 29 6C31.5054 8.93417 36.9612 11.3542 38 16C38.3666 19.3621 37.0611 21.6207 37 27Z" fill="white"/>
<path d="M4.00005 16.0001C4.50683 15.7896 5.19009 15.4911 5.00005 15.0001C4.87336 14.4389 4.50683 13.7896 4.00005 14.0001C3.49327 14.2105 2.81001 14.509 3.00005 15.0001C3.12675 15.4911 3.42993 16.1403 4.00005 16.0001Z" fill="black"/>
</svg>
