<?xml version="1.0" standalone="no"?>
<!DOCTYPE svg PUBLIC "-//W3C//DTD SVG 20010904//EN"
 "http://www.w3.org/TR/2001/REC-SVG-20010904/DTD/svg10.dtd">
<svg version="1.0" xmlns="http://www.w3.org/2000/svg"
 width="672.000000pt" height="672.000000pt" viewBox="0 0 672.000000 672.000000"
 preserveAspectRatio="xMidYMid meet">
<metadata>
Created by potrace 1.14, written by Peter Selinger 2001-2017
</metadata>
<g transform="translate(0.000000,672.000000) scale(0.100000,-0.100000)"
fill="#000000" stroke="none">
<path d="M2239 6690 c0 -16 0 -87 -1 -157 0 -146 -13 -131 107 -134 47 -1 59
1 56 12 -2 8 -3 21 -3 29 1 8 1 38 1 65 0 52 1 101 2 113 1 4 1 28 0 55 l-1
47 -80 0 -80 0 -1 -30z"/>
<path d="M3358 6643 c-2 -43 -2 -115 0 -160 3 -68 6 -82 20 -82 157 -4 286 -1
293 6 9 9 9 19 10 138 0 39 1 93 1 120 l1 50 -161 3 -161 2 -3 -77z"/>
<path d="M3035 6400 c-2 -3 0 -12 4 -19 5 -7 5 -27 2 -44 -4 -18 -4 -50 -1
-72 3 -22 3 -53 0 -69 -3 -16 -3 -49 -2 -72 4 -38 6 -42 28 -39 13 1 24 -1 24
-4 0 -7 99 -5 106 2 3 2 6 75 7 160 l2 156 -25 0 c-14 0 -51 2 -83 3 -33 2
-60 1 -62 -2z"/>
<path d="M650 6242 c-14 -5 -14 -948 0 -957 7 -5 233 -9 297 -6 6 1 12 9 12
19 2 142 1 204 -4 211 -3 5 -1 12 5 16 6 4 8 11 4 16 -3 5 -5 35 -4 67 1 31 0
71 0 87 -1 17 -2 37 -1 45 0 8 1 51 0 95 0 44 0 87 0 95 2 142 1 211 -3 219
-4 5 -3 12 2 15 4 2 6 20 4 38 -3 30 -8 34 -35 37 -49 4 -266 6 -277 3z"/>
<path d="M1480 6242 c-14 -2 -29 -8 -34 -12 -10 -10 -14 -80 -4 -80 3 0 4 -8
2 -17 -7 -30 -9 -173 -3 -173 4 0 3 -15 -1 -34 -4 -19 -4 -40 1 -47 4 -7 5
-17 2 -22 -4 -6 -5 -235 -2 -422 0 -5 -1 -38 -2 -73 -1 -34 2 -67 8 -73 15
-15 301 -15 316 0 8 8 8 11 -2 11 -7 0 -10 4 -6 9 4 8 8 353 4 421 -1 8 -1 38
0 65 0 28 1 57 0 65 0 8 0 77 2 153 1 75 0 140 -3 143 -3 3 -2 21 2 40 8 34 0
48 -26 43 -5 -1 -11 -1 -14 0 -10 4 -216 6 -240 3z"/>
<path d="M1943 6242 c-20 -3 -23 -10 -24 -45 -1 -23 0 -46 1 -52 1 -5 2 -21 2
-35 0 -31 15 -41 42 -30 12 4 30 4 40 0 29 -10 67 0 74 21 4 9 5 45 4 78 -3
47 -7 60 -20 60 -10 0 -35 1 -57 3 -22 2 -50 2 -62 0z"/>
<path d="M1140 5922 l-25 -3 2 -149 c0 -82 4 -154 8 -159 3 -6 3 -11 -2 -11
-11 0 -7 -300 4 -311 5 -5 41 -10 80 -11 61 -3 73 0 77 15 2 9 0 17 -6 17 -5
0 -6 5 -3 10 4 6 6 52 5 103 0 50 0 103 0 117 1 14 1 31 1 38 -2 20 -2 41 0
160 0 63 -2 116 -5 119 -3 3 -1 13 4 22 11 22 -3 46 -23 38 -8 -3 -18 -3 -21
0 -6 7 -59 9 -96 5z"/>
<path d="M2408 5913 c-8 -10 -15 -247 -8 -278 7 -31 -2 -36 -62 -35 -35 0 -71
-1 -80 -1 -20 0 -19 7 -20 -181 0 -64 2 -121 6 -126 3 -5 35 -10 72 -11 37 -1
70 -4 75 -7 5 -3 9 0 9 6 0 6 4 9 9 5 11 -6 140 -9 147 -3 4 4 5 20 4 73 0 11
0 58 1 105 0 47 0 90 -1 95 -6 28 2 43 25 47 14 3 25 2 25 -1 0 -3 23 -6 50
-6 40 0 51 4 56 19 8 24 9 255 1 262 -3 3 -3 13 0 21 7 19 -16 34 -36 24 -9
-4 -27 -5 -40 -2 -13 4 -51 4 -83 1 -32 -3 -61 -4 -63 -1 -10 10 -77 5 -87 -6z"/>
<path d="M3068 5600 c-28 -4 -35 -8 -29 -19 5 -7 5 -28 1 -46 -4 -18 -4 -38 0
-45 4 -6 5 -21 3 -33 -4 -22 -4 -22 153 -20 86 1 159 4 161 7 9 8 3 140 -6
149 -9 9 -227 15 -283 7z"/>
<path d="M1996 5442 c-3 -2 -21 -4 -40 -4 -20 0 -36 -3 -36 -6 -4 -52 -4 -232
0 -232 3 0 4 -18 2 -40 -4 -36 -2 -40 19 -40 87 0 134 2 137 5 6 6 3 196 -3
206 -4 5 -2 9 2 9 5 0 6 21 3 47 -5 46 -6 48 -42 54 -21 3 -40 4 -42 1z"/>
<path d="M3358 5232 c-5 -83 0 -111 20 -111 38 -1 174 0 180 0 4 1 12 0 17 -1
21 -4 90 2 98 9 4 4 8 37 10 74 2 59 0 68 -17 73 -22 7 -247 7 -253 0 -3 -3
-15 -1 -28 4 -22 9 -23 7 -27 -48z"/>
<path d="M640 5043 c0 -79 1 -83 23 -83 12 0 80 0 151 -1 70 0 132 3 136 8 10
10 18 93 9 93 -3 0 -4 13 -1 29 l4 29 -59 1 c-94 2 -140 2 -149 0 -5 -1 -11
-1 -14 0 -3 1 -26 3 -53 4 l-47 2 0 -82z"/>
<path d="M1176 5123 c-1 -1 -15 -3 -32 -5 -28 -2 -29 -3 -26 -52 2 -28 4 -63
4 -78 1 -23 6 -28 27 -29 14 0 50 -1 79 -2 50 -2 53 -1 49 21 -2 12 -1 22 4
22 4 0 4 13 -1 29 -4 17 -5 31 -1 33 4 2 4 17 0 33 -8 28 -12 30 -54 30 -26 0
-48 -1 -49 -2z"/>
<path d="M1496 5123 c-1 -1 -15 -3 -32 -5 -28 -2 -29 -3 -26 -52 2 -28 4 -63
4 -78 1 -22 7 -27 35 -30 19 -2 37 0 39 4 3 5 10 6 15 2 13 -8 189 -8 214 -1
17 6 20 14 17 54 -2 27 -3 61 -2 76 0 17 -4 26 -10 22 -5 -3 -10 -3 -10 2 0 7
-237 12 -244 6z"/>
<path d="M2410 5117 c0 -5 -3 -6 -7 -4 -5 3 -7 -14 -6 -36 1 -23 2 -59 2 -81
1 -32 4 -38 20 -33 10 2 25 0 34 -4 10 -6 18 -5 22 1 4 6 11 7 17 4 17 -11
209 -7 221 5 10 10 16 81 7 81 -3 0 -5 16 -4 35 2 31 -1 35 -25 36 -203 4
-281 3 -281 -4z"/>
<path d="M1919 4920 c-2 -197 0 -263 10 -273 12 -12 130 -12 142 0 7 7 11 136
10 269 -1 40 -2 41 -37 42 -20 1 -39 3 -41 6 -3 2 -17 1 -33 -4 -18 -5 -32 -4
-39 3 -8 8 -11 -4 -12 -43z"/>
<path d="M3080 4962 c-40 -6 -47 -17 -40 -69 3 -27 3 -60 0 -73 -3 -14 -3 -42
1 -63 3 -20 3 -39 0 -42 -4 -2 -5 -19 -3 -38 3 -30 7 -35 27 -32 13 1 29 -1
35 -5 7 -4 27 -4 45 0 21 5 38 3 44 -3 12 -12 13 -2 12 192 0 63 -5 119 -10
124 -10 10 -67 15 -111 9z"/>
<path d="M640 4723 c0 -93 -8 -86 90 -83 77 1 128 1 181 -2 25 -2 46 1 47 7 1
14 2 87 1 105 0 8 1 22 3 30 2 9 -5 16 -17 16 -11 1 -23 3 -27 4 -11 2 -96 2
-105 0 -5 -2 -12 -1 -18 0 -5 1 -43 2 -83 3 l-72 2 0 -82z"/>
<path d="M1119 4794 c-3 -56 -1 -105 4 -110 3 -3 3 -13 0 -21 -8 -20 16 -34
38 -23 9 5 19 7 22 4 10 -10 79 -6 89 4 12 12 17 92 7 92 -4 0 -5 13 -3 29 3
27 1 29 -37 33 -22 2 -42 1 -45 -3 -2 -4 -20 -3 -39 1 -27 6 -35 5 -36 -6z"/>
<path d="M1438 4778 c-3 -15 -1 -33 3 -40 4 -6 4 -19 0 -27 -4 -9 -5 -27 -2
-41 7 -28 18 -31 143 -33 43 -1 78 1 78 5 0 4 12 3 28 -1 51 -13 71 -4 74 37
4 54 -3 123 -12 117 -5 -3 -11 -1 -15 4 -3 7 -15 7 -29 1 -13 -5 -26 -6 -29
-4 -3 3 -57 6 -120 7 l-115 2 -4 -27z"/>
<path d="M650 4482 c-6 -2 -10 -175 -10 -483 l0 -479 28 -1 c55 -2 167 -1 177
1 6 1 12 2 15 0 20 -7 84 -3 92 7 5 6 9 60 8 120 0 59 0 119 0 133 5 109 4
230 -1 230 -3 0 -3 20 1 43 3 24 3 52 0 62 -3 10 -3 37 0 61 4 24 4 48 0 54
-4 7 -4 26 -1 43 4 18 4 49 0 70 -3 20 -4 37 0 37 3 0 4 23 2 51 -1 28 -5 48
-8 46 -2 -3 -18 -1 -34 3 -16 5 -29 5 -29 1 0 -5 -17 -5 -38 -1 -20 3 -49 3
-64 -1 -15 -4 -29 -5 -32 -2 -6 6 -91 10 -106 5z"/>
<path d="M1128 4475 c-14 -11 -19 -275 -6 -275 4 0 5 -7 2 -15 -9 -23 -10
-105 -1 -105 5 0 5 -4 2 -10 -5 -8 -8 -476 -3 -532 1 -17 33 -25 63 -18 6 1
17 2 25 1 27 -2 63 -1 67 3 4 4 6 94 3 111 -1 6 -1 15 0 20 2 13 2 87 0 100
-1 6 -2 14 0 20 6 30 4 95 -3 95 -5 0 -5 4 -2 10 6 9 9 94 5 115 -1 6 -1 15 0
20 2 13 2 87 0 100 -1 6 -2 14 0 20 6 30 4 95 -3 95 -5 0 -5 4 -2 10 8 13 11
108 3 115 -3 3 -3 20 1 38 3 18 5 44 3 59 -3 24 -7 27 -32 24 -16 -2 -32 -1
-35 2 -9 9 -74 7 -87 -3z"/>
<path d="M1462 4479 c-13 -5 -22 -17 -23 -31 -1 -52 0 -234 1 -243 2 -5 2 -14
0 -20 -4 -23 -5 -105 0 -105 3 0 4 -24 3 -52 -3 -51 -5 -378 -4 -467 1 -24 4
-42 7 -38 3 3 17 2 30 -3 14 -6 26 -6 29 1 4 5 11 7 16 3 9 -5 83 -8 104 -4 6
1 15 1 20 0 6 -1 32 -2 58 -3 52 0 72 15 58 42 -4 9 -5 27 -2 40 4 14 4 49 1
78 -3 30 -4 55 -2 57 3 4 5 381 1 401 -1 6 -1 13 -1 16 1 3 1 26 1 50 1 24 2
73 2 109 1 36 1 72 0 80 -2 25 -1 58 1 72 2 8 -9 13 -30 15 -19 1 -36 4 -39 6
-2 3 -17 1 -33 -3 -16 -4 -31 -6 -34 -3 -8 8 -86 9 -86 1 0 -4 -12 -3 -28 1
-15 5 -37 4 -50 0z"/>
<path d="M2270 4480 c-24 -4 -34 -10 -31 -20 2 -8 3 -19 3 -25 -2 -25 -3 -121
-2 -130 1 -5 2 -14 1 -19 -2 -10 -1 -82 1 -108 1 -13 10 -18 32 -19 128 -3
121 -1 123 -39 1 -19 2 -39 3 -45 2 -10 2 -42 0 -150 -2 -82 -2 -81 18 -83 21
-2 283 -2 297 0 6 1 9 22 7 47 -2 44 -3 93 -1 191 0 25 0 52 0 60 -1 16 -20
20 -111 23 l-45 2 -2 135 c-1 74 -2 144 -2 155 -1 16 -9 21 -33 24 -64 5 -224
6 -258 1z"/>
<path d="M3394 4320 l-29 -5 -3 -149 c-1 -82 2 -154 7 -159 11 -11 292 -10
304 2 9 9 13 218 5 227 -3 3 -2 21 2 40 4 18 7 35 6 35 -10 9 -249 16 -292 9z"/>
<path d="M1958 4162 c-26 -2 -37 -8 -37 -20 -2 -71 1 -128 8 -135 8 -8 139
-12 147 -4 5 4 5 109 2 150 -1 12 -43 15 -120 9z"/>
<path d="M1930 3840 c-8 -5 -12 -30 -11 -76 1 -38 2 -75 2 -81 0 -7 0 -33 0
-58 0 -25 1 -58 1 -75 2 -32 1 -32 83 -32 82 0 76 -5 76 75 -1 39 0 79 0 87 1
8 0 46 -1 83 -2 60 -5 70 -24 76 -11 5 -32 5 -46 1 -14 -4 -35 -4 -46 0 -11 5
-27 5 -34 0z"/>
<path d="M2239 3528 c-1 -8 0 -174 2 -183 1 -5 0 -14 -1 -20 -2 -10 0 -79 2
-110 1 -15 15 -18 98 -15 44 1 66 0 162 -3 43 -2 49 1 56 23 5 14 5 37 1 53
-4 15 -4 27 -1 27 4 0 6 21 4 47 -4 61 -4 76 -2 88 6 30 -2 82 -12 83 -48 5
-259 4 -264 -1 -4 -4 -15 -2 -25 4 -11 5 -19 8 -20 7z"/>
<path d="M3080 3519 c0 -3 -10 -5 -22 -5 -19 1 -21 -3 -19 -59 3 -87 3 -89 14
-96 5 -4 22 -3 37 1 15 4 33 4 40 0 7 -4 24 -4 39 -1 30 8 38 36 33 112 -3 36
-8 48 -20 48 -10 0 -36 1 -60 3 -23 2 -42 0 -42 -3z"/>
<path d="M640 3284 c0 -64 3 -83 15 -88 8 -3 15 -1 15 3 0 5 15 6 33 2 17 -4
46 -4 64 0 18 3 35 4 38 1 7 -7 69 -7 81 0 5 3 18 2 29 -2 11 -4 27 -5 35 -3
15 4 15 9 9 130 -2 35 -19 45 -55 32 -11 -4 -26 -4 -32 0 -6 3 -42 4 -81 1
-39 -3 -71 -3 -71 0 0 3 -18 5 -40 5 l-40 0 0 -81z"/>
<path d="M1119 3343 c-1 -41 -1 -93 1 -100 1 -5 1 -16 0 -27 -1 -15 4 -18 29
-14 17 2 31 2 31 -1 0 -13 85 -5 94 8 10 16 14 91 5 91 -4 0 -5 14 -3 30 3 28
2 30 -34 31 -20 0 -56 1 -80 2 -37 2 -42 -1 -43 -20z"/>
<path d="M1439 3343 c-1 -41 -1 -93 1 -100 1 -5 1 -16 0 -27 -1 -15 4 -18 29
-14 17 2 31 2 31 -1 0 -3 40 -6 90 -6 49 0 90 3 90 7 0 4 13 3 29 -2 44 -12
54 0 52 69 -2 103 6 93 -81 92 -61 -1 -135 -1 -193 2 -43 2 -47 0 -48 -20z"/>
<path d="M1927 3363 c-9 -14 -11 -138 -3 -151 7 -12 56 -22 56 -11 0 4 12 4
28 0 52 -13 72 -4 73 37 1 20 1 40 1 43 -1 4 -2 23 -4 44 -2 32 -5 36 -24 32
-13 -2 -28 -1 -34 3 -7 4 -27 4 -46 0 -21 -5 -34 -4 -37 3 -2 8 -5 8 -10 0z"/>
<path d="M678 3042 l-38 -3 0 -78 c0 -62 3 -78 15 -79 13 -1 82 -2 118 -1 6 0
38 0 69 -1 31 -1 61 1 67 4 5 4 12 2 16 -4 4 -6 12 -7 22 -1 16 8 19 67 9 141
-4 31 0 29 -41 20 -19 -4 -37 -5 -39 -1 -2 3 -38 4 -80 1 -42 -3 -77 -3 -79 0
-1 3 -19 4 -39 2z"/>
<path d="M1160 3042 c-14 -2 -29 -7 -33 -11 -6 -6 -11 -94 -8 -137 1 -12 8
-13 95 -14 64 -1 79 9 66 44 -4 12 -4 29 -1 40 4 10 5 31 3 46 -3 25 -8 28
-36 26 -17 -1 -38 1 -46 4 -8 3 -26 4 -40 2z"/>
<path d="M1480 3042 c-37 -6 -41 -13 -41 -78 -1 -82 -2 -79 29 -82 65 -7 94
-7 99 0 2 5 9 6 14 2 13 -8 169 -8 176 0 6 6 6 105 0 140 -3 17 -11 19 -73 17
-125 -4 -161 -4 -170 1 -5 2 -20 2 -34 0z"/>
<path d="M2440 3042 c-37 -5 -41 -13 -41 -78 -1 -79 -1 -80 14 -82 56 -6 327
-3 311 4 -7 3 -9 18 -4 44 4 21 4 44 0 50 -4 6 -6 22 -5 35 3 20 -2 24 -32 27
-19 2 -36 1 -38 -3 -3 -3 -22 -3 -42 0 -21 4 -51 4 -68 1 -16 -4 -39 -4 -50 0
-11 3 -31 4 -45 2z"/>
<path d="M3397 2882 c-27 -2 -37 -7 -34 -17 3 -7 3 -15 1 -18 -4 -4 -6 -129
-4 -260 0 -27 -10 -26 169 -27 74 -1 138 3 143 8 6 6 9 70 9 143 -1 74 -2 143
-2 154 0 19 -6 20 -122 20 -67 0 -139 -1 -160 -3z"/>
<path d="M644 2721 c-2 -2 -4 -219 -4 -482 l0 -477 44 -4 c25 -1 59 0 75 3 17
4 31 4 31 0 0 -3 26 -5 57 -4 32 1 70 2 84 2 24 1 27 6 31 42 2 22 0 43 -4 45
-5 3 -6 10 -2 15 3 5 5 55 4 109 -1 117 -1 108 0 232 1 54 -1 102 -4 107 -4 5
-2 12 3 15 5 3 6 21 1 40 -4 19 -6 37 -3 39 2 3 3 29 3 58 0 30 -1 63 0 74 0
11 0 53 0 94 1 41 -3 78 -9 84 -5 5 -28 8 -50 5 -23 -2 -41 -1 -41 2 0 6 -210
7 -216 1z"/>
<path d="M1121 2722 c-5 -2 -6 -15 -1 -32 4 -16 6 -31 3 -33 -7 -8 -6 -234 1
-246 4 -6 4 -11 -1 -11 -9 0 -8 -294 2 -309 3 -6 2 -11 -3 -11 -6 0 -7 -14 -2
-35 4 -19 5 -35 1 -35 -4 0 -6 -155 -2 -236 1 -6 16 -12 34 -12 17 0 34 -1 37
-2 3 -1 23 -2 46 -3 30 -2 41 2 42 13 5 52 3 261 -3 270 -3 5 -1 10 5 10 7 0
8 6 1 19 -6 10 -8 21 -5 24 4 3 6 59 5 124 -1 65 -2 124 -1 131 0 15 0 38 0
55 -1 6 0 76 1 155 1 86 -3 148 -9 154 -9 9 -130 17 -151 10z"/>
<path d="M1488 2722 c-28 -2 -48 -8 -49 -15 -1 -10 0 -58 2 -102 0 -5 0 -62 0
-125 -1 -63 -1 -122 0 -130 0 -8 -1 -63 -3 -123 -2 -59 0 -107 3 -107 4 0 3
-15 -1 -34 -4 -19 -4 -40 1 -47 4 -7 5 -17 2 -22 -4 -7 -7 -188 -2 -212 0 -5
0 -18 -1 -29 -1 -15 4 -18 29 -14 17 2 31 2 31 -1 0 -3 59 -6 130 -6 l130 0 1
25 c0 21 -1 210 -2 245 0 6 0 71 0 145 0 74 1 142 0 150 0 8 1 61 3 118 2 56
-1 102 -5 102 -5 0 -5 5 -1 11 6 10 9 86 4 107 -1 4 -1 17 0 30 1 12 -5 25
-13 28 -17 6 -192 10 -259 6z"/>
<path d="M1967 2722 c-44 -3 -47 -5 -47 -30 0 -15 1 -65 1 -111 0 -46 2 -88 5
-93 3 -4 1 -8 -4 -8 -5 0 -6 -20 -2 -45 4 -24 4 -49 1 -54 -4 -6 -4 -39 -1
-75 3 -37 3 -66 0 -66 -3 0 -4 -24 -2 -52 1 -29 3 -60 3 -68 0 -117 0 -228 -1
-240 -2 -59 3 -106 10 -114 12 -12 130 -10 143 3 5 5 8 60 7 123 -1 62 -1 120
-1 128 0 8 0 58 0 110 0 52 0 106 1 120 1 14 2 32 1 40 0 8 0 51 0 95 1 236 0
316 -5 324 -8 12 -50 17 -109 13z"/>
<path d="M2274 2718 c-3 -4 -11 -5 -19 -1 -11 4 -15 -3 -16 -28 -1 -44 1 -260
3 -277 1 -10 12 -13 35 -10 18 2 33 2 33 -2 0 -3 24 -4 52 -2 29 2 58 3 63 3
6 0 35 -1 65 -1 83 -2 82 -3 71 19 -6 10 -7 21 -4 25 6 5 8 88 3 111 -1 6 -2
13 0 18 2 9 2 95 0 105 -1 4 -2 15 -1 25 2 12 -5 17 -26 17 -15 1 -79 2 -141
3 -63 1 -116 -1 -118 -5z"/>
<path d="M2245 2078 c-9 -6 -11 -18 -5 -42 4 -19 6 -37 4 -39 -7 -7 -7 -227
-1 -234 11 -10 299 -5 309 5 8 8 11 85 7 202 0 8 0 20 1 25 1 6 2 26 1 45 -1
33 -4 36 -33 39 -74 6 -270 5 -283 -1z"/>
<path d="M5800 1762 c-30 -5 -52 -21 -44 -33 5 -9 6 -111 1 -227 -2 -44 1 -53
17 -58 16 -5 133 -7 269 -5 l37 1 0 160 c0 159 0 160 -22 159 -13 0 -70 1
-128 3 -58 2 -116 1 -130 0z"/>
<path d="M688 1602 l-48 -3 0 -74 c0 -41 5 -77 11 -80 8 -5 203 -9 290 -6 10
1 17 10 17 24 0 12 1 27 2 32 1 6 2 31 1 56 -1 45 -1 46 -36 47 -20 1 -40 4
-45 7 -5 3 -11 2 -14 -3 -2 -4 -33 -5 -68 -2 -35 3 -84 4 -110 2z"/>
<path d="M1185 1603 c-72 -8 -70 -6 -68 -79 2 -37 6 -71 11 -76 5 -5 42 -9 83
-10 59 -1 73 2 70 13 -4 14 -4 36 -1 54 1 6 2 29 1 51 -1 36 -4 41 -23 40 -13
-1 -27 0 -33 4 -5 3 -23 4 -40 3z"/>
<path d="M1468 1602 c-27 -3 -36 -23 -28 -57 1 -5 2 -17 1 -25 -1 -15 -1 -44
1 -67 1 -11 53 -16 123 -13 17 1 35 2 40 1 6 0 42 -1 80 -2 l70 -1 0 36 c0 20
4 36 8 36 5 0 6 4 3 8 -3 5 -6 25 -8 45 -2 41 7 38 -113 39 -31 0 -58 -2 -60
-4 -3 -3 -24 -2 -48 1 -23 3 -54 5 -69 3z"/>
<path d="M1921 1595 c-4 -5 -5 -21 -1 -35 3 -14 3 -39 -1 -57 -10 -48 7 -64
68 -65 29 0 56 3 62 6 5 4 13 1 18 -6 9 -15 20 79 15 128 -3 24 -9 32 -25 33
-12 0 -46 2 -75 3 -30 2 -57 -1 -61 -7z"/>
<path d="M2283 1602 c-48 -3 -46 0 -44 -101 1 -30 3 -56 5 -59 7 -6 294 -4
305 2 11 7 20 66 10 72 -4 2 -4 17 1 33 14 49 11 50 -145 54 -49 1 -109 1
-132 -1z"/>
<path d="M5160 1602 c-41 -4 -51 -17 -40 -48 5 -12 6 -25 3 -28 -4 -4 -6 -25
-5 -49 2 -23 2 -48 2 -54 0 -23 0 -108 1 -125 0 -19 -1 -19 154 -19 165 0 167
0 162 15 -3 8 -3 17 0 20 8 8 9 76 1 76 -4 0 -3 12 1 28 5 15 5 36 1 47 -4 11
-4 29 -1 40 10 30 -2 90 -19 93 -24 6 -150 5 -156 -1 -3 -2 -19 -2 -37 2 -18
3 -48 5 -67 3z"/>
<path d="M673 1282 l-33 -3 0 -78 c0 -62 3 -78 15 -79 19 -2 281 -2 298 0 8 1
11 18 9 57 -1 31 -3 66 -3 78 -1 21 -6 22 -71 22 -38 -1 -72 1 -75 4 -2 3 -17
2 -31 -2 -15 -4 -38 -5 -52 -2 -14 4 -40 5 -57 3z"/>
<path d="M1150 1280 c-26 -3 -40 -8 -33 -13 8 -5 9 -17 3 -36 -4 -16 -6 -32
-2 -35 3 -3 5 -22 4 -41 -1 -21 3 -33 8 -30 6 3 10 3 10 -2 0 -12 133 -5 141
8 3 6 3 26 -1 45 -4 19 -4 36 0 39 5 3 5 18 0 34 -4 16 -7 31 -5 33 5 5 -74 4
-125 -2z"/>
<path d="M1444 1260 c-3 -14 -7 -30 -9 -37 -2 -7 0 -15 5 -18 5 -3 5 -18 0
-34 -14 -51 -8 -53 160 -51 69 0 133 1 143 1 12 0 17 8 18 27 0 15 1 49 2 75
2 59 7 57 -176 60 l-138 2 -5 -25z"/>
<path d="M1959 1282 c-34 -3 -37 -6 -37 -35 0 -18 -1 -36 -2 -42 -1 -5 -2 -26
-1 -46 1 -26 6 -36 19 -37 47 -3 135 -3 139 1 2 2 3 31 3 63 -1 33 -1 68 -1
79 0 21 -27 25 -120 17z"/>
<path d="M2239 1282 c-2 -17 1 -129 4 -146 3 -16 12 -19 53 -18 27 0 81 1 119
1 119 1 129 1 138 10 12 12 12 130 0 142 -6 6 -31 10 -57 9 -25 0 -54 -1 -63
-1 -70 2 -138 0 -141 -4 -2 -2 -15 0 -28 5 -13 5 -24 6 -25 2z"/>
<path d="M2717 1270 c-2 -8 0 -29 4 -47 3 -17 3 -35 -1 -40 -4 -4 -4 -21 1
-38 8 -30 9 -30 75 -28 37 2 72 7 76 11 10 10 14 90 4 99 -3 3 -1 12 4 18 18
21 -11 33 -87 37 -58 2 -73 0 -76 -12z"/>
<path d="M3078 1282 c-26 -2 -37 -8 -37 -20 -2 -58 0 -137 4 -140 3 -4 263 -5
275 -1 3 1 13 1 23 0 14 -2 17 7 18 51 2 67 -1 91 -10 101 -8 8 -205 15 -273
9z"/>
<path d="M3558 1282 c-21 -2 -38 -7 -39 -13 0 -5 -1 -25 -1 -44 0 -19 1 -50 1
-68 l1 -34 56 -2 c31 -1 60 -4 64 -6 4 -2 14 1 23 8 15 11 18 30 17 104 0 12
1 28 2 35 2 8 -9 13 -30 15 -18 1 -39 3 -45 5 -7 2 -29 2 -49 0z"/>
<path d="M4030 1280 c-25 -3 -40 -8 -34 -12 8 -5 9 -20 4 -42 -4 -19 -4 -39 0
-46 4 -6 6 -22 4 -36 -3 -27 -17 -25 179 -25 65 0 124 4 130 9 7 6 11 29 10
54 -2 23 -4 55 -4 71 -2 23 -6 27 -33 28 -17 0 -71 1 -121 2 -49 1 -110 0
-135 -3z"/>
<path d="M4638 1227 c-2 -31 0 -70 4 -85 l7 -27 128 2 c70 1 140 2 155 3 24 0
26 3 30 51 1 28 0 53 -3 55 -3 1 -4 16 -2 31 l5 28 -160 0 -160 0 -4 -58z"/>
<path d="M5643 1282 c-36 -3 -43 -7 -44 -25 -1 -27 -1 -207 0 -261 1 -22 4
-37 7 -34 3 4 19 2 35 -2 17 -5 29 -5 29 0 0 5 7 7 16 3 9 -3 28 -6 43 -7 l26
-1 0 -123 c0 -67 2 -122 5 -122 3 0 5 -16 4 -35 -2 -34 -1 -35 35 -36 20 -1
41 0 46 1 6 1 19 2 30 1 81 -4 102 -4 111 1 5 3 18 2 28 -2 11 -3 30 -5 43 -2
23 4 23 5 23 162 0 179 13 158 -100 163 l-55 2 -6 38 c-3 20 -3 37 0 37 4 0 4
29 1 66 -3 36 -3 69 0 75 4 5 4 28 1 52 -5 38 -9 42 -36 45 -44 3 -138 2 -143
-2 -2 -2 -16 -1 -30 2 -15 4 -46 6 -69 4z"/>
<path d="M640 483 l0 -483 160 0 c88 0 160 3 161 8 5 53 2 162 -4 162 -5 0 -6
4 -3 9 5 7 7 43 6 114 -1 18 -1 76 -1 102 1 8 1 40 1 70 0 30 0 63 0 73 0 9
-1 33 -1 52 -1 19 -1 42 -1 50 0 8 1 65 1 125 0 61 1 120 1 132 0 12 0 26 1
30 4 22 -3 31 -23 32 -13 0 -44 2 -71 3 -26 2 -47 0 -47 -4 0 -4 -7 -5 -14 -2
-8 3 -49 6 -90 7 l-76 2 0 -482z"/>
<path d="M1190 960 c0 -3 -16 -4 -35 -2 -25 3 -35 0 -36 -9 0 -8 0 -79 1 -159
1 -171 1 -137 0 -290 -1 -69 -1 -129 0 -135 1 -5 2 -14 0 -20 -6 -30 -4 -105
3 -105 5 0 6 -4 3 -9 -4 -7 -10 -176 -7 -218 1 -9 24 -13 81 -13 76 0 80 1 81
23 1 45 1 242 -1 252 -1 6 -2 12 0 15 6 16 4 80 -3 80 -5 0 -5 5 -2 11 7 10
10 112 5 134 -1 6 -1 13 0 18 1 4 2 23 2 42 0 19 -1 38 -2 43 -1 4 -1 12 0 17
5 24 2 234 -4 243 -3 6 -2 13 3 17 7 3 7 15 1 29 -5 13 -6 26 -4 29 3 3 -15 7
-40 9 -25 2 -46 1 -46 -2z"/>
<path d="M1496 963 c-1 -1 -15 -3 -32 -5 -28 -2 -29 -3 -26 -47 4 -63 4 -57 2
-143 -1 -42 1 -82 5 -87 3 -6 3 -11 -2 -11 -9 0 -8 -163 1 -186 3 -8 2 -14 -2
-14 -4 0 -6 -21 -5 -47 3 -56 3 -92 2 -233 0 -58 0 -124 0 -147 l1 -43 163 0
162 0 -2 52 c0 29 -2 76 -3 103 -1 28 -1 52 0 55 4 16 1 302 -3 306 -3 3 -1
18 3 34 4 16 6 31 3 33 -2 3 -4 27 -4 54 2 64 1 295 -1 311 -1 6 -13 12 -27
13 -116 3 -233 4 -235 2z"/>
<path d="M1953 962 c-36 -4 -35 1 -33 -122 1 -101 -1 -163 -6 -171 -2 -4 -1
-10 4 -13 5 -3 6 -28 2 -56 -4 -27 -4 -50 0 -50 3 0 3 -30 0 -66 -3 -36 -3
-67 -1 -70 3 -2 4 -23 3 -47 -4 -99 -3 -228 3 -237 3 -6 3 -10 -2 -10 -10 0
-8 -93 1 -109 4 -6 38 -11 82 -11 74 0 74 0 75 28 1 15 0 32 -1 37 -1 6 -1 44
0 85 1 41 1 154 1 250 0 96 -1 198 0 225 0 28 0 59 0 70 -1 102 1 170 5 177 3
4 1 8 -3 8 -5 0 -7 17 -5 39 3 28 0 40 -12 44 -8 3 -18 2 -21 -3 -3 -5 -18 -5
-33 -2 -15 4 -42 6 -59 4z"/>
<path d="M2250 960 c-12 -7 -18 -110 -8 -116 5 -3 6 -10 2 -15 -3 -6 -5 -80
-5 -165 2 -152 2 -172 0 -196 0 -13 0 -64 1 -213 0 -38 1 -74 1 -80 0 -5 -1
-35 -1 -65 -1 -30 -1 -67 -1 -82 l1 -28 154 0 c98 0 157 4 161 11 4 5 6 56 6
112 -1 56 -1 110 -1 120 0 37 0 68 -1 85 0 9 1 67 2 129 0 62 -2 116 -5 122
-4 5 -2 12 3 16 7 3 7 15 1 29 -5 13 -6 26 -3 29 2 3 4 52 4 109 -2 129 -2
132 0 163 1 14 -1 29 -5 32 -3 3 -34 5 -68 4 -73 -2 -63 -2 -156 1 -41 2 -78
1 -82 -2z"/>
<path d="M2731 960 c-10 -6 -13 -103 -13 -446 1 -242 1 -456 1 -477 l1 -38 83
2 82 2 -1 208 c-1 115 -4 216 -7 223 -3 8 -3 17 0 20 7 7 8 95 0 102 -3 3 -2
18 3 33 4 16 4 34 0 42 -5 7 -6 17 -3 22 4 7 5 247 1 291 -1 16 -61 27 -80 15
-6 -4 -21 -4 -33 1 -12 5 -27 5 -34 0z"/>
<path d="M3085 962 c-16 -2 -34 -7 -38 -12 -5 -4 -8 -66 -8 -136 2 -198 1
-226 -5 -235 -3 -5 0 -9 6 -9 6 0 9 -4 6 -8 -4 -7 -7 -88 -6 -172 1 -8 1 -91
1 -185 0 -94 0 -178 0 -187 0 -16 15 -18 160 -18 l159 0 0 48 c4 411 -1 897
-8 904 -10 10 -179 14 -189 5 -3 -3 -15 -2 -27 1 -11 4 -34 6 -51 4z"/>
<path d="M3529 956 c-11 -8 -13 -33 -11 -101 2 -81 2 -120 1 -157 0 -7 0 -26
1 -43 0 -16 -1 -81 -2 -143 -2 -61 0 -112 4 -112 4 0 5 -7 2 -15 -3 -8 -7 -98
-7 -200 l-2 -185 86 0 86 0 -7 40 c-4 22 -4 42 0 45 4 2 4 25 0 50 -4 25 -4
45 -1 45 7 0 4 108 -3 127 -3 7 -1 13 4 13 5 0 5 12 0 29 -4 16 -6 32 -3 34 8
9 8 107 0 107 -5 0 -5 5 -2 10 4 6 6 35 5 65 -1 30 -1 63 -1 73 0 50 0 289 0
303 0 17 -56 33 -64 18 -3 -4 -20 -4 -38 1 -21 4 -39 3 -48 -4z"/>
<path d="M3860 962 c-23 -3 -25 -7 -22 -45 1 -23 3 -46 3 -52 -2 -102 -2 -212
-1 -220 1 -5 1 -14 0 -20 -3 -12 -3 -246 0 -260 1 -5 1 -14 0 -20 -2 -13 -2
-87 0 -100 1 -5 2 -13 0 -17 -4 -18 -2 -99 3 -104 3 -3 2 -17 -2 -31 -4 -14
-5 -41 -3 -59 l4 -34 159 0 c99 0 159 4 160 10 1 21 0 140 -1 148 -1 4 -1 12
0 17 4 23 3 92 -2 100 -3 6 -2 19 2 30 4 11 4 32 -1 48 -4 15 -5 27 -1 27 8 0
7 128 0 136 -3 3 -2 19 1 37 4 18 4 45 0 61 -5 16 -6 33 -3 38 5 7 6 132 3
238 0 8 0 20 1 25 7 31 -2 42 -32 44 -74 4 -245 6 -268 3z"/>
<path d="M4513 962 c-32 -3 -33 -5 -34 -50 -1 -114 -1 -188 1 -197 1 -5 2 -25
1 -44 -1 -31 -3 -33 -31 -29 -16 3 -30 1 -30 -3 0 -4 -12 -4 -28 0 -15 5 -37
4 -50 0 -24 -9 -24 -7 -22 -169 0 -58 1 -115 1 -127 -1 -19 5 -23 32 -24 128
-3 122 -1 124 -39 1 -19 2 -39 3 -45 1 -5 2 -13 2 -16 -1 -9 -2 -74 -2 -152
l-1 -67 81 0 80 0 1 38 c0 20 0 77 0 127 0 50 0 113 0 140 0 28 0 59 0 70 -1
119 0 169 5 176 3 5 1 9 -4 9 -5 0 -6 16 -3 36 4 26 13 39 28 45 12 4 25 4 27
0 3 -5 24 -5 46 -1 26 5 43 3 48 -4 13 -16 23 -48 14 -42 -8 4 -7 -132 0 -140
3 -2 2 -21 -2 -42 -3 -20 -3 -50 1 -67 8 -30 8 -30 75 -28 37 2 72 7 76 11 5
5 9 60 8 123 -1 139 -1 155 2 171 3 14 -20 18 -109 19 l-52 1 0 116 c0 205 1
201 -18 201 -10 0 -42 1 -71 3 -28 2 -52 0 -52 -4 0 -4 -6 -5 -14 -2 -17 7
-91 10 -133 6z"/>
<path d="M5143 962 c-25 -4 -33 -32 -22 -74 4 -16 5 -28 1 -28 -8 0 -7 -134 1
-147 3 -5 2 -15 -3 -23 -4 -7 -4 -23 0 -36 5 -12 6 -25 3 -28 -4 -3 -5 -39 -4
-78 1 -40 2 -77 2 -83 0 -5 -1 -37 -2 -71 -3 -77 2 -84 45 -74 19 4 37 5 40 2
3 -2 56 -5 118 -6 l113 -1 1 -36 c1 -21 4 -44 7 -52 3 -8 3 -18 0 -21 -8 -7
-8 -69 -1 -82 3 -5 3 -17 -1 -27 -4 -10 -5 -36 -3 -58 l4 -39 160 2 160 3 2
83 c0 45 -3 82 -7 82 -5 0 -6 4 -3 9 9 14 6 137 -3 147 0 1 -17 -2 -35 -6 -19
-4 -37 -5 -40 -2 -3 2 -56 5 -118 6 l-113 1 -1 43 c-1 23 -4 49 -8 57 -3 8 -2
15 2 15 8 0 8 68 0 76 -3 3 -3 17 1 32 4 15 4 43 0 61 -4 19 -5 39 -2 43 4 7
5 133 2 238 0 8 0 20 1 25 7 31 -2 42 -32 44 -75 4 -245 6 -265 3z"/>
</g>
</svg>
