<?xml version="1.0" standalone="no"?>
<!DOCTYPE svg PUBLIC "-//W3C//DTD SVG 20010904//EN"
 "http://www.w3.org/TR/2001/REC-SVG-20010904/DTD/svg10.dtd">
<svg version="1.0" xmlns="http://www.w3.org/2000/svg"
 width="800.000000pt" height="800.000000pt" viewBox="0 0 800.000000 800.000000"
 preserveAspectRatio="xMidYMid meet">
<metadata>
Created by potrace 1.14, written by Peter Selinger 2001-2017
</metadata>
<g transform="translate(0.000000,800.000000) scale(0.100000,-0.100000)"
fill="#000000" stroke="none">
<path d="M1730 7584 c-16 -7 -30 -11 -30 -9 0 4 -55 -17 -100 -38 -113 -52
-331 -237 -415 -352 -17 -22 -32 -42 -35 -45 -27 -25 -143 -216 -189 -314 -49
-101 -106 -244 -116 -290 -1 -6 -5 -18 -8 -26 -5 -14 -22 -88 -32 -140 -18
-93 -25 -295 -12 -365 13 -74 20 -101 30 -112 5 -7 7 -13 3 -13 -3 0 9 -27 26
-61 52 -100 159 -182 243 -188 22 -1 58 -7 80 -13 22 -7 42 -12 45 -13 36 -9
264 -142 447 -261 29 -19 57 -34 63 -34 5 0 10 -4 10 -10 0 -5 4 -10 10 -10 5
0 59 -31 121 -70 61 -38 113 -70 116 -70 2 0 30 -17 61 -38 31 -21 64 -42 72
-45 8 -4 35 -20 60 -37 25 -16 72 -45 105 -64 33 -20 112 -68 175 -107 156
-97 160 -99 226 -138 33 -19 61 -37 64 -40 9 -10 111 -71 119 -71 4 0 16 -9
26 -20 10 -11 20 -18 23 -15 2 2 19 -6 36 -19 17 -13 38 -26 46 -29 21 -9 512
-313 527 -326 7 -6 15 -11 19 -11 3 0 26 -13 51 -30 24 -16 46 -30 49 -30 3 0
25 -13 49 -30 24 -16 46 -30 49 -30 2 0 31 -17 63 -37 32 -21 67 -43 78 -50
11 -7 55 -34 98 -60 43 -26 91 -56 105 -65 15 -10 34 -21 42 -25 13 -6 67 -39
180 -112 14 -8 27 -16 30 -16 7 -1 133 -82 148 -95 6 -6 12 -8 12 -5 0 3 27
-12 59 -35 33 -22 65 -40 70 -40 6 0 11 -4 11 -9 0 -5 8 -11 18 -14 9 -4 67
-38 127 -77 61 -38 117 -73 125 -77 8 -4 86 -51 173 -105 86 -54 161 -98 166
-98 5 0 11 -4 13 -8 2 -4 48 -35 102 -67 55 -33 122 -75 150 -92 28 -18 58
-36 66 -39 8 -4 23 -14 33 -22 9 -8 17 -13 18 -11 0 2 2 67 4 144 4 144 6 177
20 255 10 62 14 81 40 190 2 8 15 49 30 90 14 41 27 80 29 85 16 56 122 266
166 332 17 24 30 47 30 50 0 3 38 55 84 117 98 129 231 267 316 326 19 13 40
28 45 32 39 31 198 121 207 117 2 0 14 4 28 9 14 5 34 11 45 14 14 2 -30 35
-154 112 -96 59 -185 113 -197 118 -13 6 -24 14 -24 18 0 4 -8 10 -17 13 -10
3 -71 39 -135 79 -242 151 -287 178 -297 178 -5 0 -11 4 -13 8 -3 8 -46 34
-383 240 -77 47 -142 88 -145 91 -3 4 -16 12 -30 19 -14 6 -34 18 -44 24 -68
44 -157 98 -162 98 -2 0 -10 5 -17 10 -7 6 -101 66 -210 133 -272 167 -270
166 -289 173 -10 3 -18 10 -18 15 0 5 -4 9 -10 9 -5 0 -59 32 -121 70 -61 39
-113 70 -116 70 -2 0 -24 14 -48 30 -24 17 -48 30 -53 30 -6 0 -12 3 -14 8 -1
4 -36 28 -77 52 -40 25 -85 53 -100 62 -14 9 -37 23 -51 31 -22 12 -348 212
-660 405 -58 35 -121 74 -140 85 -19 10 -57 34 -85 52 -27 18 -70 44 -95 59
-67 40 -81 48 -127 79 -23 15 -46 27 -52 27 -6 0 -11 3 -11 8 0 4 -9 12 -19
17 -63 32 -141 81 -141 87 0 5 -4 8 -10 8 -13 0 -114 62 -118 72 -2 4 -7 8
-12 8 -4 0 -122 70 -261 155 -267 163 -303 179 -408 174 -28 -2 -64 -8 -81
-15z"/>
<path d="M950 5439 c-159 -46 -297 -134 -443 -284 -43 -44 -99 -107 -123 -140
-24 -33 -51 -69 -60 -80 -8 -11 -27 -40 -42 -65 -14 -25 -29 -47 -32 -50 -3
-3 -12 -18 -20 -35 -8 -16 -22 -41 -31 -55 -9 -14 -17 -28 -18 -32 -1 -5 -15
-38 -32 -75 -17 -36 -44 -107 -61 -157 -16 -50 -32 -98 -35 -106 -3 -8 -7 -24
-8 -36 -1 -11 -4 -25 -8 -30 -3 -5 -8 -28 -11 -50 -4 -22 -9 -51 -12 -64 -13
-54 -12 -288 2 -360 27 -143 104 -259 206 -311 23 -12 45 -24 48 -28 8 -10
111 -71 120 -71 5 0 10 -3 12 -7 2 -5 17 -16 33 -26 46 -27 244 -148 405 -248
133 -82 277 -170 319 -194 9 -5 39 -24 66 -41 166 -104 296 -184 300 -184 5 0
124 -75 140 -88 6 -4 17 -11 25 -15 16 -8 38 -21 80 -48 14 -9 66 -41 115 -71
50 -31 166 -102 258 -159 202 -124 232 -143 275 -165 17 -10 32 -21 32 -26 0
-4 4 -8 10 -8 8 0 378 -223 490 -295 62 -41 281 -175 285 -175 2 0 34 -20 72
-45 37 -25 74 -45 81 -45 6 0 12 -4 12 -9 0 -5 14 -14 30 -21 17 -7 30 -15 30
-19 0 -3 15 -12 33 -20 17 -8 34 -17 37 -21 4 -5 170 -108 288 -179 24 -14 56
-34 70 -44 15 -9 35 -20 45 -23 9 -4 17 -10 17 -14 0 -4 8 -10 18 -13 17 -6
72 -37 82 -47 6 -6 81 -53 200 -124 47 -28 87 -54 88 -58 2 -5 7 -8 12 -8 8 0
109 -59 120 -70 10 -10 65 -41 83 -47 9 -3 17 -9 17 -14 0 -5 7 -9 15 -9 8 0
15 -4 15 -10 0 -5 5 -10 11 -10 7 0 37 -17 68 -37 31 -21 58 -38 61 -38 3 0
31 -18 64 -38 32 -21 60 -37 61 -35 2 2 -2 41 -9 88 -13 91 -14 225 -2 330 9
70 9 72 25 139 5 25 8 49 5 53 -3 4 0 8 7 8 7 0 10 3 6 6 -14 14 74 257 148
404 51 103 71 138 144 250 82 127 259 324 356 395 22 17 42 33 45 36 11 13
119 77 174 103 56 27 57 28 40 45 -11 10 -35 43 -54 74 -31 49 -50 65 -163
134 -70 43 -142 86 -160 97 -18 10 -33 22 -35 27 -2 5 -8 9 -14 9 -6 0 -57 29
-115 65 -57 36 -108 65 -113 65 -5 0 -10 4 -12 8 -1 5 -28 23 -58 40 -80 47
-92 55 -126 79 -17 12 -34 20 -36 18 -3 -3 -13 4 -23 15 -10 11 -22 20 -26 20
-4 0 -61 33 -126 74 -141 87 -351 217 -375 231 -10 6 -86 52 -170 104 -84 52
-162 99 -173 105 -11 6 -46 28 -78 49 -31 20 -61 37 -66 37 -5 0 -11 3 -13 8
-4 9 -107 72 -119 72 -5 0 -9 5 -9 10 0 6 -5 10 -10 10 -6 0 -34 15 -63 34
-28 18 -110 69 -182 113 -71 44 -184 113 -250 154 -65 41 -123 76 -128 78 -15
6 -261 159 -274 171 -7 5 -14 10 -17 10 -3 0 -50 28 -105 63 -56 34 -109 67
-119 72 -56 32 -408 250 -412 255 -3 4 -20 13 -37 21 -18 8 -33 17 -33 21 0 5
-5 8 -11 8 -6 0 -30 14 -54 30 -24 17 -48 30 -53 30 -6 0 -12 3 -14 8 -4 9
-107 72 -119 72 -5 0 -9 5 -9 12 0 6 -3 9 -6 5 -3 -3 -11 -1 -18 4 -16 14
-117 79 -123 79 -2 0 -23 12 -46 28 -23 15 -51 32 -62 39 -98 59 -232 141
-285 175 -124 78 -156 90 -244 94 -44 2 -97 -1 -116 -7z"/>
<path d="M6750 4503 c-30 -7 -60 -15 -65 -16 -54 -13 -215 -111 -284 -172 -46
-41 -145 -144 -172 -180 -13 -16 -28 -35 -34 -41 -5 -6 -17 -22 -25 -34 -8
-12 -19 -28 -25 -34 -21 -23 -85 -126 -85 -136 0 -5 -3 -10 -8 -10 -4 0 -13
-15 -21 -32 -8 -18 -17 -35 -20 -38 -16 -13 -125 -268 -136 -317 -2 -10 -11
-43 -20 -73 -9 -30 -18 -66 -21 -80 -2 -14 -7 -38 -11 -55 -12 -59 -14 -82
-17 -209 -5 -204 36 -338 133 -434 59 -58 122 -84 209 -84 53 -1 73 2 142 16
35 8 209 95 230 116 3 3 28 23 55 45 59 46 179 166 215 214 14 18 30 38 36 45
19 21 131 190 149 226 10 19 24 43 33 53 8 9 12 17 9 17 -4 0 7 26 23 59 42
83 126 311 114 311 -2 0 1 12 7 28 11 27 15 44 24 95 3 15 8 42 11 60 30 161
13 369 -38 472 -79 157 -237 230 -408 188z m151 -148 c73 -24 127 -87 163
-190 27 -76 28 -314 2 -425 -10 -41 -20 -84 -22 -95 -3 -18 -8 -31 -30 -90 -4
-11 -8 -24 -10 -30 -1 -5 -10 -28 -20 -50 -10 -22 -19 -47 -20 -55 -2 -8 -8
-16 -13 -18 -6 -2 -11 -10 -11 -19 0 -8 -25 -58 -56 -111 -230 -394 -557 -625
-781 -551 -71 23 -153 137 -166 230 -3 19 -6 34 -7 34 -10 0 -4 241 7 298 8
40 16 83 19 97 7 40 66 214 76 228 6 6 8 12 4 12 -19 0 171 329 196 338 4 2 8
8 8 14 0 5 6 15 13 22 6 8 32 37 57 66 198 232 431 348 591 295z"/>
<path d="M6775 4179 c-49 -11 -75 -23 -145 -70 -67 -44 -212 -186 -207 -202 3
-11 177 -126 217 -144 8 -4 46 -27 84 -51 38 -24 76 -46 85 -50 9 -3 22 -12
30 -20 12 -12 16 -8 27 24 46 134 64 366 34 444 -2 3 -2 8 -2 11 1 12 -44 58
-63 62 -11 3 -38 1 -60 -4z"/>
<path d="M7528 3225 c-89 -25 -191 -79 -278 -144 -92 -69 -233 -211 -280 -281
-8 -12 -20 -28 -25 -34 -29 -31 -131 -202 -170 -282 -40 -83 -88 -200 -85
-206 1 -2 -4 -16 -10 -33 -17 -41 -47 -153 -54 -195 -3 -19 -8 -46 -11 -60 -3
-14 -7 -63 -10 -110 -2 -47 -5 -87 -6 -90 -2 -7 -2 -6 5 -90 7 -92 9 -99 36
-180 72 -218 249 -297 468 -211 165 65 309 176 472 361 61 70 182 261 240 378
33 67 60 126 60 132 0 6 4 18 9 28 9 16 19 41 27 67 18 56 45 156 50 180 3 17
10 50 16 75 6 25 12 107 13 183 3 141 -10 230 -43 306 -9 20 -16 39 -16 43 -1
4 -7 13 -13 20 -7 6 -13 16 -13 21 0 16 -86 93 -122 110 -76 36 -164 40 -260
12z m178 -151 c77 -32 142 -130 162 -243 10 -57 8 -263 -3 -316 -37 -175 -75
-287 -150 -437 -30 -62 -60 -115 -64 -118 -5 -3 -11 -12 -13 -19 -2 -8 -8 -22
-15 -30 -6 -9 -38 -52 -71 -96 -119 -159 -248 -271 -385 -336 -78 -36 -94 -40
-174 -44 -77 -4 -129 15 -178 63 -35 36 -72 101 -80 143 -3 13 -8 38 -12 54
-14 62 -7 289 11 360 3 10 19 86 21 95 1 4 14 48 31 100 3 8 5 16 5 17 -1 14
112 247 121 251 5 2 8 8 8 14 0 10 87 149 99 158 4 3 22 25 41 50 69 90 191
202 273 252 28 18 54 35 57 38 13 15 129 55 180 62 40 6 97 -2 136 -18z"/>
<path d="M7503 2885 c-49 -22 -104 -59 -144 -95 -9 -8 -25 -22 -35 -31 -10 -9
-40 -39 -66 -67 -46 -48 -59 -72 -39 -72 5 0 16 -6 23 -13 7 -7 33 -24 58 -38
25 -13 49 -28 55 -32 44 -35 282 -173 288 -167 7 6 29 77 42 135 17 72 23 223
13 281 -7 37 -31 86 -51 102 -28 24 -89 23 -144 -3z"/>
<path d="M6008 2365 c-2 -3 -22 -7 -44 -11 -54 -8 -169 -63 -256 -121 -76 -51
-208 -175 -273 -258 -22 -27 -43 -51 -47 -53 -5 -2 -8 -8 -8 -14 0 -5 -6 -16
-12 -23 -26 -29 -35 -42 -85 -125 -69 -114 -135 -254 -177 -372 -19 -54 -33
-98 -31 -98 2 0 -2 -18 -10 -40 -8 -22 -12 -40 -8 -40 3 0 0 -7 -7 -15 -7 -8
-10 -15 -8 -15 3 0 2 -21 -3 -47 -52 -274 -10 -527 107 -647 56 -57 114 -80
208 -82 116 -2 230 39 380 138 34 22 170 141 184 160 8 11 20 24 28 31 8 7 38
41 66 77 29 36 55 67 58 70 34 33 186 303 227 405 38 95 86 248 98 315 21 118
25 157 27 248 4 209 -51 372 -153 454 -22 18 -44 33 -48 34 -3 0 -19 7 -36 14
-28 12 -168 24 -177 15z m133 -161 c53 -30 68 -46 99 -99 44 -78 64 -166 64
-285 0 -55 -13 -190 -19 -200 -2 -3 -6 -21 -9 -41 -6 -37 -50 -187 -66 -224
-9 -23 -23 -58 -24 -65 -13 -50 -181 -328 -240 -395 -65 -73 -155 -160 -206
-199 -30 -22 -58 -45 -62 -51 -4 -5 -8 -6 -8 -2 0 5 -12 0 -27 -11 -134 -92
-303 -97 -396 -12 -32 28 -78 103 -79 127 0 4 -4 15 -9 24 -31 59 -27 328 7
441 3 9 7 25 9 35 8 37 48 159 65 198 10 22 27 61 39 88 31 74 123 225 187
307 134 174 320 321 468 371 65 22 161 18 207 -7z"/>
<path d="M5935 2013 c-61 -25 -152 -93 -233 -173 -39 -40 -72 -76 -72 -80 0
-4 7 -13 15 -20 8 -7 15 -9 15 -5 0 5 8 1 18 -7 9 -8 64 -43 122 -78 58 -34
124 -76 147 -91 23 -16 45 -29 50 -29 4 0 19 -9 33 -20 14 -11 28 -20 32 -20
12 0 51 136 63 220 9 58 6 179 -5 220 -16 61 -58 100 -107 99 -21 0 -56 -7
-78 -16z"/>
</g>
</svg>
