<svg width="23" height="24" viewBox="0 0 23 24" fill="none" xmlns="http://www.w3.org/2000/svg"><path style='fill: currentColor, stroke="#11E5B3"' d="M4.40479 4.70649L4.39783 4.6969L4.39043 4.68765L1.04031 0.5L6 0.5L12.7324 0.5L16.584 6.27735L16.5973 6.29734L16.6125 6.31596C17.8493 7.83285 19.0627 9.2716 19.9851 10.3616C20.0857 10.4805 20.1828 10.5952 20.276 10.7053C20.6107 11.1007 20.8959 11.4374 21.1166 11.7009C21.2578 11.8694 21.3708 12.0058 21.4528 12.1071C21.4594 12.1152 21.4657 12.123 21.4716 12.1304C21.4469 12.1897 21.4115 12.266 21.3632 12.3606C21.2113 12.6582 20.9623 13.0782 20.6203 13.602C19.9389 14.6457 18.9109 16.0668 17.613 17.6834L12.7658 23.5H6H1.20711L2.35355 22.3536L2.37687 22.3302L2.39692 22.3041C2.81022 21.7645 3.36703 20.8906 3.98539 19.92C4.04266 19.8301 4.10045 19.7394 4.1587 19.6481C4.85379 18.5581 5.62783 17.3555 6.40182 16.2976L9.4 12.3L9.66019 11.9531L9.35355 11.6464L8.37551 10.6684C8.18276 10.4177 7.84299 9.88382 7.37433 9.14742C7.24207 8.93961 7.09955 8.71566 6.94717 8.4774C6.25172 7.38999 5.37616 6.04615 4.40479 4.70649Z"/></svg>
