<svg width="368" height="566" viewBox="0 0 368 566" fill="none" xmlns="http://www.w3.org/2000/svg">
<rect x="144" y="249" width="80" height="63" stroke="#02405D" stroke-width="10"/>
<rect x="120" y="235" width="24" height="90" stroke="#02405D" stroke-width="10"/>
<rect x="224" y="235" width="24" height="90" stroke="#02405D" stroke-width="10"/>
<rect x="267" y="199" width="24" height="90" transform="rotate(-90 267 199)" stroke="#02405D" stroke-width="10"/>
<rect x="11" y="386" width="24" height="90" transform="rotate(-90 11 386)" stroke="#02405D" stroke-width="10"/>
<rect x="181.5" y="211.5" width="5" height="30" stroke="#02405D" stroke-width="5"/>
<rect x="159.5" y="206.5" width="5" height="49" transform="rotate(-90 159.5 206.5)" stroke="#02405D" stroke-width="5"/>
<path d="M289 312H248V249H260C271.046 249 280 240.046 280 229V199H344L344 257C344 287.376 319.376 312 289 312Z" stroke="#02405D" stroke-width="10"/>
<path d="M79 249H120L120 312H108C96.9543 312 88 320.954 88 332V362H24L24 304C24 273.624 48.6243 249 79 249Z" stroke="#02405D" stroke-width="10"/>
<path d="M280 130H344V175H280V130Z" stroke="#02405D" stroke-width="10"/>
<rect x="24" y="386" width="64" height="45" stroke="#02405D" stroke-width="10"/>
<path d="M321.172 107.615C320.333 106.789 319.815 105.8 319.677 104.761C319.54 103.722 319.788 102.674 320.395 101.737C321.986 99.3861 322.61 96.6981 322.203 94.0513C321.869 92.1627 321.049 90.3428 319.789 88.6958C318.545 87.0704 316.881 85.6532 314.898 84.5297C308.139 80.6667 303.396 75.1091 301.51 68.8415C286.069 84.2341 291.99 92.9719 299.385 100.672C300.252 101.574 300.709 102.667 300.686 103.785C300.663 104.903 300.162 105.984 299.259 106.866C298.338 107.758 297.103 108.433 295.697 108.811C294.307 109.182 292.806 109.237 291.376 108.97C281.386 107.113 271.984 103.58 265.611 97.9493C261.998 94.8217 259.217 91.1914 257.421 87.259C255.604 83.2931 254.797 79.1004 255.043 74.905C255.043 74.905 253.841 57.9724 280.69 41.3836C280.69 41.3836 312.421 20.9105 301.41 5.77226C301.005 5.02761 300.884 4.21082 301.064 3.41638C301.243 2.62194 301.714 1.88231 302.423 1.28303C303.112 0.695461 304.022 0.283317 305.029 0.102527C306.037 -0.0782622 307.093 -0.0189423 308.055 0.272437L309.375 0.671174C321.327 6.41648 330.668 14.8162 336.134 24.7329C341.377 34.4469 341.341 45.7697 337.797 55.855C340.735 53.8476 343.185 51.4483 345.038 48.7534L345.3 48.3134C347.09 45.0341 352.722 46.0791 354.838 48.224C355.615 49.1658 375.558 71.2064 364.845 89.8027C360.929 95.4369 355.208 100.23 348.211 103.738C342.341 106.7 335.781 108.784 328.883 109.877C327.458 110.105 325.976 110.015 324.616 109.616C323.245 109.21 322.051 108.519 321.172 107.622V107.615ZM305.207 54.2601C306.051 53.9255 307.029 53.843 307.949 54.0287C308.869 54.2144 309.665 54.6549 310.179 55.2638C310.541 55.6694 310.776 56.13 310.857 56.625L311.264 59.0243C311.445 62.5373 311.391 66.2084 313.19 69.5839C315.052 73.0488 317.945 76.115 321.615 78.5074C326.344 80.8734 330.004 84.2856 332.102 88.2833C334.091 92.1607 334.362 96.4643 332.861 100.472C337.452 99.371 341.72 97.6037 345.427 95.2681L346.358 94.6906C349.396 92.7863 351.9 90.4076 353.708 87.699C355.525 84.9972 356.619 82.0273 356.908 78.9749C357.496 71.9282 354.341 64.8541 349.432 58.543C347.19 61.018 344.098 62.936 340.527 64.0704C338.294 64.7922 335.926 65.2391 333.512 65.3766C332.13 65.4442 330.751 65.2054 329.543 64.6891C328.317 64.1592 327.312 63.3778 326.641 62.4342C326.087 61.6732 325.77 60.8254 325.715 59.9564C325.66 59.0873 325.869 58.2203 326.325 57.4225C330.05 50.7402 331.207 43.3292 329.625 36.1313C327.752 27.8962 322.566 20.3059 314.781 14.407C313.37 29.5659 292.931 43.6798 288.736 46.7184C288.086 47.1843 287.41 47.6293 286.711 48.0521C264.779 61.5611 266.28 73.8669 266.28 74.41C265.845 79.2986 267.286 84.1781 270.43 88.4552C273.729 92.8894 278.475 96.5468 284.171 99.0423C277.598 88.0565 277.598 74.8706 301.853 55.965L305.216 54.2463L305.207 54.2601Z" fill="#45AEE7"/>
<path d="M96 519.862C96 543.57 80.5461 561 56 561C31.454 561 16 543.57 16 519.862C16 514.169 17.1473 508.735 19.2307 503.764C25.8238 488.032 56 451 56 451C56 451 86.1761 488.032 92.7695 503.764C94.8528 508.735 96 514.169 96 519.862Z" stroke="#45AEE7" stroke-width="10" stroke-linecap="round" stroke-linejoin="round"/>
<path d="M19.344 124.732C23.2707 124.732 26.5567 125.104 29.202 125.848C31.8887 126.551 33.8933 127.729 35.216 129.382C36.58 130.994 37.262 133.185 37.262 135.954C37.262 137.607 36.9933 139.116 36.456 140.48C35.9187 141.844 35.1333 142.96 34.1 143.828C33.108 144.696 31.8887 145.254 30.442 145.502V145.812C31.93 146.101 33.2733 146.618 34.472 147.362C35.6707 148.106 36.6213 149.181 37.324 150.586C38.0267 151.991 38.378 153.851 38.378 156.166C38.378 158.853 37.7167 161.167 36.394 163.11C35.1127 165.011 33.2527 166.479 30.814 167.512C28.3753 168.504 25.482 169 22.134 169H5.58V124.732H19.344ZM20.398 142.278C23.126 142.278 25.0067 141.844 26.04 140.976C27.1147 140.108 27.652 138.847 27.652 137.194C27.652 135.499 27.032 134.28 25.792 133.536C24.552 132.792 22.5887 132.42 19.902 132.42H14.942V142.278H20.398ZM14.942 149.718V161.25H21.08C23.8907 161.25 25.854 160.713 26.97 159.638C28.086 158.522 28.644 157.055 28.644 155.236C28.644 154.12 28.396 153.149 27.9 152.322C27.4453 151.495 26.6393 150.855 25.482 150.4C24.3247 149.945 22.754 149.718 20.77 149.718H14.942ZM87.4123 146.804C87.4123 150.235 86.9783 153.355 86.1103 156.166C85.2836 158.935 84.0023 161.333 82.2663 163.358C80.5716 165.383 78.3809 166.933 75.6943 168.008C73.0489 169.083 69.9283 169.62 66.3323 169.62C62.7363 169.62 59.5949 169.083 56.9083 168.008C54.2629 166.892 52.0723 165.342 50.3363 163.358C48.6416 161.333 47.3603 158.915 46.4923 156.104C45.6656 153.293 45.2523 150.173 45.2523 146.742C45.2523 142.154 45.9963 138.165 47.4843 134.776C49.0136 131.387 51.3283 128.762 54.4283 126.902C57.5696 125.001 61.5583 124.05 66.3943 124.05C71.1889 124.05 75.1363 125.001 78.2363 126.902C81.3363 128.762 83.6303 131.407 85.1183 134.838C86.6476 138.227 87.4123 142.216 87.4123 146.804ZM55.1103 146.804C55.1103 149.904 55.5029 152.57 56.2883 154.802C57.0736 157.034 58.2929 158.749 59.9463 159.948C61.5996 161.147 63.7283 161.746 66.3323 161.746C69.0189 161.746 71.1683 161.147 72.7803 159.948C74.4336 158.749 75.6323 157.034 76.3763 154.802C77.1616 152.57 77.5543 149.904 77.5543 146.804C77.5543 142.133 76.6863 138.475 74.9503 135.83C73.2143 133.185 70.3623 131.862 66.3943 131.862C63.7489 131.862 61.5996 132.461 59.9463 133.66C58.2929 134.859 57.0736 136.574 56.2883 138.806C55.5029 141.038 55.1103 143.704 55.1103 146.804ZM130.029 124.732V161.188H135.919V181.896H126.867V169H99.153V181.896H90.101V161.188H93.511C94.6683 158.873 95.7843 156.435 96.859 153.872C97.9337 151.309 98.9257 148.561 99.835 145.626C100.786 142.691 101.633 139.509 102.377 136.078C103.121 132.606 103.741 128.824 104.237 124.732H130.029ZM111.677 132.544C111.388 134.693 110.974 136.987 110.437 139.426C109.9 141.823 109.259 144.283 108.515 146.804C107.812 149.325 107.027 151.805 106.159 154.244C105.291 156.683 104.361 158.997 103.369 161.188H120.667V132.544H111.677ZM170.681 124.732V132.482H152.081V169H142.719V124.732H170.681ZM200.207 169L196.983 158.46H180.863L177.639 169H167.533L183.157 124.546H194.627L210.313 169H200.207ZM191.527 140.294C191.321 139.591 191.052 138.703 190.721 137.628C190.391 136.553 190.06 135.458 189.729 134.342C189.399 133.226 189.13 132.255 188.923 131.428C188.717 132.255 188.427 133.288 188.055 134.528C187.725 135.727 187.394 136.884 187.063 138C186.774 139.075 186.547 139.839 186.381 140.294L183.219 150.586H194.751L191.527 140.294ZM246.486 135.086C246.486 138.062 245.432 140.459 243.324 142.278C241.216 144.097 238.529 145.233 235.264 145.688V145.874C239.315 146.287 242.415 147.424 244.564 149.284C246.755 151.103 247.85 153.479 247.85 156.414C247.85 158.977 247.147 161.271 245.742 163.296C244.337 165.28 242.249 166.83 239.48 167.946C236.711 169.062 233.28 169.62 229.188 169.62C225.84 169.62 222.864 169.413 220.26 169C217.697 168.587 215.465 167.987 213.564 167.202V159.328C214.845 159.948 216.292 160.485 217.904 160.94C219.516 161.353 221.149 161.684 222.802 161.932C224.455 162.139 225.985 162.242 227.39 162.242C231.317 162.242 234.148 161.684 235.884 160.568C237.661 159.411 238.55 157.799 238.55 155.732C238.55 153.624 237.269 152.095 234.706 151.144C232.143 150.152 228.692 149.656 224.352 149.656H220.198V142.34H223.918C227.431 142.34 230.159 142.113 232.102 141.658C234.045 141.203 235.409 140.542 236.194 139.674C236.979 138.806 237.372 137.773 237.372 136.574C237.372 135.045 236.69 133.846 235.326 132.978C234.003 132.069 231.999 131.614 229.312 131.614C227.039 131.614 224.889 131.945 222.864 132.606C220.88 133.267 219.02 134.135 217.284 135.21L213.192 128.948C214.721 127.956 216.333 127.109 218.028 126.406C219.764 125.662 221.665 125.104 223.732 124.732C225.799 124.319 228.093 124.112 230.614 124.112C233.962 124.112 236.814 124.587 239.17 125.538C241.526 126.489 243.324 127.791 244.564 129.444C245.845 131.056 246.486 132.937 246.486 135.086Z" fill="#02405D"/>
<path d="M139.366 398.924C137.589 398.924 135.997 399.275 134.592 399.978C133.228 400.681 132.071 401.693 131.12 403.016C130.169 404.297 129.446 405.868 128.95 407.728C128.495 409.588 128.268 411.675 128.268 413.99C128.268 417.131 128.64 419.818 129.384 422.05C130.169 424.241 131.389 425.915 133.042 427.072C134.695 428.229 136.803 428.808 139.366 428.808C141.185 428.808 142.983 428.601 144.76 428.188C146.579 427.775 148.542 427.196 150.65 426.452V434.326C148.707 435.111 146.785 435.69 144.884 436.062C142.983 436.434 140.854 436.62 138.498 436.62C133.951 436.62 130.19 435.69 127.214 433.83C124.279 431.929 122.109 429.283 120.704 425.894C119.299 422.463 118.596 418.475 118.596 413.928C118.596 410.58 119.051 407.521 119.96 404.752C120.869 401.941 122.192 399.523 123.928 397.498C125.705 395.473 127.875 393.902 130.438 392.786C133.042 391.67 136.018 391.112 139.366 391.112C141.557 391.112 143.747 391.401 145.938 391.98C148.17 392.517 150.299 393.261 152.324 394.212L149.286 401.838C147.633 401.053 145.959 400.371 144.264 399.792C142.611 399.213 140.978 398.924 139.366 398.924ZM185.539 436H160.057V391.732H185.539V399.42H169.419V409.154H184.423V416.842H169.419V428.25H185.539V436ZM208.886 391.732C214.59 391.732 218.744 392.972 221.348 395.452C223.993 397.891 225.316 401.259 225.316 405.558C225.316 407.501 225.027 409.361 224.448 411.138C223.869 412.874 222.898 414.445 221.534 415.85C220.211 417.214 218.455 418.289 216.264 419.074C214.073 419.859 211.366 420.252 208.142 420.252H204.112V436H194.75V391.732H208.886ZM208.39 399.42H204.112V412.564H207.212C208.989 412.564 210.519 412.337 211.8 411.882C213.081 411.427 214.073 410.704 214.776 409.712C215.479 408.72 215.83 407.439 215.83 405.868C215.83 403.677 215.231 402.065 214.032 401.032C212.833 399.957 210.953 399.42 208.39 399.42ZM247.446 391.732C251.372 391.732 254.658 392.104 257.304 392.848C259.99 393.551 261.995 394.729 263.318 396.382C264.682 397.994 265.364 400.185 265.364 402.954C265.364 404.607 265.095 406.116 264.558 407.48C264.02 408.844 263.235 409.96 262.202 410.828C261.21 411.696 259.99 412.254 258.544 412.502V412.812C260.032 413.101 261.375 413.618 262.574 414.362C263.772 415.106 264.723 416.181 265.426 417.586C266.128 418.991 266.48 420.851 266.48 423.166C266.48 425.853 265.818 428.167 264.496 430.11C263.214 432.011 261.354 433.479 258.916 434.512C256.477 435.504 253.584 436 250.236 436H233.682V391.732H247.446ZM248.5 409.278C251.228 409.278 253.108 408.844 254.142 407.976C255.216 407.108 255.754 405.847 255.754 404.194C255.754 402.499 255.134 401.28 253.894 400.536C252.654 399.792 250.69 399.42 248.004 399.42H243.044V409.278H248.5ZM243.044 416.718V428.25H249.182C251.992 428.25 253.956 427.713 255.072 426.638C256.188 425.522 256.746 424.055 256.746 422.236C256.746 421.12 256.498 420.149 256.002 419.322C255.547 418.495 254.741 417.855 253.584 417.4C252.426 416.945 250.856 416.718 248.872 416.718H243.044ZM275.338 391.732H283.77V413.122C283.77 414.155 283.749 415.313 283.708 416.594C283.666 417.875 283.625 419.136 283.584 420.376C283.542 421.575 283.501 422.629 283.46 423.538C283.418 424.406 283.377 425.005 283.336 425.336H283.522L303.982 391.732H315.204V436H306.834V414.734C306.834 413.618 306.854 412.399 306.896 411.076C306.937 409.712 306.978 408.41 307.02 407.17C307.102 405.93 307.164 404.855 307.206 403.946C307.288 402.995 307.35 402.375 307.392 402.086H307.144L286.622 436H275.338V391.732ZM345.165 398.924C343.387 398.924 341.796 399.275 340.391 399.978C339.027 400.681 337.869 401.693 336.919 403.016C335.968 404.297 335.245 405.868 334.749 407.728C334.294 409.588 334.067 411.675 334.067 413.99C334.067 417.131 334.439 419.818 335.183 422.05C335.968 424.241 337.187 425.915 338.841 427.072C340.494 428.229 342.602 428.808 345.165 428.808C346.983 428.808 348.781 428.601 350.559 428.188C352.377 427.775 354.341 427.196 356.449 426.452V434.326C354.506 435.111 352.584 435.69 350.683 436.062C348.781 436.434 346.653 436.62 344.297 436.62C339.75 436.62 335.989 435.69 333.013 433.83C330.078 431.929 327.908 429.283 326.503 425.894C325.097 422.463 324.395 418.475 324.395 413.928C324.395 410.58 324.849 407.521 325.759 404.752C326.668 401.941 327.991 399.523 329.727 397.498C331.504 395.473 333.674 393.902 336.237 392.786C338.841 391.67 341.817 391.112 345.165 391.112C347.355 391.112 349.546 391.401 351.737 391.98C353.969 392.517 356.097 393.261 358.123 394.212L355.085 401.838C353.431 401.053 351.757 400.371 350.063 399.792C348.409 399.213 346.777 398.924 345.165 398.924Z" fill="#02405D"/>
</svg>
