<svg width="40" height="40" viewBox="0 0 40 41" fill="none" xmlns="http://www.w3.org/2000/svg">
<path fill="#6D5B97" fill-rule="evenodd" clip-rule="evenodd" d="M2 0.999852C1.06865 1.33936 0.442427 2.09772 0 2.99985V5.99985V8.99985C0.493542 10.0092 1.99374 10.896 3 10.9999V20.9999V30.9999C1.99374 31.1037 0.493542 31.9905 0 32.9999V35.9999V38.9999C0.343718 39.7028 1.29659 40.6563 2 40.9999H5H8C9.00994 40.5066 9.89612 39.0055 10 37.9999H20H30C30.1039 39.0055 30.9901 40.5066 32 40.9999H35H38C38.7034 40.6563 39.6563 39.7028 40 38.9999V35.9999V32.9999C39.5065 31.9905 38.0063 31.1037 37 30.9999V20.9999V10.9999C38.0063 10.896 39.5065 10.0092 40 8.99985V5.99985V2.99985C39.6563 2.29689 38.7034 1.34335 38 0.999852H35H32C30.9901 1.49308 30.1039 2.99423 30 3.99985H20H10C9.89612 2.99423 9.00994 1.49308 8 0.999852H5C2.76055 0.982407 2.38669 0.858806 2 0.999852ZM30 7.99985C30.0617 8.59697 30.5177 9.51781 31 9.99985C31.4823 10.4819 32.4025 10.9382 33 10.9999V20.9999V30.9999C32.4025 31.0615 31.4823 31.5178 31 31.9999C30.5177 32.4819 30.0617 33.4027 30 33.9999H20H10C9.93832 33.4027 9.48235 32.4819 9 31.9999C8.51765 31.5178 7.5975 31.0615 7 30.9999V20.9999V10.9999C7.5975 10.9382 8.51765 10.4819 9 9.99985C9.48235 9.51781 9.93832 8.59697 10 7.99985H20H30ZM13 12.9999C12.5397 13.2159 12.2148 13.5266 12 13.9999C11.8534 14.3228 12.0009 14.1625 12 15.9999C11.9991 17.9513 11.8132 17.5989 12 17.9999C12.2092 18.4489 12.5159 18.9091 13 18.9999C13.708 19.1326 14.669 18.6537 15 17.9999C15.1563 17.691 15 17.9226 15 16.9999V15.9999H17H18V20.9999V25.9999H17C15.899 25.9999 16.4359 25.5958 16 25.9999C15.273 26.6739 15.2337 28.3682 16 28.9999C15.8493 28.9579 16.167 29.1375 16 28.9999C16.3634 29.1009 23.6366 29.1009 24 28.9999C25.1949 28.6676 24.921 26.8537 24 25.9999C23.5641 25.5958 24.101 25.9999 23 25.9999H22V20.9999V15.9999H23H25V16.9999C25 17.9226 24.8437 17.691 25 17.9999C25.6271 19.2387 27.389 19.2478 28 17.9999V15.9999V13.9999V12.9999C27.8235 12.711 27.3187 13.1613 27 12.9999H20H13Z"/>
</svg>
