<svg width="50" height="50" viewBox="0 0 50 50" xmlns="http://www.w3.org/2000/svg">
<path fill="#6D5B97" fill-rule="evenodd" clip-rule="evenodd" d="M21 0.999772C12.6239 2.51256 5.09532 8.0376 2.00004 15.9998C1.33826 17.7021 1.08373 20.6857 1.00004 21.9998C0.958763 22.6473 0.833049 22.7359 1.00004 22.9998C1.10652 23.1679 1.83183 22.8973 2.00004 22.9998C2.28975 23.1764 1.88872 22.9998 5.00004 22.9998C8.11136 22.9998 8.71034 23.1764 9.00004 22.9998C9.43619 22.734 9.81738 22.9344 10 21.9998C10.3562 20.1771 10.829 17.776 12 15.9998C12.8417 14.7232 14.707 12.8558 16 11.9998C17.7662 10.8306 20.1719 10.3567 22 9.99977C22.9349 9.81717 22.7342 9.43579 23 8.99977C23.1767 8.71016 23 8.11014 23 4.99977C23 1.88941 23.1767 2.28939 23 1.99977C22.5868 1.32206 22.5316 0.7231 21 0.999772ZM27 0.999772C26.8318 1.10622 26.1036 1.83161 26 1.99977C25.8194 2.29295 25.9761 1.78999 26 4.99977C26.0242 8.22146 26.812 8.74495 27 8.99977C27.2741 9.37126 27.6552 9.68333 29 9.99977C31.8916 10.68 33.8795 11.8734 36 13.9998C37.2303 15.2334 38.2185 16.4316 39 17.9998C39.6821 19.3681 39.6859 20.5508 40 21.9998C40.1867 22.8606 40 23.1551 40 24.9998C40 26.829 40.1801 27.1748 40 27.9998C39.5705 29.9675 39.0778 31.3291 38 32.9998C37.3956 33.9367 36.7696 34.3939 37 34.9998C37.1467 35.3853 41.5341 39.7742 42 39.9998C42.4658 40.2251 42.5086 40.1964 43 39.9998C43.833 39.6665 45.9432 36.7131 47 33.9998C48.0491 31.3062 48.9229 29.0764 49 25.9998C49.0724 23.1135 48.7609 20.5162 48 17.9998C45.4426 9.54137 38.6534 2.87242 30 0.999772C29.3809 0.865844 28.4128 1.02603 28 0.999772C27.3523 0.958506 27.2639 0.832831 27 0.999772ZM23 14.9998C22.8318 15.1023 23.1026 15.8316 23 15.9998C22.8177 16.2988 23.0003 16.7659 23 24.9998V32.9998H25H27V24.9998C26.9998 16.7659 27.1824 16.2988 27 15.9998C26.6387 15.4071 26.524 14.9998 25 14.9998C23.8077 14.9998 23.268 14.8364 23 14.9998ZM30 25.9998V32.9998H32C34.0689 32.9994 34.6175 32.6271 35 31.9998C35.181 31.7031 35 31.871 35 25.9998C35 20.1286 35.181 20.2964 35 19.9998C34.6175 19.3724 34.0689 19.0001 32 18.9998H30V25.9998ZM16 22.9998C15.8318 23.1023 15.1026 22.8316 15 22.9998C14.8213 23.2927 15 24.0003 15 27.9998C15 31.9992 14.8213 31.7069 15 31.9998C15.3826 32.6271 15.9312 32.9994 18 32.9998H20V27.9998V22.9998H18C16.3167 23.0001 16.2778 22.8304 16 22.9998ZM2.00004 25.9998C1.83183 26.1023 1.10652 26.8316 1.00004 26.9998C0.833049 27.2636 0.958763 27.3523 1.00004 27.9998C1.09395 29.4727 2.21161 32.066 3.00004 33.9998C6.04344 41.4644 12.0938 47.335 20 48.9998C23.1005 49.6526 26.9597 48.7113 30 47.9998C33.2694 47.2347 36.3176 45.94 39 43.9998C39.7639 43.4473 39.8782 43.3043 40 42.9998C40.1975 42.5064 40.2257 42.4658 40 41.9998C39.7744 41.534 35.3857 37.1464 35 36.9998C34.394 36.7694 33.9373 37.3955 33 37.9998C31.3133 39.0872 29.9783 39.5684 28 39.9998C27.164 40.182 26.8357 39.9998 25 39.9998C22.6757 39.9998 21.7686 40.5879 20 39.9998C14.7539 38.255 11.0461 33.3522 10 27.9998C9.81607 27.0581 9.47231 26.2369 9.00004 25.9998C8.70809 25.8531 7.89474 25.9996 5.00004 25.9998C1.93572 26 2.28947 25.8233 2.00004 25.9998Z" />
</svg>
