<svg width="40" height="40" viewBox="0 0 42 41" fill="none" xmlns="http://www.w3.org/2000/svg">
<path fill="#6D5B97" fill-rule="evenodd" clip-rule="evenodd" d="M3.99997 1.00009C2.52487 1.41493 1.3294 2.56931 0.999975 4.00009C0.878781 4.52619 0.879048 31.4752 0.999975 32.0001C1.25422 33.1032 2.01196 34.5377 2.99997 35.0001C3.90336 35.4229 4.51918 35.0293 8.99998 35.0001H13V34.0001L14 32.0001H8.99998C6.23382 32.0001 5.2536 32.064 4.99997 32.0001C4.52554 31.8804 4.10637 31.4591 3.99997 31.0001C3.95485 30.8053 4.00006 25.3129 3.99997 18.0001C3.9998 5.6254 3.84338 5.34144 3.99997 5.00009C4.19483 4.57525 4.55783 4.1851 4.99997 4.00009C5.29034 3.87866 6.55993 4.00009 18 4.00009C29.44 4.00009 30.7096 3.87866 31 4.00009C31.4421 4.1851 31.8051 4.57525 32 5.00009C32.1511 5.32957 31.9982 5.3042 32 9.00009V13.0001H33C33.8541 12.7511 34.5141 13.0499 35 13.0001V9.00009C34.9987 6.74311 35.0491 4.21349 35 4.00009C34.6619 2.53332 33.4557 1.33609 32 1.00009C31.3765 0.856154 4.51668 0.854725 3.99997 1.00009ZM13 7.00009C12.0594 7.30698 11.4506 8.08442 11 9.00009C10.7343 9.53985 9.99998 9.12192 9.99998 10.0001C9.99998 10.8783 10.7341 11.4594 11 12.0001C11.3626 12.7376 11.2634 13.637 12 14.0001C12.54 14.2663 13.1229 14.0001 14 14.0001C14.877 14.0001 14.46 14.2663 15 14.0001C15.7366 13.637 16.6374 12.7376 17 12.0001C17.2658 11.4594 17 10.8783 17 10.0001C17 9.12192 17.2658 9.54074 17 9.00009C16.6384 8.26479 15.7299 7.35984 15 7.00009C14.506 6.7566 14.7015 7.0217 14 7.00009C13.4879 6.98437 13.2371 6.92276 13 7.00009ZM22 14.0001C21.9019 14.0534 20.1457 15.8576 18 18.0001L14 22.0001L12 20.0001C11.0311 19.0357 10.1071 18.0545 9.99998 18.0001C9.74911 17.8729 9.25048 17.8728 8.99998 18.0001C8.89287 18.0545 8.57634 18.4292 7.99997 19.0001L6.99997 20.0001V25.0001V30.0001H11H15L21 24.0001L27 18.0001L25 16.0001C23.9821 14.9866 23.1071 14.0545 23 14.0001C22.7528 13.8748 22.2334 13.8732 22 14.0001ZM35 15.0001C33.8719 15.1879 31.9373 16.0499 31 17.0001V18.0001L35 21.0001L39 25.0001C39.7731 24.2357 40.6783 22.9271 41 22.0001C41.444 20.7205 41.5779 19.2755 41 18.0001C39.9829 15.7559 37.4094 14.599 35 15.0001ZM23 26.0001C19.6822 29.3272 17.0557 31.8899 17 32.0001C16.811 32.3739 14.9439 39.6922 15 40.0001C15.1021 40.5616 16.2705 41.0001 17 41.0001C17.3056 41.0001 23.8019 40.0992 24 40.0001C24.0735 39.9633 27.6652 36.3519 31 33.0001L37 27.0001L33 23.0001C30.8916 20.8887 29.0249 20.0001 29 20.0001C28.9751 20.0001 26.3178 22.673 23 26.0001Z"/>
</svg>
