<svg width="40" height="40" viewBox="0 0 42 42" fill="none" xmlns="http://www.w3.org/2000/svg">
<path fill="#6D5B97" fill-rule="evenodd" clip-rule="evenodd" d="M19 0.999872C14.6615 1.54706 10.1013 3.90986 6.99996 6.99987C6.06738 7.92905 5.19776 8.62603 4.99996 8.99987C4.84503 9.2928 4.80311 9.71258 4.99996 9.99987C5.13535 10.1975 6.66209 11.071 9.99996 12.9999C12.3864 14.379 13.8617 15.9774 14 15.9999C14.4898 16.0794 14.4361 15.5176 15 14.9999C16.1935 13.9039 18.3676 13.3374 20 12.9999C20.6987 12.8553 22.2504 12.8282 23 12.9999C23.3441 13.0787 23.8275 12.9996 24 12.9999C24.6563 13.001 23.9943 13.4707 26 9.99987C29.276 4.33042 29.9627 4.36151 30 3.99987C30.042 3.59183 29.3585 3.2449 29 2.99987C28.394 2.58572 25.6765 1.26384 24 0.999872C22.8274 0.815257 20.2118 0.847031 19 0.999872ZM32 4.99987C31.803 5.13495 30.9303 6.66734 29 9.99987L26 13.9999C25.9983 14.4441 26.7085 14.6591 27 14.9999C27.8388 15.9807 27.6805 16.441 28 16.9999C28.7181 18.2557 29 19.4657 29 20.9999C29 22.534 28.7181 23.744 28 24.9999C27.6805 25.5587 27.8388 26.019 27 26.9999C26.7085 27.3407 25.9983 27.5557 26 27.9999L29 32.9999C30.9303 36.3324 31.803 36.8648 32 36.9999C31.705 36.9999 32.1855 37.1271 32 36.9999C32.3786 36.9999 32.3968 37.452 33 36.9999C33.3575 36.7318 34.4178 35.582 35 34.9999C38.0485 31.9516 40.3086 28.3304 41 23.9999C41.2012 22.7391 41.2012 19.2606 41 17.9999C40.315 13.7091 37.9846 9.99933 35 6.99987C34.0714 6.0667 33.3736 5.19779 33 4.99987C32.7072 4.84484 32.2871 4.80289 32 4.99987ZM2.99996 12.9999C2.61963 13.2021 2.37897 12.9408 1.99996 13.9999C1.22161 16.1748 1.05448 18.5804 0.999964 20.9999C0.940759 23.6291 1.20292 24.5929 1.99996 26.9999C3.12534 30.3981 5.26978 33.7045 7.99996 35.9999C9.05182 36.8842 9.51201 36.9999 9.99996 36.9999C10.6994 36.9999 10.26 37.7479 13 32.9999C14.377 30.6137 15.9774 28.1393 16 27.9999C16.0798 27.5075 15.518 27.5647 15 26.9999C13.0785 24.9047 12.3184 21.7149 13 18.9999C13.1048 18.5824 13.0745 18.2488 13 17.9999C12.8379 17.4586 13.6387 17.3957 5.99996 12.9999C4.10586 11.9099 3.53086 12.7176 2.99996 12.9999ZM18 28.9999C17.7172 29.132 17.4724 29.1945 17 29.9999C16.0958 31.5413 13.1469 37.7137 13 37.9999C12.7224 38.5402 12.4178 38.7062 13 38.9999C13.4435 39.2236 15.15 39.7843 16 39.9999C17.789 40.4537 18.6826 40.9999 21 40.9999C22.8773 40.9999 23.1125 41.1537 24 40.9999C25.2774 40.7786 26.8184 40.4214 28 39.9999C29.0559 39.6232 28.7905 39.3834 29 38.9999C29.2567 38.5298 29.7656 38.3331 29 36.9999C25.1952 30.3746 24.2735 29.1691 24 28.9999C23.6604 28.7899 23.8281 28.8101 23 28.9999C22.1777 29.1883 19.8137 29.1817 19 28.9999C18.0514 28.7878 18.3541 28.8345 18 28.9999Z"/>
</svg>
