<svg width="40" height="40" viewBox="0 0 41 42" fill="none" xmlns="http://www.w3.org/2000/svg">
<path fill="#6D5B97" fill-rule="evenodd" clip-rule="evenodd" d="M17 1.00007C16.5132 1.13216 16.1213 1.50128 16 2.00007C15.9481 2.21334 15.1302 3.20257 15 4.00007V6.00007C14.7571 6.07986 13.4704 5.79226 13 6.00007C12.5296 6.20796 13.0451 7.00007 13 7.00007C12.9548 7.00007 11.7225 6.51725 11 6.00007C9.61506 5.0089 9.57429 4.99868 9 5.00007C8.28909 5.00172 7.99827 4.98304 6 7.00007C4.80424 8.20703 4.08554 8.79478 4 9.00007C3.84693 9.36712 3.87056 10.659 4 11.0001C4.04805 11.1267 4.47662 11.2686 5 12.0001C5.52338 12.7316 6 13.9548 6 14.0001C6 14.0453 5.20753 13.5289 5 14.0001C4.79255 14.4713 5.07965 15.7567 5 16.0001H3C0.908398 16.3428 1.46026 16.5391 1 17.0001C0.429004 17.5722 0 18.0302 0 21.0001C0 23.9699 0.429004 24.428 1 25.0001C1.46009 25.4609 0.91342 25.6582 3 26.0001H5C5.13169 26.363 4.84199 27.6516 5 28.0001C5.15801 28.3486 6 27.9513 6 28.0001C6 28.0487 5.52338 29.2686 5 30.0001C4.47662 30.7316 4.04805 30.8734 4 31.0001C3.85688 31.3773 3.81377 32.6149 4 33.0001C4.23333 33.4826 7.56814 36.8194 8 37.0001C8.36641 37.1533 9.65948 37.1297 10 37.0001C10.1264 36.9519 10.2698 36.5244 11 36.0001C11.7302 35.4758 12.9514 35.0001 13 35.0001C13.0487 35.0001 12.6521 35.8418 13 36.0001C13.3479 36.1584 14.6377 35.8681 15 36.0001V38.0001C15.1298 38.7951 15.9522 39.8031 16 40.0001C16.1099 40.4533 16.5368 40.7519 17 41.0001C17.351 41.1881 17.169 41.0001 20 41.0001C22.831 41.0001 22.649 41.1881 23 41.0001C23.4632 40.7519 23.8901 40.4533 24 40.0001C24.0478 39.8031 24.8702 38.7951 25 38.0001V36.0001C25.3623 35.8681 26.6521 36.1584 27 36.0001C27.3479 35.8418 26.9513 35.0001 27 35.0001C27.0486 35.0001 28.2775 35.4829 29 36.0001C29.7226 36.5172 29.8382 36.9447 30 37.0001C30.436 37.149 31.5608 37.1992 32 37.0001C32.5036 36.7718 35.749 33.5194 36 33.0001C36.1862 32.6149 36.1431 31.3773 36 31.0001C35.9519 30.8734 35.5234 30.7316 35 30.0001C34.4766 29.2686 34 28.0487 34 28.0001C34 27.9513 34.842 28.3486 35 28.0001C35.158 27.6516 34.8687 26.3619 35 26.0001H37C38.791 25.6955 39.5971 25.4897 40 25.0001C40.4063 24.5063 40 23.7569 40 21.0001C40 18.0302 39.571 17.5722 39 17.0001C38.5399 16.5393 39.0866 16.342 37 16.0001H35C34.8683 15.6371 35.158 14.3486 35 14.0001C34.842 13.6516 34 14.0488 34 14.0001C34 13.9514 34.4766 12.7316 35 12.0001C35.5234 11.2686 35.9519 11.1267 36 11.0001C36.1294 10.659 36.153 9.36712 36 9.00007C35.8197 8.56745 32.4817 5.23381 32 5.00007C31.6155 4.81351 30.3765 4.8567 30 5.00007C29.8736 5.04821 29.7302 5.47578 29 6.00007C28.2698 6.52436 27.0454 7.00007 27 7.00007C26.9547 7.00007 27.3512 6.15905 27 6.00007C26.6488 5.841 25.362 6.13112 25 6.00007V4.00007C24.6598 1.95415 23.8133 1.43468 23 1.00007C22.7242 0.852712 22.5216 1.01369 20 1.00007C18.2594 0.990616 17.2144 0.941959 17 1.00007ZM22 10.0001C26.5997 10.8997 30.1074 14.335 31 19.0001C31.2286 20.1946 31.2478 21.8279 31 23.0001C30.6687 24.5676 30.8164 25.7227 30 27.0001L29 28.0001V27.0001C28.5968 24.6028 27.2999 22.8147 25 22.0001H24H20C16.13 22.0001 15.4694 21.855 15 22.0001C12.5917 22.7446 11.4154 24.5306 11 27.0001V28.0001L10 27.0001C9.17809 25.7595 9.33948 24.5446 9 23.0001C8.74338 21.8327 8.7439 20.1717 9 19.0001C9.98156 14.5085 12.6037 11.1017 17 10.0001C18.4787 9.62955 20.4001 9.68723 22 10.0001ZM19 11.0001C17.4309 11.4028 15.6822 12.5682 15 14.0001C14.2679 15.5366 14.2223 16.4197 15 18.0001C15.5025 19.0213 16.9991 20.5213 18 21.0001C18.8612 21.412 19.0744 21.0001 20 21.0001C20.9256 21.0001 21.1388 21.412 22 21.0001C23.8391 20.1203 25.1601 18.0123 25 16.0001C24.828 13.8373 23.998 11.7051 22 11.0001C21.2046 10.7193 19.7599 10.805 19 11.0001Z"/>
</svg>
