<svg width="40" height="40" viewBox="0 0 42 42" fill="none" xmlns="http://www.w3.org/2000/svg">
<path fill="#6D5B97" fill-rule="evenodd" clip-rule="evenodd" d="M34 0.999893C32.826 1.38232 31.4424 2.85432 31 3.99989C30.6987 4.77983 30.7523 6.18377 31 6.99989C31.372 8.22541 32.8193 8.54324 34 8.99989C34.7794 9.30138 36.1844 9.24778 37 8.99989C38.2247 8.62765 38.5436 8.18137 39 6.99989C39.3013 6.21995 39.2477 4.81601 39 3.99989C38.6282 2.77491 38.1824 1.45923 37 0.999893C36.2493 0.70823 34.7638 0.751019 34 0.999893ZM16 3.99989C15.4363 4.27789 14.8589 5.24702 15 5.99989C15.05 6.26645 15.1699 6.15143 16 6.99989L17 7.99989L16 8.99989C14.9572 10.0576 15 10.413 15 10.9999C15 11.9765 15.9555 12.1959 17 11.9999C17.2664 11.9499 18.1532 11.8293 19 10.9999L20 9.99989L21 10.9999C21.8467 11.8293 21.7336 11.9499 22 11.9999C23.0445 12.1959 24 11.9765 24 10.9999C24 10.413 24.0428 10.0576 23 8.99989L22 7.99989L23 6.99989C23.83 6.15143 23.95 6.26645 24 5.99989C24.1959 4.95473 22.976 3.99989 22 3.99989C21.4134 3.99989 22.0582 3.95518 21 4.99989L20 5.99989L19 4.99989C18.4456 4.45257 17.1362 4.0517 17 3.99989C16.6402 3.86295 16.3372 3.83365 16 3.99989ZM2 12.9999C1.43633 13.2779 0.858857 13.247 0.999997 13.9999C1.04999 14.2665 1.16994 15.1514 2 15.9999L3 16.9999L2 17.9999C0.957208 19.0576 0.999997 19.413 0.999997 19.9999C0.999997 20.9765 1.95551 21.1959 3 20.9999C3.26638 20.9499 3.15325 20.8293 4 19.9999L5 18.9999L6 19.9999C6.84674 20.8293 7.73361 20.9499 8 20.9999C9.04448 21.1959 10 20.9765 10 19.9999C10 19.413 9.04278 19.0576 8 17.9999L7 16.9999L8 15.9999C8.83005 15.1514 9.95 14.2665 10 13.9999C10.1959 12.9547 8.97601 11.9999 8 11.9999C7.41339 11.9999 7.05823 12.9552 6 13.9999L5 14.9999L4 13.9999C3.44562 13.4526 3.13623 13.0517 3 12.9999C2.64023 12.863 2.33718 12.8336 2 12.9999ZM35 12.9999C34.6281 13.1909 30.1643 16.6535 30 16.9999C29.6826 17.6691 29.3441 18.5576 30 18.9999C30.286 19.1928 30.4455 19.9999 32 19.9999H34C33.8661 21.0518 32.72 22.3721 32 22.9999C31.4914 23.4432 30.6962 23.8896 30 23.9999C29.6326 24.0581 26.2837 23.9991 21 23.9999C13.0672 24.0011 12.6787 23.8363 12 23.9999C9.83488 24.5218 7.89584 25.9809 7 27.9999C6.5764 28.9546 7.00169 29.5715 7 30.9999V32.9999H6C5.40696 33.2759 4.39538 33.3764 4 33.9999C3.13861 35.3583 4.09478 37.5986 5 38.9999C5.43707 39.6767 5.16066 40.5843 6 40.9999C6.65954 41.3264 6.88847 40.9999 8 40.9999C9.10545 40.9999 9.33947 41.3195 10 40.9999C10.8289 40.5988 11.5537 39.6909 12 38.9999C12.9447 37.5374 12.958 35.4354 12 33.9999C11.5881 33.3826 10.5759 33.2217 10 32.9999V30.9999C10.0345 30.0843 9.8543 30.4272 10 29.9999C10.4525 28.6723 11.6513 27.487 13 26.9999H22C31.6124 26.9475 30.7895 26.4865 32 25.9999C33.4392 25.4214 35.2194 24.3953 36 22.9999C36.5045 22.098 36.9977 20.8386 37 19.9999H38C39.5563 19.9999 39.7139 19.1928 40 18.9999C40.6571 18.5568 41.3188 17.6722 41 16.9999C40.8206 16.6218 36.3222 13.1214 36 12.9999C35.6385 12.8636 35.3108 12.8403 35 12.9999ZM27 32.9999C26.4363 33.2779 26.8589 33.247 27 33.9999C27.05 34.2665 27.1699 35.1514 28 35.9999L29 36.9999L28 37.9999C26.9572 39.0576 27 39.413 27 39.9999C27 40.9765 27.9555 41.1959 29 40.9999C29.2664 40.9499 29.1532 40.8293 30 39.9999L31 38.9999L32 39.9999C32.8467 40.8293 32.7336 40.9499 33 40.9999C34.0445 41.1959 35 40.9765 35 39.9999C35 39.413 35.0428 39.0576 34 37.9999L33 36.9999L34 35.9999C34.83 35.1514 34.95 34.2665 35 33.9999C35.1959 32.9547 34.976 31.9999 34 31.9999C33.4134 31.9999 33.0582 32.9552 32 33.9999L31 34.9999L30 33.9999C29.4456 33.4526 29.1362 33.0517 29 32.9999C28.6402 32.8629 27.3372 32.8336 27 32.9999Z"/>
</svg>
