<svg width="306" height="281" viewBox="0 0 306 281" fill="none" xmlns="http://www.w3.org/2000/svg">
<path d="M76.5 38.3094C76.2907 38.5187 76.3953 38.7279 76.8138 38.9372C77.3021 39.1464 77.5462 39.0069 77.5462 38.5187C77.5462 38.1699 77.4067 37.9607 77.1277 37.8909C76.9184 37.8212 76.7092 37.9607 76.5 38.3094ZM78.1739 39.6695C77.8949 39.6695 77.7554 39.7741 77.7554 39.9834C77.7554 40.1229 77.8252 40.3321 77.9647 40.6111C78.1042 40.8901 78.2436 41.0993 78.3831 41.2388L78.5924 41.4481C78.6621 41.4481 78.697 41.3086 78.697 41.0296C78.697 40.7506 78.6621 40.4716 78.5924 40.1926C78.5226 39.8439 78.3831 39.6695 78.1739 39.6695ZM69.1765 42.9128C70.1529 43.401 70.8853 43.401 71.3735 42.9128C71.5828 42.7733 71.6874 42.6338 71.6874 42.4943C71.6874 42.1455 71.1643 41.9712 70.1181 41.9712C69.0719 41.9712 68.5488 42.1107 68.5488 42.3896C68.5488 42.5989 68.758 42.7733 69.1765 42.9128ZM79.9525 46.8884C79.6735 46.8884 79.3945 46.9581 79.1155 47.0976C78.9062 47.2371 78.7668 47.3417 78.697 47.4115C78.697 47.6207 79.0109 47.7253 79.6386 47.7253C80.4058 47.7253 80.7894 47.5858 80.7894 47.3068C80.8592 47.0278 80.5802 46.8884 79.9525 46.8884ZM67.6072 97.9434C67.6769 98.0132 67.8164 98.0481 68.0257 98.0481L68.3395 98.1527C68.758 98.0829 69.037 97.8737 69.1765 97.525C69.1067 97.3157 68.8975 97.2808 68.5488 97.4203C68.0605 97.6296 67.7467 97.8039 67.6072 97.9434ZM71.1643 93.2355C71.513 93.2355 71.8618 93.096 72.2105 92.817C72.1407 92.7473 71.9315 92.7473 71.5828 92.817C71.0945 93.096 70.955 93.2355 71.1643 93.2355ZM73.6752 67.7079C74.3029 67.5685 74.8609 67.3592 75.3491 67.0802C75.6281 66.871 75.5584 66.8361 75.1399 66.9756C74.9306 66.9756 74.6865 67.0453 74.4075 67.1848L73.3613 67.8126C73.4311 67.8126 73.5357 67.7777 73.6752 67.7079ZM88.636 66.4525C88.915 66.1038 88.9847 65.7899 88.8452 65.5109C88.7755 65.3017 88.5663 65.2668 88.2175 65.4063C87.7293 65.6155 87.6595 65.9294 88.0083 66.3479C88.2873 66.6966 88.4965 66.7315 88.636 66.4525ZM80.0571 65.7201C79.9176 65.1622 79.7083 64.9529 79.4294 65.0924C79.1504 65.1622 79.0806 65.5807 79.2201 66.3479C79.3596 66.9756 79.534 67.2546 79.7432 67.1848C79.813 67.1151 79.8827 66.9407 79.9525 66.6617C80.092 66.3827 80.1268 66.0689 80.0571 65.7201ZM85.602 75.2407C85.881 75.6591 86.1251 75.8335 86.3343 75.7638C86.5436 75.6243 86.5785 75.0314 86.439 73.9852C86.2297 72.939 85.9856 72.4856 85.7066 72.6251C85.5671 72.6949 85.4276 72.8693 85.2881 73.1482C84.9394 73.776 85.044 74.4734 85.602 75.2407ZM87.0667 65.197C87.0667 65.0575 86.8574 64.9529 86.439 64.8832C86.2297 64.8832 85.9856 64.9529 85.7066 65.0924C85.4276 65.1622 85.2881 65.2668 85.2881 65.4063L85.602 65.5109C85.7415 65.5807 85.9507 65.6504 86.2297 65.7201C86.5087 65.7899 86.718 65.7899 86.8574 65.7201C87.0667 65.6504 87.1364 65.476 87.0667 65.197ZM74.5122 65.5109C74.5122 65.4412 74.4773 65.3017 74.4075 65.0924L74.3029 64.7786C74.0937 64.4298 73.8496 64.3601 73.5706 64.5693C73.4311 64.7786 73.466 64.9878 73.6752 65.197C74.0937 65.476 74.3727 65.5807 74.5122 65.5109ZM69.8042 66.5571C69.595 66.2781 69.3509 66.1038 69.0719 66.034C69.0021 66.1735 69.0719 66.3479 69.2811 66.5571C69.6996 66.7664 69.874 66.7664 69.8042 66.5571ZM51.7048 87.3767C51.2863 86.9582 50.8678 86.6444 50.4493 86.4351C50.1703 86.3654 50.1703 86.47 50.4493 86.749C50.5191 86.8885 50.6934 87.028 50.9724 87.1675L51.8094 87.586C51.8094 87.5162 51.7745 87.4465 51.7048 87.3767ZM44.0674 75.136C43.7187 75.2058 43.4746 75.415 43.3351 75.7638C43.2653 76.0428 43.3351 76.2869 43.5443 76.4961C43.8931 76.7054 44.1372 76.4961 44.2767 75.8684C44.3464 75.3104 44.2767 75.0663 44.0674 75.136ZM47.5199 83.4011C47.1712 84.0986 47.1014 84.5171 47.3107 84.6566C47.4502 84.7961 47.764 84.4473 48.2523 83.6104C48.601 82.9826 48.7056 82.599 48.5661 82.4595C48.4964 82.3898 48.322 82.4595 48.043 82.6688C47.8338 82.878 47.6594 83.1221 47.5199 83.4011ZM51.2863 69.905C51.4258 69.347 51.4258 68.9983 51.2863 68.8588C51.077 68.7193 50.6934 69.2075 50.1355 70.3235C49.5077 71.3697 49.2985 71.9974 49.5077 72.2067C49.5775 72.2764 49.7518 72.2415 50.0308 72.102C50.5888 71.8928 51.0073 71.1604 51.2863 69.905ZM43.9628 77.6469C43.8233 77.8562 43.8582 78.1352 44.0674 78.4839C44.1372 78.6932 44.2767 78.8675 44.4859 79.007C44.6254 79.1465 44.7649 79.1814 44.9044 79.1116L44.7998 78.6932C44.7998 78.4839 44.7649 78.2398 44.6952 77.9608C44.5557 77.6121 44.451 77.4028 44.3813 77.3331C44.2418 77.2633 44.1023 77.368 43.9628 77.6469ZM59.656 64.8832L61.4345 64.5693C62.2017 64.4996 63.0387 64.3601 63.9454 64.1508L64.4685 64.0462L64.9916 63.9416C65.3404 63.8718 65.6194 63.8021 65.8286 63.7323C69.595 63.1046 72.071 62.7908 73.2567 62.7908C74.3727 62.721 75.6281 62.9651 77.0231 63.5231C77.581 63.7323 78.139 63.9067 78.697 64.0462C78.4878 62.5815 78.1739 60.6983 77.7554 58.3967C76.779 52.3287 76.2907 48.9808 76.2907 48.3531C76.2907 48.0043 76.6046 47.7602 77.2323 47.6207H77.3369L77.9647 47.5161C77.8949 47.4463 77.6508 47.3766 77.2323 47.3068C76.5348 47.0976 76.0466 46.3304 75.7676 45.0052L75.3491 43.122L74.1983 44.5867C73.2916 45.9119 72.5941 46.5745 72.1059 46.5745C71.8966 46.5745 71.7223 46.5396 71.5828 46.4699L71.1643 46.3652C71.1643 46.5047 71.3038 46.6791 71.5828 46.8884C71.6525 46.8884 71.6874 47.0278 71.6874 47.3068C71.6874 48.0043 68.7231 52.4333 62.7946 60.5937C61.6786 62.1979 60.6324 63.6277 59.656 64.8832ZM79.7432 69.068C79.6735 69.4865 79.534 69.7655 79.3247 69.905C78.7668 70.184 76.6395 70.6722 72.9428 71.3697C69.316 72.2067 67.4328 72.5554 67.2933 72.4159C67.2236 72.4159 67.1538 72.381 67.0841 72.3113C66.8748 72.381 66.6656 72.4508 66.4563 72.5205C57.7379 74.4734 53.1346 75.2407 52.6464 74.8222C52.4371 74.7524 52.3325 74.6129 52.3325 74.4037C52.4022 74.1945 52.4022 74.0201 52.3325 73.8806C52.3325 73.9503 52.2976 73.9852 52.2279 73.9852L52.1233 74.1945C52.1233 74.4037 52.0535 74.6478 51.914 74.9268C51.635 75.415 50.7981 75.7986 49.4031 76.0776L47.7292 76.4961L48.7754 78.0654C49.4729 79.0419 49.6821 79.9486 49.4031 80.7856L48.9846 81.7272L49.5077 81.0994V80.9948C49.9262 80.3671 50.2749 80.123 50.5539 80.2625C50.9724 80.6112 52.2627 82.0759 54.4249 84.6566C56.5871 87.2372 57.6682 88.6322 57.6682 88.8414C57.7379 89.3296 57.5984 89.9922 57.2497 90.8292C57.1102 91.0384 56.9707 91.2826 56.8312 91.5616C56.622 92.0498 56.0989 92.3288 55.2619 92.3985C54.3552 92.3288 52.3325 92.8519 49.1939 93.9678L48.6708 92.0847C48.5313 92.1544 47.6245 91.0384 45.9506 88.7368C44.3464 86.4351 43.1956 84.8309 42.4981 83.9242C40.6847 81.6923 38.8364 79.3209 36.9532 76.81C35.2793 74.5781 34.2679 73.1482 33.9192 72.5205C33.5704 71.823 33.5007 71.1604 33.7099 70.5327C33.9192 69.5563 34.233 68.9983 34.6515 68.8588C35.1398 68.5798 37.1624 68.1962 40.7196 67.7079C44.2767 67.15 46.2993 66.871 46.7876 66.871C47.2758 67.0105 47.8338 66.9407 48.4615 66.6617C48.88 66.4525 49.8913 66.2084 51.4955 65.9294C51.914 64.4647 52.3674 63.2441 52.8556 62.2677C53.4833 61.0819 55.0178 58.6408 57.4589 54.9442C58.2959 53.6887 59.2375 52.2589 60.2837 50.6547C61.3299 49.0505 62.3761 47.4463 63.4223 45.8421C64.4685 44.238 65.0963 43.2615 65.3055 42.9128C67.0492 40.1229 68.1651 38.4838 68.6534 37.9956C69.2114 37.5073 69.5601 36.9494 69.6996 36.3216C69.9786 35.8334 71.234 33.8456 73.4659 30.3582C75.6979 26.8709 77.0231 24.9528 77.4416 24.6041C77.7903 24.2553 78.3134 24.2205 79.0109 24.4994C79.5688 24.7087 79.9525 25.1969 80.1617 25.9641C80.4407 26.7314 80.8592 28.6494 81.4172 31.7183C81.9751 35.1359 82.4634 38.4838 82.8818 41.7619C83.3701 45.0401 84.1024 49.2249 85.0789 54.3165C85.5671 57.5248 85.9507 59.4778 86.2297 60.1752C86.2995 60.3845 86.3692 60.5588 86.439 60.6983C88.8801 60.2101 91.3562 59.7567 93.8671 59.3383C96.8662 58.85 98.7494 58.6059 99.5166 58.6059C100.284 58.6059 100.807 58.8152 101.086 59.2336C101.504 59.8614 101.574 60.4193 101.295 60.9076C101.016 61.4656 99.4468 63.4534 96.5872 66.871C93.7973 70.2886 92.1582 72.1718 91.67 72.5205C91.1818 72.939 90.7633 73.497 90.4146 74.1945C90.0658 74.8222 88.7058 76.4612 86.3343 79.1116C85.9856 79.5301 85.1835 80.5066 83.9281 82.041L80.0571 86.749C79.4294 87.4465 78.7668 88.2486 78.0693 89.1553L77.6508 89.6784L77.2323 90.0969C76.9533 90.5153 76.7092 90.8292 76.5 91.0384C73.5706 94.6653 71.5828 97.0367 70.5366 98.1527C69.5601 99.1291 68.2349 100.106 66.561 101.082C64.3988 102.547 62.6202 104.151 61.2253 105.895C59.9001 107.708 57.0404 112.032 52.6464 118.868C48.2523 125.842 46.0204 129.783 45.9506 130.69C45.8111 131.597 44.8347 133.026 43.0212 134.979L40.3011 137.699L40.0918 136.444C39.9523 135.816 40.2313 134.561 40.9288 132.678C41.6263 130.864 42.254 129.853 42.812 129.644C43.3002 129.434 45.9157 125.773 50.6586 118.658C53.5879 114.264 55.5757 111.161 56.622 109.347C57.6682 107.603 58.3656 106.069 58.7144 104.744C59.2026 103.279 60.0047 101.675 61.1207 99.9312C62.3064 98.2573 65.3753 94.1422 70.3273 87.586C76.8138 79.007 80.4058 74.5432 81.1033 74.1945C81.3125 74.1247 81.4869 74.1247 81.6264 74.1945C81.8356 74.4037 82.01 74.4734 82.1495 74.4037L81.9403 74.0898C81.8008 73.9503 81.731 73.776 81.731 73.5667C81.6613 73.0785 82.1495 72.1369 83.1957 70.742L84.3465 69.1726L82.4634 69.2773C81.3474 69.4865 80.6151 69.347 80.2663 68.8588C80.0571 68.9285 79.8827 68.9983 79.7432 69.068ZM135.121 50.027C133.587 48.3531 132.506 47.5161 131.878 47.5161C131.181 47.5858 128.914 48.5972 125.078 50.5501C121.242 52.503 118.661 54.0026 117.336 55.0488C116.359 55.816 115.174 57.4202 113.779 59.8614C112.453 62.2328 111.616 64.2555 111.268 65.9294C111.198 66.0689 111.163 66.2781 111.163 66.5571C111.163 67.3941 112.14 68.5449 114.092 70.0096C116.045 71.4743 117.58 72.2067 118.696 72.2067C118.975 72.2067 119.812 72.1369 121.207 71.9974C126.159 71.5092 130.274 70.3583 133.552 68.5449C136.83 66.7315 138.678 64.5693 139.097 62.0584C139.167 61.7097 139.201 61.1866 139.201 60.4891C139.201 58.7454 138.818 56.8971 138.051 54.9442C137.283 52.9913 136.307 51.3522 135.121 50.027ZM134.389 39.8787C141.154 39.53 144.956 39.3556 145.793 39.3556C147.397 39.3556 148.199 39.53 148.199 39.8787C148.199 40.4367 147.467 40.8901 146.002 41.2388C144.119 41.7968 143.177 42.4943 143.177 43.3312C143.177 43.8892 143.63 45.1447 144.537 47.0976C145.583 49.19 146.56 51.945 147.467 55.3627C148.373 58.7105 148.827 61.1517 148.827 62.6861C148.827 62.8256 148.792 62.9651 148.722 63.1046C148.722 63.2441 148.722 63.3487 148.722 63.4185C148.443 64.5344 147.222 66.3479 145.06 68.8588C142.898 71.3697 140.875 73.3226 138.992 74.7176C134.598 77.9259 128.705 79.7742 121.311 80.2625L114.825 80.5763L108.757 75.3453C106.246 73.1831 104.572 71.6138 103.735 70.6373C102.968 69.6609 102.584 68.5449 102.584 67.2895C102.584 66.1038 102.898 64.4647 103.526 62.3723C105.409 55.1883 109.245 49.7131 115.034 45.9468C118.033 43.9938 120.963 42.564 123.822 41.6573C126.682 40.7506 130.204 40.1577 134.389 39.8787Z" fill="white"/>
<path d="M133.692 90.72V99H132.636V90.72H133.692ZM136.368 90.72V91.656H129.972V90.72H136.368ZM140.376 93.012C140.808 93.012 141.172 93.072 141.468 93.192C141.764 93.304 141.988 93.496 142.14 93.768C142.292 94.04 142.368 94.412 142.368 94.884V99H141.564L141.408 97.728L141.348 97.596V94.884C141.34 94.524 141.256 94.268 141.096 94.116C140.936 93.956 140.624 93.876 140.16 93.876C139.848 93.876 139.46 93.892 138.996 93.924C138.54 93.956 138.088 93.992 137.64 94.032L137.544 93.276C137.816 93.228 138.116 93.184 138.444 93.144C138.772 93.104 139.104 93.072 139.44 93.048C139.776 93.024 140.088 93.012 140.376 93.012ZM141.888 95.4L141.876 96.168L139.092 96.18C138.812 96.188 138.612 96.264 138.492 96.408C138.38 96.544 138.324 96.736 138.324 96.984V97.356C138.324 97.66 138.396 97.884 138.54 98.028C138.692 98.164 138.924 98.232 139.236 98.232C139.46 98.232 139.712 98.192 139.992 98.112C140.28 98.024 140.568 97.892 140.856 97.716C141.144 97.54 141.408 97.316 141.648 97.044V97.8C141.568 97.912 141.444 98.044 141.276 98.196C141.116 98.34 140.92 98.484 140.688 98.628C140.464 98.764 140.212 98.88 139.932 98.976C139.652 99.064 139.352 99.108 139.032 99.108C138.688 99.108 138.384 99.048 138.12 98.928C137.856 98.8 137.652 98.616 137.508 98.376C137.364 98.128 137.292 97.828 137.292 97.476V96.84C137.292 96.384 137.432 96.032 137.712 95.784C138 95.528 138.4 95.4 138.912 95.4H141.888ZM147.573 93.012C148.293 93.012 148.809 93.276 149.121 93.804C149.433 94.324 149.589 95.092 149.589 96.108C149.589 96.86 149.509 97.46 149.349 97.908C149.189 98.348 148.945 98.664 148.617 98.856C148.289 99.048 147.877 99.144 147.381 99.144C146.997 99.144 146.617 99.092 146.241 98.988C145.865 98.884 145.505 98.724 145.161 98.508L145.221 97.896C145.597 98 145.925 98.088 146.205 98.16C146.493 98.224 146.797 98.256 147.117 98.256C147.461 98.256 147.733 98.196 147.933 98.076C148.141 97.956 148.293 97.74 148.389 97.428C148.485 97.116 148.533 96.676 148.533 96.108C148.533 95.556 148.489 95.12 148.401 94.8C148.321 94.48 148.185 94.252 147.993 94.116C147.809 93.972 147.561 93.9 147.249 93.9C146.929 93.9 146.613 93.976 146.301 94.128C145.989 94.28 145.625 94.512 145.209 94.824L145.101 94.14C145.317 93.908 145.561 93.708 145.833 93.54C146.105 93.372 146.389 93.244 146.685 93.156C146.989 93.06 147.285 93.012 147.573 93.012ZM145.065 93.156L145.185 94.368L145.245 94.524V98.268L145.197 98.412C145.221 98.636 145.237 98.852 145.245 99.06C145.253 99.268 145.253 99.488 145.245 99.72V101.412H144.237V93.156H145.065ZM152.493 93.132C153.005 93.132 153.521 93.136 154.041 93.144C154.569 93.152 155.073 93.18 155.553 93.228L155.517 93.948H152.913C152.665 93.948 152.485 94.004 152.373 94.116C152.261 94.228 152.205 94.412 152.205 94.668V99H151.197V94.404C151.197 93.988 151.305 93.672 151.521 93.456C151.745 93.24 152.069 93.132 152.493 93.132ZM159.059 93.012C159.939 93.012 160.575 93.172 160.967 93.492C161.367 93.812 161.571 94.288 161.579 94.92C161.579 95.44 161.467 95.848 161.243 96.144C161.027 96.432 160.675 96.576 160.187 96.576H156.767V95.784H159.923C160.179 95.784 160.347 95.696 160.427 95.52C160.515 95.336 160.555 95.136 160.547 94.92C160.547 94.544 160.439 94.276 160.223 94.116C160.007 93.956 159.635 93.876 159.107 93.876C158.683 93.876 158.347 93.94 158.099 94.068C157.859 94.188 157.687 94.404 157.583 94.716C157.487 95.02 157.439 95.448 157.439 96C157.439 96.624 157.499 97.1 157.619 97.428C157.747 97.756 157.947 97.98 158.219 98.1C158.491 98.22 158.851 98.28 159.299 98.28C159.619 98.28 159.963 98.268 160.331 98.244C160.707 98.212 161.043 98.176 161.339 98.136L161.435 98.82C161.259 98.892 161.035 98.952 160.763 99C160.491 99.048 160.211 99.084 159.923 99.108C159.643 99.132 159.391 99.144 159.167 99.144C158.503 99.144 157.963 99.044 157.547 98.844C157.139 98.636 156.843 98.308 156.659 97.86C156.475 97.404 156.383 96.804 156.383 96.06C156.383 95.292 156.475 94.688 156.659 94.248C156.851 93.8 157.143 93.484 157.535 93.3C157.927 93.108 158.435 93.012 159.059 93.012ZM165.413 93.156V99H164.393V93.156H165.413ZM167.525 93.156V93.996H162.269V93.156H167.525ZM171.178 93.012C171.85 93.012 172.386 93.112 172.786 93.312C173.186 93.512 173.474 93.84 173.65 94.296C173.834 94.744 173.926 95.34 173.926 96.084C173.926 96.828 173.834 97.428 173.65 97.884C173.474 98.332 173.186 98.656 172.786 98.856C172.386 99.056 171.85 99.156 171.178 99.156C170.506 99.156 169.966 99.056 169.558 98.856C169.158 98.656 168.866 98.332 168.682 97.884C168.506 97.428 168.418 96.828 168.418 96.084C168.418 95.34 168.506 94.744 168.682 94.296C168.866 93.84 169.158 93.512 169.558 93.312C169.966 93.112 170.506 93.012 171.178 93.012ZM171.178 93.876C170.754 93.876 170.418 93.944 170.17 94.08C169.922 94.208 169.746 94.432 169.642 94.752C169.538 95.072 169.486 95.516 169.486 96.084C169.486 96.652 169.538 97.096 169.642 97.416C169.746 97.736 169.922 97.964 170.17 98.1C170.418 98.228 170.754 98.292 171.178 98.292C171.602 98.292 171.934 98.228 172.174 98.1C172.422 97.964 172.598 97.736 172.702 97.416C172.806 97.096 172.858 96.652 172.858 96.084C172.858 95.516 172.806 95.072 172.702 94.752C172.598 94.432 172.422 94.208 172.174 94.08C171.934 93.944 171.602 93.876 171.178 93.876ZM180.136 93.156V93.96H178C177.752 93.96 177.572 94.016 177.46 94.128C177.356 94.232 177.284 94.42 177.244 94.692C177.204 95.044 177.156 95.404 177.1 95.772C177.052 96.14 176.996 96.496 176.932 96.84C176.868 97.184 176.784 97.492 176.68 97.764C176.584 98.044 176.452 98.28 176.284 98.472C176.116 98.664 175.912 98.808 175.672 98.904C175.44 99 175.164 99.052 174.844 99.06L174.736 98.28C174.952 98.224 175.124 98.16 175.252 98.088C175.388 98.016 175.492 97.928 175.564 97.824C175.644 97.72 175.712 97.6 175.768 97.464C175.84 97.272 175.904 97.052 175.96 96.804C176.016 96.556 176.064 96.296 176.104 96.024C176.144 95.752 176.176 95.488 176.2 95.232C176.232 94.968 176.26 94.732 176.284 94.524C176.34 94.076 176.484 93.736 176.716 93.504C176.956 93.272 177.32 93.156 177.808 93.156H180.136ZM180.292 93.156V99H179.272V93.156H180.292ZM184.678 93.012C185.35 93.012 185.886 93.112 186.286 93.312C186.686 93.512 186.974 93.84 187.15 94.296C187.334 94.744 187.426 95.34 187.426 96.084C187.426 96.828 187.334 97.428 187.15 97.884C186.974 98.332 186.686 98.656 186.286 98.856C185.886 99.056 185.35 99.156 184.678 99.156C184.006 99.156 183.466 99.056 183.058 98.856C182.658 98.656 182.366 98.332 182.182 97.884C182.006 97.428 181.918 96.828 181.918 96.084C181.918 95.34 182.006 94.744 182.182 94.296C182.366 93.84 182.658 93.512 183.058 93.312C183.466 93.112 184.006 93.012 184.678 93.012ZM184.678 93.876C184.254 93.876 183.918 93.944 183.67 94.08C183.422 94.208 183.246 94.432 183.142 94.752C183.038 95.072 182.986 95.516 182.986 96.084C182.986 96.652 183.038 97.096 183.142 97.416C183.246 97.736 183.422 97.964 183.67 98.1C183.918 98.228 184.254 98.292 184.678 98.292C185.102 98.292 185.434 98.228 185.674 98.1C185.922 97.964 186.098 97.736 186.202 97.416C186.306 97.096 186.358 96.652 186.358 96.084C186.358 95.516 186.306 95.072 186.202 94.752C186.098 94.432 185.922 94.208 185.674 94.08C185.434 93.944 185.102 93.876 184.678 93.876ZM190.322 93.132C190.834 93.132 191.35 93.136 191.87 93.144C192.398 93.152 192.902 93.18 193.382 93.228L193.346 93.948H190.742C190.494 93.948 190.314 94.004 190.202 94.116C190.09 94.228 190.034 94.412 190.034 94.668V99H189.026V94.404C189.026 93.988 189.134 93.672 189.35 93.456C189.574 93.24 189.898 93.132 190.322 93.132ZM94.9877 107.156V107.96H92.8997C92.4517 107.96 92.2077 108.196 92.1677 108.668C92.1277 109.244 92.0557 109.784 91.9517 110.288C91.8477 110.792 91.6997 111.268 91.5077 111.716C91.3237 112.156 91.0717 112.584 90.7517 113H89.8997C90.2117 112.536 90.4557 112.06 90.6317 111.572C90.8157 111.076 90.9557 110.572 91.0517 110.06C91.1477 109.54 91.2117 109.02 91.2437 108.5C91.2757 108.052 91.4117 107.716 91.6517 107.492C91.8997 107.268 92.2597 107.156 92.7317 107.156H94.9877ZM90.4517 112.94L90.3557 114.728H89.6957V112.94H90.4517ZM95.9357 112.184V113H89.6957V112.184H95.9357ZM95.9357 112.94V114.728H95.2637L95.1677 112.94H95.9357ZM95.1317 107.156V113H94.1597V107.156H95.1317ZM99.7758 107.012C100.448 107.012 100.984 107.112 101.384 107.312C101.784 107.512 102.072 107.84 102.248 108.296C102.432 108.744 102.524 109.34 102.524 110.084C102.524 110.828 102.432 111.428 102.248 111.884C102.072 112.332 101.784 112.656 101.384 112.856C100.984 113.056 100.448 113.156 99.7758 113.156C99.1038 113.156 98.5638 113.056 98.1558 112.856C97.7558 112.656 97.4638 112.332 97.2798 111.884C97.1038 111.428 97.0158 110.828 97.0158 110.084C97.0158 109.34 97.1038 108.744 97.2798 108.296C97.4638 107.84 97.7558 107.512 98.1558 107.312C98.5638 107.112 99.1038 107.012 99.7758 107.012ZM99.7758 107.876C99.3518 107.876 99.0158 107.944 98.7678 108.08C98.5198 108.208 98.3438 108.432 98.2398 108.752C98.1358 109.072 98.0838 109.516 98.0838 110.084C98.0838 110.652 98.1358 111.096 98.2398 111.416C98.3438 111.736 98.5198 111.964 98.7678 112.1C99.0158 112.228 99.3518 112.292 99.7758 112.292C100.2 112.292 100.532 112.228 100.772 112.1C101.02 111.964 101.196 111.736 101.3 111.416C101.404 111.096 101.456 110.652 101.456 110.084C101.456 109.516 101.404 109.072 101.3 108.752C101.196 108.432 101.02 108.208 100.772 108.08C100.532 107.944 100.2 107.876 99.7758 107.876ZM111.823 107.156V113H110.815V107.156H111.823ZM107.815 107.156V113H106.819V107.156H107.815ZM110.923 107.156L110.911 107.984H107.755V107.156H110.923ZM116.205 107.012C116.877 107.012 117.413 107.112 117.813 107.312C118.213 107.512 118.501 107.84 118.677 108.296C118.861 108.744 118.953 109.34 118.953 110.084C118.953 110.828 118.861 111.428 118.677 111.884C118.501 112.332 118.213 112.656 117.813 112.856C117.413 113.056 116.877 113.156 116.205 113.156C115.533 113.156 114.993 113.056 114.585 112.856C114.185 112.656 113.893 112.332 113.709 111.884C113.533 111.428 113.445 110.828 113.445 110.084C113.445 109.34 113.533 108.744 113.709 108.296C113.893 107.84 114.185 107.512 114.585 107.312C114.993 107.112 115.533 107.012 116.205 107.012ZM116.205 107.876C115.781 107.876 115.445 107.944 115.197 108.08C114.949 108.208 114.773 108.432 114.669 108.752C114.565 109.072 114.513 109.516 114.513 110.084C114.513 110.652 114.565 111.096 114.669 111.416C114.773 111.736 114.949 111.964 115.197 112.1C115.445 112.228 115.781 112.292 116.205 112.292C116.629 112.292 116.961 112.228 117.201 112.1C117.449 111.964 117.625 111.736 117.729 111.416C117.833 111.096 117.885 110.652 117.885 110.084C117.885 109.516 117.833 109.072 117.729 108.752C117.625 108.432 117.449 108.208 117.201 108.08C116.961 107.944 116.629 107.876 116.205 107.876ZM125.117 107.156V107.96H123.029C122.581 107.96 122.337 108.196 122.297 108.668C122.257 109.244 122.185 109.784 122.081 110.288C121.977 110.792 121.829 111.268 121.637 111.716C121.453 112.156 121.201 112.584 120.881 113H120.029C120.341 112.536 120.585 112.06 120.761 111.572C120.945 111.076 121.085 110.572 121.181 110.06C121.277 109.54 121.341 109.02 121.373 108.5C121.405 108.052 121.541 107.716 121.781 107.492C122.029 107.268 122.389 107.156 122.861 107.156H125.117ZM120.581 112.94L120.485 114.728H119.825V112.94H120.581ZM126.065 112.184V113H119.825V112.184H126.065ZM126.065 112.94V114.728H125.393L125.297 112.94H126.065ZM125.261 107.156V113H124.289V107.156H125.261ZM132.376 107.156C132.248 107.5 132.124 107.816 132.004 108.104C131.892 108.384 131.776 108.632 131.656 108.848C131.544 109.064 131.416 109.248 131.272 109.4C131.136 109.552 130.976 109.676 130.792 109.772C130.608 109.86 130.392 109.916 130.144 109.94V109.976C130.408 110 130.636 110.056 130.828 110.144C131.02 110.232 131.188 110.356 131.332 110.516C131.484 110.668 131.62 110.86 131.74 111.092C131.868 111.324 131.996 111.6 132.124 111.92C132.252 112.232 132.392 112.592 132.544 113H131.476C131.332 112.624 131.2 112.292 131.08 112.004C130.96 111.708 130.84 111.456 130.72 111.248C130.608 111.04 130.484 110.872 130.348 110.744C130.212 110.608 130.052 110.512 129.868 110.456C129.692 110.392 129.484 110.36 129.244 110.36V109.568C129.532 109.568 129.776 109.516 129.976 109.412C130.176 109.3 130.348 109.14 130.492 108.932C130.644 108.724 130.784 108.472 130.912 108.176C131.04 107.88 131.176 107.54 131.32 107.156H132.376ZM128.488 107.156V108.896C128.488 109.072 128.476 109.248 128.452 109.424C128.428 109.6 128.392 109.772 128.344 109.94C128.392 110.108 128.428 110.276 128.452 110.444C128.476 110.612 128.488 110.772 128.488 110.924V113H127.468V107.156H128.488ZM129.628 109.568V110.36H128.188V109.568H129.628ZM138.581 107.156V107.96H136.445C136.197 107.96 136.017 108.016 135.905 108.128C135.801 108.232 135.729 108.42 135.689 108.692C135.649 109.044 135.601 109.404 135.545 109.772C135.497 110.14 135.441 110.496 135.377 110.84C135.313 111.184 135.229 111.492 135.125 111.764C135.029 112.044 134.897 112.28 134.729 112.472C134.561 112.664 134.357 112.808 134.117 112.904C133.885 113 133.609 113.052 133.289 113.06L133.181 112.28C133.397 112.224 133.569 112.16 133.697 112.088C133.833 112.016 133.937 111.928 134.009 111.824C134.089 111.72 134.157 111.6 134.213 111.464C134.285 111.272 134.349 111.052 134.405 110.804C134.461 110.556 134.509 110.296 134.549 110.024C134.589 109.752 134.621 109.488 134.645 109.232C134.677 108.968 134.705 108.732 134.729 108.524C134.785 108.076 134.929 107.736 135.161 107.504C135.401 107.272 135.765 107.156 136.253 107.156H138.581ZM138.737 107.156V113H137.717V107.156H138.737ZM145.787 107.012C146.299 107.012 146.731 107.064 147.083 107.168C147.435 107.264 147.719 107.428 147.935 107.66C148.151 107.892 148.307 108.204 148.403 108.596C148.507 108.988 148.559 109.48 148.559 110.072C148.559 110.848 148.467 111.456 148.283 111.896C148.107 112.336 147.815 112.648 147.407 112.832C147.007 113.016 146.467 113.108 145.787 113.108C145.139 113.108 144.619 113.016 144.227 112.832C143.843 112.648 143.567 112.336 143.399 111.896C143.231 111.456 143.147 110.848 143.147 110.072C143.147 109.48 143.191 108.988 143.279 108.596C143.375 108.204 143.527 107.892 143.735 107.66C143.943 107.428 144.215 107.264 144.551 107.168C144.887 107.064 145.299 107.012 145.787 107.012ZM141.659 107.156V113H140.651V107.156H141.659ZM143.627 109.592V110.384H141.575V109.592H143.627ZM145.775 107.876C145.359 107.876 145.031 107.944 144.791 108.08C144.551 108.208 144.379 108.432 144.275 108.752C144.179 109.064 144.131 109.5 144.131 110.06C144.131 110.612 144.179 111.048 144.275 111.368C144.379 111.688 144.551 111.916 144.791 112.052C145.031 112.18 145.359 112.244 145.775 112.244C146.207 112.244 146.547 112.18 146.795 112.052C147.051 111.916 147.231 111.688 147.335 111.368C147.447 111.048 147.503 110.612 147.503 110.06C147.503 109.5 147.447 109.064 147.335 108.752C147.231 108.432 147.051 108.208 146.795 108.08C146.547 107.944 146.207 107.876 145.775 107.876ZM150.898 107.156V109.352C150.898 109.64 150.958 109.844 151.078 109.964C151.206 110.076 151.41 110.132 151.69 110.132C152.026 110.132 152.354 110.1 152.674 110.036C152.994 109.972 153.354 109.852 153.754 109.676L153.85 110.456C153.426 110.632 152.986 110.764 152.53 110.852C152.074 110.932 151.682 110.972 151.354 110.972C150.866 110.972 150.498 110.868 150.25 110.66C150.01 110.444 149.89 110.12 149.89 109.688V107.156H150.898ZM154.654 107.156V113H153.634V107.156H154.654ZM158.965 107.012C159.845 107.012 160.481 107.172 160.873 107.492C161.273 107.812 161.477 108.288 161.485 108.92C161.485 109.44 161.373 109.848 161.149 110.144C160.933 110.432 160.581 110.576 160.093 110.576H156.673V109.784H159.829C160.085 109.784 160.253 109.696 160.333 109.52C160.421 109.336 160.461 109.136 160.453 108.92C160.453 108.544 160.345 108.276 160.129 108.116C159.913 107.956 159.541 107.876 159.013 107.876C158.589 107.876 158.253 107.94 158.005 108.068C157.765 108.188 157.593 108.404 157.489 108.716C157.393 109.02 157.345 109.448 157.345 110C157.345 110.624 157.405 111.1 157.525 111.428C157.653 111.756 157.853 111.98 158.125 112.1C158.397 112.22 158.757 112.28 159.205 112.28C159.525 112.28 159.869 112.268 160.237 112.244C160.613 112.212 160.949 112.176 161.245 112.136L161.341 112.82C161.165 112.892 160.941 112.952 160.669 113C160.397 113.048 160.117 113.084 159.829 113.108C159.549 113.132 159.297 113.144 159.073 113.144C158.409 113.144 157.869 113.044 157.453 112.844C157.045 112.636 156.749 112.308 156.565 111.86C156.381 111.404 156.289 110.804 156.289 110.06C156.289 109.292 156.381 108.688 156.565 108.248C156.757 107.8 157.049 107.484 157.441 107.3C157.833 107.108 158.341 107.012 158.965 107.012ZM164.054 107.156V113H163.046V107.156H164.054ZM167.234 109.508V110.288H163.982V109.508H167.234ZM168.134 107.156V113H167.126V107.156H168.134ZM175.166 107.156V113H174.242V109.124C174.242 108.996 174.246 108.872 174.254 108.752C174.262 108.624 174.27 108.488 174.278 108.344H174.254C174.206 108.456 174.142 108.576 174.062 108.704C173.99 108.824 173.918 108.932 173.846 109.028L170.87 113H170.03V107.156H170.954V111.032C170.954 111.16 170.95 111.288 170.942 111.416C170.942 111.536 170.934 111.668 170.918 111.812H170.942C171.006 111.692 171.074 111.572 171.146 111.452C171.218 111.332 171.29 111.228 171.362 111.14L174.338 107.156H175.166ZM179.113 107.096C179.553 107.096 179.917 107.1 180.205 107.108C180.493 107.108 180.749 107.116 180.973 107.132C181.205 107.14 181.445 107.156 181.693 107.18L181.549 107.96C181.461 107.944 181.197 107.932 180.757 107.924C180.325 107.916 179.785 107.912 179.137 107.912C178.649 107.912 178.325 107.996 178.165 108.164C178.013 108.324 177.937 108.592 177.937 108.968C177.937 109.36 178.017 109.644 178.177 109.82C178.345 109.988 178.677 110.072 179.173 110.072H181.561L181.585 110.828C181.497 110.828 181.349 110.832 181.141 110.84C180.933 110.84 180.661 110.84 180.325 110.84C179.989 110.84 179.589 110.84 179.125 110.84C178.845 110.84 178.617 110.892 178.441 110.996C178.273 111.1 178.161 111.248 178.105 111.44L177.661 113H176.605L177.133 111.248C177.189 111.08 177.277 110.944 177.397 110.84C177.525 110.736 177.665 110.66 177.817 110.612C177.977 110.556 178.129 110.52 178.273 110.504V110.456C177.953 110.408 177.693 110.316 177.493 110.18C177.301 110.044 177.161 109.864 177.073 109.64C176.985 109.408 176.941 109.136 176.941 108.824C176.941 108.552 176.973 108.308 177.037 108.092C177.109 107.876 177.229 107.696 177.397 107.552C177.565 107.4 177.789 107.288 178.069 107.216C178.349 107.136 178.697 107.096 179.113 107.096ZM181.693 107.18V113H180.697V107.18H181.693ZM191.169 107.156C191.041 107.5 190.917 107.816 190.797 108.104C190.685 108.384 190.569 108.632 190.449 108.848C190.337 109.064 190.209 109.248 190.065 109.4C189.929 109.552 189.769 109.676 189.585 109.772C189.401 109.86 189.185 109.916 188.937 109.94V109.976C189.201 110 189.429 110.056 189.621 110.144C189.813 110.232 189.981 110.356 190.125 110.516C190.277 110.668 190.413 110.86 190.533 111.092C190.661 111.324 190.789 111.6 190.917 111.92C191.045 112.232 191.185 112.592 191.337 113H190.269C190.125 112.624 189.993 112.292 189.873 112.004C189.753 111.708 189.633 111.456 189.513 111.248C189.401 111.04 189.277 110.872 189.141 110.744C189.005 110.608 188.845 110.512 188.661 110.456C188.485 110.392 188.277 110.36 188.037 110.36V109.568C188.325 109.568 188.569 109.516 188.769 109.412C188.969 109.3 189.141 109.14 189.285 108.932C189.437 108.724 189.577 108.472 189.705 108.176C189.833 107.88 189.969 107.54 190.113 107.156H191.169ZM187.281 107.156V108.896C187.281 109.072 187.269 109.248 187.245 109.424C187.221 109.6 187.185 109.772 187.137 109.94C187.185 110.108 187.221 110.276 187.245 110.444C187.269 110.612 187.281 110.772 187.281 110.924V113H186.261V107.156H187.281ZM188.421 109.568V110.36H186.981V109.568H188.421ZM196.482 104.72V111.32C196.482 111.592 196.546 111.792 196.674 111.92C196.81 112.048 197.014 112.112 197.286 112.112H200.274L200.322 112.928C199.802 112.968 199.27 112.992 198.726 113C198.19 113.008 197.654 113.012 197.118 113.012C196.51 113.012 196.078 112.864 195.822 112.568C195.566 112.272 195.438 111.9 195.438 111.452V104.72H196.482ZM204.403 104.564C205.003 104.564 205.511 104.636 205.927 104.78C206.351 104.924 206.687 105.164 206.935 105.5C207.191 105.828 207.375 106.268 207.487 106.82C207.607 107.372 207.667 108.052 207.667 108.86C207.667 109.668 207.607 110.348 207.487 110.9C207.375 111.452 207.191 111.896 206.935 112.232C206.687 112.56 206.351 112.796 205.927 112.94C205.511 113.084 205.003 113.156 204.403 113.156C203.803 113.156 203.291 113.084 202.867 112.94C202.451 112.796 202.115 112.56 201.859 112.232C201.603 111.896 201.415 111.452 201.295 110.9C201.183 110.348 201.127 109.668 201.127 108.86C201.127 108.052 201.183 107.372 201.295 106.82C201.415 106.268 201.603 105.828 201.859 105.5C202.115 105.164 202.451 104.924 202.867 104.78C203.291 104.636 203.803 104.564 204.403 104.564ZM204.403 105.512C203.859 105.512 203.427 105.616 203.107 105.824C202.795 106.032 202.571 106.38 202.435 106.868C202.307 107.348 202.243 108.012 202.243 108.86C202.243 109.7 202.307 110.364 202.435 110.852C202.571 111.34 202.795 111.688 203.107 111.896C203.427 112.104 203.859 112.208 204.403 112.208C204.947 112.208 205.375 112.104 205.687 111.896C206.007 111.688 206.231 111.34 206.359 110.852C206.495 110.364 206.563 109.7 206.563 108.86C206.563 108.012 206.495 107.348 206.359 106.868C206.231 106.38 206.007 106.032 205.687 105.824C205.375 105.616 204.947 105.512 204.403 105.512ZM215.106 104.72L212.694 108.152C212.622 108.256 212.55 108.348 212.478 108.428C212.414 108.5 212.334 108.584 212.238 108.68V108.704C212.342 108.8 212.438 108.896 212.526 108.992C212.614 109.088 212.69 109.184 212.754 109.28L215.274 113H214.086L211.146 108.668L213.954 104.72H215.106ZM210.498 104.72V107.312C210.498 107.552 210.486 107.78 210.462 107.996C210.438 108.212 210.402 108.436 210.354 108.668C210.394 108.892 210.426 109.116 210.45 109.34C210.482 109.564 210.498 109.78 210.498 109.988V113H209.454V104.72H210.498ZM211.722 108.26V109.112H210.126V108.26H211.722ZM219.508 104.72V113H218.452V104.72H219.508ZM222.184 104.72V105.656H215.788V104.72H222.184ZM226.054 104.72C226.15 104.72 226.234 104.748 226.306 104.804C226.378 104.852 226.426 104.92 226.45 105.008L229.114 113H228.022L225.874 106.208C225.842 106.096 225.806 105.984 225.766 105.872C225.734 105.752 225.702 105.64 225.67 105.536H225.334C225.302 105.64 225.27 105.752 225.238 105.872C225.206 105.984 225.17 106.096 225.13 106.208L222.982 113H221.89L224.554 105.008C224.578 104.92 224.626 104.852 224.698 104.804C224.77 104.748 224.854 104.72 224.95 104.72H226.054ZM227.59 109.496V110.408H223.39V109.496H227.59ZM233.134 104.612C233.774 104.612 234.29 104.684 234.682 104.828C235.074 104.964 235.358 105.204 235.534 105.548C235.718 105.892 235.81 106.376 235.81 107C235.81 107.448 235.758 107.824 235.654 108.128C235.55 108.424 235.386 108.656 235.162 108.824C234.946 108.984 234.654 109.088 234.286 109.136V109.196C234.422 109.228 234.554 109.296 234.682 109.4C234.818 109.496 234.942 109.628 235.054 109.796C235.166 109.956 235.25 110.152 235.306 110.384L236.11 113H234.982L234.25 110.408C234.146 110.096 234.006 109.876 233.83 109.748C233.654 109.612 233.426 109.544 233.146 109.544C232.658 109.544 232.234 109.544 231.874 109.544C231.514 109.536 231.214 109.528 230.974 109.52C230.734 109.512 230.542 109.508 230.398 109.508L230.434 108.632H233.11C233.518 108.624 233.838 108.576 234.07 108.488C234.31 108.4 234.482 108.244 234.586 108.02C234.69 107.788 234.742 107.468 234.742 107.06C234.742 106.652 234.69 106.34 234.586 106.124C234.482 105.9 234.31 105.744 234.07 105.656C233.838 105.568 233.518 105.524 233.11 105.524C232.454 105.524 231.886 105.528 231.406 105.536C230.934 105.544 230.614 105.548 230.446 105.548L230.278 104.72C230.582 104.688 230.866 104.664 231.13 104.648C231.394 104.632 231.682 104.624 231.994 104.624C232.314 104.616 232.694 104.612 233.134 104.612ZM231.322 104.72V113H230.278V104.72H231.322Z" fill="white"/>
<path d="M8 211C8 209.895 8.89543 209 10 209H126C127.105 209 128 209.895 128 211V224.249C128 224.733 127.824 225.201 127.505 225.566L121 233L114.598 240.317C114.218 240.751 113.669 241 113.092 241H10C8.89543 241 8 240.105 8 239V211Z" fill="url(#paint0_linear_278_5)" fill-opacity="0.2"/>
<path d="M10 208C8.34315 208 7 209.343 7 211V239C7 240.657 8.34314 242 10 242H113.092C113.958 242 114.781 241.627 115.35 240.976L121.753 233.659L128.258 226.224C128.736 225.677 129 224.975 129 224.249V211C129 209.343 127.657 208 126 208H10Z" stroke="url(#paint1_linear_278_5)" stroke-opacity="0.3" stroke-width="2"/>
<path d="M10 208C8.34315 208 7 209.343 7 211V239C7 240.657 8.34314 242 10 242H113.092C113.958 242 114.781 241.627 115.35 240.976L121.753 233.659L128.258 226.224C128.736 225.677 129 224.975 129 224.249V211C129 209.343 127.657 208 126 208H10Z" stroke="#CF52FE" stroke-opacity="0.3" stroke-width="2"/>
<path d="M300 4C300 2.89543 299.105 2 298 2H182C180.895 2 180 2.89543 180 4V17.2485C180 17.733 180.176 18.201 180.495 18.5655L187 26L193.402 33.317C193.782 33.751 194.331 34 194.908 34H298C299.105 34 300 33.1046 300 32V4Z" fill="url(#paint2_linear_278_5)" fill-opacity="0.2"/>
<path d="M298 1C299.657 1 301 2.34315 301 4V32C301 33.6569 299.657 35 298 35H194.908C194.042 35 193.219 34.6266 192.65 33.9755L186.247 26.6585L179.742 19.2241C179.264 18.6772 179 17.9752 179 17.2485V4C179 2.34315 180.343 1 182 1H298Z" stroke="url(#paint3_linear_278_5)" stroke-opacity="0.3" stroke-width="2"/>
<path d="M298 1C299.657 1 301 2.34315 301 4V32C301 33.6569 299.657 35 298 35H194.908C194.042 35 193.219 34.6266 192.65 33.9755L186.247 26.6585L179.742 19.2241C179.264 18.6772 179 17.9752 179 17.2485V4C179 2.34315 180.343 1 182 1H298Z" stroke="#CF52FE" stroke-opacity="0.3" stroke-width="2"/>
<path d="M172 247L175.4 242.751C175.779 242.276 176.354 242 176.961 242H270C271.105 242 272 242.895 272 244V259.446C272 259.809 271.901 260.164 271.715 260.475L266 270L260.594 278.109C260.223 278.666 259.598 279 258.93 279H170C168.895 279 168 278.105 168 277V252.702C168 252.247 168.155 251.807 168.438 251.452L172 247Z" fill="url(#paint4_linear_278_5)" fill-opacity="0.2"/>
<path d="M266.832 270.555L266.845 270.535L266.857 270.514L272.572 260.99L271.715 260.475L272.572 260.99C272.852 260.523 273 259.99 273 259.446V244C273 242.343 271.657 241 270 241H176.961C176.05 241 175.188 241.414 174.619 242.126L171.219 246.375L167.657 250.827C167.232 251.359 167 252.02 167 252.702V277C167 278.657 168.343 280 170 280H258.93C259.933 280 260.869 279.499 261.426 278.664L266.832 270.555Z" stroke="url(#paint5_linear_278_5)" stroke-opacity="0.3" stroke-width="2"/>
<path d="M266.832 270.555L266.845 270.535L266.857 270.514L272.572 260.99L271.715 260.475L272.572 260.99C272.852 260.523 273 259.99 273 259.446V244C273 242.343 271.657 241 270 241H176.961C176.05 241 175.188 241.414 174.619 242.126L171.219 246.375L167.657 250.827C167.232 251.359 167 252.02 167 252.702V277C167 278.657 168.343 280 170 280H258.93C259.933 280 260.869 279.499 261.426 278.664L266.832 270.555Z" stroke="#CF52FE" stroke-opacity="0.3" stroke-width="2"/>
<path d="M61 160L64.3995 155.751C64.7791 155.276 65.3537 155 65.9612 155H159C160.105 155 161 155.895 161 157V172.446C161 172.809 160.901 173.164 160.715 173.475L155 183L149.594 191.109C149.223 191.666 148.598 192 147.93 192H59C57.8954 192 57 191.105 57 190V165.702C57 165.247 57.1546 164.807 57.4383 164.452L61 160Z" fill="url(#paint6_linear_278_5)" fill-opacity="0.2"/>
<path d="M155.832 183.555L155.845 183.535L155.857 183.514L161.572 173.99L160.715 173.475L161.572 173.99C161.852 173.523 162 172.99 162 172.446V157C162 155.343 160.657 154 159 154H65.9612C65.0499 154 64.188 154.414 63.6186 155.126L60.2191 159.375L56.6574 163.827C56.2318 164.359 56 165.02 56 165.702V190C56 191.657 57.3431 193 59 193H147.93C148.933 193 149.869 192.499 150.426 191.664L155.832 183.555Z" stroke="url(#paint7_linear_278_5)" stroke-opacity="0.3" stroke-width="2"/>
<path d="M155.832 183.555L155.845 183.535L155.857 183.514L161.572 173.99L160.715 173.475L161.572 173.99C161.852 173.523 162 172.99 162 172.446V157C162 155.343 160.657 154 159 154H65.9612C65.0499 154 64.188 154.414 63.6186 155.126L60.2191 159.375L56.6574 163.827C56.2318 164.359 56 165.02 56 165.702V190C56 191.657 57.3431 193 59 193H147.93C148.933 193 149.869 192.499 150.426 191.664L155.832 183.555Z" stroke="#CF52FE" stroke-opacity="0.3" stroke-width="2"/>
<path d="M81.7653 163.99V166.79H77.5553V163.99H76.1553V171H77.5553V168.2H81.7653V171H83.1653V163.99H81.7653ZM84.5537 165.39H85.9537V163.99H84.5537V165.39ZM84.5537 166.79H85.9537V165.39H84.5537V166.79ZM84.5537 168.2H85.9537V166.79H84.5537V168.2ZM87.3537 168.2H85.9537V166.79H87.3537V168.2ZM88.7637 168.2H87.3537V166.79H88.7637V168.2ZM90.1637 168.2H88.7637V166.79H90.1637V168.2ZM85.9537 171H87.3537V169.6H85.9537V171ZM87.3537 171H88.7637V169.6H87.3537V171ZM88.7637 171H90.1637V169.6H88.7637V171ZM84.5537 169.6H85.9537V168.2H84.5537V169.6ZM84.5537 171H85.9537V169.6H84.5537V171ZM90.1637 165.39H91.5637V163.99H90.1637V165.39ZM88.7637 165.39H90.1637V163.99H88.7637V165.39ZM87.3537 165.39H88.7637V163.99H87.3537V165.39ZM85.9537 165.39H87.3537V163.99H85.9537V165.39ZM90.1637 168.2H91.5637V166.79H90.1637V168.2ZM90.1637 171H91.5637V169.6H90.1637V171ZM92.8447 163.95V165.36H94.2547V166.77H95.6647V168.18H94.2547V169.59H92.8447V171H94.2547V169.59H95.6647V168.18H97.0747V169.59H98.4847V171H99.8947V169.59H98.4847V168.18H97.0747V166.77H95.6647V165.36H94.2547V163.95H92.8447ZM98.4847 165.36H97.0747V166.77H98.4847V165.36ZM98.4847 165.36H99.8947V163.95H98.4847V165.36ZM101.165 165.39H102.565V163.99H101.165V165.39ZM101.165 166.79H102.565V165.39H101.165V166.79ZM101.165 168.2H102.565V166.79H101.165V168.2ZM103.965 168.2H102.565V166.79H103.965V168.2ZM105.375 168.2H103.965V166.79H105.375V168.2ZM106.775 168.2H105.375V166.79H106.775V168.2ZM102.565 171H103.965V169.6H102.565V171ZM103.965 171H105.375V169.6H103.965V171ZM105.375 171H106.775V169.6H105.375V171ZM101.165 169.6H102.565V168.2H101.165V169.6ZM101.165 171H102.565V169.6H101.165V171ZM106.775 165.39H108.175V163.99H106.775V165.39ZM106.775 166.79H108.175V165.39H106.775V166.79ZM105.375 165.39H106.775V163.99H105.375V165.39ZM103.965 165.39H105.375V163.99H103.965V165.39ZM102.565 165.39H103.965V163.99H102.565V165.39ZM106.775 169.6H108.175V168.2H106.775V169.6ZM106.775 171H108.175V169.6H106.775V171ZM109.524 165.39H110.924V163.99H109.524V165.39ZM110.924 165.39H112.324V163.99H110.924V165.39ZM112.324 165.39H113.734V163.99H112.324V165.39ZM113.734 165.39H115.134V163.99H113.734V165.39ZM109.524 166.79H110.924V165.39H109.524V166.79ZM109.524 168.2H110.924V166.79H109.524V168.2ZM112.324 168.2H110.924V166.79H112.324V168.2ZM113.734 168.2H112.324V166.79H113.734V168.2ZM115.134 168.2H113.734V166.79H115.134V168.2ZM109.524 169.6H110.924V168.2H109.524V169.6ZM109.524 171H110.924V169.6H109.524V171ZM115.134 165.39H116.534V163.99H115.134V165.39ZM115.134 166.79H116.534V165.39H115.134V166.79ZM115.134 168.2H116.534V166.79H115.134V168.2ZM115.134 169.6H116.534V168.2H115.134V169.6ZM115.134 171H116.534V169.6H115.134V171ZM117.845 163.95V165.36H120.665V171H122.075V165.36H124.895V163.95H117.845ZM131.775 165.39H130.375V166.79H131.775V165.39ZM126.165 163.99V171H127.565V168.2H130.375V166.79H127.565V163.99H126.165ZM130.375 169.6H131.775V168.2H130.375V169.6ZM131.775 165.39H133.175V163.99H131.775V165.39ZM131.775 171H133.175V169.6H131.775V171ZM134.524 165.39H135.924V163.99H134.524V165.39ZM135.924 165.39H137.324V163.99H135.924V165.39ZM137.324 165.39H138.734V163.99H137.324V165.39ZM138.734 165.39H140.134V163.99H138.734V165.39ZM134.524 166.79H135.924V165.39H134.524V166.79ZM134.524 168.2H135.924V166.79H134.524V168.2ZM137.324 168.2H135.924V166.79H137.324V168.2ZM138.734 168.2H137.324V166.79H138.734V168.2ZM140.134 168.2H138.734V166.79H140.134V168.2ZM134.524 169.6H135.924V168.2H134.524V169.6ZM134.524 171H135.924V169.6H134.524V171ZM140.134 165.39H141.534V163.99H140.134V165.39ZM140.134 166.79H141.534V165.39H140.134V166.79ZM140.134 168.2H141.534V166.79H140.134V168.2ZM140.134 169.6H141.534V168.2H140.134V169.6ZM140.134 171H141.534V169.6H140.134V171ZM80.3398 177.39H81.7398V175.99H80.3398V177.39ZM80.3398 178.79H81.7398V177.39H80.3398V178.79ZM80.3398 180.2H81.7398V178.79H80.3398V180.2ZM83.1398 180.2H81.7398V178.79H83.1398V180.2ZM84.5498 180.2H83.1398V178.79H84.5498V180.2ZM85.9498 180.2H84.5498V178.79H85.9498V180.2ZM81.7398 183H83.1398V181.6H81.7398V183ZM83.1398 183H84.5498V181.6H83.1398V183ZM84.5498 183H85.9498V181.6H84.5498V183ZM80.3398 181.6H81.7398V180.2H80.3398V181.6ZM80.3398 183H81.7398V181.6H80.3398V183ZM85.9498 177.39H87.3498V175.99H85.9498V177.39ZM85.9498 178.79H87.3498V177.39H85.9498V178.79ZM84.5498 177.39H85.9498V175.99H84.5498V177.39ZM83.1398 177.39H84.5498V175.99H83.1398V177.39ZM81.7398 177.39H83.1398V175.99H81.7398V177.39ZM85.9498 181.6H87.3498V180.2H85.9498V181.6ZM85.9498 183H87.3498V181.6H85.9498V183ZM88.6992 175.99V183H90.0992V180.2H94.3092V178.79H90.0992V177.39H94.3092V175.99H88.6992ZM94.3092 178.79H95.7092V177.39H94.3092V178.79ZM97.0195 177.39H98.4195V175.99H97.0195V177.39ZM97.0195 178.79H98.4195V177.39H97.0195V178.79ZM97.0195 180.2H98.4195V178.79H97.0195V180.2ZM99.8195 180.2H98.4195V178.79H99.8195V180.2ZM101.23 180.2H99.8195V178.79H101.23V180.2ZM102.63 180.2H101.23V178.79H102.63V180.2ZM98.4195 183H99.8195V181.6H98.4195V183ZM99.8195 183H101.23V181.6H99.8195V183ZM101.23 183H102.63V181.6H101.23V183ZM97.0195 181.6H98.4195V180.2H97.0195V181.6ZM97.0195 183H98.4195V181.6H97.0195V183ZM102.63 177.39H104.03V175.99H102.63V177.39ZM101.23 177.39H102.63V175.99H101.23V177.39ZM99.8195 177.39H101.23V175.99H99.8195V177.39ZM98.4195 177.39H99.8195V175.99H98.4195V177.39ZM102.63 180.2H104.03V178.79H102.63V180.2ZM102.63 183H104.03V181.6H102.63V183ZM108.111 178.79V183H109.521V178.79H108.111ZM105.311 175.99V183H106.711V178.79H108.111V177.39H106.711V175.99H105.311ZM110.921 175.99V177.39H109.521V178.79H110.921V183H112.321V175.99H110.921ZM113.65 177.39H115.05V175.99H113.65V177.39ZM113.65 178.79H115.05V177.39H113.65V178.79ZM113.65 180.2H115.05V178.79H113.65V180.2ZM116.45 180.2H115.05V178.79H116.45V180.2ZM117.86 180.2H116.45V178.79H117.86V180.2ZM119.26 180.2H117.86V178.79H119.26V180.2ZM115.05 183H116.45V181.6H115.05V183ZM116.45 183H117.86V181.6H116.45V183ZM117.86 183H119.26V181.6H117.86V183ZM113.65 181.6H115.05V180.2H113.65V181.6ZM113.65 183H115.05V181.6H113.65V183ZM119.26 177.39H120.66V175.99H119.26V177.39ZM117.86 177.39H119.26V175.99H117.86V177.39ZM116.45 177.39H117.86V175.99H116.45V177.39ZM115.05 177.39H116.45V175.99H115.05V177.39ZM119.26 180.2H120.66V178.79H119.26V180.2ZM119.26 183H120.66V181.6H119.26V183ZM127.551 175.99V178.79H123.341V175.99H121.941V183H123.341V180.2H127.551V183H128.951V175.99H127.551ZM135.98 175.95V177.36H134.57V178.77H133.16V180.18H131.75V175.95H130.34V183H131.75V181.59H133.16V180.18H134.57V178.77H135.98V183H137.39V175.95H135.98Z" fill="url(#paint8_radial_278_5)"/>
<path d="M184.832 249.95V251.36H187.652V257H189.062V251.36H191.882V249.95H184.832ZM193.152 251.39V255.6H194.552V251.39H193.152ZM194.552 249.99V251.39H198.762V249.99H194.552ZM198.762 251.39V255.6H194.552V257H198.762V255.6H200.162V251.39H198.762ZM202.883 249.95V251.36H205.703V249.95H202.883ZM201.473 249.95V257H202.883V249.95H201.473ZM205.703 249.95V251.36H207.113V257H208.523V249.95H205.703ZM215.433 249.95V252.77H211.203V249.95H209.793V254.18H215.433V257H216.843V249.95H215.433ZM218.113 251.39H219.513V249.99H218.113V251.39ZM218.113 252.79H219.513V251.39H218.113V252.79ZM218.113 254.2H219.513V252.79H218.113V254.2ZM220.913 254.2H219.513V252.79H220.913V254.2ZM222.323 254.2H220.913V252.79H222.323V254.2ZM223.723 254.2H222.323V252.79H223.723V254.2ZM219.513 257H220.913V255.6H219.513V257ZM220.913 257H222.323V255.6H220.913V257ZM222.323 257H223.723V255.6H222.323V257ZM218.113 255.6H219.513V254.2H218.113V255.6ZM218.113 257H219.513V255.6H218.113V257ZM223.723 251.39H225.123V249.99H223.723V251.39ZM222.323 251.39H223.723V249.99H222.323V251.39ZM220.913 251.39H222.323V249.99H220.913V251.39ZM219.513 251.39H220.913V249.99H219.513V251.39ZM223.723 254.2H225.123V252.79H223.723V254.2ZM223.723 257H225.123V255.6H223.723V257ZM226.404 249.95V251.36H229.224V257H230.634V251.36H233.454V249.95H226.404ZM236.125 251.39H237.525V249.99H236.125V251.39ZM237.525 251.39H238.935V249.99H237.525V251.39ZM238.935 251.39H240.335V249.99H238.935V251.39ZM240.335 251.39H241.735V249.99H240.335V251.39ZM234.725 252.79H236.125V251.39H234.725V252.79ZM234.725 254.2H236.125V252.79H234.725V254.2ZM234.725 255.6H236.125V254.2H234.725V255.6ZM236.125 257H237.525V255.6H236.125V257ZM237.525 257H238.935V255.6H237.525V257ZM238.935 257H240.335V255.6H238.935V257ZM240.335 257H241.735V255.6H240.335V257ZM243.064 249.95V254.18H244.474V249.95H243.064ZM244.474 249.95V251.36H248.704V249.95H244.474ZM248.704 249.95V257H250.114V249.95H248.704ZM244.474 252.77V255.59H243.064V257H244.474V255.59H245.884V254.18H248.704V252.77H244.474ZM194.568 261.99V264.79H190.358V261.99H188.958V269H190.358V266.2H194.568V269H195.968V261.99H194.568ZM197.356 263.39H198.756V261.99H197.356V263.39ZM198.756 263.39H200.156V261.99H198.756V263.39ZM200.156 263.39H201.566V261.99H200.156V263.39ZM201.566 263.39H202.966V261.99H201.566V263.39ZM197.356 264.79H198.756V263.39H197.356V264.79ZM197.356 266.2H198.756V264.79H197.356V266.2ZM200.156 266.2H198.756V264.79H200.156V266.2ZM201.566 266.2H200.156V264.79H201.566V266.2ZM202.966 266.2H201.566V264.79H202.966V266.2ZM197.356 267.6H198.756V266.2H197.356V267.6ZM197.356 269H198.756V267.6H197.356V269ZM202.966 263.39H204.366V261.99H202.966V263.39ZM202.966 264.79H204.366V263.39H202.966V264.79ZM202.966 266.2H204.366V264.79H202.966V266.2ZM202.966 267.6H204.366V266.2H202.966V267.6ZM202.966 269H204.366V267.6H202.966V269ZM211.26 264.79V269H212.67V264.79H211.26ZM208.46 261.99V269H209.86V264.79H211.26V263.39H209.86V261.99H208.46ZM214.07 261.99V263.39H212.67V264.79H214.07V269H215.47V261.99H214.07ZM216.8 263.39H218.2V261.99H216.8V263.39ZM216.8 264.79H218.2V263.39H216.8V264.79ZM216.8 266.2H218.2V264.79H216.8V266.2ZM219.6 266.2H218.2V264.79H219.6V266.2ZM221.01 266.2H219.6V264.79H221.01V266.2ZM222.41 266.2H221.01V264.79H222.41V266.2ZM218.2 269H219.6V267.6H218.2V269ZM219.6 269H221.01V267.6H219.6V269ZM221.01 269H222.41V267.6H221.01V269ZM216.8 267.6H218.2V266.2H216.8V267.6ZM216.8 269H218.2V267.6H216.8V269ZM222.41 263.39H223.81V261.99H222.41V263.39ZM221.01 263.39H222.41V261.99H221.01V263.39ZM219.6 263.39H221.01V261.99H219.6V263.39ZM218.2 263.39H219.6V261.99H218.2V263.39ZM222.41 266.2H223.81V264.79H222.41V266.2ZM222.41 269H223.81V267.6H222.41V269ZM226.491 263.39H227.891V261.99H226.491V263.39ZM227.891 263.39H229.301V261.99H227.891V263.39ZM229.301 263.39H230.701V261.99H229.301V263.39ZM230.701 263.39H232.101V261.99H230.701V263.39ZM225.091 264.79H226.491V263.39H225.091V264.79ZM225.091 266.2H226.491V264.79H225.091V266.2ZM225.091 267.6H226.491V266.2H225.091V267.6ZM226.491 269H227.891V267.6H226.491V269ZM227.891 269H229.301V267.6H227.891V269ZM229.301 269H230.701V267.6H229.301V269ZM230.701 269H232.101V267.6H230.701V269ZM233.431 261.95V263.36H236.251V269H237.661V263.36H240.481V261.95H233.431ZM241.751 263.39H243.151V261.99H241.751V263.39ZM241.751 264.79H243.151V263.39H241.751V264.79ZM241.751 266.2H243.151V264.79H241.751V266.2ZM244.551 266.2H243.151V264.79H244.551V266.2ZM245.961 266.2H244.551V264.79H245.961V266.2ZM247.361 266.2H245.961V264.79H247.361V266.2ZM243.151 269H244.551V267.6H243.151V269ZM244.551 269H245.961V267.6H244.551V269ZM245.961 269H247.361V267.6H245.961V269ZM241.751 267.6H243.151V266.2H241.751V267.6ZM241.751 269H243.151V267.6H241.751V269ZM247.361 263.39H248.761V261.99H247.361V263.39ZM245.961 263.39H247.361V261.99H245.961V263.39ZM244.551 263.39H245.961V261.99H244.551V263.39ZM243.151 263.39H244.551V261.99H243.151V263.39ZM247.361 266.2H248.761V264.79H247.361V266.2ZM247.361 269H248.761V267.6H247.361V269Z" fill="url(#paint9_radial_278_5)"/>
<path d="M18.6846 220.95V222.36H21.5046V228H22.9146V222.36H25.7346V220.95H18.6846ZM27.0049 220.99V228H28.4049V225.2H32.6149V223.79H28.4049V222.39H32.6149V220.99H27.0049ZM32.6149 223.79H34.0149V222.39H32.6149V223.79ZM35.3252 222.39H36.7252V220.99H35.3252V222.39ZM35.3252 223.79H36.7252V222.39H35.3252V223.79ZM35.3252 225.2H36.7252V223.79H35.3252V225.2ZM38.1252 225.2H36.7252V223.79H38.1252V225.2ZM39.5352 225.2H38.1252V223.79H39.5352V225.2ZM40.9352 225.2H39.5352V223.79H40.9352V225.2ZM36.7252 228H38.1252V226.6H36.7252V228ZM38.1252 228H39.5352V226.6H38.1252V228ZM39.5352 228H40.9352V226.6H39.5352V228ZM35.3252 226.6H36.7252V225.2H35.3252V226.6ZM35.3252 228H36.7252V226.6H35.3252V228ZM40.9352 222.39H42.3352V220.99H40.9352V222.39ZM39.5352 222.39H40.9352V220.99H39.5352V222.39ZM38.1252 222.39H39.5352V220.99H38.1252V222.39ZM36.7252 222.39H38.1252V220.99H36.7252V222.39ZM40.9352 225.2H42.3352V223.79H40.9352V225.2ZM40.9352 228H42.3352V226.6H40.9352V228ZM43.6162 222.39H45.0162V220.99H43.6162V222.39ZM43.6162 223.79H45.0162V222.39H43.6162V223.79ZM43.6162 225.2H45.0162V223.79H43.6162V225.2ZM46.4162 225.2H45.0162V223.79H46.4162V225.2ZM47.8262 225.2H46.4162V223.79H47.8262V225.2ZM49.2262 225.2H47.8262V223.79H49.2262V225.2ZM45.0162 228H46.4162V226.6H45.0162V228ZM46.4162 228H47.8262V226.6H46.4162V228ZM47.8262 228H49.2262V226.6H47.8262V228ZM43.6162 226.6H45.0162V225.2H43.6162V226.6ZM43.6162 228H45.0162V226.6H43.6162V228ZM49.2262 222.39H50.6262V220.99H49.2262V222.39ZM49.2262 223.79H50.6262V222.39H49.2262V223.79ZM47.8262 222.39H49.2262V220.99H47.8262V222.39ZM46.4162 222.39H47.8262V220.99H46.4162V222.39ZM45.0162 222.39H46.4162V220.99H45.0162V222.39ZM49.2262 226.6H50.6262V225.2H49.2262V226.6ZM49.2262 228H50.6262V226.6H49.2262V228ZM51.9756 222.39V226.6H53.3756V222.39H51.9756ZM53.3756 220.99V222.39H57.5856V220.99H53.3756ZM57.5856 222.39V226.6H53.3756V228H57.5856V226.6H58.9856V222.39H57.5856ZM60.2959 220.95V223.77H61.7059V220.95H60.2959ZM63.1159 223.77H61.7059V225.18H63.1159V223.77ZM63.1159 223.77V228H64.5259V225.18H65.9359V223.77H63.1159ZM63.1159 220.95V223.77H64.5259V220.95H63.1159ZM60.2959 225.18V228H61.7059V225.18H60.2959ZM65.9359 220.95V223.77H67.3459V220.95H65.9359ZM65.9359 225.18V228H67.3459V225.18H65.9359ZM74.2262 220.99V223.79H70.0162V220.99H68.6162V228H70.0162V225.2H74.2262V228H75.6262V220.99H74.2262ZM77.0146 222.39V226.6H78.4146V222.39H77.0146ZM78.4146 220.99V222.39H82.6246V220.99H78.4146ZM82.6246 222.39V226.6H78.4146V228H82.6246V226.6H84.0246V222.39H82.6246ZM86.735 222.39H88.135V220.99H86.735V222.39ZM88.135 222.39H89.545V220.99H88.135V222.39ZM89.545 222.39H90.945V220.99H89.545V222.39ZM90.945 222.39H92.345V220.99H90.945V222.39ZM85.335 223.79H86.735V222.39H85.335V223.79ZM85.335 225.2H86.735V223.79H85.335V225.2ZM85.335 226.6H86.735V225.2H85.335V226.6ZM86.735 228H88.135V226.6H86.735V228ZM88.135 228H89.545V226.6H88.135V228ZM89.545 228H90.945V226.6H89.545V228ZM90.945 228H92.345V226.6H90.945V228ZM93.6748 220.95V222.36H96.4948V228H97.9048V222.36H100.725V220.95H93.6748ZM101.995 220.95V228H104.815V226.59H103.405V225.18H107.635V226.59H104.815V228H109.045V223.77H103.405V220.95H101.995Z" fill="url(#paint10_radial_278_5)"/>
<path d="M204.092 13.99V16.79H199.882V13.99H198.482V21H199.882V18.2H204.092V21H205.492V13.99H204.092ZM206.881 15.39H208.281V13.99H206.881V15.39ZM206.881 16.79H208.281V15.39H206.881V16.79ZM206.881 18.2H208.281V16.79H206.881V18.2ZM209.681 18.2H208.281V16.79H209.681V18.2ZM211.091 18.2H209.681V16.79H211.091V18.2ZM212.491 18.2H211.091V16.79H212.491V18.2ZM208.281 21H209.681V19.6H208.281V21ZM209.681 21H211.091V19.6H209.681V21ZM211.091 21H212.491V19.6H211.091V21ZM206.881 19.6H208.281V18.2H206.881V19.6ZM206.881 21H208.281V19.6H206.881V21ZM212.491 15.39H213.891V13.99H212.491V15.39ZM211.091 15.39H212.491V13.99H211.091V15.39ZM209.681 15.39H211.091V13.99H209.681V15.39ZM208.281 15.39H209.681V13.99H208.281V15.39ZM212.491 18.2H213.891V16.79H212.491V18.2ZM212.491 21H213.891V19.6H212.491V21ZM217.955 13.95V16.77H219.365V13.95H217.955ZM217.955 19.59V21H220.775V19.59H217.955ZM220.775 19.59H222.185V18.18H220.775V19.59ZM219.365 18.18H220.775V16.77H219.365V18.18ZM222.185 18.18H223.595V16.77H222.185V18.18ZM223.595 13.95V16.77H225.005V13.95H223.595ZM227.675 15.39H229.075V13.99H227.675V15.39ZM229.075 15.39H230.485V13.99H229.075V15.39ZM230.485 15.39H231.885V13.99H230.485V15.39ZM231.885 15.39H233.285V13.99H231.885V15.39ZM226.275 16.79H227.675V15.39H226.275V16.79ZM226.275 18.2H227.675V16.79H226.275V18.2ZM226.275 19.6H227.675V18.2H226.275V19.6ZM227.675 21H229.075V19.6H227.675V21ZM229.075 21H230.485V19.6H229.075V21ZM230.485 21H231.885V19.6H230.485V21ZM231.885 21H233.285V19.6H231.885V21ZM236.025 13.95V15.36H238.845V13.95H236.025ZM234.615 13.95V21H236.025V13.95H234.615ZM238.845 13.95V15.36H240.255V21H241.665V13.95H238.845ZM242.936 15.39H244.336V13.99H242.936V15.39ZM242.936 16.79H244.336V15.39H242.936V16.79ZM242.936 18.2H244.336V16.79H242.936V18.2ZM245.736 18.2H244.336V16.79H245.736V18.2ZM247.146 18.2H245.736V16.79H247.146V18.2ZM248.546 18.2H247.146V16.79H248.546V18.2ZM244.336 21H245.736V19.6H244.336V21ZM245.736 21H247.146V19.6H245.736V21ZM247.146 21H248.546V19.6H247.146V21ZM242.936 19.6H244.336V18.2H242.936V19.6ZM242.936 21H244.336V19.6H242.936V21ZM248.546 15.39H249.946V13.99H248.546V15.39ZM247.146 15.39H248.546V13.99H247.146V15.39ZM245.736 15.39H247.146V13.99H245.736V15.39ZM244.336 15.39H245.736V13.99H244.336V15.39ZM248.546 18.2H249.946V16.79H248.546V18.2ZM248.546 21H249.946V19.6H248.546V21ZM251.227 15.39H252.627V13.99H251.227V15.39ZM251.227 16.79H252.627V15.39H251.227V16.79ZM251.227 18.2H252.627V16.79H251.227V18.2ZM254.027 18.2H252.627V16.79H254.027V18.2ZM255.437 18.2H254.027V16.79H255.437V18.2ZM256.837 18.2H255.437V16.79H256.837V18.2ZM252.627 21H254.027V19.6H252.627V21ZM254.027 21H255.437V19.6H254.027V21ZM255.437 21H256.837V19.6H255.437V21ZM251.227 19.6H252.627V18.2H251.227V19.6ZM251.227 21H252.627V19.6H251.227V21ZM256.837 15.39H258.237V13.99H256.837V15.39ZM256.837 16.79H258.237V15.39H256.837V16.79ZM255.437 15.39H256.837V13.99H255.437V15.39ZM254.027 15.39H255.437V13.99H254.027V15.39ZM252.627 15.39H254.027V13.99H252.627V15.39ZM256.837 19.6H258.237V18.2H256.837V19.6ZM256.837 21H258.237V19.6H256.837V21ZM259.586 15.39H260.986V13.99H259.586V15.39ZM260.986 15.39H262.386V13.99H260.986V15.39ZM262.386 15.39H263.796V13.99H262.386V15.39ZM263.796 15.39H265.196V13.99H263.796V15.39ZM259.586 16.79H260.986V15.39H259.586V16.79ZM259.586 18.2H260.986V16.79H259.586V18.2ZM262.386 18.2H260.986V16.79H262.386V18.2ZM263.796 18.2H262.386V16.79H263.796V18.2ZM265.196 18.2H263.796V16.79H265.196V18.2ZM259.586 19.6H260.986V18.2H259.586V19.6ZM259.586 21H260.986V19.6H259.586V21ZM265.196 15.39H266.596V13.99H265.196V15.39ZM265.196 16.79H266.596V15.39H265.196V16.79ZM265.196 18.2H266.596V16.79H265.196V18.2ZM265.196 19.6H266.596V18.2H265.196V19.6ZM265.196 21H266.596V19.6H265.196V21ZM267.906 15.39H269.306V13.99H267.906V15.39ZM267.906 16.79H269.306V15.39H267.906V16.79ZM267.906 18.2H269.306V16.79H267.906V18.2ZM270.706 18.2H269.306V16.79H270.706V18.2ZM272.116 18.2H270.706V16.79H272.116V18.2ZM273.516 18.2H272.116V16.79H273.516V18.2ZM269.306 21H270.706V19.6H269.306V21ZM270.706 21H272.116V19.6H270.706V21ZM272.116 21H273.516V19.6H272.116V21ZM267.906 19.6H269.306V18.2H267.906V19.6ZM267.906 21H269.306V19.6H267.906V21ZM273.516 15.39H274.916V13.99H273.516V15.39ZM272.116 15.39H273.516V13.99H272.116V15.39ZM270.706 15.39H272.116V13.99H270.706V15.39ZM269.306 15.39H270.706V13.99H269.306V15.39ZM273.516 18.2H274.916V16.79H273.516V18.2ZM273.516 21H274.916V19.6H273.516V21ZM276.197 13.95V15.36H279.017V21H280.427V15.36H283.247V13.95H276.197Z" fill="url(#paint11_radial_278_5)"/>
<defs>
<linearGradient id="paint0_linear_278_5" x1="-5.49602" y1="239.414" x2="156.271" y2="286.125" gradientUnits="userSpaceOnUse">
<stop stop-color="#CD51FC" stop-opacity="0"/>
<stop offset="1" stop-color="#CC51FA"/>
</linearGradient>
<linearGradient id="paint1_linear_278_5" x1="175.047" y1="231.2" x2="8.20881" y2="231.2" gradientUnits="userSpaceOnUse">
<stop stop-color="#CF52FE"/>
<stop offset="1" stop-color="#CF52FE" stop-opacity="0"/>
</linearGradient>
<linearGradient id="paint2_linear_278_5" x1="313.496" y1="32.4137" x2="151.729" y2="79.1247" gradientUnits="userSpaceOnUse">
<stop stop-color="#CD51FC" stop-opacity="0"/>
<stop offset="1" stop-color="#CC51FA"/>
</linearGradient>
<linearGradient id="paint3_linear_278_5" x1="132.953" y1="24.2" x2="299.791" y2="24.2" gradientUnits="userSpaceOnUse">
<stop stop-color="#CF52FE"/>
<stop offset="1" stop-color="#CF52FE" stop-opacity="0"/>
</linearGradient>
<linearGradient id="paint4_linear_278_5" x1="156.303" y1="277.166" x2="301.395" y2="308.569" gradientUnits="userSpaceOnUse">
<stop stop-color="#CD51FC" stop-opacity="0"/>
<stop offset="1" stop-color="#CC51FA"/>
</linearGradient>
<linearGradient id="paint5_linear_278_5" x1="312.774" y1="267.669" x2="168.181" y2="267.669" gradientUnits="userSpaceOnUse">
<stop stop-color="#CF52FE"/>
<stop offset="1" stop-color="#CF52FE" stop-opacity="0"/>
</linearGradient>
<linearGradient id="paint6_linear_278_5" x1="45.3034" y1="190.166" x2="190.395" y2="221.569" gradientUnits="userSpaceOnUse">
<stop stop-color="#CD51FC" stop-opacity="0"/>
<stop offset="1" stop-color="#CC51FA"/>
</linearGradient>
<linearGradient id="paint7_linear_278_5" x1="201.774" y1="180.669" x2="57.181" y2="180.669" gradientUnits="userSpaceOnUse">
<stop stop-color="#CF52FE"/>
<stop offset="1" stop-color="#CF52FE" stop-opacity="0"/>
</linearGradient>
<radialGradient id="paint8_radial_278_5" cx="0" cy="0" r="1" gradientUnits="userSpaceOnUse" gradientTransform="translate(109.5 165.914) rotate(90) scale(12.4231 85.5)">
<stop stop-color="#FCDAFF"/>
<stop offset="1" stop-color="#CF52FE"/>
</radialGradient>
<radialGradient id="paint9_radial_278_5" cx="0" cy="0" r="1" gradientUnits="userSpaceOnUse" gradientTransform="translate(219.5 251.914) rotate(90) scale(12.4231 70.8846)">
<stop stop-color="#FCDAFF"/>
<stop offset="1" stop-color="#CF52FE"/>
</radialGradient>
<radialGradient id="paint10_radial_278_5" cx="0" cy="0" r="1" gradientUnits="userSpaceOnUse" gradientTransform="translate(64.5 216.914) rotate(90) scale(12.4231 94.2692)">
<stop stop-color="#FCDAFF"/>
<stop offset="1" stop-color="#CF52FE"/>
</radialGradient>
<radialGradient id="paint11_radial_278_5" cx="0" cy="0" r="1" gradientUnits="userSpaceOnUse" gradientTransform="translate(241.5 9.9136) rotate(90) scale(12.4231 94.2692)">
<stop stop-color="#FCDAFF"/>
<stop offset="1" stop-color="#CF52FE"/>
</radialGradient>
</defs>
</svg>
