<svg width="1083" height="329" viewBox="0 0 1083 329" fill="none" xmlns="http://www.w3.org/2000/svg">
<path d="M503.003 328H423.736L346.426 248.964H12.7219" stroke="white" stroke-width="2"/>
<ellipse cx="6.36094" cy="249.458" rx="6.36094" ry="6.42169" fill="white"/>
<path d="M29.9777 220.329V225.929H21.5577V220.329H18.7577V234.349H21.5577V228.749H29.9777V234.349H32.7777V220.329H29.9777ZM35.5546 223.129H38.3546V220.329H35.5546V223.129ZM35.5546 225.929H38.3546V223.129H35.5546V225.929ZM35.5546 228.749H38.3546V225.929H35.5546V228.749ZM41.1546 228.749H38.3546V225.929H41.1546V228.749ZM43.9746 228.749H41.1546V225.929H43.9746V228.749ZM46.7746 228.749H43.9746V225.929H46.7746V228.749ZM38.3546 234.349H41.1546V231.549H38.3546V234.349ZM41.1546 234.349H43.9746V231.549H41.1546V234.349ZM43.9746 234.349H46.7746V231.549H43.9746V234.349ZM35.5546 231.549H38.3546V228.749H35.5546V231.549ZM35.5546 234.349H38.3546V231.549H35.5546V234.349ZM46.7746 223.129H49.5746V220.329H46.7746V223.129ZM43.9746 223.129H46.7746V220.329H43.9746V223.129ZM41.1546 223.129H43.9746V220.329H41.1546V223.129ZM38.3546 223.129H41.1546V220.329H38.3546V223.129ZM46.7746 228.749H49.5746V225.929H46.7746V228.749ZM46.7746 234.349H49.5746V231.549H46.7746V234.349ZM57.703 220.249V225.889H60.523V220.249H57.703ZM57.703 231.529V234.349H63.343V231.529H57.703ZM63.343 231.529H66.163V228.709H63.343V231.529ZM60.523 228.709H63.343V225.889H60.523V228.709ZM66.163 228.709H68.983V225.889H66.163V228.709ZM68.983 220.249V225.889H71.803V220.249H68.983ZM77.1437 223.129H79.9437V220.329H77.1437V223.129ZM79.9437 223.129H82.7637V220.329H79.9437V223.129ZM82.7637 223.129H85.5637V220.329H82.7637V223.129ZM85.5637 223.129H88.3637V220.329H85.5637V223.129ZM74.3437 225.929H77.1437V223.129H74.3437V225.929ZM74.3437 228.749H77.1437V225.929H74.3437V228.749ZM74.3437 231.549H77.1437V228.749H74.3437V231.549ZM77.1437 234.349H79.9437V231.549H77.1437V234.349ZM79.9437 234.349H82.7637V231.549H79.9437V234.349ZM82.7637 234.349H85.5637V231.549H82.7637V234.349ZM85.5637 234.349H88.3637V231.549H85.5637V234.349ZM93.8433 220.249V223.069H99.4833V220.249H93.8433ZM91.0233 220.249V234.349H93.8433V220.249H91.0233ZM99.4833 220.249V223.069H102.303V234.349H105.123V220.249H99.4833ZM107.664 223.129H110.464V220.329H107.664V223.129ZM107.664 225.929H110.464V223.129H107.664V225.929ZM107.664 228.749H110.464V225.929H107.664V228.749ZM113.264 228.749H110.464V225.929H113.264V228.749ZM116.084 228.749H113.264V225.929H116.084V228.749ZM118.884 228.749H116.084V225.929H118.884V228.749ZM110.464 234.349H113.264V231.549H110.464V234.349ZM113.264 234.349H116.084V231.549H113.264V234.349ZM116.084 234.349H118.884V231.549H116.084V234.349ZM107.664 231.549H110.464V228.749H107.664V231.549ZM107.664 234.349H110.464V231.549H107.664V234.349ZM118.884 223.129H121.684V220.329H118.884V223.129ZM116.084 223.129H118.884V220.329H116.084V223.129ZM113.264 223.129H116.084V220.329H113.264V223.129ZM110.464 223.129H113.264V220.329H110.464V223.129ZM118.884 228.749H121.684V225.929H118.884V228.749ZM118.884 234.349H121.684V231.549H118.884V234.349ZM124.246 223.129H127.046V220.329H124.246V223.129ZM124.246 225.929H127.046V223.129H124.246V225.929ZM124.246 228.749H127.046V225.929H124.246V228.749ZM129.846 228.749H127.046V225.929H129.846V228.749ZM132.666 228.749H129.846V225.929H132.666V228.749ZM135.466 228.749H132.666V225.929H135.466V228.749ZM127.046 234.349H129.846V231.549H127.046V234.349ZM129.846 234.349H132.666V231.549H129.846V234.349ZM132.666 234.349H135.466V231.549H132.666V234.349ZM124.246 231.549H127.046V228.749H124.246V231.549ZM124.246 234.349H127.046V231.549H124.246V234.349ZM135.466 223.129H138.266V220.329H135.466V223.129ZM135.466 225.929H138.266V223.129H135.466V225.929ZM132.666 223.129H135.466V220.329H132.666V223.129ZM129.846 223.129H132.666V220.329H129.846V223.129ZM127.046 223.129H129.846V220.329H127.046V223.129ZM135.466 231.549H138.266V228.749H135.466V231.549ZM135.466 234.349H138.266V231.549H135.466V234.349ZM140.965 223.129H143.765V220.329H140.965V223.129ZM143.765 223.129H146.565V220.329H143.765V223.129ZM146.565 223.129H149.385V220.329H146.565V223.129ZM149.385 223.129H152.185V220.329H149.385V223.129ZM140.965 225.929H143.765V223.129H140.965V225.929ZM140.965 228.749H143.765V225.929H140.965V228.749ZM146.565 228.749H143.765V225.929H146.565V228.749ZM149.385 228.749H146.565V225.929H149.385V228.749ZM152.185 228.749H149.385V225.929H152.185V228.749ZM140.965 231.549H143.765V228.749H140.965V231.549ZM140.965 234.349H143.765V231.549H140.965V234.349ZM152.185 223.129H154.985V220.329H152.185V223.129ZM152.185 225.929H154.985V223.129H152.185V225.929ZM152.185 228.749H154.985V225.929H152.185V228.749ZM152.185 231.549H154.985V228.749H152.185V231.549ZM152.185 234.349H154.985V231.549H152.185V234.349ZM157.605 223.129H160.405V220.329H157.605V223.129ZM157.605 225.929H160.405V223.129H157.605V225.929ZM157.605 228.749H160.405V225.929H157.605V228.749ZM163.205 228.749H160.405V225.929H163.205V228.749ZM166.025 228.749H163.205V225.929H166.025V228.749ZM168.825 228.749H166.025V225.929H168.825V228.749ZM160.405 234.349H163.205V231.549H160.405V234.349ZM163.205 234.349H166.025V231.549H163.205V234.349ZM166.025 234.349H168.825V231.549H166.025V234.349ZM157.605 231.549H160.405V228.749H157.605V231.549ZM157.605 234.349H160.405V231.549H157.605V234.349ZM168.825 223.129H171.625V220.329H168.825V223.129ZM166.025 223.129H168.825V220.329H166.025V223.129ZM163.205 223.129H166.025V220.329H163.205V223.129ZM160.405 223.129H163.205V220.329H160.405V223.129ZM168.825 228.749H171.625V225.929H168.825V228.749ZM168.825 234.349H171.625V231.549H168.825V234.349ZM174.187 220.249V223.069H179.827V234.349H182.647V223.069H188.287V220.249H174.187Z" fill="url(#paint0_radial_54_2)"/>
<ellipse cx="1075.98" cy="212.904" rx="6.36094" ry="6.42169" fill="white"/>
<path d="M763.312 134.362L839.643 213.398H1071.57" stroke="white" stroke-width="2"/>
<path d="M875.589 184.683V187.503H881.229V198.783H884.049V187.503H889.689V184.683H875.589ZM892.23 184.763V198.783H895.03V193.183H903.45V190.363H895.03V187.563H903.45V184.763H892.23ZM903.45 190.363H906.25V187.563H903.45V190.363ZM908.871 187.563H911.671V184.763H908.871V187.563ZM908.871 190.363H911.671V187.563H908.871V190.363ZM908.871 193.183H911.671V190.363H908.871V193.183ZM914.471 193.183H911.671V190.363H914.471V193.183ZM917.291 193.183H914.471V190.363H917.291V193.183ZM920.091 193.183H917.291V190.363H920.091V193.183ZM911.671 198.783H914.471V195.983H911.671V198.783ZM914.471 198.783H917.291V195.983H914.471V198.783ZM917.291 198.783H920.091V195.983H917.291V198.783ZM908.871 195.983H911.671V193.183H908.871V195.983ZM908.871 198.783H911.671V195.983H908.871V198.783ZM920.091 187.563H922.891V184.763H920.091V187.563ZM917.291 187.563H920.091V184.763H917.291V187.563ZM914.471 187.563H917.291V184.763H914.471V187.563ZM911.671 187.563H914.471V184.763H911.671V187.563ZM920.091 193.183H922.891V190.363H920.091V193.183ZM920.091 198.783H922.891V195.983H920.091V198.783ZM925.453 187.563H928.253V184.763H925.453V187.563ZM925.453 190.363H928.253V187.563H925.453V190.363ZM925.453 193.183H928.253V190.363H925.453V193.183ZM931.053 193.183H928.253V190.363H931.053V193.183ZM933.873 193.183H931.053V190.363H933.873V193.183ZM936.673 193.183H933.873V190.363H936.673V193.183ZM928.253 198.783H931.053V195.983H928.253V198.783ZM931.053 198.783H933.873V195.983H931.053V198.783ZM933.873 198.783H936.673V195.983H933.873V198.783ZM925.453 195.983H928.253V193.183H925.453V195.983ZM925.453 198.783H928.253V195.983H925.453V198.783ZM936.673 187.563H939.473V184.763H936.673V187.563ZM936.673 190.363H939.473V187.563H936.673V190.363ZM933.873 187.563H936.673V184.763H933.873V187.563ZM931.053 187.563H933.873V184.763H931.053V187.563ZM928.253 187.563H931.053V184.763H928.253V187.563ZM936.673 195.983H939.473V193.183H936.673V195.983ZM936.673 198.783H939.473V195.983H936.673V198.783ZM942.171 187.563V195.983H944.971V187.563H942.171ZM944.971 184.763V187.563H953.391V184.763H944.971ZM953.391 187.563V195.983H944.971V198.783H953.391V195.983H956.191V187.563H953.391ZM958.812 184.683V190.323H961.632V184.683H958.812ZM964.452 190.323H961.632V193.143H964.452V190.323ZM964.452 190.323V198.783H967.272V193.143H970.092V190.323H964.452ZM964.452 184.683V190.323H967.272V184.683H964.452ZM958.812 193.143V198.783H961.632V193.143H958.812ZM970.092 184.683V190.323H972.912V184.683H970.092ZM970.092 193.143V198.783H972.912V193.143H970.092ZM986.673 184.763V190.363H978.253V184.763H975.453V198.783H978.253V193.183H986.673V198.783H989.473V184.763H986.673ZM992.249 187.563V195.983H995.049V187.563H992.249ZM995.049 184.763V187.563H1003.47V184.763H995.049ZM1003.47 187.563V195.983H995.049V198.783H1003.47V195.983H1006.27V187.563H1003.47ZM1011.69 187.563H1014.49V184.763H1011.69V187.563ZM1014.49 187.563H1017.31V184.763H1014.49V187.563ZM1017.31 187.563H1020.11V184.763H1017.31V187.563ZM1020.11 187.563H1022.91V184.763H1020.11V187.563ZM1008.89 190.363H1011.69V187.563H1008.89V190.363ZM1008.89 193.183H1011.69V190.363H1008.89V193.183ZM1008.89 195.983H1011.69V193.183H1008.89V195.983ZM1011.69 198.783H1014.49V195.983H1011.69V198.783ZM1014.49 198.783H1017.31V195.983H1014.49V198.783ZM1017.31 198.783H1020.11V195.983H1017.31V198.783ZM1020.11 198.783H1022.91V195.983H1020.11V198.783ZM1025.57 184.683V187.503H1031.21V198.783H1034.03V187.503H1039.67V184.683H1025.57ZM1042.21 184.683V198.783H1047.85V195.963H1045.03V193.143H1053.49V195.963H1047.85V198.783H1056.31V190.323H1045.03V184.683H1042.21Z" fill="url(#paint1_radial_54_2)"/>
<ellipse cx="127.708" cy="94.3494" rx="6.36094" ry="6.42169" fill="white"/>
<path d="M502.025 173.879L426.672 94.8433H128.197" stroke="white" stroke-width="2"/>
<path d="M151.969 66.209V71.809H143.549V66.209H140.749V80.229H143.549V74.629H151.969V80.229H154.769V66.209H151.969ZM157.546 69.009H160.346V66.209H157.546V69.009ZM157.546 71.809H160.346V69.009H157.546V71.809ZM157.546 74.629H160.346V71.809H157.546V74.629ZM163.146 74.629H160.346V71.809H163.146V74.629ZM165.966 74.629H163.146V71.809H165.966V74.629ZM168.766 74.629H165.966V71.809H168.766V74.629ZM160.346 80.229H163.146V77.429H160.346V80.229ZM163.146 80.229H165.966V77.429H163.146V80.229ZM165.966 80.229H168.766V77.429H165.966V80.229ZM157.546 77.429H160.346V74.629H157.546V77.429ZM157.546 80.229H160.346V77.429H157.546V80.229ZM168.766 69.009H171.566V66.209H168.766V69.009ZM165.966 69.009H168.766V66.209H165.966V69.009ZM163.146 69.009H165.966V66.209H163.146V69.009ZM160.346 69.009H163.146V66.209H160.346V69.009ZM168.766 74.629H171.566V71.809H168.766V74.629ZM168.766 80.229H171.566V77.429H168.766V80.229ZM174.128 66.129V68.949H176.948V71.769H179.768V74.589H176.948V77.409H174.128V80.229H176.948V77.409H179.768V74.589H182.588V77.409H185.408V80.229H188.228V77.409H185.408V74.589H182.588V71.769H179.768V68.949H176.948V66.129H174.128ZM185.408 68.949H182.588V71.769H185.408V68.949ZM185.408 68.949H188.228V66.129H185.408V68.949ZM190.769 69.009H193.569V66.209H190.769V69.009ZM190.769 71.809H193.569V69.009H190.769V71.809ZM190.769 74.629H193.569V71.809H190.769V74.629ZM196.369 74.629H193.569V71.809H196.369V74.629ZM199.189 74.629H196.369V71.809H199.189V74.629ZM201.989 74.629H199.189V71.809H201.989V74.629ZM193.569 80.229H196.369V77.429H193.569V80.229ZM196.369 80.229H199.189V77.429H196.369V80.229ZM199.189 80.229H201.989V77.429H199.189V80.229ZM190.769 77.429H193.569V74.629H190.769V77.429ZM190.769 80.229H193.569V77.429H190.769V80.229ZM201.989 69.009H204.789V66.209H201.989V69.009ZM201.989 71.809H204.789V69.009H201.989V71.809ZM199.189 69.009H201.989V66.209H199.189V69.009ZM196.369 69.009H199.189V66.209H196.369V69.009ZM193.569 69.009H196.369V66.209H193.569V69.009ZM201.989 77.429H204.789V74.629H201.989V77.429ZM201.989 80.229H204.789V77.429H201.989V80.229ZM207.488 69.009H210.288V66.209H207.488V69.009ZM210.288 69.009H213.088V66.209H210.288V69.009ZM213.088 69.009H215.908V66.209H213.088V69.009ZM215.908 69.009H218.708V66.209H215.908V69.009ZM207.488 71.809H210.288V69.009H207.488V71.809ZM207.488 74.629H210.288V71.809H207.488V74.629ZM213.088 74.629H210.288V71.809H213.088V74.629ZM215.908 74.629H213.088V71.809H215.908V74.629ZM218.708 74.629H215.908V71.809H218.708V74.629ZM207.488 77.429H210.288V74.629H207.488V77.429ZM207.488 80.229H210.288V77.429H207.488V80.229ZM218.708 69.009H221.508V66.209H218.708V69.009ZM218.708 71.809H221.508V69.009H218.708V71.809ZM218.708 74.629H221.508V71.809H218.708V74.629ZM218.708 77.429H221.508V74.629H218.708V77.429ZM218.708 80.229H221.508V77.429H218.708V80.229ZM224.128 66.129V68.949H229.768V80.229H232.588V68.949H238.228V66.129H224.128ZM251.989 69.009H249.189V71.809H251.989V69.009ZM240.769 66.209V80.229H243.569V74.629H249.189V71.809H243.569V66.209H240.769ZM249.189 77.429H251.989V74.629H249.189V77.429ZM251.989 69.009H254.789V66.209H251.989V69.009ZM251.989 80.229H254.789V77.429H251.989V80.229ZM257.488 69.009H260.288V66.209H257.488V69.009ZM260.288 69.009H263.088V66.209H260.288V69.009ZM263.088 69.009H265.908V66.209H263.088V69.009ZM265.908 69.009H268.708V66.209H265.908V69.009ZM257.488 71.809H260.288V69.009H257.488V71.809ZM257.488 74.629H260.288V71.809H257.488V74.629ZM263.088 74.629H260.288V71.809H263.088V74.629ZM265.908 74.629H263.088V71.809H265.908V74.629ZM268.708 74.629H265.908V71.809H268.708V74.629ZM257.488 77.429H260.288V74.629H257.488V77.429ZM257.488 80.229H260.288V77.429H257.488V80.229ZM268.708 69.009H271.508V66.209H268.708V69.009ZM268.708 71.809H271.508V69.009H268.708V71.809ZM268.708 74.629H271.508V71.809H268.708V74.629ZM268.708 77.429H271.508V74.629H268.708V77.429ZM268.708 80.229H271.508V77.429H268.708V80.229ZM279.695 69.009H282.495V66.209H279.695V69.009ZM279.695 71.809H282.495V69.009H279.695V71.809ZM279.695 74.629H282.495V71.809H279.695V74.629ZM285.295 74.629H282.495V71.809H285.295V74.629ZM288.115 74.629H285.295V71.809H288.115V74.629ZM290.915 74.629H288.115V71.809H290.915V74.629ZM282.495 80.229H285.295V77.429H282.495V80.229ZM285.295 80.229H288.115V77.429H285.295V80.229ZM288.115 80.229H290.915V77.429H288.115V80.229ZM279.695 77.429H282.495V74.629H279.695V77.429ZM279.695 80.229H282.495V77.429H279.695V80.229ZM290.915 69.009H293.715V66.209H290.915V69.009ZM290.915 71.809H293.715V69.009H290.915V71.809ZM288.115 69.009H290.915V66.209H288.115V69.009ZM285.295 69.009H288.115V66.209H285.295V69.009ZM282.495 69.009H285.295V66.209H282.495V69.009ZM290.915 77.429H293.715V74.629H290.915V77.429ZM290.915 80.229H293.715V77.429H290.915V80.229ZM296.413 66.209V80.229H299.213V74.629H307.633V71.809H299.213V69.009H307.633V66.209H296.413ZM307.633 71.809H310.433V69.009H307.633V71.809ZM313.054 69.009H315.854V66.209H313.054V69.009ZM313.054 71.809H315.854V69.009H313.054V71.809ZM313.054 74.629H315.854V71.809H313.054V74.629ZM318.654 74.629H315.854V71.809H318.654V74.629ZM321.474 74.629H318.654V71.809H321.474V74.629ZM324.274 74.629H321.474V71.809H324.274V74.629ZM315.854 80.229H318.654V77.429H315.854V80.229ZM318.654 80.229H321.474V77.429H318.654V80.229ZM321.474 80.229H324.274V77.429H321.474V80.229ZM313.054 77.429H315.854V74.629H313.054V77.429ZM313.054 80.229H315.854V77.429H313.054V80.229ZM324.274 69.009H327.074V66.209H324.274V69.009ZM321.474 69.009H324.274V66.209H321.474V69.009ZM318.654 69.009H321.474V66.209H318.654V69.009ZM315.854 69.009H318.654V66.209H315.854V69.009ZM324.274 74.629H327.074V71.809H324.274V74.629ZM324.274 80.229H327.074V77.429H324.274V80.229ZM335.236 71.809V80.229H338.056V71.809H335.236ZM329.636 66.209V80.229H332.436V71.809H335.236V69.009H332.436V66.209H329.636ZM340.856 66.209V69.009H338.056V71.809H340.856V80.229H343.656V66.209H340.856ZM346.316 69.009H349.116V66.209H346.316V69.009ZM346.316 71.809H349.116V69.009H346.316V71.809ZM346.316 74.629H349.116V71.809H346.316V74.629ZM351.916 74.629H349.116V71.809H351.916V74.629ZM354.736 74.629H351.916V71.809H354.736V74.629ZM357.536 74.629H354.736V71.809H357.536V74.629ZM349.116 80.229H351.916V77.429H349.116V80.229ZM351.916 80.229H354.736V77.429H351.916V80.229ZM354.736 80.229H357.536V77.429H354.736V80.229ZM346.316 77.429H349.116V74.629H346.316V77.429ZM346.316 80.229H349.116V77.429H346.316V80.229ZM357.536 69.009H360.336V66.209H357.536V69.009ZM354.736 69.009H357.536V66.209H354.736V69.009ZM351.916 69.009H354.736V66.209H351.916V69.009ZM349.116 69.009H351.916V66.209H349.116V69.009ZM357.536 74.629H360.336V71.809H357.536V74.629ZM357.536 80.229H360.336V77.429H357.536V80.229ZM374.118 66.209V71.809H365.698V66.209H362.898V80.229H365.698V74.629H374.118V80.229H376.918V66.209H374.118ZM390.975 66.129V68.949H388.155V71.769H385.335V74.589H382.515V66.129H379.695V80.229H382.515V77.409H385.335V74.589H388.155V71.769H390.975V80.229H393.795V66.129H390.975Z" fill="url(#paint2_radial_54_2)"/>
<path d="M575.42 102.747H645.88L708.51 31.6145H996.22" stroke="white" stroke-width="2"/>
<ellipse cx="995.731" cy="31.1204" rx="6.36094" ry="6.42169" fill="white"/>
<path d="M726.573 2.9V5.72H732.213V17H735.033V5.72H740.673V2.9H726.573ZM743.214 5.78V14.2H746.014V5.78H743.214ZM746.014 2.98V5.78H754.434V2.98H746.014ZM754.434 5.78V14.2H746.014V17H754.434V14.2H757.234V5.78H754.434ZM762.674 2.9V5.72H768.314V2.9H762.674ZM759.854 2.9V17H762.674V2.9H759.854ZM768.314 2.9V5.72H771.134V17H773.954V2.9H768.314ZM787.775 2.9V8.54H779.315V2.9H776.495V11.36H787.775V17H790.595V2.9H787.775ZM793.135 5.78H795.935V2.98H793.135V5.78ZM793.135 8.58H795.935V5.78H793.135V8.58ZM793.135 11.4H795.935V8.58H793.135V11.4ZM798.735 11.4H795.935V8.58H798.735V11.4ZM801.555 11.4H798.735V8.58H801.555V11.4ZM804.355 11.4H801.555V8.58H804.355V11.4ZM795.935 17H798.735V14.2H795.935V17ZM798.735 17H801.555V14.2H798.735V17ZM801.555 17H804.355V14.2H801.555V17ZM793.135 14.2H795.935V11.4H793.135V14.2ZM793.135 17H795.935V14.2H793.135V17ZM804.355 5.78H807.155V2.98H804.355V5.78ZM801.555 5.78H804.355V2.98H801.555V5.78ZM798.735 5.78H801.555V2.98H798.735V5.78ZM795.935 5.78H798.735V2.98H795.935V5.78ZM804.355 11.4H807.155V8.58H804.355V11.4ZM804.355 17H807.155V14.2H804.355V17ZM809.718 2.9V5.72H815.358V17H818.178V5.72H823.818V2.9H809.718ZM829.158 5.78H831.958V2.98H829.158V5.78ZM831.958 5.78H834.778V2.98H831.958V5.78ZM834.778 5.78H837.578V2.98H834.778V5.78ZM837.578 5.78H840.378V2.98H837.578V5.78ZM826.358 8.58H829.158V5.78H826.358V8.58ZM826.358 11.4H829.158V8.58H826.358V11.4ZM826.358 14.2H829.158V11.4H826.358V14.2ZM829.158 17H831.958V14.2H829.158V17ZM831.958 17H834.778V14.2H831.958V17ZM834.778 17H837.578V14.2H834.778V17ZM837.578 17H840.378V14.2H837.578V17ZM843.038 2.9V11.36H845.858V2.9H843.038ZM845.858 2.9V5.72H854.318V2.9H845.858ZM854.318 2.9V17H857.138V2.9H854.318ZM845.858 8.54V14.18H843.038V17H845.858V14.18H848.678V11.36H854.318V8.54H845.858ZM876.465 2.98V8.58H868.045V2.98H865.245V17H868.045V11.4H876.465V17H879.265V2.98H876.465ZM882.042 5.78H884.842V2.98H882.042V5.78ZM884.842 5.78H887.642V2.98H884.842V5.78ZM887.642 5.78H890.462V2.98H887.642V5.78ZM890.462 5.78H893.262V2.98H890.462V5.78ZM882.042 8.58H884.842V5.78H882.042V8.58ZM882.042 11.4H884.842V8.58H882.042V11.4ZM887.642 11.4H884.842V8.58H887.642V11.4ZM890.462 11.4H887.642V8.58H890.462V11.4ZM893.262 11.4H890.462V8.58H893.262V11.4ZM882.042 14.2H884.842V11.4H882.042V14.2ZM882.042 17H884.842V14.2H882.042V17ZM893.262 5.78H896.062V2.98H893.262V5.78ZM893.262 8.58H896.062V5.78H893.262V8.58ZM893.262 11.4H896.062V8.58H893.262V11.4ZM893.262 14.2H896.062V11.4H893.262V14.2ZM893.262 17H896.062V14.2H893.262V17ZM909.849 8.58V17H912.669V8.58H909.849ZM904.249 2.98V17H907.049V8.58H909.849V5.78H907.049V2.98H904.249ZM915.469 2.98V5.78H912.669V8.58H915.469V17H918.269V2.98H915.469ZM920.928 5.78H923.728V2.98H920.928V5.78ZM920.928 8.58H923.728V5.78H920.928V8.58ZM920.928 11.4H923.728V8.58H920.928V11.4ZM926.528 11.4H923.728V8.58H926.528V11.4ZM929.348 11.4H926.528V8.58H929.348V11.4ZM932.148 11.4H929.348V8.58H932.148V11.4ZM923.728 17H926.528V14.2H923.728V17ZM926.528 17H929.348V14.2H926.528V17ZM929.348 17H932.148V14.2H929.348V17ZM920.928 14.2H923.728V11.4H920.928V14.2ZM920.928 17H923.728V14.2H920.928V17ZM932.148 5.78H934.948V2.98H932.148V5.78ZM929.348 5.78H932.148V2.98H929.348V5.78ZM926.528 5.78H929.348V2.98H926.528V5.78ZM923.728 5.78H926.528V2.98H923.728V5.78ZM932.148 11.4H934.948V8.58H932.148V11.4ZM932.148 17H934.948V14.2H932.148V17ZM940.31 5.78H943.11V2.98H940.31V5.78ZM943.11 5.78H945.93V2.98H943.11V5.78ZM945.93 5.78H948.73V2.98H945.93V5.78ZM948.73 5.78H951.53V2.98H948.73V5.78ZM937.51 8.58H940.31V5.78H937.51V8.58ZM937.51 11.4H940.31V8.58H937.51V11.4ZM937.51 14.2H940.31V11.4H937.51V14.2ZM940.31 17H943.11V14.2H940.31V17ZM943.11 17H945.93V14.2H943.11V17ZM945.93 17H948.73V14.2H945.93V17ZM948.73 17H951.53V14.2H948.73V17ZM954.19 2.9V5.72H959.83V17H962.65V5.72H968.29V2.9H954.19ZM970.831 5.78H973.631V2.98H970.831V5.78ZM970.831 8.58H973.631V5.78H970.831V8.58ZM970.831 11.4H973.631V8.58H970.831V11.4ZM976.431 11.4H973.631V8.58H976.431V11.4ZM979.251 11.4H976.431V8.58H979.251V11.4ZM982.051 11.4H979.251V8.58H982.051V11.4ZM973.631 17H976.431V14.2H973.631V17ZM976.431 17H979.251V14.2H976.431V17ZM979.251 17H982.051V14.2H979.251V17ZM970.831 14.2H973.631V11.4H970.831V14.2ZM970.831 17H973.631V14.2H970.831V17ZM982.051 5.78H984.851V2.98H982.051V5.78ZM979.251 5.78H982.051V2.98H979.251V5.78ZM976.431 5.78H979.251V2.98H976.431V5.78ZM973.631 5.78H976.431V2.98H973.631V5.78ZM982.051 11.4H984.851V8.58H982.051V11.4ZM982.051 17H984.851V14.2H982.051V17Z" fill="url(#paint3_radial_54_2)"/>
<defs>
<radialGradient id="paint0_radial_54_2" cx="0" cy="0" r="1" gradientUnits="userSpaceOnUse" gradientTransform="translate(106.179 217.229) rotate(90) scale(17.3272 123.718)">
<stop stop-color="#FCDAFF"/>
<stop offset="1" stop-color="#CF52FE"/>
</radialGradient>
<radialGradient id="paint1_radial_54_2" cx="0" cy="0" r="1" gradientUnits="userSpaceOnUse" gradientTransform="translate(968.819 181.663) rotate(90) scale(17.3272 131.585)">
<stop stop-color="#FCDAFF"/>
<stop offset="1" stop-color="#CF52FE"/>
</radialGradient>
<radialGradient id="paint2_radial_54_2" cx="0" cy="0" r="1" gradientUnits="userSpaceOnUse" gradientTransform="translate(271.074 63.1085) rotate(90) scale(17.3272 183.074)">
<stop stop-color="#FCDAFF"/>
<stop offset="1" stop-color="#CF52FE"/>
</radialGradient>
<radialGradient id="paint3_radial_54_2" cx="0" cy="0" r="1" gradientUnits="userSpaceOnUse" gradientTransform="translate(859.705 -0.120507) rotate(90) scale(17.3272 186.65)">
<stop stop-color="#FCDAFF"/>
<stop offset="1" stop-color="#CF52FE"/>
</radialGradient>
</defs>
</svg>
