<svg width="22" height="16" viewBox="0 0 22 16" fill="none" xmlns="http://www.w3.org/2000/svg">
<path d="M5.5 6.83741V7V8V9V9.16253L5.59557 9.29399C5.72547 9.4727 5.95203 9.69764 6.19093 9.9234C6.36887 10.0915 6.57507 10.2797 6.78882 10.4748C6.87259 10.5512 6.95752 10.6287 7.04236 10.7065C7.66375 11.276 8.27528 11.8566 8.59659 12.2954L8.61928 12.3264L8.64645 12.3536L8.79289 12.5H7C6.25343 12.5 5.64229 12.5361 5.1787 12.5635C5.07386 12.5697 4.97657 12.5754 4.88696 12.5802C4.63664 12.5936 4.46513 12.5982 4.34685 12.5905C4.32193 12.5889 4.30278 12.5868 4.28856 12.5849C4.21769 12.5753 4.26908 12.5687 4.33699 12.6306L4 13C3.27231 12.3355 -0.0170689 8.29686 0 8L5.5 6.83741ZM5.5 6.83741L5.59563 6.70591C5.72556 6.52727 5.95185 6.30274 6.19041 6.07745C6.36718 5.91052 6.57196 5.72375 6.78432 5.53007C6.86901 5.45281 6.95492 5.37446 7.04073 5.29583C7.64616 4.74108 8.24311 4.17482 8.57238 3.73721L9.19098 2.5H7.08114L4.27009 3.43702L2.37241 5.3347C1.83866 5.99721 1.35766 6.68185 1.00883 7.22153C0.832479 7.49436 0.692549 7.72606 0.59783 7.89601C0.579016 7.92976 0.562477 7.96021 0.548115 7.98735L5.5 6.83741ZM15.584 8.27735L15.3566 7.93629L15.6464 7.64645L16.6232 6.66974C16.6831 6.59167 16.7682 6.48212 16.8739 6.34615C17.4328 5.62687 18.5663 4.16813 19.5875 2.7174L21.0657 0.5H18H14.25L11.4 4.3L11.4001 4.3001L11.3921 4.31026C10.5978 5.31411 9.87629 6.267 9.34106 6.98992C9.07346 7.35138 8.85291 7.65466 8.69351 7.87746C8.645 7.94527 8.60238 8.0053 8.56597 8.05703C8.577 8.07393 8.58913 8.09218 8.60243 8.11183C8.73646 8.31001 8.94682 8.58953 9.22217 8.94287C9.46696 9.25699 9.75651 9.62107 10.0791 10.0268C10.1172 10.0747 10.1558 10.1231 10.1948 10.1722C10.5633 10.6357 10.9699 11.148 11.3944 11.6926L11.3944 11.6926L11.4 11.7L14.25 15.5H18H20.7929L20.6464 15.3536L20.6206 15.3277L20.5987 15.2983C20.4298 15.0711 20.1756 14.7387 19.8751 14.3456C19.202 13.4654 18.2962 12.2806 17.5923 11.2895L17.5881 11.2835L17.584 11.2774L15.584 8.27735Z" stroke="#11E5B3"/>
</svg>
