<svg width="22" height="16" viewBox="0 0 22 16" fill="none" xmlns="http://www.w3.org/2000/svg">
<path d="M16.5 6.83741V7V8V9V9.16253L16.4044 9.29399C16.2745 9.4727 16.048 9.69764 15.8091 9.9234C15.6311 10.0915 15.4249 10.2797 15.2112 10.4748C15.1274 10.5512 15.0425 10.6287 14.9576 10.7065C14.3363 11.276 13.7247 11.8566 13.4034 12.2954L13.3807 12.3264L13.3536 12.3536L13.2071 12.5H15C15.7466 12.5 16.3577 12.5361 16.8213 12.5635C16.9261 12.5697 17.0234 12.5754 17.113 12.5802C17.3634 12.5936 17.5349 12.5982 17.6531 12.5905C17.6781 12.5889 17.6972 12.5868 17.7114 12.5849C17.7823 12.5753 17.7309 12.5687 17.663 12.6306L18 13C18.7277 12.3355 22.0171 8.29686 22 8L16.5 6.83741ZM16.5 6.83741L16.4044 6.70591C16.2744 6.52727 16.0482 6.30274 15.8096 6.07745C15.6328 5.91052 15.428 5.72375 15.2157 5.53007C15.131 5.45281 15.0451 5.37446 14.9593 5.29583C14.3538 4.74108 13.7569 4.17482 13.4276 3.73721L12.809 2.5H14.9189L17.7299 3.43702L19.6276 5.3347C20.1613 5.99721 20.6423 6.68185 20.9912 7.22153C21.1675 7.49436 21.3075 7.72606 21.4022 7.89601C21.421 7.92976 21.4375 7.96021 21.4519 7.98735L16.5 6.83741ZM6.41603 8.27735L6.6434 7.93629L6.35355 7.64645L5.37685 6.66974C5.3169 6.59167 5.23177 6.48212 5.12611 6.34615C4.56719 5.62687 3.43366 4.16813 2.41252 2.7174L0.934259 0.5H4H7.75L10.6 4.3L10.5999 4.3001L10.6079 4.31026C11.4022 5.31411 12.1237 6.267 12.6589 6.98992C12.9265 7.35138 13.1471 7.65466 13.3065 7.87746C13.355 7.94527 13.3976 8.0053 13.434 8.05703C13.423 8.07393 13.4109 8.09218 13.3976 8.11183C13.2635 8.31001 13.0532 8.58953 12.7778 8.94287C12.533 9.25699 12.2435 9.62107 11.9209 10.0268C11.8828 10.0747 11.8442 10.1231 11.8052 10.1722C11.4367 10.6357 11.0301 11.148 10.6056 11.6926L10.6056 11.6926L10.6 11.7L7.75 15.5H4H1.20711L1.35355 15.3536L1.37943 15.3277L1.40126 15.2983C1.57022 15.0711 1.82435 14.7387 2.12493 14.3456C2.79796 13.4654 3.70382 12.2806 4.40766 11.2895L4.41193 11.2835L4.41603 11.2774L6.41603 8.27735Z" stroke="#11E5B3"/>
</svg>
