<svg width="34" height="42" viewBox="0 0 34 42" fill="none" xmlns="http://www.w3.org/2000/svg">
<path d="M0 5H2V3H0V5Z" fill="url(#paint0_linear_1_1376)"/>
<path d="M10 2H11V0H10V2Z" fill="url(#paint1_linear_1_1376)"/>
<path d="M5 5H7V3H5V5Z" fill="url(#paint2_linear_1_1376)"/>
<path d="M8 4H9V3H8V4Z" fill="url(#paint3_linear_1_1376)"/>
<path d="M17 2H19V0H17V2Z" fill="url(#paint4_linear_1_1376)"/>
<path d="M0 7H2V5H0V7Z" fill="url(#paint5_linear_1_1376)"/>
<path d="M3 7H4V5H3V7Z" fill="url(#paint6_linear_1_1376)"/>
<path d="M5 7H7V5H5V7Z" fill="url(#paint7_linear_1_1376)"/>
<path d="M15 4H16V2H15V4Z" fill="url(#paint8_linear_1_1376)"/>
<path d="M11 7H13V5H11V7Z" fill="url(#paint9_linear_1_1376)"/>
<path d="M0 9H2V7H0V9Z" fill="url(#paint10_linear_1_1376)"/>
<path d="M3 9H4V7H3V9Z" fill="url(#paint11_linear_1_1376)"/>
<path d="M5 9H7V7H5V9Z" fill="url(#paint12_linear_1_1376)"/>
<path d="M8 10H9V8H8V10Z" fill="url(#paint13_linear_1_1376)"/>
<path d="M10 9H12V7H10V9Z" fill="url(#paint14_linear_1_1376)"/>
<path d="M0 11H2V10H0V11Z" fill="url(#paint15_linear_1_1376)"/>
<path d="M3 11H4V10H3V11Z" fill="url(#paint16_linear_1_1376)"/>
<path d="M5 11H7V10H5V11Z" fill="url(#paint17_linear_1_1376)"/>
<path d="M15 8H17V7H15V8Z" fill="url(#paint18_linear_1_1376)"/>
<path d="M11 11H13V10H11V11Z" fill="url(#paint19_linear_1_1376)"/>
<path d="M0 13H2V12H0V13Z" fill="url(#paint20_linear_1_1376)"/>
<path d="M3 13H4V12H3V13Z" fill="url(#paint21_linear_1_1376)"/>
<path d="M5 13H7V12H5V13Z" fill="url(#paint22_linear_1_1376)"/>
<path d="M8 13H9V11H8V13Z" fill="url(#paint23_linear_1_1376)"/>
<path d="M17 10H19V9H17V10Z" fill="url(#paint24_linear_1_1376)"/>
<path d="M0 16H2V14H0V16Z" fill="url(#paint25_linear_1_1376)"/>
<path d="M3 16H4V14H3V16Z" fill="url(#paint26_linear_1_1376)"/>
<path d="M5 16H7V14H5V16Z" fill="url(#paint27_linear_1_1376)"/>
<path d="M15 13H16V11H15V13Z" fill="url(#paint28_linear_1_1376)"/>
<path d="M10 16H12V14H10V16Z" fill="url(#paint29_linear_1_1376)"/>
<path d="M0 18H2V16H0V18Z" fill="url(#paint30_linear_1_1376)"/>
<path d="M3 18H4V16H3V18Z" fill="url(#paint31_linear_1_1376)"/>
<path d="M5 18H7V16H5V18Z" fill="url(#paint32_linear_1_1376)"/>
<path d="M8 17H9V16H8V17Z" fill="url(#paint33_linear_1_1376)"/>
<path d="M11 18H13V16H11V18Z" fill="url(#paint34_linear_1_1376)"/>
<path d="M0 20H2V18H0V20Z" fill="url(#paint35_linear_1_1376)"/>
<path d="M3 20H4V18H3V20Z" fill="url(#paint36_linear_1_1376)"/>
<path d="M5 20H7V18H5V20Z" fill="url(#paint37_linear_1_1376)"/>
<path d="M8 20H9V18H8V20Z" fill="url(#paint38_linear_1_1376)"/>
<path d="M17 17H19V15H17V17Z" fill="url(#paint39_linear_1_1376)"/>
<path d="M0 22H2V21H0V22Z" fill="url(#paint40_linear_1_1376)"/>
<path d="M3 22H4V21H3V22Z" fill="url(#paint41_linear_1_1376)"/>
<path d="M5 22H7V21H5V22Z" fill="url(#paint42_linear_1_1376)"/>
<path d="M8 22H9V21H8V22Z" fill="url(#paint43_linear_1_1376)"/>
<path d="M10 22H12V20H10V22Z" fill="url(#paint44_linear_1_1376)"/>
<path d="M0 24H2V23H0V24Z" fill="url(#paint45_linear_1_1376)"/>
<path d="M3 24H4V23H3V24Z" fill="url(#paint46_linear_1_1376)"/>
<path d="M5 24H7V23H5V24Z" fill="url(#paint47_linear_1_1376)"/>
<path d="M15 21H16V20H15V21Z" fill="url(#paint48_linear_1_1376)"/>
<path d="M11 24H13V23H11V24Z" fill="url(#paint49_linear_1_1376)"/>
<path d="M0 27H2V25H0V27Z" fill="url(#paint50_linear_1_1376)"/>
<path d="M3 27H4V25H3V27Z" fill="url(#paint51_linear_1_1376)"/>
<path d="M5 27H7V25H5V27Z" fill="url(#paint52_linear_1_1376)"/>
<path d="M8 27H9V25H8V27Z" fill="url(#paint53_linear_1_1376)"/>
<path d="M10 27H12V25H10V27Z" fill="url(#paint54_linear_1_1376)"/>
<path d="M0 29H2V27H0V29Z" fill="url(#paint55_linear_1_1376)"/>
<path d="M3 29H4V27H3V29Z" fill="url(#paint56_linear_1_1376)"/>
<path d="M5 29H7V27H5V29Z" fill="url(#paint57_linear_1_1376)"/>
<path d="M8 29H9V27H8V29Z" fill="url(#paint58_linear_1_1376)"/>
<path d="M17 26H19V24H17V26Z" fill="url(#paint59_linear_1_1376)"/>
<path d="M0 31H2V29H0V31Z" fill="url(#paint60_linear_1_1376)"/>
<path d="M3 31H4V29H3V31Z" fill="url(#paint61_linear_1_1376)"/>
<path d="M5 31H7V29H5V31Z" fill="url(#paint62_linear_1_1376)"/>
<path d="M8 31H9V29H8V31Z" fill="url(#paint63_linear_1_1376)"/>
<path d="M10 31H12V29H10V31Z" fill="url(#paint64_linear_1_1376)"/>
<path d="M0 33H2V32H0V33Z" fill="url(#paint65_linear_1_1376)"/>
<path d="M3 33H4V32H3V33Z" fill="url(#paint66_linear_1_1376)"/>
<path d="M5 33H7V32H5V33Z" fill="url(#paint67_linear_1_1376)"/>
<path d="M8 33H9V32H8V33Z" fill="url(#paint68_linear_1_1376)"/>
<path d="M10 33H12V32H10V33Z" fill="url(#paint69_linear_1_1376)"/>
<path d="M0 35H2V34H0V35Z" fill="url(#paint70_linear_1_1376)"/>
<path d="M3 35H4V34H3V35Z" fill="url(#paint71_linear_1_1376)"/>
<path d="M5 35H7V34H5V35Z" fill="url(#paint72_linear_1_1376)"/>
<path d="M8 35H9V34H8V35Z" fill="url(#paint73_linear_1_1376)"/>
<path d="M10 35H12V34H10V35Z" fill="url(#paint74_linear_1_1376)"/>
<path d="M13 35H14V34H13V35Z" fill="url(#paint75_linear_1_1376)"/>
<path d="M15 35H17V34H15V35Z" fill="url(#paint76_linear_1_1376)"/>
<path d="M18 35H19V34H18V35Z" fill="url(#paint77_linear_1_1376)"/>
<path d="M21 35H23V34H21V35Z" fill="url(#paint78_linear_1_1376)"/>
<path d="M28 34H30V32H28V34Z" fill="url(#paint79_linear_1_1376)"/>
<path d="M25 35H27V34H25V35Z" fill="url(#paint80_linear_1_1376)"/>
<path d="M32 33H34V31H32V33Z" fill="url(#paint81_linear_1_1376)"/>
<path d="M0 38H2V36H0V38Z" fill="url(#paint82_linear_1_1376)"/>
<path d="M3 38H4V36H3V38Z" fill="url(#paint83_linear_1_1376)"/>
<path d="M5 38H7V36H5V38Z" fill="url(#paint84_linear_1_1376)"/>
<path d="M8 38H9V36H8V38Z" fill="url(#paint85_linear_1_1376)"/>
<path d="M10 38H12V36H10V38Z" fill="url(#paint86_linear_1_1376)"/>
<path d="M13 38H14V36H13V38Z" fill="url(#paint87_linear_1_1376)"/>
<path d="M15 38H17V36H15V38Z" fill="url(#paint88_linear_1_1376)"/>
<path d="M18 38H19V36H18V38Z" fill="url(#paint89_linear_1_1376)"/>
<path d="M20 38H22V36H20V38Z" fill="url(#paint90_linear_1_1376)"/>
<path d="M24 38H26V36H24V38Z" fill="url(#paint91_linear_1_1376)"/>
<path d="M31 36H33V34H31V36Z" fill="url(#paint92_linear_1_1376)"/>
<path d="M28 38H30V36H28V38Z" fill="url(#paint93_linear_1_1376)"/>
<path d="M0 40H2V38H0V40Z" fill="url(#paint94_linear_1_1376)"/>
<path d="M3 40H4V38H3V40Z" fill="url(#paint95_linear_1_1376)"/>
<path d="M5 40H7V38H5V40Z" fill="url(#paint96_linear_1_1376)"/>
<path d="M8 40H9V38H8V40Z" fill="url(#paint97_linear_1_1376)"/>
<path d="M10 40H12V38H10V40Z" fill="url(#paint98_linear_1_1376)"/>
<path d="M13 40H14V38H13V40Z" fill="url(#paint99_linear_1_1376)"/>
<path d="M15 40H17V38H15V40Z" fill="url(#paint100_linear_1_1376)"/>
<path d="M18 40H19V38H18V40Z" fill="url(#paint101_linear_1_1376)"/>
<path d="M20 40H22V38H20V40Z" fill="url(#paint102_linear_1_1376)"/>
<path d="M23 40H25V38H23V40Z" fill="url(#paint103_linear_1_1376)"/>
<path d="M26 40H27V38H26V40Z" fill="url(#paint104_linear_1_1376)"/>
<path d="M30 42H32V40H30V42Z" fill="url(#paint105_linear_1_1376)"/>
<path d="M0 42H2V40H0V42Z" fill="url(#paint106_linear_1_1376)"/>
<path d="M3 42H4V40H3V42Z" fill="url(#paint107_linear_1_1376)"/>
<path d="M5 42H7V40H5V42Z" fill="url(#paint108_linear_1_1376)"/>
<path d="M8 42H9V40H8V42Z" fill="url(#paint109_linear_1_1376)"/>
<path d="M10 42H12V40H10V42Z" fill="url(#paint110_linear_1_1376)"/>
<path d="M13 42H14V40H13V42Z" fill="url(#paint111_linear_1_1376)"/>
<path d="M15 42H17V40H15V42Z" fill="url(#paint112_linear_1_1376)"/>
<path d="M18 42H19V40H18V42Z" fill="url(#paint113_linear_1_1376)"/>
<path d="M20 42H22V40H20V42Z" fill="url(#paint114_linear_1_1376)"/>
<path d="M32 38H34V36H32V38Z" fill="url(#paint115_linear_1_1376)"/>
<path d="M24 42H25V40H24V42Z" fill="url(#paint116_linear_1_1376)"/>
<path d="M28 40H30V38H28V40Z" fill="url(#paint117_linear_1_1376)"/>
<defs>
<linearGradient id="paint0_linear_1_1376" x1="23.3763" y1="42.0322" x2="6.94494" y2="-1.72211" gradientUnits="userSpaceOnUse">
<stop stop-color="#11E5B3"/>
<stop offset="1" stop-color="#59FBD5"/>
</linearGradient>
<linearGradient id="paint1_linear_1_1376" x1="23.3763" y1="42.0322" x2="6.94494" y2="-1.72211" gradientUnits="userSpaceOnUse">
<stop stop-color="#11E5B3"/>
<stop offset="1" stop-color="#59FBD5"/>
</linearGradient>
<linearGradient id="paint2_linear_1_1376" x1="23.3763" y1="42.0322" x2="6.94494" y2="-1.72211" gradientUnits="userSpaceOnUse">
<stop stop-color="#11E5B3"/>
<stop offset="1" stop-color="#59FBD5"/>
</linearGradient>
<linearGradient id="paint3_linear_1_1376" x1="23.3763" y1="42.0322" x2="6.94494" y2="-1.72211" gradientUnits="userSpaceOnUse">
<stop stop-color="#11E5B3"/>
<stop offset="1" stop-color="#59FBD5"/>
</linearGradient>
<linearGradient id="paint4_linear_1_1376" x1="23.3763" y1="42.0322" x2="6.94494" y2="-1.72211" gradientUnits="userSpaceOnUse">
<stop stop-color="#11E5B3"/>
<stop offset="1" stop-color="#59FBD5"/>
</linearGradient>
<linearGradient id="paint5_linear_1_1376" x1="23.3763" y1="42.0322" x2="6.94494" y2="-1.72211" gradientUnits="userSpaceOnUse">
<stop stop-color="#11E5B3"/>
<stop offset="1" stop-color="#59FBD5"/>
</linearGradient>
<linearGradient id="paint6_linear_1_1376" x1="23.3763" y1="42.0322" x2="6.94494" y2="-1.72211" gradientUnits="userSpaceOnUse">
<stop stop-color="#11E5B3"/>
<stop offset="1" stop-color="#59FBD5"/>
</linearGradient>
<linearGradient id="paint7_linear_1_1376" x1="23.3763" y1="42.0322" x2="6.94494" y2="-1.72211" gradientUnits="userSpaceOnUse">
<stop stop-color="#11E5B3"/>
<stop offset="1" stop-color="#59FBD5"/>
</linearGradient>
<linearGradient id="paint8_linear_1_1376" x1="23.3763" y1="42.0322" x2="6.94494" y2="-1.72211" gradientUnits="userSpaceOnUse">
<stop stop-color="#11E5B3"/>
<stop offset="1" stop-color="#59FBD5"/>
</linearGradient>
<linearGradient id="paint9_linear_1_1376" x1="23.3763" y1="42.0322" x2="6.94494" y2="-1.72211" gradientUnits="userSpaceOnUse">
<stop stop-color="#11E5B3"/>
<stop offset="1" stop-color="#59FBD5"/>
</linearGradient>
<linearGradient id="paint10_linear_1_1376" x1="23.3763" y1="42.0322" x2="6.94494" y2="-1.72211" gradientUnits="userSpaceOnUse">
<stop stop-color="#11E5B3"/>
<stop offset="1" stop-color="#59FBD5"/>
</linearGradient>
<linearGradient id="paint11_linear_1_1376" x1="23.3763" y1="42.0322" x2="6.94494" y2="-1.72211" gradientUnits="userSpaceOnUse">
<stop stop-color="#11E5B3"/>
<stop offset="1" stop-color="#59FBD5"/>
</linearGradient>
<linearGradient id="paint12_linear_1_1376" x1="23.3763" y1="42.0322" x2="6.94494" y2="-1.72211" gradientUnits="userSpaceOnUse">
<stop stop-color="#11E5B3"/>
<stop offset="1" stop-color="#59FBD5"/>
</linearGradient>
<linearGradient id="paint13_linear_1_1376" x1="23.3763" y1="42.0322" x2="6.94494" y2="-1.72211" gradientUnits="userSpaceOnUse">
<stop stop-color="#11E5B3"/>
<stop offset="1" stop-color="#59FBD5"/>
</linearGradient>
<linearGradient id="paint14_linear_1_1376" x1="23.3763" y1="42.0322" x2="6.94494" y2="-1.72211" gradientUnits="userSpaceOnUse">
<stop stop-color="#11E5B3"/>
<stop offset="1" stop-color="#59FBD5"/>
</linearGradient>
<linearGradient id="paint15_linear_1_1376" x1="23.3763" y1="42.0322" x2="6.94494" y2="-1.72211" gradientUnits="userSpaceOnUse">
<stop stop-color="#11E5B3"/>
<stop offset="1" stop-color="#59FBD5"/>
</linearGradient>
<linearGradient id="paint16_linear_1_1376" x1="23.3763" y1="42.0322" x2="6.94494" y2="-1.72211" gradientUnits="userSpaceOnUse">
<stop stop-color="#11E5B3"/>
<stop offset="1" stop-color="#59FBD5"/>
</linearGradient>
<linearGradient id="paint17_linear_1_1376" x1="23.3763" y1="42.0322" x2="6.94494" y2="-1.72211" gradientUnits="userSpaceOnUse">
<stop stop-color="#11E5B3"/>
<stop offset="1" stop-color="#59FBD5"/>
</linearGradient>
<linearGradient id="paint18_linear_1_1376" x1="23.3763" y1="42.0322" x2="6.94494" y2="-1.72211" gradientUnits="userSpaceOnUse">
<stop stop-color="#11E5B3"/>
<stop offset="1" stop-color="#59FBD5"/>
</linearGradient>
<linearGradient id="paint19_linear_1_1376" x1="23.3763" y1="42.0322" x2="6.94494" y2="-1.72211" gradientUnits="userSpaceOnUse">
<stop stop-color="#11E5B3"/>
<stop offset="1" stop-color="#59FBD5"/>
</linearGradient>
<linearGradient id="paint20_linear_1_1376" x1="23.3763" y1="42.0322" x2="6.94494" y2="-1.72211" gradientUnits="userSpaceOnUse">
<stop stop-color="#11E5B3"/>
<stop offset="1" stop-color="#59FBD5"/>
</linearGradient>
<linearGradient id="paint21_linear_1_1376" x1="23.3763" y1="42.0322" x2="6.94494" y2="-1.72211" gradientUnits="userSpaceOnUse">
<stop stop-color="#11E5B3"/>
<stop offset="1" stop-color="#59FBD5"/>
</linearGradient>
<linearGradient id="paint22_linear_1_1376" x1="23.3763" y1="42.0322" x2="6.94494" y2="-1.72211" gradientUnits="userSpaceOnUse">
<stop stop-color="#11E5B3"/>
<stop offset="1" stop-color="#59FBD5"/>
</linearGradient>
<linearGradient id="paint23_linear_1_1376" x1="23.3763" y1="42.0322" x2="6.94494" y2="-1.72211" gradientUnits="userSpaceOnUse">
<stop stop-color="#11E5B3"/>
<stop offset="1" stop-color="#59FBD5"/>
</linearGradient>
<linearGradient id="paint24_linear_1_1376" x1="23.3763" y1="42.0322" x2="6.94494" y2="-1.72211" gradientUnits="userSpaceOnUse">
<stop stop-color="#11E5B3"/>
<stop offset="1" stop-color="#59FBD5"/>
</linearGradient>
<linearGradient id="paint25_linear_1_1376" x1="23.3763" y1="42.0322" x2="6.94494" y2="-1.72211" gradientUnits="userSpaceOnUse">
<stop stop-color="#11E5B3"/>
<stop offset="1" stop-color="#59FBD5"/>
</linearGradient>
<linearGradient id="paint26_linear_1_1376" x1="23.3763" y1="42.0322" x2="6.94494" y2="-1.72211" gradientUnits="userSpaceOnUse">
<stop stop-color="#11E5B3"/>
<stop offset="1" stop-color="#59FBD5"/>
</linearGradient>
<linearGradient id="paint27_linear_1_1376" x1="23.3763" y1="42.0322" x2="6.94494" y2="-1.72211" gradientUnits="userSpaceOnUse">
<stop stop-color="#11E5B3"/>
<stop offset="1" stop-color="#59FBD5"/>
</linearGradient>
<linearGradient id="paint28_linear_1_1376" x1="23.3763" y1="42.0322" x2="6.94494" y2="-1.72211" gradientUnits="userSpaceOnUse">
<stop stop-color="#11E5B3"/>
<stop offset="1" stop-color="#59FBD5"/>
</linearGradient>
<linearGradient id="paint29_linear_1_1376" x1="23.3763" y1="42.0322" x2="6.94494" y2="-1.72211" gradientUnits="userSpaceOnUse">
<stop stop-color="#11E5B3"/>
<stop offset="1" stop-color="#59FBD5"/>
</linearGradient>
<linearGradient id="paint30_linear_1_1376" x1="23.3763" y1="42.0322" x2="6.94494" y2="-1.72211" gradientUnits="userSpaceOnUse">
<stop stop-color="#11E5B3"/>
<stop offset="1" stop-color="#59FBD5"/>
</linearGradient>
<linearGradient id="paint31_linear_1_1376" x1="23.3763" y1="42.0322" x2="6.94494" y2="-1.72211" gradientUnits="userSpaceOnUse">
<stop stop-color="#11E5B3"/>
<stop offset="1" stop-color="#59FBD5"/>
</linearGradient>
<linearGradient id="paint32_linear_1_1376" x1="23.3763" y1="42.0322" x2="6.94494" y2="-1.72211" gradientUnits="userSpaceOnUse">
<stop stop-color="#11E5B3"/>
<stop offset="1" stop-color="#59FBD5"/>
</linearGradient>
<linearGradient id="paint33_linear_1_1376" x1="23.3763" y1="42.0322" x2="6.94494" y2="-1.72211" gradientUnits="userSpaceOnUse">
<stop stop-color="#11E5B3"/>
<stop offset="1" stop-color="#59FBD5"/>
</linearGradient>
<linearGradient id="paint34_linear_1_1376" x1="23.3763" y1="42.0322" x2="6.94494" y2="-1.72211" gradientUnits="userSpaceOnUse">
<stop stop-color="#11E5B3"/>
<stop offset="1" stop-color="#59FBD5"/>
</linearGradient>
<linearGradient id="paint35_linear_1_1376" x1="23.3763" y1="42.0322" x2="6.94494" y2="-1.72211" gradientUnits="userSpaceOnUse">
<stop stop-color="#11E5B3"/>
<stop offset="1" stop-color="#59FBD5"/>
</linearGradient>
<linearGradient id="paint36_linear_1_1376" x1="23.3763" y1="42.0322" x2="6.94494" y2="-1.72211" gradientUnits="userSpaceOnUse">
<stop stop-color="#11E5B3"/>
<stop offset="1" stop-color="#59FBD5"/>
</linearGradient>
<linearGradient id="paint37_linear_1_1376" x1="23.3763" y1="42.0322" x2="6.94494" y2="-1.72211" gradientUnits="userSpaceOnUse">
<stop stop-color="#11E5B3"/>
<stop offset="1" stop-color="#59FBD5"/>
</linearGradient>
<linearGradient id="paint38_linear_1_1376" x1="23.3763" y1="42.0322" x2="6.94494" y2="-1.72211" gradientUnits="userSpaceOnUse">
<stop stop-color="#11E5B3"/>
<stop offset="1" stop-color="#59FBD5"/>
</linearGradient>
<linearGradient id="paint39_linear_1_1376" x1="23.3763" y1="42.0322" x2="6.94494" y2="-1.72211" gradientUnits="userSpaceOnUse">
<stop stop-color="#11E5B3"/>
<stop offset="1" stop-color="#59FBD5"/>
</linearGradient>
<linearGradient id="paint40_linear_1_1376" x1="23.3763" y1="42.0322" x2="6.94494" y2="-1.72211" gradientUnits="userSpaceOnUse">
<stop stop-color="#11E5B3"/>
<stop offset="1" stop-color="#59FBD5"/>
</linearGradient>
<linearGradient id="paint41_linear_1_1376" x1="23.3763" y1="42.0322" x2="6.94494" y2="-1.72211" gradientUnits="userSpaceOnUse">
<stop stop-color="#11E5B3"/>
<stop offset="1" stop-color="#59FBD5"/>
</linearGradient>
<linearGradient id="paint42_linear_1_1376" x1="23.3763" y1="42.0322" x2="6.94494" y2="-1.72211" gradientUnits="userSpaceOnUse">
<stop stop-color="#11E5B3"/>
<stop offset="1" stop-color="#59FBD5"/>
</linearGradient>
<linearGradient id="paint43_linear_1_1376" x1="23.3763" y1="42.0322" x2="6.94494" y2="-1.72211" gradientUnits="userSpaceOnUse">
<stop stop-color="#11E5B3"/>
<stop offset="1" stop-color="#59FBD5"/>
</linearGradient>
<linearGradient id="paint44_linear_1_1376" x1="23.3763" y1="42.0322" x2="6.94494" y2="-1.72211" gradientUnits="userSpaceOnUse">
<stop stop-color="#11E5B3"/>
<stop offset="1" stop-color="#59FBD5"/>
</linearGradient>
<linearGradient id="paint45_linear_1_1376" x1="23.3763" y1="42.0322" x2="6.94494" y2="-1.72211" gradientUnits="userSpaceOnUse">
<stop stop-color="#11E5B3"/>
<stop offset="1" stop-color="#59FBD5"/>
</linearGradient>
<linearGradient id="paint46_linear_1_1376" x1="23.3763" y1="42.0322" x2="6.94494" y2="-1.72211" gradientUnits="userSpaceOnUse">
<stop stop-color="#11E5B3"/>
<stop offset="1" stop-color="#59FBD5"/>
</linearGradient>
<linearGradient id="paint47_linear_1_1376" x1="23.3763" y1="42.0322" x2="6.94494" y2="-1.72211" gradientUnits="userSpaceOnUse">
<stop stop-color="#11E5B3"/>
<stop offset="1" stop-color="#59FBD5"/>
</linearGradient>
<linearGradient id="paint48_linear_1_1376" x1="23.3763" y1="42.0322" x2="6.94494" y2="-1.72211" gradientUnits="userSpaceOnUse">
<stop stop-color="#11E5B3"/>
<stop offset="1" stop-color="#59FBD5"/>
</linearGradient>
<linearGradient id="paint49_linear_1_1376" x1="23.3763" y1="42.0322" x2="6.94494" y2="-1.72211" gradientUnits="userSpaceOnUse">
<stop stop-color="#11E5B3"/>
<stop offset="1" stop-color="#59FBD5"/>
</linearGradient>
<linearGradient id="paint50_linear_1_1376" x1="23.3763" y1="42.0322" x2="6.94494" y2="-1.72211" gradientUnits="userSpaceOnUse">
<stop stop-color="#11E5B3"/>
<stop offset="1" stop-color="#59FBD5"/>
</linearGradient>
<linearGradient id="paint51_linear_1_1376" x1="23.3763" y1="42.0322" x2="6.94494" y2="-1.72211" gradientUnits="userSpaceOnUse">
<stop stop-color="#11E5B3"/>
<stop offset="1" stop-color="#59FBD5"/>
</linearGradient>
<linearGradient id="paint52_linear_1_1376" x1="23.3763" y1="42.0322" x2="6.94494" y2="-1.72211" gradientUnits="userSpaceOnUse">
<stop stop-color="#11E5B3"/>
<stop offset="1" stop-color="#59FBD5"/>
</linearGradient>
<linearGradient id="paint53_linear_1_1376" x1="23.3763" y1="42.0322" x2="6.94494" y2="-1.72211" gradientUnits="userSpaceOnUse">
<stop stop-color="#11E5B3"/>
<stop offset="1" stop-color="#59FBD5"/>
</linearGradient>
<linearGradient id="paint54_linear_1_1376" x1="23.3763" y1="42.0322" x2="6.94494" y2="-1.72211" gradientUnits="userSpaceOnUse">
<stop stop-color="#11E5B3"/>
<stop offset="1" stop-color="#59FBD5"/>
</linearGradient>
<linearGradient id="paint55_linear_1_1376" x1="23.3763" y1="42.0322" x2="6.94494" y2="-1.72211" gradientUnits="userSpaceOnUse">
<stop stop-color="#11E5B3"/>
<stop offset="1" stop-color="#59FBD5"/>
</linearGradient>
<linearGradient id="paint56_linear_1_1376" x1="23.3763" y1="42.0322" x2="6.94494" y2="-1.72211" gradientUnits="userSpaceOnUse">
<stop stop-color="#11E5B3"/>
<stop offset="1" stop-color="#59FBD5"/>
</linearGradient>
<linearGradient id="paint57_linear_1_1376" x1="23.3763" y1="42.0322" x2="6.94494" y2="-1.72211" gradientUnits="userSpaceOnUse">
<stop stop-color="#11E5B3"/>
<stop offset="1" stop-color="#59FBD5"/>
</linearGradient>
<linearGradient id="paint58_linear_1_1376" x1="23.3763" y1="42.0322" x2="6.94494" y2="-1.72211" gradientUnits="userSpaceOnUse">
<stop stop-color="#11E5B3"/>
<stop offset="1" stop-color="#59FBD5"/>
</linearGradient>
<linearGradient id="paint59_linear_1_1376" x1="23.3763" y1="42.0322" x2="6.94494" y2="-1.72211" gradientUnits="userSpaceOnUse">
<stop stop-color="#11E5B3"/>
<stop offset="1" stop-color="#59FBD5"/>
</linearGradient>
<linearGradient id="paint60_linear_1_1376" x1="23.3763" y1="42.0322" x2="6.94494" y2="-1.72211" gradientUnits="userSpaceOnUse">
<stop stop-color="#11E5B3"/>
<stop offset="1" stop-color="#59FBD5"/>
</linearGradient>
<linearGradient id="paint61_linear_1_1376" x1="23.3763" y1="42.0322" x2="6.94494" y2="-1.72211" gradientUnits="userSpaceOnUse">
<stop stop-color="#11E5B3"/>
<stop offset="1" stop-color="#59FBD5"/>
</linearGradient>
<linearGradient id="paint62_linear_1_1376" x1="23.3763" y1="42.0322" x2="6.94494" y2="-1.72211" gradientUnits="userSpaceOnUse">
<stop stop-color="#11E5B3"/>
<stop offset="1" stop-color="#59FBD5"/>
</linearGradient>
<linearGradient id="paint63_linear_1_1376" x1="23.3763" y1="42.0322" x2="6.94494" y2="-1.72211" gradientUnits="userSpaceOnUse">
<stop stop-color="#11E5B3"/>
<stop offset="1" stop-color="#59FBD5"/>
</linearGradient>
<linearGradient id="paint64_linear_1_1376" x1="23.3763" y1="42.0322" x2="6.94494" y2="-1.72211" gradientUnits="userSpaceOnUse">
<stop stop-color="#11E5B3"/>
<stop offset="1" stop-color="#59FBD5"/>
</linearGradient>
<linearGradient id="paint65_linear_1_1376" x1="23.3763" y1="42.0322" x2="6.94494" y2="-1.72211" gradientUnits="userSpaceOnUse">
<stop stop-color="#11E5B3"/>
<stop offset="1" stop-color="#59FBD5"/>
</linearGradient>
<linearGradient id="paint66_linear_1_1376" x1="23.3763" y1="42.0322" x2="6.94494" y2="-1.72211" gradientUnits="userSpaceOnUse">
<stop stop-color="#11E5B3"/>
<stop offset="1" stop-color="#59FBD5"/>
</linearGradient>
<linearGradient id="paint67_linear_1_1376" x1="23.3763" y1="42.0322" x2="6.94494" y2="-1.72211" gradientUnits="userSpaceOnUse">
<stop stop-color="#11E5B3"/>
<stop offset="1" stop-color="#59FBD5"/>
</linearGradient>
<linearGradient id="paint68_linear_1_1376" x1="23.3763" y1="42.0322" x2="6.94494" y2="-1.72211" gradientUnits="userSpaceOnUse">
<stop stop-color="#11E5B3"/>
<stop offset="1" stop-color="#59FBD5"/>
</linearGradient>
<linearGradient id="paint69_linear_1_1376" x1="23.3763" y1="42.0322" x2="6.94494" y2="-1.72211" gradientUnits="userSpaceOnUse">
<stop stop-color="#11E5B3"/>
<stop offset="1" stop-color="#59FBD5"/>
</linearGradient>
<linearGradient id="paint70_linear_1_1376" x1="23.3763" y1="42.0322" x2="6.94494" y2="-1.72211" gradientUnits="userSpaceOnUse">
<stop stop-color="#11E5B3"/>
<stop offset="1" stop-color="#59FBD5"/>
</linearGradient>
<linearGradient id="paint71_linear_1_1376" x1="23.3763" y1="42.0322" x2="6.94494" y2="-1.72211" gradientUnits="userSpaceOnUse">
<stop stop-color="#11E5B3"/>
<stop offset="1" stop-color="#59FBD5"/>
</linearGradient>
<linearGradient id="paint72_linear_1_1376" x1="23.3763" y1="42.0322" x2="6.94494" y2="-1.72211" gradientUnits="userSpaceOnUse">
<stop stop-color="#11E5B3"/>
<stop offset="1" stop-color="#59FBD5"/>
</linearGradient>
<linearGradient id="paint73_linear_1_1376" x1="23.3763" y1="42.0322" x2="6.94494" y2="-1.72211" gradientUnits="userSpaceOnUse">
<stop stop-color="#11E5B3"/>
<stop offset="1" stop-color="#59FBD5"/>
</linearGradient>
<linearGradient id="paint74_linear_1_1376" x1="23.3763" y1="42.0322" x2="6.94494" y2="-1.72211" gradientUnits="userSpaceOnUse">
<stop stop-color="#11E5B3"/>
<stop offset="1" stop-color="#59FBD5"/>
</linearGradient>
<linearGradient id="paint75_linear_1_1376" x1="23.3763" y1="42.0322" x2="6.94494" y2="-1.72211" gradientUnits="userSpaceOnUse">
<stop stop-color="#11E5B3"/>
<stop offset="1" stop-color="#59FBD5"/>
</linearGradient>
<linearGradient id="paint76_linear_1_1376" x1="23.3763" y1="42.0322" x2="6.94494" y2="-1.72211" gradientUnits="userSpaceOnUse">
<stop stop-color="#11E5B3"/>
<stop offset="1" stop-color="#59FBD5"/>
</linearGradient>
<linearGradient id="paint77_linear_1_1376" x1="23.3763" y1="42.0322" x2="6.94494" y2="-1.72211" gradientUnits="userSpaceOnUse">
<stop stop-color="#11E5B3"/>
<stop offset="1" stop-color="#59FBD5"/>
</linearGradient>
<linearGradient id="paint78_linear_1_1376" x1="23.3763" y1="42.0322" x2="6.94494" y2="-1.72211" gradientUnits="userSpaceOnUse">
<stop stop-color="#11E5B3"/>
<stop offset="1" stop-color="#59FBD5"/>
</linearGradient>
<linearGradient id="paint79_linear_1_1376" x1="23.3763" y1="42.0322" x2="6.94494" y2="-1.72211" gradientUnits="userSpaceOnUse">
<stop stop-color="#11E5B3"/>
<stop offset="1" stop-color="#59FBD5"/>
</linearGradient>
<linearGradient id="paint80_linear_1_1376" x1="23.3763" y1="42.0322" x2="6.94494" y2="-1.72211" gradientUnits="userSpaceOnUse">
<stop stop-color="#11E5B3"/>
<stop offset="1" stop-color="#59FBD5"/>
</linearGradient>
<linearGradient id="paint81_linear_1_1376" x1="23.3763" y1="42.0322" x2="6.94494" y2="-1.72211" gradientUnits="userSpaceOnUse">
<stop stop-color="#11E5B3"/>
<stop offset="1" stop-color="#59FBD5"/>
</linearGradient>
<linearGradient id="paint82_linear_1_1376" x1="23.3763" y1="42.0322" x2="6.94494" y2="-1.72211" gradientUnits="userSpaceOnUse">
<stop stop-color="#11E5B3"/>
<stop offset="1" stop-color="#59FBD5"/>
</linearGradient>
<linearGradient id="paint83_linear_1_1376" x1="23.3763" y1="42.0322" x2="6.94494" y2="-1.72211" gradientUnits="userSpaceOnUse">
<stop stop-color="#11E5B3"/>
<stop offset="1" stop-color="#59FBD5"/>
</linearGradient>
<linearGradient id="paint84_linear_1_1376" x1="23.3763" y1="42.0322" x2="6.94494" y2="-1.72211" gradientUnits="userSpaceOnUse">
<stop stop-color="#11E5B3"/>
<stop offset="1" stop-color="#59FBD5"/>
</linearGradient>
<linearGradient id="paint85_linear_1_1376" x1="23.3763" y1="42.0322" x2="6.94494" y2="-1.72211" gradientUnits="userSpaceOnUse">
<stop stop-color="#11E5B3"/>
<stop offset="1" stop-color="#59FBD5"/>
</linearGradient>
<linearGradient id="paint86_linear_1_1376" x1="23.3763" y1="42.0322" x2="6.94494" y2="-1.72211" gradientUnits="userSpaceOnUse">
<stop stop-color="#11E5B3"/>
<stop offset="1" stop-color="#59FBD5"/>
</linearGradient>
<linearGradient id="paint87_linear_1_1376" x1="23.3763" y1="42.0322" x2="6.94494" y2="-1.72211" gradientUnits="userSpaceOnUse">
<stop stop-color="#11E5B3"/>
<stop offset="1" stop-color="#59FBD5"/>
</linearGradient>
<linearGradient id="paint88_linear_1_1376" x1="23.3763" y1="42.0322" x2="6.94494" y2="-1.72211" gradientUnits="userSpaceOnUse">
<stop stop-color="#11E5B3"/>
<stop offset="1" stop-color="#59FBD5"/>
</linearGradient>
<linearGradient id="paint89_linear_1_1376" x1="23.3763" y1="42.0322" x2="6.94494" y2="-1.72211" gradientUnits="userSpaceOnUse">
<stop stop-color="#11E5B3"/>
<stop offset="1" stop-color="#59FBD5"/>
</linearGradient>
<linearGradient id="paint90_linear_1_1376" x1="23.3763" y1="42.0322" x2="6.94494" y2="-1.72211" gradientUnits="userSpaceOnUse">
<stop stop-color="#11E5B3"/>
<stop offset="1" stop-color="#59FBD5"/>
</linearGradient>
<linearGradient id="paint91_linear_1_1376" x1="23.3763" y1="42.0322" x2="6.94494" y2="-1.72211" gradientUnits="userSpaceOnUse">
<stop stop-color="#11E5B3"/>
<stop offset="1" stop-color="#59FBD5"/>
</linearGradient>
<linearGradient id="paint92_linear_1_1376" x1="23.3763" y1="42.0322" x2="6.94494" y2="-1.72211" gradientUnits="userSpaceOnUse">
<stop stop-color="#11E5B3"/>
<stop offset="1" stop-color="#59FBD5"/>
</linearGradient>
<linearGradient id="paint93_linear_1_1376" x1="23.3763" y1="42.0322" x2="6.94494" y2="-1.72211" gradientUnits="userSpaceOnUse">
<stop stop-color="#11E5B3"/>
<stop offset="1" stop-color="#59FBD5"/>
</linearGradient>
<linearGradient id="paint94_linear_1_1376" x1="23.3763" y1="42.0322" x2="6.94494" y2="-1.72211" gradientUnits="userSpaceOnUse">
<stop stop-color="#11E5B3"/>
<stop offset="1" stop-color="#59FBD5"/>
</linearGradient>
<linearGradient id="paint95_linear_1_1376" x1="23.3763" y1="42.0322" x2="6.94494" y2="-1.72211" gradientUnits="userSpaceOnUse">
<stop stop-color="#11E5B3"/>
<stop offset="1" stop-color="#59FBD5"/>
</linearGradient>
<linearGradient id="paint96_linear_1_1376" x1="23.3763" y1="42.0322" x2="6.94494" y2="-1.72211" gradientUnits="userSpaceOnUse">
<stop stop-color="#11E5B3"/>
<stop offset="1" stop-color="#59FBD5"/>
</linearGradient>
<linearGradient id="paint97_linear_1_1376" x1="23.3763" y1="42.0322" x2="6.94494" y2="-1.72211" gradientUnits="userSpaceOnUse">
<stop stop-color="#11E5B3"/>
<stop offset="1" stop-color="#59FBD5"/>
</linearGradient>
<linearGradient id="paint98_linear_1_1376" x1="23.3763" y1="42.0322" x2="6.94494" y2="-1.72211" gradientUnits="userSpaceOnUse">
<stop stop-color="#11E5B3"/>
<stop offset="1" stop-color="#59FBD5"/>
</linearGradient>
<linearGradient id="paint99_linear_1_1376" x1="23.3763" y1="42.0322" x2="6.94494" y2="-1.72211" gradientUnits="userSpaceOnUse">
<stop stop-color="#11E5B3"/>
<stop offset="1" stop-color="#59FBD5"/>
</linearGradient>
<linearGradient id="paint100_linear_1_1376" x1="23.3763" y1="42.0322" x2="6.94494" y2="-1.72211" gradientUnits="userSpaceOnUse">
<stop stop-color="#11E5B3"/>
<stop offset="1" stop-color="#59FBD5"/>
</linearGradient>
<linearGradient id="paint101_linear_1_1376" x1="23.3763" y1="42.0322" x2="6.94494" y2="-1.72211" gradientUnits="userSpaceOnUse">
<stop stop-color="#11E5B3"/>
<stop offset="1" stop-color="#59FBD5"/>
</linearGradient>
<linearGradient id="paint102_linear_1_1376" x1="23.3763" y1="42.0322" x2="6.94494" y2="-1.72211" gradientUnits="userSpaceOnUse">
<stop stop-color="#11E5B3"/>
<stop offset="1" stop-color="#59FBD5"/>
</linearGradient>
<linearGradient id="paint103_linear_1_1376" x1="23.3763" y1="42.0322" x2="6.94494" y2="-1.72211" gradientUnits="userSpaceOnUse">
<stop stop-color="#11E5B3"/>
<stop offset="1" stop-color="#59FBD5"/>
</linearGradient>
<linearGradient id="paint104_linear_1_1376" x1="23.3763" y1="42.0322" x2="6.94494" y2="-1.72211" gradientUnits="userSpaceOnUse">
<stop stop-color="#11E5B3"/>
<stop offset="1" stop-color="#59FBD5"/>
</linearGradient>
<linearGradient id="paint105_linear_1_1376" x1="23.3763" y1="42.0322" x2="6.94494" y2="-1.72211" gradientUnits="userSpaceOnUse">
<stop stop-color="#11E5B3"/>
<stop offset="1" stop-color="#59FBD5"/>
</linearGradient>
<linearGradient id="paint106_linear_1_1376" x1="23.3763" y1="42.0322" x2="6.94494" y2="-1.72211" gradientUnits="userSpaceOnUse">
<stop stop-color="#11E5B3"/>
<stop offset="1" stop-color="#59FBD5"/>
</linearGradient>
<linearGradient id="paint107_linear_1_1376" x1="23.3763" y1="42.0322" x2="6.94494" y2="-1.72211" gradientUnits="userSpaceOnUse">
<stop stop-color="#11E5B3"/>
<stop offset="1" stop-color="#59FBD5"/>
</linearGradient>
<linearGradient id="paint108_linear_1_1376" x1="23.3763" y1="42.0322" x2="6.94494" y2="-1.72211" gradientUnits="userSpaceOnUse">
<stop stop-color="#11E5B3"/>
<stop offset="1" stop-color="#59FBD5"/>
</linearGradient>
<linearGradient id="paint109_linear_1_1376" x1="23.3763" y1="42.0322" x2="6.94494" y2="-1.72211" gradientUnits="userSpaceOnUse">
<stop stop-color="#11E5B3"/>
<stop offset="1" stop-color="#59FBD5"/>
</linearGradient>
<linearGradient id="paint110_linear_1_1376" x1="23.3763" y1="42.0322" x2="6.94494" y2="-1.72211" gradientUnits="userSpaceOnUse">
<stop stop-color="#11E5B3"/>
<stop offset="1" stop-color="#59FBD5"/>
</linearGradient>
<linearGradient id="paint111_linear_1_1376" x1="23.3763" y1="42.0322" x2="6.94494" y2="-1.72211" gradientUnits="userSpaceOnUse">
<stop stop-color="#11E5B3"/>
<stop offset="1" stop-color="#59FBD5"/>
</linearGradient>
<linearGradient id="paint112_linear_1_1376" x1="23.3763" y1="42.0322" x2="6.94494" y2="-1.72211" gradientUnits="userSpaceOnUse">
<stop stop-color="#11E5B3"/>
<stop offset="1" stop-color="#59FBD5"/>
</linearGradient>
<linearGradient id="paint113_linear_1_1376" x1="23.3763" y1="42.0322" x2="6.94494" y2="-1.72211" gradientUnits="userSpaceOnUse">
<stop stop-color="#11E5B3"/>
<stop offset="1" stop-color="#59FBD5"/>
</linearGradient>
<linearGradient id="paint114_linear_1_1376" x1="23.3763" y1="42.0322" x2="6.94494" y2="-1.72211" gradientUnits="userSpaceOnUse">
<stop stop-color="#11E5B3"/>
<stop offset="1" stop-color="#59FBD5"/>
</linearGradient>
<linearGradient id="paint115_linear_1_1376" x1="23.3763" y1="42.0322" x2="6.94494" y2="-1.72211" gradientUnits="userSpaceOnUse">
<stop stop-color="#11E5B3"/>
<stop offset="1" stop-color="#59FBD5"/>
</linearGradient>
<linearGradient id="paint116_linear_1_1376" x1="23.3763" y1="42.0322" x2="6.94494" y2="-1.72211" gradientUnits="userSpaceOnUse">
<stop stop-color="#11E5B3"/>
<stop offset="1" stop-color="#59FBD5"/>
</linearGradient>
<linearGradient id="paint117_linear_1_1376" x1="23.3763" y1="42.0322" x2="6.94494" y2="-1.72211" gradientUnits="userSpaceOnUse">
<stop stop-color="#11E5B3"/>
<stop offset="1" stop-color="#59FBD5"/>
</linearGradient>
</defs>
</svg>
