<svg width="493" height="22" viewBox="0 0 493 22" fill="none" xmlns="http://www.w3.org/2000/svg">
<path fill-rule="evenodd" clip-rule="evenodd" d="M451 2L448 5H408L369 4L365 7L362 10H224H87L83 7L80 4H40C0.930832 4 0 4.33815 0 6C0 7.661 0.471401 8 39 8H78L82 11C84.9256 13.3625 86.7198 14 90 14C92.3569 14 94 14.4475 94 15C94 15.7057 98.1323 15.4425 110 15C121.317 14.5786 126 14.3654 126 15C126 15.6075 132.162 16 143 16C155.251 16 158.998 15.7988 159 15C159.001 14.1978 163.477 14.0279 177 14C187.35 13.9788 195 14.5422 195 15C195 15.4806 201.135 15.3681 211 15C222.317 14.5786 227 14.3654 227 15C227 15.6075 232.162 16 243 16C255.253 16 258.999 15.7988 259 15C259 14.1725 270.618 14.2251 311 14L363 13L367 11L370 8H410H449L452 6C454.524 3.89731 454.841 3 474 3C492.551 3 493 3.62885 493 2C493 0.369462 492.035 0 473 0H453L451 2ZM2 11C0.0474606 12.6889 -0.543571 13 35 13H71L77 17L83 22H188C293.637 22 296 21.6459 296 19C296 18.6277 248.848 19 191 19H86L80 14L74 9H39C5.09652 9 3.88118 9.37369 2 11ZM371 12C370.563 12.5525 377.673 13 391 13H412L415 15L418 18H453C483.097 18 488.854 18.0805 490 17C491.191 15.8763 486.541 15 455 15H420L417 13L415 11H393C379.919 11 371.409 11.4822 371 12Z" fill="white"/>
</svg>
