<svg width="346" height="177" viewBox="0 0 346 177" fill="none" xmlns="http://www.w3.org/2000/svg">
<path d="M10 29L20.8875 19.9271C21.6063 19.3281 22.5125 19 23.4482 19H43H86.1606C86.7142 19 87.2617 19.1149 87.7686 19.3374L127.231 36.6626C127.738 36.8851 128.286 37 128.839 37H322.343C323.404 37 324.421 37.4214 325.172 38.1716L335 48L344.828 57.8284C345.579 58.5786 346 59.596 346 60.6569V82V173C346 175.209 344.209 177 342 177H25.2111C24.4214 177 23.6494 176.766 22.9923 176.328L12 169L1.6 161.2C0.592777 160.445 0 159.259 0 158V40.6569C0 39.596 0.421427 38.5786 1.17157 37.8284L10 29Z" fill="url(#paint0_linear_1_32)" fill-opacity="0.8"/>
<path d="M2.58579 39.2426L11.3501 30.4784L22.1678 21.4636C22.5273 21.164 22.9803 21 23.4482 21H43H86.1606C86.4374 21 86.7112 21.0574 86.9646 21.1687L126.427 38.4939C127.188 38.8277 128.009 39 128.839 39H322.343C322.874 39 323.382 39.2107 323.757 39.5858L333.586 49.4142L343.414 59.2426C343.789 59.6177 344 60.1264 344 60.6569V82V173C344 174.105 343.105 175 342 175H25.2111C24.8162 175 24.4302 174.883 24.1017 174.664L13.1558 167.367L2.8 159.6C2.29639 159.222 2 158.63 2 158V40.6569C2 40.1264 2.21071 39.6177 2.58579 39.2426Z" stroke="#11E5B3" stroke-width="4"/>
<mask id="mask0_1_32" style="mask-type:alpha" maskUnits="userSpaceOnUse" x="55" y="0" width="291" height="29">
<path d="M91 0H346V29H178L128 26H102L55 18L91 0Z" fill="#D9D9D9"/>
</mask>
<g mask="url(#mask0_1_32)">
<path fill-rule="evenodd" clip-rule="evenodd" d="M232 10C230.67 11.329 236.269 11 279 11C320.397 11 326.711 11.288 328 10C329.33 8.671 324.731 8 282 8C240.603 8 233.289 8.712 232 10ZM332 13L330 15H281H231L226 20L220 24H189H157L153 21L150 19H70L-9 18L-15 23L-21 28H-89H-158L-162 26C-165.223 24.183 -165.919 23.362 -165 22C-164.149 20.739 -164.653 19.322 -167 16L-170 11H-177H-184L-187 16L-190 20L-187 25L-184 29H-177C-173.211 29 -169.697 28.578 -169 28C-168.114 27.265 -165.854 27.3 -162 29L-157 32H-88H-20L-15 27L-9 22H70H148L151 25L154 27H188H223L228 23L234 18H282H331L333 21C334.458 22.845 336.011 23 339 23C342.326 23 343.382 22.595 345 20C346.808 17.099 346.761 16.064 345 13C343.364 10.155 342.588 10 339 10C335.839 10 333.483 11.123 332 13ZM173 18C171.613 19.386 173.861 20 195 20C209.423 20 218.544 19.612 219 19C219.486 18.348 212.741 18 199 18C187.41 18 176.943 17.301 176 17C175.057 16.7 173.85 17.15 173 18ZM23 28C21.1071 29.892 24.8617 33.501 28 33C31.3626 32.463 30.3939 27.402 27 27C25.6159 26.836 23.7596 27.241 23 28ZM35 29C33.9438 31.281 35.4259 33 38 33C40.99 33 42.9573 31.068 42 29C41.0548 26.956 35.9296 26.989 35 29ZM46 29C44.8763 31.43 45.9871 33 49 33C51.8658 33 54.4612 29.961 53 28C51.8426 26.448 46.7813 27.314 46 29ZM57 28C55.1071 29.892 57.8617 33.501 61 33C64.3626 32.463 64.3939 27.402 61 27C59.6159 26.836 57.7596 27.241 57 28ZM68 28C66.7196 29.718 68.702 33 71 33C73.8863 33 76.9416 31.035 76 29C75.1741 27.215 69.1996 26.391 68 28ZM79 29C77.8824 31.417 80.0293 33 83 33C85.9707 33 87.1176 31.417 86 29C85.6178 28.175 84.5155 27 83 27C81.4845 27 79.3822 28.175 79 29ZM91 28C89.1071 29.892 91.8617 33.501 95 33C98.3625 32.463 98.3939 27.402 95 27C93.6159 26.836 91.7596 27.241 91 28Z" fill="#11E5B3"/>
</g>
<defs>
<linearGradient id="paint0_linear_1_32" x1="201" y1="167.5" x2="178.5" y2="18.5" gradientUnits="userSpaceOnUse">
<stop stop-color="#008969"/>
<stop offset="1" stop-color="#0C1E30" stop-opacity="0.68"/>
</linearGradient>
</defs>
</svg>
