<svg width="20" height="17" viewBox="0 0 20 17" fill="none" xmlns="http://www.w3.org/2000/svg">
<path fill-rule="evenodd" clip-rule="evenodd" d="M4.48043 14.3698C4.52074 14.3391 4.56167 14.308 4.60359 14.2765C4.72447 14.1858 4.85363 14.0925 4.99998 14.0001C6.72119 12.9382 7.99998 11.468 7.99998 9.00006L7.99998 3.60367V2.00006L6.39636 2.00006L3.60359 2.00006L1.99998 2.00006L1.99998 3.60367L1.99998 7.39644L1.99998 9.00006L3.39636 9.00006H3.60359H4.99998C4.99998 9.12917 5.02321 9.25089 5.04555 9.36794C5.08776 9.5891 5.1268 9.79364 4.99998 10.0001C4.8283 10.2461 4.65157 10.4476 4.44342 10.6037C4.09313 10.8663 3.65386 11.0001 2.99998 11.0001V12.6037V13.3899L2.99998 15.0001C3.70683 14.9582 4.05945 14.69 4.48037 14.3698L4.48043 14.3698ZM5.4871 15.6189C5.62649 15.513 5.73353 15.4338 5.85002 15.3599C6.83145 14.7534 7.78092 13.9736 8.48302 12.9119C9.20039 11.8272 9.60359 10.5319 9.60359 9.00006V2.00006V0.396443L7.99998 0.396442L1.99998 0.396442L0.396362 0.396442V2.00006V9.00006V10.6037H1.39636V11.0001L1.39636 15.0001L1.39636 16.7014L3.09473 16.6009C3.88814 16.5539 4.46924 16.3145 4.95926 15.9989C5.14729 15.8778 5.32304 15.7438 5.44844 15.6483L5.4871 15.6189ZM14.4804 14.3698C14.5207 14.3391 14.5616 14.308 14.6036 14.2765C14.7245 14.1858 14.8536 14.0925 15 14.0001C16.7212 12.9382 18 11.468 18 9.00006L18 3.60367V2.00006L16.3964 2.00006L13.6036 2.00006L12 2.00006V3.60367V7.39644V9.00006L13.3964 9.00006H13.6036H15C15 9.12917 15.0232 9.25089 15.0455 9.36794C15.0878 9.5891 15.1268 9.79364 15 10.0001C14.8283 10.2461 14.6516 10.4476 14.4434 10.6037C14.0931 10.8663 13.6539 11.0001 13 11.0001V12.6037V13.3899V15.0001C13.7068 14.9582 14.0594 14.69 14.4804 14.3698ZM15.4871 15.6189C15.6265 15.513 15.7335 15.4338 15.85 15.3599C16.8315 14.7534 17.7809 13.9736 18.483 12.9119C19.2004 11.8272 19.6036 10.5319 19.6036 9.00006L19.6036 2.00006V0.396443L18 0.396442L12 0.396442L10.3964 0.396442V2.00006V9.00006L10.3964 10.6037H11.3964V11.0001V15.0001V16.7014L13.0947 16.6009C13.8881 16.5539 14.4692 16.3145 14.9593 15.9989C15.1473 15.8778 15.323 15.7438 15.4484 15.6483L15.4871 15.6189Z" fill="#11E5B3"/>
</svg>
