<svg width="28" height="28" viewBox="0 0 28 28" fill="none" xmlns="http://www.w3.org/2000/svg">
<path fill-rule="evenodd" clip-rule="evenodd" d="M13 1.00015C12.7076 1.40652 11.7271 1.57549 11 2.00015C9.201 3.04981 9.81585 3.66474 11 6.00015L12 8.00015H10C8.4885 7.59703 8.28552 7.76657 9 7.00015C9.67625 6.27437 9.67178 5.00015 9 5.00015C8.33513 5.00015 6.70681 7.52592 7 8.00015C7.20902 8.33785 7.34402 8.21268 7 8.00015C6.6633 7.7925 5.09382 8.92035 3 11.0002L0 14.0002L1 15.0002C1.57012 15.7471 2.70396 17.0002 3 17.0002C3.98449 17.0002 3.89828 15.7788 3 15.0002L2 14.0002L4 12.0002L7 9.00015V10.0002C7 11.4948 6.93958 11.7202 10 11.0002C11.2797 10.6994 11.8918 10.8921 12 11.0002C12.1086 11.1082 11.688 11.3126 11 12.0002C10.312 12.6877 10.2184 14.3739 10 15.0002C9.67428 15.9344 9.05199 16.0266 8 16.0002C7.29488 15.9827 6.71088 16.116 7 16.0002C7.42372 15.8303 7.41437 15.4988 7 15.0002C6.5718 14.4845 7.07732 13.7357 8 13.0002C8.60875 12.5154 9 12.1639 9 12.0002C9 11.4186 6.97554 12.0639 6 13.0002C5.06268 13.8994 4.35059 14.2833 5 15.0002C5.90397 15.9982 6.0955 15.8331 5 16.0002C4.49657 16.077 3.94673 16.734 4 17.0002C4.0553 17.2765 4.34565 17.1326 4 17.0002C2.84716 16.558 2.81428 17.8777 5 20.0002C6.69734 21.6488 7.17648 22.3252 7 23.0002C6.79668 23.7763 7.02568 23.2448 8 23.0002C9.09632 22.7254 11.5307 23.4698 11 24.0002C10.7438 24.2562 13.4994 28.0002 14 28.0002C14.3107 28.0002 17.9911 24.2911 18 24.0002C18.0248 23.2037 19.0001 22.7807 20 23.0002C21.0939 23.2403 21.0415 23.5813 21 22.0002C20.9764 21.1017 20.7113 20.2866 21 20.0002C21.4282 19.5755 22.2208 19.4207 22 20.0002C21.8512 20.3915 21.8817 21.0002 22 21.0002C22.3371 21.0002 25.1724 17.1725 25 17.0002C24.9154 16.916 23.8109 17.5219 23 18.0002C22.1891 18.4785 22 19.1119 22 19.0002C22 18.6076 24.6556 16.7876 25 17.0002C25.401 17.2476 27.9972 14.6568 28 14.0002C28.0037 13.2118 21.5128 7.68318 21 8.00015C20.6853 8.1944 20.7991 7.32525 21 7.00015C21.3517 6.43164 19.5457 4.66286 19 5.00015C18.4384 5.34679 18.3152 6.49991 19 7.00015C19.529 7.38661 19.335 7.64417 18 8.00015H17L18 6.00015C19.1732 3.66596 18.7998 2.92708 17 2.00015C16.2892 1.63401 15.2924 1.41384 15 1.00015C14.3319 0.0541214 13.6734 0.0642807 13 1.00015ZM16 4.00015C16.891 4.98357 15.982 5.81452 15 5.00015C14.5015 4.58687 14.3562 4.64417 14 5.00015C13.3185 5.68123 13 5.83931 13 5.00015C13 3.36004 14.8585 2.73959 16 4.00015ZM15 7.00015C14.6869 7.31306 14.4611 7.46057 14 7.00015C13.011 6.81119 13.4112 6.41132 14 7.00015C14.7734 7.14807 15.3127 6.68765 15 7.00015ZM25 15.0002C24.3725 15.5402 23.5469 16.0002 23 16.0002C21.8219 16.0002 22.0489 16.0506 23 15.0002C23.6775 14.2524 24.1642 14.036 23 13.0002C22.0204 12.1289 20.8935 12.1136 21 11.0002L22 9.00015L24 12.0002L27 14.0002L25 15.0002ZM18 11.0002C18.8088 11.1521 20.1252 11.8746 20 12.0002C19.8743 12.1253 20.4039 12.378 21 13.0002C21.8466 13.8832 21.3631 14.5629 21 15.0002C20.7442 15.3082 20.8528 15.853 21 16.0002C21.1472 16.1473 20.5534 16.0002 20 16.0002C19.2209 16.0002 19.5425 15.229 19 14.0002C18.6145 13.1273 17.5522 12.3618 17 12.0002C15.9256 11.2967 15.0326 10.6295 16 11.0002C16.3196 11.1229 17.1908 10.8486 18 11.0002ZM16 14.0002C16.9808 14.8137 17.5181 17.0326 17 18.0002C16.2347 19.4294 15.5684 20.2944 14 20.0002C9.99576 19.2496 9.94696 12.6787 14 13.0002C14.8043 13.0635 15.671 13.7271 16 14.0002ZM12 15.0002C10.7845 16.2144 10.9037 16.8241 12 18.0002C13.5306 19.6423 16.4746 19.1799 17 17.0002C17.205 16.1496 16.8043 15.804 16 15.0002C14.6959 13.6969 13.2769 13.7237 12 15.0002ZM12 21.0002C12.76 21.511 13.4628 21.0002 14 21.0002C15.4924 21.0002 17.1188 20.4452 18 19.0002C18.8633 17.3316 18.9263 17.4828 18 19.0002C17.2262 20.4956 15.7742 22.2879 14 22.0002C11.676 21.623 8.93697 19.9117 9 18.0002C9.01261 17.6194 9.73324 17.2256 10 18.0002C10.2773 18.8048 11.2103 20.4698 12 21.0002ZM13 26.0002C13.357 26.439 13.8178 26.5983 13 26.0002C12.2729 25.4686 11 24.0778 11 24.0002C11 23.6913 12.4588 25.3337 13 26.0002ZM16 25.0002C16 25.0729 15.6153 25.4581 15 26.0002L14 27.0002L15 26.0002C15.9215 24.9558 16 24.6812 16 25.0002Z" fill="#11E5B3"/>
</svg>
