<svg width="28" height="28" viewBox="0 0 28 28" fill="none" xmlns="http://www.w3.org/2000/svg">
<path fill-rule="evenodd" clip-rule="evenodd" d="M12 2C10.0564 3.94626 9.8138 5 11 5C11.235 5 12.1727 4.86851 13 4L14 2L16 4C16.8576 4.86851 17.6564 4.98283 18 5C18.3218 4.87142 18.4041 5.02037 18 5C17.7267 5.10941 16.6852 5.99572 16 7C15.0237 8.43075 15.5833 9.72128 16 10C17.2314 10.8234 19.4977 12 20 12C21.3045 12 25.0399 7.44769 26 4C26.5774 1.92596 25.664 2.52573 22 4L19 5L17 2L14 0L12 2ZM3 3C3 3.85214 4.15133 8.7749 5 10C5.50024 10.722 7.21512 11.4913 8 12L9 13H8C6.5659 13.5966 6.36087 14.4891 7 17C7.43564 18.7115 7.07759 18.8879 6 20C5.16142 20.8657 4.92215 21.0683 4 21C3.20785 20.9413 2.97416 20.6821 3 21C3.02221 21.2747 2.96649 22.0396 3 23V25H5C7.39743 25.2392 8.70534 25.1169 8 24C7.60716 23.3783 6.88849 23.0658 8 22C9.18943 20.86 9.48354 20.76 11 21C11.9318 21.1473 13 21.7233 13 22C13 22.2747 13.6669 22.7265 14 23C14.4841 23.3973 14.501 23.4093 15 23C15.3432 22.7185 15.1034 22.2667 15 22C14.8765 21.6817 15.7629 21.1717 17 21C18.7462 20.758 18.9676 20.8691 20 22C20.8099 22.8873 21.1736 23.3148 21 24C20.6895 25.2235 20.565 25.2927 23 25C24.9699 24.7632 25.9168 25.3637 26 24C26.0464 23.2313 25.9354 21.4392 26 21C26.0965 20.3387 25.9972 20.9273 25 21C24.1336 21.0635 22.8943 20.8573 22 20C20.815 18.8643 20.6096 18.6647 21 17C21.2394 15.979 21.7315 14.8982 22 15C22.2527 15.0962 22.7121 15.343 23 15C23.4429 14.4721 23.952 13.8094 23 13C22.3811 12.4745 21.3198 11.879 21 12C20.5615 12.1665 20.1344 12.2792 21 13L23 14H21C19.1714 12.9522 19.5652 12.4722 19 14C18.5668 15.17 18.2959 15.72 18 15C17.8195 14.5608 17.8894 13.4796 18 13C18.1607 12.3016 17.2573 11.6345 16 11C14.5485 10.2681 11.3662 7.98711 11 7C10.7662 6.36908 7.28479 3.76868 5 3C2.7031 2.22693 3 2.4765 3 3ZM13 6C12.5252 6.49994 12 6.75282 12 7C12 7.83816 13.4255 7.74273 14 7C14.4724 6.38865 14.6932 6.53879 15 7C15.3674 7.55185 16.0428 7.60057 16 7C15.9875 6.82869 15.623 6.48597 15 6L14 5L13 6ZM2 12L0 14L3 17C5.30295 19.2777 5.60675 19.3889 6 19C6.39284 18.6115 5.90406 17.9103 4 16L2 14L4 12C5.10384 11.0069 5.14454 10.3726 5 10C4.63663 9.064 4.34171 9.65522 2 12ZM23 10C22.6524 10.4145 23.5978 10.6387 25 12L26 14L24 16C22.4722 17.527 21.7347 18.7376 22 19C22.4482 19.4432 28.0747 14.7871 28 14C27.9762 13.748 27.1664 12.0474 26 11C24.295 9.46942 23.3605 9.57034 23 10ZM6 13C5.10127 13.9456 5.35764 14.3643 6 15C6 15.6106 6.63105 15.6237 6 15C6 14.6358 6.53206 13.3242 7 13C7.46834 12.6754 8.14817 12.2372 8 12C7.59343 11.3491 7.04973 11.8947 6 13ZM12 16C12.4514 17.2347 11.8978 17.1993 13 17C13.6714 16.879 14.6786 17.7991 15 18C15.4627 18.2891 14.9423 17.5979 14 18C13.3455 18.2791 13.0735 18.9533 13 19C12.9265 19.0463 12.7521 19.542 13 20C13.3658 20.6764 13.5035 21 13 21C12.6556 21 13 20.4313 13 20C13 19.2078 11.3114 16.7095 10 15C9.02334 13.7266 8.9975 13.1027 10 14C10.4413 14.3949 11.725 15.2477 12 16ZM9 22C8.84173 22.2532 9.40158 23.4195 11 25L14 28L17 25C18.856 23.1236 20.2511 22.2484 20 22C19.7489 21.7516 18.5568 22.4762 17 24L14 26L12 24C9.53878 21.5913 9.44371 21.2896 9 22Z" fill="#11E5B3"/>
</svg>
