<svg width="136" height="29" viewBox="0 0 136 29" fill="none" xmlns="http://www.w3.org/2000/svg">
<g clip-path="url(#clip0_122_121)">
<path d="M136 28L136 22L135 21L135 15L135 8L136 7L136 1L135 -4.45272e-08L132 -1.78109e-07L132 3L133 4L133 15L133 25L132 26L132 29L135 29L136 28Z" fill="#11E5B3"/>
<path d="M-4.29001e-08 1L-3.003e-07 7L1 8L0.999999 15L0.999999 21L-9.43801e-07 22L-1.2012e-06 28L0.999999 29L4 29L4 26L3 25L3 15L3 4L4 3L4 0L1 -1.33582e-07L-4.29001e-08 1Z" fill="#11E5B3"/>
<path d="M6 2.99999C21.2356 3 20.7644 26 36 26C51.2356 26 51.7644 3 67 3C82.2356 3 81.7644 26 97 26C112.236 26 112.764 3 128 3" stroke="#11E5B3" stroke-width="0.906296" stroke-miterlimit="10"/>
<path d="M6 26C21.2356 26 20.7644 3 36 3C51.2356 3 51.7644 26 67 26C82.2356 26 81.7644 3 97 3C112.236 3 112.764 26 128 26" stroke="#11E5B3" stroke-width="0.906296" stroke-miterlimit="10"/>
<path d="M127 3L127 26" stroke="#11E5B3" stroke-width="0.906296" stroke-miterlimit="10"/>
<path d="M125 3L125 25" stroke="#11E5B3" stroke-width="0.906296" stroke-miterlimit="10"/>
<path d="M121 5L121 24" stroke="#11E5B3" stroke-width="0.906296" stroke-miterlimit="10"/>
<path d="M118 7L118 21" stroke="#11E5B3" stroke-width="0.906296" stroke-miterlimit="10"/>
<path d="M115 12L115 19" stroke="#11E5B3" stroke-width="0.906296" stroke-miterlimit="10"/>
<path d="M112 13L112 16" stroke="#11E5B3" stroke-width="0.906296" stroke-miterlimit="10"/>
<path d="M108 8L108 19" stroke="#11E5B3" stroke-width="0.906296" stroke-miterlimit="10"/>
<path d="M106 5L106 23" stroke="#11E5B3" stroke-width="0.906296" stroke-miterlimit="10"/>
<path d="M103 4L103 25" stroke="#11E5B3" stroke-width="0.906296" stroke-miterlimit="10"/>
<path d="M99 3L99 26" stroke="#11E5B3" stroke-width="0.906296" stroke-miterlimit="10"/>
<path d="M96 3L96 26" stroke="#11E5B3" stroke-width="0.906296" stroke-miterlimit="10"/>
<path d="M93 4L93 25" stroke="#11E5B3" stroke-width="0.906296" stroke-miterlimit="10"/>
<path d="M90 5L90 23" stroke="#11E5B3" stroke-width="0.906296" stroke-miterlimit="10"/>
<path d="M86 8L86 20" stroke="#11E5B3" stroke-width="0.906296" stroke-miterlimit="10"/>
<path d="M84 13L84 16" stroke="#11E5B3" stroke-width="0.906296" stroke-miterlimit="10"/>
<path d="M81 12L81 17" stroke="#11E5B3" stroke-width="0.906296" stroke-miterlimit="10"/>
<path d="M77 7L77 20" stroke="#11E5B3" stroke-width="0.906296" stroke-miterlimit="10"/>
<path d="M74 5L74 24" stroke="#11E5B3" stroke-width="0.906296" stroke-miterlimit="10"/>
<path d="M71 4L71 26" stroke="#11E5B3" stroke-width="0.906296" stroke-miterlimit="10"/>
<path d="M68 3L68 26" stroke="#11E5B3" stroke-width="0.906296" stroke-miterlimit="10"/>
<path d="M64 3L64 26" stroke="#11E5B3" stroke-width="0.906296" stroke-miterlimit="10"/>
<path d="M62 4L62 25" stroke="#11E5B3" stroke-width="0.906296" stroke-miterlimit="10"/>
<path d="M59 6L59 22" stroke="#11E5B3" stroke-width="0.906296" stroke-miterlimit="10"/>
<path d="M55 10L55 20" stroke="#11E5B3" stroke-width="0.906296" stroke-miterlimit="10"/>
<path d="M52 14L52 15" stroke="#11E5B3" stroke-width="0.906296" stroke-miterlimit="10"/>
<path d="M49 11L49 19" stroke="#11E5B3" stroke-width="0.906296" stroke-miterlimit="10"/>
<path d="M46 7L46 22" stroke="#11E5B3" stroke-width="0.906296" stroke-miterlimit="10"/>
<path d="M42 4L42 24" stroke="#11E5B3" stroke-width="0.906296" stroke-miterlimit="10"/>
<path d="M40 3L40 25" stroke="#11E5B3" stroke-width="0.906296" stroke-miterlimit="10"/>
<path d="M37 3L37 26" stroke="#11E5B3" stroke-width="0.906296" stroke-miterlimit="10"/>
<path d="M33 3L33 25" stroke="#11E5B3" stroke-width="0.906296" stroke-miterlimit="10"/>
<path d="M30 5L30 25" stroke="#11E5B3" stroke-width="0.906296" stroke-miterlimit="10"/>
<path d="M27 7L27 22" stroke="#11E5B3" stroke-width="0.906296" stroke-miterlimit="10"/>
<path d="M24 11L24 19" stroke="#11E5B3" stroke-width="0.906296" stroke-miterlimit="10"/>
<path d="M20 14L20 15" stroke="#11E5B3" stroke-width="0.906296" stroke-miterlimit="10"/>
<path d="M18 10L18 20" stroke="#11E5B3" stroke-width="0.906296" stroke-miterlimit="10"/>
<path d="M15 6L15 22" stroke="#11E5B3" stroke-width="0.906296" stroke-miterlimit="10"/>
<path d="M11 4L11 25" stroke="#11E5B3" stroke-width="0.906296" stroke-miterlimit="10"/>
<path d="M8 3L8 26" stroke="#11E5B3" stroke-width="0.906296" stroke-miterlimit="10"/>
<circle cx="40.5" cy="9.5" r="1.5" fill="#11E5B3"/>
<circle cx="62.5" cy="19.5" r="1.5" fill="#11E5B3"/>
<circle cx="44.5" cy="16.5" r="1.5" fill="#11E5B3"/>
<circle cx="93.5" cy="9.5" r="1.5" fill="#11E5B3"/>
</g>
<defs>
<clipPath id="clip0_122_121">
<rect width="29" height="136" fill="white" transform="translate(136) rotate(90)"/>
</clipPath>
</defs>
</svg>
