<svg width="50" height="36" viewBox="0 0 50 36" fill="none" xmlns="http://www.w3.org/2000/svg">
<path d="M44.1849 6.42064L44.1863 6.41876L48.0568 1H41H31.5352L25.8321 9.5547L25.8081 9.59063L25.7811 9.62436C23.9699 11.8904 22.2804 14.0403 21.0156 15.6708C20.3831 16.4863 19.8582 17.1702 19.478 17.6729C19.3171 17.8856 19.1835 18.0641 19.0793 18.2054C19.1083 18.2663 19.1435 18.337 19.186 18.4181C19.4149 18.8554 19.7909 19.4788 20.3074 20.2629C21.3362 21.825 22.876 23.9554 24.7858 26.3815L24.7894 26.3861L31.4891 35H41H48.1315L47.1837 33.5783C46.7334 32.9801 46.0222 32.0912 45.1789 31.0372C44.8393 30.6127 44.4782 30.1615 44.1042 29.6917C42.8019 28.0559 41.3579 26.2146 40.1874 24.5829L40.1774 24.5689L40.1679 24.5547L36.1679 18.5547L35.846 18.0718L36.1056 17.5528L37.1056 15.5528L37.149 15.4658L37.2084 15.3889C37.4101 15.1276 37.7654 14.6909 38.2284 14.1214C39.6418 12.3835 42.06 9.4101 44.1849 6.42064ZM18.1961 8.40529L18.196 8.40528L18.2 8.4L20 6H16.0711L9.53347 6.93394L5.78087 11.6247L5.78091 11.6247L5.77478 11.6322C4.53347 13.1534 3.30273 14.7902 2.38179 16.0907C1.92072 16.7417 1.54319 17.3002 1.28289 17.7128C1.21429 17.8215 1.15597 17.9168 1.10762 17.9985C1.11938 18.0169 1.13184 18.0361 1.14503 18.0563C1.32825 18.3369 1.60434 18.7219 1.95593 19.1885C2.65609 20.1175 3.61684 21.3188 4.63627 22.553C6.6944 25.0447 8.90099 27.5606 9.66655 28.2545C9.66405 28.2522 9.6628 28.251 9.66297 28.2508C9.66434 28.2488 9.76158 28.3134 10.0478 28.4052C10.3481 28.5015 10.7722 28.6017 11.3274 28.6918C12.4353 28.8715 13.9978 29 16 29H20L18.2 26.6L18.2 26.6L18.196 26.5946C17.3644 25.4703 16.5719 24.2492 15.8849 23.1734C15.7729 22.998 15.6643 22.8274 15.5591 22.6621C15.0286 21.8289 14.5854 21.1328 14.2377 20.652L12.2929 18.7071L11.5858 18L12.2929 17.2929L14.2355 15.3503C14.5573 14.8923 14.9807 14.07 15.5183 13.0259C15.62 12.8283 15.7258 12.6228 15.8358 12.4104C16.5178 11.0929 17.3277 9.57922 18.1961 8.40529ZM0.954762 18.2785C0.949039 18.2922 0.951366 18.2892 0.95723 18.2729C0.956074 18.2754 0.955265 18.2773 0.954762 18.2785Z" stroke="#11E5B3" stroke-width="2"/>
</svg>
