<svg width="50" height="36" viewBox="0 0 50 36" fill="none" xmlns="http://www.w3.org/2000/svg">
<path d="M5.81507 6.42064L5.81373 6.41876L1.94319 1H9H18.4648L24.1679 9.5547L24.1919 9.59063L24.2189 9.62436C26.0301 11.8904 27.7196 14.0403 28.9844 15.6708C29.6169 16.4863 30.1418 17.1702 30.522 17.6729C30.6829 17.8856 30.8165 18.0641 30.9207 18.2054C30.8917 18.2663 30.8565 18.337 30.814 18.4181C30.5851 18.8554 30.2091 19.4788 29.6926 20.2629C28.6638 21.825 27.124 23.9554 25.2142 26.3815L25.2106 26.3861L18.5109 35H9H1.86852L2.81631 33.5783C3.26658 32.9801 3.97781 32.0912 4.8211 31.0372C5.16072 30.6127 5.52176 30.1615 5.89579 29.6917C7.19811 28.0559 8.64207 26.2146 9.81257 24.5829L9.82255 24.5689L9.83205 24.5547L13.8321 18.5547L14.154 18.0718L13.8944 17.5528L12.8944 15.5528L12.851 15.4658L12.7916 15.3889C12.5899 15.1276 12.2346 14.6909 11.7716 14.1214C10.3582 12.3835 7.94 9.4101 5.81507 6.42064ZM31.8039 8.40529L31.804 8.40528L31.8 8.4L30 6H33.9289L40.4665 6.93394L44.2191 11.6247L44.2191 11.6247L44.2252 11.6322C45.4665 13.1534 46.6973 14.7902 47.6182 16.0907C48.0793 16.7417 48.4568 17.3002 48.7171 17.7128C48.7857 17.8215 48.844 17.9168 48.8924 17.9985C48.8806 18.0169 48.8682 18.0361 48.855 18.0563C48.6718 18.3369 48.3957 18.7219 48.0441 19.1885C47.3439 20.1175 46.3832 21.3188 45.3637 22.553C43.3056 25.0447 41.099 27.5606 40.3335 28.2545C40.336 28.2522 40.3372 28.251 40.337 28.2508C40.3357 28.2488 40.2384 28.3134 39.9522 28.4052C39.6519 28.5015 39.2278 28.6017 38.6726 28.6918C37.5647 28.8715 36.0022 29 34 29H30L31.8 26.6L31.8 26.6L31.804 26.5946C32.6356 25.4703 33.4281 24.2492 34.1151 23.1734C34.2271 22.998 34.3357 22.8274 34.4409 22.6621C34.9714 21.8289 35.4146 21.1328 35.7623 20.652L37.7071 18.7071L38.4142 18L37.7071 17.2929L35.7645 15.3503C35.4427 14.8923 35.0193 14.07 34.4817 13.0259C34.38 12.8283 34.2742 12.6228 34.1642 12.4104C33.4822 11.0929 32.6723 9.57922 31.8039 8.40529ZM49.0452 18.2785C49.051 18.2922 49.0486 18.2892 49.0428 18.2729C49.0439 18.2754 49.0447 18.2773 49.0452 18.2785Z" stroke="#11E5B3" stroke-width="2"/>
</svg>
